<?xml version="1.0" encoding="UTF-8" standalone="yes"?>
<!DOCTYPE svg PUBLIC "-//W3C//DTD SVG 1.0//EN" "http://www.w3.org/TR/2001/REC-SVG-20010904/DTD/svg10.dtd">
<svg height="285" style="background-color:white" width="285" xmlns="http://www.w3.org/2000/svg" xmlns:svg="http://www.w3.org/2000/svg" xmlns:xlink="http://www.w3.org/1999/xlink">
	<path d="m 153.23783,101.89757 3.46743,0.78296 m -37.66561,105.77542 c 1.45184,3.43059 2.65628,7.08796 4.80837,9.87665 0.41871,0.95019 0.56227,1.90038 0.67321,2.85057 m -19.01393,-28.7832 c 2.33811,2.40904 9.28872,23.52332 12.62266,35.41941 6.25284,22.3112 9.74669,43.01542 9.74669,43.01542 M 90.700962,111.07687 c 0.45577,9.37507 -1.775583,22.09845 -0.768911,34.26529 -0.05007,3.64449 0.675199,12.23052 1.98983,20.68958 1.314631,8.45907 1.739917,15.40542 6.565683,19.92776 1.357013,2.13537 5.486096,9.34865 12.470046,5.53187 M 83.961166,80.18236 c 1.036217,-0.658938 1.919403,-1.062828 3.782922,-3.100604 m -6.70425,-20.378227 c -1.65144,1.193436 -3.974879,1.755731 -6.491843,2.05575 m 21.821952,8.857989 c -2.064003,-4.237565 -3.71178,-9.515697 -6.28725,-12.474595 -0.699869,-2.645442 -1.9988,-4.392289 -3.257724,-6.199147 0,0 -3.948821,-9.512527 -4.874622,-11.962946 C 80.31154,33.630024 76.21614,26.412732 74.976959,24.569829 70.198985,17.464051 63.39844,24.290196 62.582809,27.018056 c -0.632946,2.116873 -0.468561,10.444427 0.153014,13.312235 2.263711,10.444263 6.027657,13.209501 8.360096,18.989936 1.381298,7.822431 6.079935,15.327423 9.240162,21.654953 2.798184,6.885525 5.899028,14.983113 8.275263,18.022908 m 11.433076,14.369532 c -1.604252,1.1001 -2.667901,1.04034 -4.397139,1.08901 m 9.171039,-43.726812 c 0,0 -4.68091,-2.513825 -7.283995,-2.93173 -2.094993,-0.336335 -4.172023,-0.694477 -6.04195,0.308263 -1.179313,0.632401 -2.161967,1.739736 -2.712712,2.959322 -0.857838,1.899621 -1.31892,8.44304 -1.356356,12.700424 -0.05297,6.024356 0.673974,12.05001 1.602966,18.002543 0.636571,4.07884 1.026837,9.06618 2.774365,11.77564 0.777193,1.205 5.110088,4.58656 7.953178,6.35021 2.572074,1.59553 5.804314,5.57806 5.804314,5.57806 m 5.09065,-13.68755 c 1.61801,-0.48283 4.5569,-1.14841 6.05299,-2.78731 m 4.74309,-44.360219 c 0,0 -6.53341,-2.543734 -9.38584,-1.856217 -2.72903,0.657775 -4.182,3.168237 -5.90894,5.381366 -0.80409,1.030468 -1.35142,2.301145 -1.58276,3.587577 -0.41784,2.32347 0.10278,4.708897 0.10552,7.069637 0.01,8.596158 -1.92573,17.184093 -1.16069,25.746146 0.24144,2.70207 0.37629,5.6688 1.89931,7.91377 1.88459,2.77794 5.57473,3.75002 8.23032,5.80343 2.36917,1.83193 4.22348,4.3804 6.8586,5.80344 0.8715,0.47064 2.84896,0.84413 2.84896,0.84413 0.893,1.64517 2.10586,2.01088 3.26761,2.58102 m 22.63706,-39.198792 c -0.0291,2.163519 0.7162,4.311013 3.26406,2.720427 m 10.92772,-4.9329 0,0 c -10.94135,2.988177 -9.61565,3.629577 -13.17651,8.500786 m -3.60069,-23.484196 c 0,0 3.5799,17.132248 2.32138,19.52064 -0.3887,0.737671 -1.39322,1.024629 -2.21586,1.160687 -1.16197,0.192181 -3.49107,-0.544404 -3.49107,-0.544404 m -2.57268,-1.995776 c 3.36917,2.645589 9.14742,6.654177 7.60597,9.283752 3.36427,2.713536 3.78188,10.609496 3.16188,13.308116 M 128.83923,97.856103 c 0.93496,-0.92218 2.37749,-2.821841 4.52728,-2.291082 m 48.2836,-17.617673 C 170.67724,69.455365 162.60298,66.789217 160.14078,65.644734 152.42862,61.131611 143.55301,55.611732 135.25461,53.73612 c -2.98296,-0.674212 -6.86913,-0.481191 -9.26167,1.423649 -2.66444,2.121315 -4.96314,9.070346 -4.82458,12.180109 0.5126,11.504437 1.59332,22.547255 2.68911,32.743932 0.33365,3.10472 0.42076,3.27338 1.10728,4.74549 0.55713,1.19467 0.55016,1.79032 2.37275,3.16367 3.99298,3.00876 8.26603,5.59742 11.47137,9.78764 m -19.23862,15.54749 c 0,0 -2.34585,3.08377 -2.68446,4.92151 m 3.13188,24.71939 c 0.37137,1.57204 1.0977,3.07296 1.90148,4.47409 m 9.84302,11.63266 c 6.59997,6.47763 20.14466,3.59437 20.02158,3.02001 m 63.48354,-99.108631 c -5.00819,2.459091 -10.16259,4.735417 -14.19002,8.420451 -0.0887,0.67267 -0.24153,1.358159 0.078,1.949179 0.37607,1.8615 2.45438,1.655985 3.90788,2.20917 m 0.0742,170.531011 c -1.10583,-2.05727 -9.73143,-17.2006 -10.23918,-19.07564 -0.54809,-2.02402 -4.09864,-7.40512 -6.98609,-12.69045 -2.6321,-4.81792 -5.63144,-9.44862 -7.94152,-14.42897 -1.36547,-3.99389 -5.83577,-12.45333 -8.38894,-21.92307 -0.96076,-3.56348 -3.02001,-15.49733 -3.02001,-18.56751 0,-10.15126 2.77376,-14.85111 4.39612,-17.53024 1.15572,-1.90852 2.76522,-4.37829 3.99281,-6.29433 1.79383,-2.79983 3.25136,-5.80525 5.03336,-8.61263 1.55184,-2.44478 3.75671,-4.50745 4.92151,-7.15856 2.04109,-4.64556 2.78652,-10.69101 2.89796,-14.54081 0.14136,-4.88346 1.15694,-9.83038 2.80651,-14.42897 0.9244,-2.577 2.35065,-4.99375 4.02669,-7.15855 2.43757,-3.1484 8.61264,-8.277085 8.61264,-8.277085 l 2.1016,-1.187253 c 0,0 9.36288,-6.186701 13.44588,-9.99799 0.90764,-0.847242 2.02241,-1.634641 2.46076,-2.796311 0.68448,-1.813928 0.88715,-4.09243 0,-5.816326 -1.32084,-2.566649 -4.35789,-3.983337 -7.04671,-5.03336 -3.36002,-1.312133 -7.13871,-1.582469 -10.73783,-1.342229 -5.69375,0.380055 -11.30035,2.212937 -16.55416,4.440212 -3.04949,1.292789 -5.66771,3.27377 -8.50078,5.067245 -2.52552,2.180944 -4.51219,4.949694 -6.37559,7.717818 -2.41274,3.584191 -6.15189,11.408948 -6.15189,11.408948 -7.32129,2.535701 -9.30783,7.320741 -12.19191,10.961541 l -4.60274,3.29109 -5.35213,3.97932 c -1.63707,1.82134 -4.47129,1.47305 -6.93485,1.67778 -0.27135,1.81656 -1.02265,3.15317 -2.1252,4.13854 l -10.06672,5.59262 c 0,0 -1.71834,2.04341 -2.87428,2.64038 -1.33136,0.68756 -4.39612,0.9389 -4.39612,0.9389 -3.47345,-0.0375 -5.17473,-2.20162 -7.71782,-3.35557 -3.22646,-1.26128 -6.27346,-2.74688 -10.29043,-3.02002 -2.278115,-0.0683 -4.928358,0.48369 -7.829666,1.45408" style="fill:none;stroke:#000000;stroke-width:1.79999995;stroke-linecap:round;stroke-miterlimit:4;stroke-opacity:1;stroke-dasharray:none;display:inline" />
	<!-- 
	Generated using the Perl SVG Module V2.50
	by Ronan Oger
	Info: http://www.roitsystems.com/
 -->
</svg>