<?xml version="1.0" encoding="UTF-8" standalone="yes"?>
<!DOCTYPE svg PUBLIC "-//W3C//DTD SVG 1.0//EN" "http://www.w3.org/TR/2001/REC-SVG-20010904/DTD/svg10.dtd">
<svg height="285" style="background-color:white" width="285" xmlns="http://www.w3.org/2000/svg" xmlns:svg="http://www.w3.org/2000/svg" xmlns:xlink="http://www.w3.org/1999/xlink">
	<path d="m 126.62239,235.91706 c 3.87877,7.48075 6.09334,13.96626 7.51699,17.28811 1.42365,3.32185 3.63821,10.28191 5.53641,13.76194 m 33.69303,-52.8332 c 2.37275,2.21457 5.22004,3.16367 7.11824,3.7964 1.8982,0.63273 5.6946,1.10728 7.43462,1.26547 M 81.306179,87.903698 c 1.740016,0 3.005482,-0.632733 4.112764,-1.107283 m 4.112764,20.089265 c 2.056382,-0.47454 3.163665,-1.26546 4.270947,-2.21456 M 100.0042,98.002946 C 96.959369,91.490373 95.732035,89.513002 95.459295,88.83115 95.186554,88.149298 93.686479,85.353704 93.277368,84.808222 92.868257,84.262741 92.527331,83.376333 92.25459,81.876258 91.981849,80.376184 90.8227,74.239515 89.595366,71.853032 c -1.227333,-2.386482 -3.40926,-5.659372 -5.11389,-7.159447 -1.704631,-1.500074 -6.54578,-3.477446 -8.864078,-1.295519 -2.318297,2.181927 -4.568409,5.932113 -4.022927,10.841449 0.545482,4.909335 1.772815,6.954891 2.318297,9.545929 0.545482,2.591038 0.340926,4.636594 1.500075,8.045855 1.159148,3.40926 2.045556,4.091113 2.863779,8.250411 0.818222,4.1593 2.659223,9.81867 4.159297,13.29612 1.500075,3.47744 1.909186,7.70492 3.13652,10.84144 1.227334,3.13652 4.091113,12.27334 5.523002,19.16005 1.43189,6.8867 3.597296,16.64941 4.561581,23.49583 0.964284,6.84642 3.567852,18.89998 5.399988,24.29997 1.83215,5.39999 4.05,10.79999 7.13571,17.35712 3.08571,6.55713 3.27857,8.09999 6.94285,14.27141 3.66428,6.17142 7.03928,10.22142 9.44999,12.05356 2.41071,1.83214 6.07499,1.73571 7.42499,1.63928 m 3.27856,0 c 1.15715,0 5.88214,0 8.67856,-1.35 2.79643,-1.35 6.65357,-5.20713 7.52142,-6.07499 0.86786,-0.86786 3.08571,-2.98928 4.14643,-3.95357 m -53.90319,-94.21651 c 4.6366,-1.90918 7.65743,-4.4162 8.68021,-5.16624 0.78655,-0.24863 1.37126,-0.44077 2.22943,-0.83405 m 79.4435,6.77764 c -2.89285,0.38571 -6.36428,1.15714 -8.67856,1.34999 m 0.48214,-25.07139 c 3.08571,2.69999 5.97857,4.72499 7.32856,5.88213 1.35,1.15714 2.98929,2.98928 3.47143,3.375 m -24.10711,-15.9107 c 2.89285,0.675 4.33928,1.54286 5.49642,2.41072 m 6.36428,-26.710685 c 2.12142,0.867856 3.56785,1.446427 5.49642,1.735712 m -2.89286,-32.399959 c 2.12143,0.482142 4.82143,0.674999 6.26785,0.385714 m 9.72858,118.102678 c 0.87855,-9.0421 -2.20716,-24.66351 -2.20716,-29.29208 0,-4.62856 1.15714,-5.59285 0.57857,-9.8357 -0.57857,-4.24285 -1.92857,-7.32856 -1.92857,-12.92141 0,-5.59285 0.86786,-13.114269 0.86786,-17.164264 0,-4.049995 -0.86786,-7.907133 -0.86786,-10.414273 0,-2.50714 1.73571,-7.328562 1.54286,-13.499983 -0.19286,-6.17142 -0.57857,-12.149984 -0.38571,-16.77855 0.19285,-4.628565 1.35,-10.221415 1.35,-14.849981 0,-4.628565 0.28928,-10.221416 -1e-5,-14.078554 -0.27557,-3.674207 -1.34999,-6.364277 -2.50714,-7.521419 -1.15714,-1.157141 -5.01428,-2.699996 -7.1357,-2.699996 -2.12143,0 -5.59285,1.542855 -7.71428,5.207136 -2.12142,3.664281 -3.47143,5.496422 -4.43571,11.1857 -0.62312,3.676391 -0.38571,11.957128 -1.06071,15.235695 -0.73788,3.584031 -2.60357,12.921412 -2.41071,20.249974 0.19286,7.328563 -1.35,11.378557 -1.35,13.307126 0,1.928569 -1.92857,6.557134 -2.31428,9.257132 -0.23482,1.643754 -1.81178,6.959939 -3.32205,11.163247 -1.12411,3.12858 -3.33998,3.63249 -5.80954,3.41885 M 141.0025,148.0045 c 2.25463,-2.51144 2.37719,-4.31553 0.74765,-8.11826 m -15.33477,10.37978 c 7.63674,-0.27274 7.77311,0.54549 11.72786,-1.09096 3.95474,-1.63644 5.57448,-2.33941 9.14446,-2.79813 m -37.91862,7.98021 c 4.22748,-1.09097 10.22778,-2.3183 12.95519,-2.86378 m -12.68245,-34.22898 c 2.59104,4.22749 4.77296,5.45482 6.27304,8.04586 1.50007,2.59104 6.68216,15.54622 8.86408,18.54637 2.18192,3.00015 4.5404,6.29406 11.67083,5.94298 m -10.8543,-50.982763 c -3.40757,-5.690009 -4.08943,-5.96275 -6.81683,-8.008306 -2.72741,-2.045556 -8.59134,-2.863779 -11.18238,-1.636445 -2.59104,1.227334 -6.54578,2.591038 -7.364,6.954891 -0.818223,4.363853 0.54548,8.454963 0.95459,9.545933 0.40911,1.09096 1.63645,4.77296 2.45467,6.27304 0.81822,1.50007 4.34212,10.23546 6.79679,13.78109 m 54.42619,-7.89669 c -1.08362,-6.56626 -5.58385,-24.15804 -7.22029,-26.476337 -1.63645,-2.318298 -4.09112,-5.727558 -9.13682,-7.909485 -5.04571,-2.181927 -12.0006,-0.818222 -14.86438,1.090963 -2.86378,1.909186 -4.36385,3.409261 -5.45481,6.40941 -1.09097,3.00015 -1.46335,5.460663 -0.32257,8.798815 m 47.37036,67.568624 c -5.45482,-2.3183 -8.04585,-3.81837 -10.77326,-6.27304 -2.72741,-2.45467 -5.18208,-3.54563 -6.81852,-5.72756 m -7.77312,-1.09096 1.36371,-6.95489 c -0.27274,4.50022 -0.54549,5.45481 -0.54549,5.45481 0,0 -1.90918,2.59104 -3.27289,5.59119 -1.3637,3.00015 -5.31844,11.31874 -6.13666,14.18252 -0.81823,2.86378 -6.27304,12.81882 -7.09127,15.54623 -0.81822,2.72741 -1.22733,5.18208 -1.22733,6.40941 m 12.80177,-54.50614 c 0.83527,2.95812 5.47187,7.32198 5.47187,7.32198 0,0 1.50007,0.68185 2.59103,0.68185 m -18.14718,-42.29612 c 0.9514,2.58678 0.93417,5.22365 -0.1225,6.95961 -1.05668,1.73597 -2.86812,6.03814 -4.07574,6.86838 -1.20763,0.83025 -3.84931,0.83025 -5.13242,0.52834 -1.2831,-0.30191 -4.30217,-2.33978 -4.30217,-2.33978 m -2.79264,-2.71716 c -1.66049,-1.81144 -3.69836,-5.20789 -2.79264,-7.54767 m 38.49312,8.30244 c -1.20763,1.43406 -2.33978,2.41525 -3.2455,2.86811 m 67.17426,151.78364 c -3.77383,-3.47193 -5.73623,-12.52913 -9.81197,-20.52966 -4.07574,-8.00053 -4.98146,-17.96345 -6.64195,-24.3035 -1.66049,-6.34004 -2.86811,-9.51006 -1.81144,-13.73676 1.05668,-4.22669 2.56621,-16.30296 2.2643,-26.41684 -0.3019,-10.11388 0.15096,-16.00106 -2.41525,-22.0392 -2.56621,-6.03813 -7.09481,-16.45392 -9.81197,-19.47298 -2.71716,-3.01907 -8.90625,-8.45339 -10.11388,-10.26483 -1.20763,-1.81145 -3.97334,-5.8676 -7.32124,-8.30244 -1.66048,-1.20763 -5.20789,-3.92479 -7.62314,-6.64195 -2.41526,-2.71716 -4.37765,-4.83051 -5.58528,-5.28337 -1.20763,-0.45286 -8.90625,-3.62288 -12.07627,-4.67955 -3.17002,-1.05668 -7.54767,-2.71717 -11.17055,-4.52861 -3.62289,-1.81144 -10.86865,-5.736226 -12.83104,-5.736226 -1.9624,0 -5.28337,0.150954 -7.84958,4.075746 -2.56621,3.92478 -2.86811,7.54767 -2.2643,10.26483 0.60381,2.71716 1.81144,6.49099 4.07574,8.75529 2.2643,2.2643 4.75504,5.5098 6.34004,6.491 1.55086,0.96007 7.92506,8.75529 11.0196,9.81197 1.76701,0.60337 4.45312,2.18882 8.37791,2.18882 3.92479,0 5.96266,-0.45286 7.17029,-2.79263" style="fill:none;stroke:#000000;stroke-width:1.79999995;stroke-linecap:round;stroke-miterlimit:4;stroke-opacity:1;stroke-dasharray:none;display:inline" />
	<!-- 
	Generated using the Perl SVG Module V2.50
	by Ronan Oger
	Info: http://www.roitsystems.com/
 -->
</svg>