<?xml version="1.0" encoding="UTF-8" standalone="yes"?>
<!DOCTYPE svg PUBLIC "-//W3C//DTD SVG 1.0//EN" "http://www.w3.org/TR/2001/REC-SVG-20010904/DTD/svg10.dtd">
<svg height="285" style="background-color:white" width="285" xmlns="http://www.w3.org/2000/svg" xmlns:svg="http://www.w3.org/2000/svg" xmlns:xlink="http://www.w3.org/1999/xlink">
	<path d="m 87.021193,143.61852 c 10.766436,-3.65897 21.756227,-0.82774 30.871267,0.44741 M 89.481947,119.90581 c 4.996074,0.70558 9.992149,-0.54182 14.988223,-0.89482 M 91.718995,93.508634 c 2.135735,0.07457 4.651028,-0.07457 7.382261,0 M 91.49529,65.992936 c 3.433158,0.398703 5.012297,0.1794 6.711146,0 M 112.88958,220.76501 c 6.16907,0.73183 10.80187,-0.99436 15.17039,-3.14341 M 108.59298,90.043062 c 0.72321,-9.391901 -2.7719,-21.320651 -2.88454,-25.207238 -1.32596,-6.121428 0.0954,-13.004053 -0.82002,-19.200183 -0.68511,-4.637137 -1.13567,-9.803406 -4.06653,-13.461616 -1.845138,-2.303047 -2.858151,-5.351254 -7.712379,-5.440343 -3.904393,-0.07166 -4.512357,1.703765 -6.029683,3.19674 -2.803835,2.758837 -3.402069,7.200783 -4.066529,11.077788 -0.639601,3.731956 -0.09542,7.57921 0.140225,11.358239 0.207839,3.333189 1.110591,6.616343 1.121801,9.955986 0.01341,3.995233 -1.31416,7.924225 -1.262026,11.91914 0.08367,6.411764 2.067699,12.674572 2.524053,19.070622 0.306059,4.289587 0.116854,8.600283 0.140225,12.900713 0.03074,5.65567 0.512048,11.33473 0,16.96725 -0.25814,2.83954 -0.803495,5.65969 -1.542477,8.41351 -1.080567,4.02673 -4.040126,8.97762 -3.933415,12.05225 0.08494,2.44745 2.053289,4.08783 2.671388,6.45747 1.327667,5.08996 0.683907,10.5155 1.542477,15.70522 1.606264,9.70924 3.859735,19.33306 6.730808,28.74616 0.962406,3.15535 2.139591,6.25213 3.505629,9.25486 1.229646,2.70292 2.436723,5.46833 4.206755,7.85261 1.457878,1.9638 3.892308,3.11413 5.188328,5.18833 1.59788,2.55731 1.75009,5.78499 2.94473,8.55373 1.27557,2.95631 3.36321,5.53655 4.48721,8.55374 1.49342,6.094 2.31651,11.41097 3.64585,15.56499 1.38711,7.51472 3.08496,22.71648 3.08496,22.71648 m 50.10094,-57.91034 c -2.60783,-0.56297 -5.00722,-1.59494 -7.08677,-3.34653 M 129.4891,176.40231 c 0.39296,9.70116 0.32324,17.75584 8.38835,28.90933 m 11.31107,-74.95665 c 3.49048,-2.09554 5.69159,-3.66553 8.02942,-6.9876 m 2.52204,-38.808764 c 0,0 -6.53593,-4.320187 -10.28529,-5.042185 -4.63064,-0.891703 -10.00467,-1.260971 -14.10703,1.064682 -1.60608,0.9105 -2.53562,2.800082 -3.19405,4.524897 -0.79464,2.081642 -0.76482,6.640578 -0.76482,6.640578 m 8.23046,18.909192 c 0.40205,6.6924 3.23654,10.95236 4.91128,16.37207 1.66725,4.97528 2.78538,10.40243 4.45263,17.7949 m -8.04593,-7.14808 c -3.50486,3.72897 -6.69268,4.60451 -9.8483,5.19032 m 1.93206,-50.173175 c 0,0 -5.76022,-3.494873 -8.98558,-4.258675 -3.84291,-0.910044 -8.09685,-1.51141 -11.84458,-0.26617 -2.45908,0.817068 -4.95012,2.479883 -6.12192,4.791067 -1.5862,3.12851 -1.21679,13.384733 -0.53234,16.768733 1.20022,5.93404 4.80976,11.12237 7.58586,16.50257 1.87718,3.63805 3.66727,7.37056 6.12192,10.64682 2.90195,3.87328 4.07236,8.38228 5.58957,12.77617 0.92713,2.68498 0.84756,5.71641 2.12937,8.25129 1.45442,2.87623 4.74883,3.12191 7.63289,2.95797 m 32.08798,-41.19229 c 0.002,3.40217 -0.80176,5.83636 0.82354,11.18596 m -35.76007,35.57186 1.88211,-4.51706 c 0,0 4.59147,-4.84878 6.21096,-7.71665 1.21991,-2.16029 6.83652,-7.08883 10.3516,-10.53981 4.18288,-4.1066 9.14964,-8.54155 12.98655,-11.85729 1.11727,-0.96551 4.32885,-0.94105 4.32885,-0.94105 0,0 6.02111,3.57203 8.4695,6.02275 1.68553,1.68713 4.14064,5.83454 4.14064,5.83454 m 17.3154,-45.076515 c 0.26315,3.336815 -2.54817,6.680005 -3.4819,8.657705 M 189.9048,90.672242 c 0,0 2.63062,3.154169 3.10548,5.081694 0.9599,3.89636 -0.78741,12.012794 -0.78741,12.012794 M 153.16251,93.815036 c 0,0 -0.72909,4.930239 -2.25571,6.743324 -0.70484,0.29042 -1.43616,0.76765 -2.05638,1.10728 -1.52892,-0.0944 -3.08674,-0.52646 -4.7455,-0.9491 -1.78086,-1.721956 -4.06838,-3.680277 -6.01096,-4.429131 m 69.28425,58.685981 c 0,0 2.16974,-6.68211 2.05638,-10.12373 -0.13854,-4.20604 -1.84926,-8.23784 -3.32184,-12.18011 -1.1058,-2.96036 -2.7728,-5.75943 -4.27095,-8.54189 -3.26237,-6.05907 -7.35759,-12.6112 -10.44009,-17.71652 -0.57814,-0.95752 -1.27844,-2.14125 -2.37275,-2.37275 -5.58117,-1.18069 -11.73331,-1.98363 -17.08379,-4.429134 -1.68938,-0.772155 -2.8716,-2.451916 -4.58731,-3.163664 -4.55655,-1.890251 -9.68804,-1.871322 -14.55286,-2.689115 -5.20657,-0.875243 -10.39989,-2.824603 -15.66014,-2.372748 -1.49515,0.128433 -3.11043,0.472248 -4.27095,1.423649 -0.98625,0.808535 -1.64973,2.070973 -1.8982,3.321847 -0.48675,2.450441 -0.1891,5.210635 0.9491,7.434615 1.51263,2.95559 4.54795,4.91007 7.27643,6.80188 6.82116,4.72951 14.07534,9.98277 22.30384,11.07282 1.33266,0.17654 2.81056,-0.085 3.95458,-0.79091 2.8454,-1.75583 6.16914,-7.90917 6.16914,-7.90917 m 34.0094,150.11589 c 0,0 -4.23038,-6.75637 -5.6946,-10.4401 -0.76529,-1.92535 -0.71125,-4.13087 -1.58183,-6.01096 -2.6723,-5.77105 -3.88872,-11.683 -6.01096,-17.08379 -0.41718,-1.06165 -1.49402,-1.78063 -1.8982,-2.84729 -0.9588,-2.53033 -2.30775,-10.70684 -2.21457,-16.13469 0.0533,-3.10287 0.53067,-6.25475 1.58183,-9.17463 0.93836,-2.60653 2.58664,-4.01852 3.79669,-7.43447 1.21006,-3.41596 2.01243,-7.5198 3.46743,-11.18525 1.52609,-3.84454 3.88557,-7.30345 5.81632,-10.96154 1.57248,-2.97929 3.40252,-5.83836 4.69781,-8.94819 1.14254,-2.74309 2.06549,-5.59444 2.68445,-8.50079 0.54717,-2.56926 0.90166,-5.2028 0.89482,-7.82967 -0.018,-6.90912 -1.34602,-13.80528 -2.69802,-20.58085 -0.59129,-2.96321 -1.56029,-5.84015 -2.46075,-8.72448 -0.82221,-2.63367 -1.77068,-5.15487 -2.44719,-7.82968 -1.3346,-5.27682 -0.8892,-10.968361 -2.68446,-16.106746 -0.50644,-1.449531 -1.28521,-2.821851 -2.23705,-4.026687 -2.19217,-2.774852 -4.76496,-5.271912 -7.82967,-7.158556 -3.88347,-3.490887 -8.45872,-6.054395 -13.35677,-7.657917 -3.3428,-1.094364 -6.90938,-1.992514 -10.35594,-1.290278 -1.40548,0.286365 -2.7388,1.05165 -3.80299,2.013344 -1.39633,1.261843 -2.63165,2.883477 -3.13187,4.697802 -0.79377,2.879039 -0.40205,5.98536 -0.0271,8.948195 0.42039,3.322448 1.75281,6.369356 1.75281,6.369356" style="fill:none;stroke:#000000;stroke-width:1.79999995;stroke-linecap:round;stroke-miterlimit:4;stroke-opacity:1;stroke-dasharray:none;display:inline" />
	<!-- 
	Generated using the Perl SVG Module V2.50
	by Ronan Oger
	Info: http://www.roitsystems.com/
 -->
</svg>