<?xml version="1.0" encoding="UTF-8" standalone="yes"?>
<!DOCTYPE svg PUBLIC "-//W3C//DTD SVG 1.0//EN" "http://www.w3.org/TR/2001/REC-SVG-20010904/DTD/svg10.dtd">
<svg height="285" style="background-color:white" width="285" xmlns="http://www.w3.org/2000/svg" xmlns:svg="http://www.w3.org/2000/svg" xmlns:xlink="http://www.w3.org/1999/xlink">
	<path d="m 170.36334,145.48239 c 0.0921,6.87798 -4.27167,14.87036 -4.90368,18.82381 -0.71362,4.46391 -5.85278,11.89151 -5.85278,15.18559 0,2.94719 1.42365,7.27643 2.05638,8.38371 m 3.95458,-84.46985 c 7.11825,3.48003 8.4628,3.48003 13.36648,8.5419 4.90368,5.06186 6.40642,3.40094 10.12373,7.27643 3.71731,3.87549 6.09005,4.19185 9.96554,8.77917 M 161.60114,71.093258 c 1.01122,6.133072 7.33855,12.776767 12.00495,13.88405 4.66641,1.107282 5.93187,2.135473 8.77917,2.372748 m 1.42365,-24.676583 c -2.13547,2.214565 -6.80188,4.824588 -8.85826,5.536413 -2.05638,0.711824 -8.05587,1.431937 -9.9598,-0.628589 m -57.1651,75.086483 c 1.10236,-0.89999 1.95805,-1.9042 3.69113,-3.02002 3.52355,-2.03623 7.10676,-5.94509 8.38893,-7.99745 0.96993,-0.30254 4.18881,-3.28834 3.57928,-3.35557 M 48.152473,94.850863 c 1.230376,-0.782967 2.181122,-1.677786 2.684458,-2.740384 M 68.00628,106.48352 c 1.342229,-1.0626 2.572606,-2.51668 3.24372,-4.41817 m 113.66619,124.09049 c 4.35004,5.53641 6.32733,8.77917 8.14644,10.75646 1.81911,1.97729 7.5928,7.83007 8.22553,9.57008 0.63273,1.74002 4.35004,6.16915 5.06186,8.30462 0.71183,2.13548 2.68912,3.63822 2.8473,4.58732 m -50.26614,-44.03105 c 2.25753,3.37796 5.26301,7.33254 6.2912,10.65439 1.02819,3.32184 5.22005,9.49099 6.09006,11.62646 0.87,2.13548 2.29365,5.61551 3.32184,6.72279 1.0282,1.10728 2.76821,4.50822 3.63822,7.90916 0.87001,3.40094 3.87549,7.35552 5.37823,10.59828 1.50274,3.24275 3.24275,6.09005 5.22004,8.14643 M 99.507867,98.849993 C 96.412678,100.40017 89.215341,96.445592 86.763501,95.971042 84.311661,95.496492 75.295217,93.123744 71.736094,89.48553 68.176971,85.847316 63.906024,84.265483 61.296001,83.711842 58.685978,83.158201 56.392321,80.706361 50.302267,79.519986 44.212212,78.333612 32.994362,76.007008 28.552073,76.909963 c -4.730448,0.961527 -8.30462,4.745497 -9.016444,8.30462 -0.711825,3.559122 1.519689,7.353885 7.592795,9.570085 4.37736,1.597388 10.090662,2.961546 13.999215,2.92639 6.060926,4.090542 11.202974,9.559412 19.614721,10.123722 1.407476,1.2391 3.156506,2.47821 5.615504,3.71731 -0.0305,0.0762 6.220634,6.63361 9.965544,7.5928 3.73627,0.95697 7.513703,5.22004 7.513703,5.22004 0,0 1.660924,3.08457 2.45184,4.27095 0.790916,1.18637 5.615505,8.4628 6.722787,9.72827 1.107283,1.26546 3.638215,5.6155 5.37823,7.5137 1.740012,1.8982 8.067342,12.49648 8.700082,15.42287 0.63273,2.92639 1.34455,3.63821 4.82458,8.93735 3.48004,5.29914 7.90917,13.76194 10.20282,15.89741 2.29366,2.13548 5.45732,6.56461 8.93735,10.12373 3.48004,3.55912 8.70008,7.43461 10.59828,9.88645 1.8982,2.45184 6.16915,3.08457 7.83007,4.03367 1.66092,0.9491 7.83007,6.16915 12.97103,5.45732 M 101.48344,93.55913 c 0.86111,3.75647 -0.64163,3.519195 -1.590731,4.784661 -0.9491,1.265465 -3.005482,3.796399 -3.559123,5.378229 M 109.3837,93.756477 c 1.02819,-0.870008 2.13548,-1.660924 3.00548,-2.135474 M 87.791692,69.079893 c 0.341804,-0.633827 2.080945,-2.039032 4.42913,-3.084573 l 2.135474,-1.97729 M 57.499604,55.634319 c 0.474549,2.135473 1.740015,4.42913 5.457321,5.694596 3.717306,1.265466 6.801879,3.084573 8.225528,4.270947 1.423649,1.186375 3.084573,2.768207 5.37823,4.033673 2.293656,1.265465 3.242756,0.949099 5.378229,2.768206 2.135474,1.819107 3.163665,5.061863 4.824589,6.406421 1.660924,1.344557 3.400939,3.875489 5.457321,4.745497 2.056382,0.870007 3.796398,4.824588 5.457321,6.090054 1.660924,1.265466 3.559127,4.90368 7.118247,5.615505 M 93.53927,47.524396 c -7.013044,-2.725628 -14.510627,-8.04794 -17.927687,-9.052957 -2.689115,-0.790916 -4.587313,-3.40094 -8.700077,-3.321848 -4.112764,0.07909 -14.078308,0.395458 -14.078308,0.395458 0,0 -11.072826,-1.265466 -14.948315,0.711824 -3.875489,1.977291 -7.276428,4.112764 -7.197337,7.83007 0.07909,3.717306 1.819107,5.931871 7.909162,8.779169 6.090054,2.847299 10.202818,3.40094 13.603757,3.321848 3.40094,-0.07909 7.513704,-1.50274 7.513704,-1.50274 2.588511,-0.797756 5.107221,-1.605483 6.248237,-2.610024 0,0 1.660924,-1.581832 2.92639,-1.50274 m 59.046274,23.250273 c -4.63124,-0.155522 -6.88028,-0.743634 -8.26946,-2.132812 -1.34456,-1.344558 -2.04683,-3.966277 -6.09005,-6.406421 -1.32321,-2.642846 -7.90649,-5.296467 -9.33281,-7.988253 -1.00141,-1.556348 -1.87333,-3.114032 -4.903683,-4.90368 l -4.214133,-3.617231 m 39.488996,23.469226 c -3.00548,-0.07909 -3.71731,0.158183 -5.45732,1.028191 -1.74002,0.870008 -4.82459,1.740015 -5.61551,3.796397 m 0.90355,-26.100719 c -0.34991,6.881457 2.10193,9.807847 2.73467,10.756946 0.63273,0.9491 2.53093,3.40094 3.16366,5.061864 0.63273,1.660923 0,3.875489 4.11276,3.400939 M 118.63772,44.313634 c 0.15788,2.857882 0.31607,4.756081 1.8979,5.626089 1.58183,0.870007 5.53641,1.344557 8.30462,1.344557 2.76821,0 8.95443,-0.146415 13.53321,-1.734131 m 11.27291,-9.878912 c -2.3441,-4.996196 -5.74504,-9.10896 -8.43416,-11.877166 -2.68911,-2.768207 -6.24823,-4.824588 -9.57008,-5.773688 -3.32185,-0.949099 -6.32733,-1.898199 -8.77917,-2.056383 -2.45184,-0.158183 -8.85826,-2.530931 -11.94283,-2.530931 -3.08458,0 -6.16915,0.790916 -7.98826,3.242756 -1.8191,2.45184 -5.06186,5.615505 -6.5646,6.643696 -1.502742,1.028191 -3.875491,4.270947 -5.29914,6.88097 -1.423649,2.610024 -5.150047,6.012096 -3.638214,9.807361 1.269929,3.187995 3.205259,5.561051 7.596958,5.838434 7.764766,0.490429 12.041096,-1.488396 12.966856,-1.488396 6.21008,0 7.67189,-6.564604 7.67189,-6.564604 2.1743,-2.337385 4.76664,-3.219889 5.61551,-7.592795 0.59577,-0.364169 1.11745,-1.247042 1.50274,-3.084572 m 99.2197,114.361481 c -0.90883,-8.69508 1.14756,-7.98326 -2.25338,-12.57057 -3.40094,-4.58732 -3.87549,-8.22553 -5.77369,-10.75646 -1.8982,-2.53094 -3.40094,-3.32185 -4.35004,-5.93187 -0.9491,-2.61003 -3.55912,-8.38372 -4.50822,-10.36101 -0.9491,-1.97729 -4.90368,-12.891929 -6.01096,-16.530143 -1.10728,-3.638215 -1.58183,-9.728269 -3.71731,-14.078308 -2.13547,-4.350039 -3.24275,-9.490994 -6.88097,-13.999216 -3.63821,-4.508222 -1.8191,-10.044634 -5.69459,-15.106498 -3.87549,-5.061863 -7.75099,-6.327329 -9.96555,-6.406421 -2.21457,-0.07909 -3.48003,0.553642 -4.03367,0.47455 -0.55364,-0.07909 -6.80188,-0.316366 -8.22553,-0.07909 -1.42365,0.237274 -7.03915,-0.870008 -9.09554,-0.790917 -2.05638,0.07909 -5.93187,1.502741 -8.30462,5.140955 -2.37274,3.638215 -3.08457,3.005482 -4.50822,4.666406 -1.42365,1.660923 -1.58183,4.350039 -3.32184,6.169146 -1.74002,1.819107 -6.01096,8.067344 -5.06186,11.863742 0.9491,3.796397 2.68729,7.115066 9.57008,7.118245 12.95517,0.006 15.44076,-2.230721 17.63743,-3.163665 2.59352,-1.101486 6.11566,-7.527085 5.6155,-8.620986 3.01735,-2.121957 3.99831,-5.43181 4.50822,-9.016444 m 60.21464,130.400634 c -0.73774,3.97602 -1.21229,8.24697 -0.26319,10.14516 0.9491,1.8982 4.74549,7.43462 5.37823,9.491 0.63273,2.05638 5.06186,6.64369 6.32733,8.85826 1.26546,2.21456 4.27094,4.27095 4.74549,6.01096 0.47455,1.74002 4.58732,7.43461 5.85278,9.01644 1.26547,1.58184 5.53641,6.48552 6.80188,9.01645 1.26547,2.53093 4.11276,6.80188 6.01096,8.85826 1.8982,2.05638 3.95458,6.32733 4.42913,7.27643 m -58.13233,-54.25685 c 4.98277,-4.42913 7.27643,-8.30462 9.96554,-9.25372 2.68912,-0.9491 3.71731,-1.66092 4.7455,-2.8473 1.02819,-1.18637 10.76612,-4.08054 10.44492,-10.46353 m -60.74719,24.14638 c 3.95458,3.24276 10.44009,5.06187 17.9538,5.06187 7.5137,0 13.84103,-3.00548 13.84103,-3.00548 m 1.02819,-44.76586 c -0.87001,0.9491 -1.50274,3.32185 -1.42365,4.03367 m -3.7964,-16.29287 c 1.42365,2.8473 5.85278,5.93187 6.6437,5.93187 0.79092,0 7.98825,-4.90368 13.2083,-5.29914 5.22005,-0.39545 16.60924,-1.10728 23.96476,0.71183 7.35552,1.81911 18.34925,8.14644 20.32654,10.91464 1.97729,2.76821 1.58184,2.53093 1.58184,3.95458 0,1.42365 1.10728,6.6437 -9.41191,11.07283 -10.51918,4.42913 -15.0274,4.27095 -15.0274,4.27095 0,0 -1.67108,-0.52863 -2.68912,-0.55365 -1.00013,-0.0246 -3.00548,0.39546 -3.00548,0.39546 0,0 -6.16915,-1.74001 -11.62647,-1.42365" style="fill:none;stroke:#000000;stroke-width:1.79999995;stroke-linecap:round;stroke-miterlimit:4;stroke-opacity:1;stroke-dasharray:none;display:inline" />
	<!-- 
	Generated using the Perl SVG Module V2.50
	by Ronan Oger
	Info: http://www.roitsystems.com/
 -->
</svg>