<?xml version="1.0" encoding="UTF-8" standalone="yes"?>
<!DOCTYPE svg PUBLIC "-//W3C//DTD SVG 1.0//EN" "http://www.w3.org/TR/2001/REC-SVG-20010904/DTD/svg10.dtd">
<svg height="285" style="background-color:white" width="285" xmlns="http://www.w3.org/2000/svg" xmlns:svg="http://www.w3.org/2000/svg" xmlns:xlink="http://www.w3.org/1999/xlink">
	<path d="m 174.60657,189.65576 c 6.19686,6.76163 7.14596,8.0271 10.78417,13.08896 3.63822,5.06186 5.22005,4.42913 6.6437,10.44009 1.42365,6.01097 3.95458,8.38372 4.58731,10.28191 0.63274,1.8982 2.05638,7.75098 3.32185,10.4401 1.26547,2.68911 4.90368,11.70556 5.53641,14.71104 0.63274,3.00548 2.68912,10.28191 3.7964,14.0783 1.10728,3.7964 2.8473,9.96555 3.63822,11.3892 m -102.02819,-111.361 c 0,2.21457 -0.31636,4.42913 -0.47455,5.53642 m 27.45585,-63.36207 c 1.29177,2.07008 1.23968,5.14804 0.85895,8.47249 m 0.9491,-6.01097 -0.9491,6.01097 m -1.10728,-8.70008 c 0.79091,0.63273 2.05638,2.68911 2.05638,2.68911 l 1.34456,-0.15818 m 4.50822,-3.16366 c -2.21457,2.68911 -2.8473,5.06186 -2.8473,6.32733 0,1.26546 0.9491,3.95458 0.9491,5.37823 m 8.85826,-21.987473 c -0.63273,1.581832 -1.58183,4.587314 -1.58183,4.587314 l -1.10728,2.056379 m -13.92013,22.6202 c -2.8473,6.32733 -3.32184,9.33281 -3.48003,14.86923 M 63.1942,151.57245 c -0.9491,1.66092 -1.423649,3.24275 -1.423649,4.19185 0,0.9491 -0.07909,2.61003 0.474549,4.11277 m 8.110081,-11.00148 c 6.151883,-0.33556 10.514128,0.78297 11.856358,1.90149 1.342229,1.11852 2.269809,3.20302 2.157956,3.87413 -0.111852,0.67111 -0.354747,2.94325 -0.354747,3.72621 0,0.78297 0.433839,2.13082 0.321987,3.47305 -0.111853,1.34223 -0.458542,2.78104 -1.230377,3.35557 -3.579724,2.66462 -13.693455,0.60998 -13.693455,0.60998 M 145.52002,126.2814 c -1.56594,4.13854 -3.80299,7.38226 -5.25707,9.28375 -1.45408,1.90149 -4.58595,3.91483 -7.15855,5.03336 -2.57261,1.11852 -3.35558,2.12519 -8.27708,2.12519 -1.67779,0 -6.84518,-0.54671 -9.1719,-0.55926 -3.45947,-0.0187 -8.51133,0.55926 -10.51413,0 -2.01259,-0.56199 -9.824786,-3.57927 -15.323786,-3.57927 -5.033359,0 -17.617481,3.0863 -20.6927,4.80965 -2.796311,0.67111 -9.765492,4.24675 -10.402277,10.40227 -0.723656,6.99528 3.709778,9.65167 8.72449,11.40895 8.500785,2.79631 15.211931,2.90817 15.211931,2.90817 7.516263,4.18216 11.330149,3.62323 13.676782,3.77549 2.15355,0.13973 5.62469,1.21486 10.93075,1.92898 8.2027,2.87476 15.03133,3.90643 24.27198,4.80966 l 5.59262,2.01334 c 4.82966,2.19976 8.43097,4.39953 16.88972,6.59929 -0.61244,0.40829 10.48968,3.40915 13.8697,3.02002 3.11925,-0.35911 6.37559,0.89482 16.10675,-4.58595 9.73116,-5.48077 7.38226,-3.02002 8.83635,-6.48744 m -78.52041,-54.13658 c 0.11185,4.25039 2.46075,11.07339 4.02668,13.8697 m -40.676245,-7.75739 c 1.863455,1.71736 7.008667,2.50033 8.686454,2.50033 1.677786,0 9.843014,-1.34223 9.843014,-1.34223 l 2.796311,0.11185 c 0,0 7.046706,2.46075 8.724486,2.68446 1.67779,0.2237 8.51722,-1.20044 8.51722,-1.20044 M 95.186421,118.33987 c 0.894819,1.78964 1.342229,3.57928 1.342229,4.80966 M 115.91403,109.129 c -13.0308,-0.2237 -25.649116,1.04565 -27.21505,1.49306 -1.565934,0.44741 -5.592622,1.78964 -7.158556,1.67778 -1.565934,-0.11185 -8.165228,0.22371 -10.066719,1.00667 -1.901491,0.78297 -7.82967,1.78964 -9.283752,1.9015 -1.454082,0.11185 -11.408948,0.55926 -13.534144,1.90149 -2.125197,1.34223 -4.138541,2.5726 -4.026688,4.6978 0.111852,2.1252 0.782967,4.36224 3.131868,5.92818 2.348901,1.56593 8.612637,5.59262 13.422292,5.81633 4.809655,0.2237 14.988226,0.33555 17.113422,-3.13187 2.125197,-3.46743 0.223705,-8.50079 0.223705,-8.50079 m 30.423862,-15.9949 c 0.34534,2.01153 7.3312,4.02186 7.93204,1.18931 M 107.49842,63.365239 C 101.67386,62.861067 96.52865,63.308477 94.850864,62.749215 93.173077,62.189953 87.580455,61.071428 85.007849,61.183281 82.435243,61.295133 76.507064,60.064756 74.717426,59.952904 72.927787,59.841052 63.234741,60.79191 56.261774,59.841052 53.80102,59.505495 44.517268,58.051413 41.497253,60.064756 c -3.020016,2.013344 -4.250393,3.131869 -4.026688,6.711146 0.223705,3.579278 2.460754,5.03336 5.480769,7.717818 3.020016,2.684459 7.158556,5.816327 14.428964,6.487441 7.270409,0.671115 15.771193,0.223705 15.771193,0.223705 6.128495,4.099056 14.55774,4.579206 22.370487,6.151884 0.853037,0.785216 1.402605,1.722167 2.796311,2.237049 0,0 3.243721,6.263736 3.914831,8.053375 0.67112,1.789639 6.71115,8.277076 6.71115,8.277076 m 6.09595,10.29043 c 0.19349,-5.65487 0.99965,-8.68662 2.29298,-9.50746 m 0.78297,-9.843013 c 0.67111,-1.454082 2.1252,-3.243721 2.1252,-3.243721 m 2.04103,-6.816225 c 0.30787,-2.635305 2.56303,-2.24573 2.56303,-2.24573 M 112.9781,69.961566 c 2.17929,7.818405 3.79758,9.22713 4.23567,10.349337 1.54718,3.963211 3.84067,5.835984 5.06187,6.485512 0.2994,0.341815 0.30814,1.119614 0.31636,1.898199 M 99.101256,85.119702 c 0.932104,-1.868245 1.864214,-3.536458 2.796314,-4.809655 0.39293,-0.976083 0.11919,-1.729944 0.11185,-2.572606 M 75.052983,69.348508 c 0,1.230377 -0.782967,3.579278 -1.230377,4.809655 M 101.78789,56.898805 c 0.89264,2.718542 9.39041,9.646572 9.39041,9.646572 M 84.224882,48.432103 c 1.118525,-0.671114 1.118525,-1.118524 1.118525,-1.118524 M 57.992166,36.006725 c -5.533375,1.351987 -8.665243,4.819413 -8.888948,6.720904 -0.223705,1.901491 -1.230377,5.592622 6.375589,8.165228 8.442872,2.855678 13.03683,1.927707 14.876374,1.789639 3.776245,-0.283428 10.10381,-2.417727 13.869701,-4.250393 3.434515,3.691227 6.636094,5.133083 11.412945,6.673792 m 29.014993,27.891469 c 0.3982,3.688272 1.06932,6.708287 2.7471,8.833484 1.67779,2.125196 3.91484,4.585949 3.91484,4.585949 l 0.33555,2.237049 M 109.57227,58.27884 c -1.73181,2.858884 1.43482,7.807236 2.83943,10.622259 1.61049,3.227643 2.5726,3.355573 3.57927,5.592621 1.00668,2.237049 6.37559,7.717818 7.49412,8.27708 1.11852,0.559263 6.93485,0.223705 10.29042,-1.118524 m 5.81633,-2.796311 c 1.49167,-1.041509 2.79631,-1.677786 3.91483,-3.802982 M 86.267434,45.871659 c 0.496067,2.723506 1.761533,3.751697 3.501548,5.017163 1.740016,1.265466 3.400939,4.112764 10.281908,5.615505 6.88097,1.50274 6.48551,2.056382 8.4628,1.97729 1.97729,-0.07909 8.5419,-3.400939 8.5419,-3.400939 l 1.66092,-1.977291 M 91.495291,40.826138 c 1.230376,-1.789639 1.901491,-3.69113 2.125196,-4.921507 m 152.908073,155.925449 8.5419,15.73923 c -3.87549,-7.67189 -6.53435,-12.66645 -9.834,-17.86758 -3.29965,-5.20114 -13.36637,-20.30122 -15.04415,-23.0416 -1.67779,-2.74039 -4.30632,-6.823 -8.72449,-13.25452 -1.43657,-2.09121 -3.54148,-8.27934 -6.67967,-9.87654 -2.67349,-1.36069 -7.36198,-7.6672 -10.37783,-11.15172 -4.46215,-5.15558 -14.42896,-17.39305 -16.38638,-20.52492 -1.05194,-1.68311 -4.01932,-5.61869 -5.00368,-7.76596 -0.81239,-1.77212 -3.87451,-4.00213 -4.39192,-4.985214 -1.11852,-2.1252 -6.71115,-10.737834 -9.39561,-12.080063 -2.88571,-1.442853 -3.80298,-3.467426 -5.25706,-5.704474 -1.45408,-2.237049 -13.19859,-13.086735 -13.19859,-13.086735 l -4.6978,-5.816326 c -0.0738,-0.620611 -3.874,-6.447192 -5.81633,-7.829671 -0.74785,-2.459683 -4.77248,-5.816327 -5.92818,-6.599294 -1.83691,-2.615661 -3.74433,-5.687648 -6.48744,-7.214481 0,0 -6.01983,-8.978169 -11.29709,-10.34635 -3.02002,-0.782969 -6.75547,-0.578932 -7.71782,-0.89482 C 108.20376,29.322687 96.512594,25.786 93.061225,25.614207 89.81382,25.452566 85.455259,25.278649 81.316719,24.719387 79.847352,24.520824 77.797531,23.466431 75.318853,22.823195 70.816217,21.654726 65.094117,20.965046 63.867739,20.748627 c -1.901491,-0.335557 -6.375588,-0.44741 -8.388932,3.131868 -2.013344,3.579277 0.213557,9.832866 2.684458,12.303767 1.399274,1.399274 5.48077,4.865581 16.666013,8.221154 11.185243,3.355573 12.639325,0.782967 12.639325,0.782967" style="fill:none;stroke:#000000;stroke-width:1.79999995;stroke-linecap:round;stroke-miterlimit:4;stroke-opacity:1;stroke-dasharray:none;display:inline" />
	<!-- 
	Generated using the Perl SVG Module V2.50
	by Ronan Oger
	Info: http://www.roitsystems.com/
 -->
</svg>