<?xml version="1.0" encoding="UTF-8" standalone="no"?><!DOCTYPE svg PUBLIC "-//W3C//DTD SVG 1.1//EN" "http://www.w3.org/Graphics/SVG/1.1/DTD/svg11.dtd"><svg width="100%" height="100%" viewBox="0 0 285 285" version="1.1" xmlns="http://www.w3.org/2000/svg" xmlns:xlink="http://www.w3.org/1999/xlink" xml:space="preserve" xmlns:serif="http://www.serif.com/" style="fill-rule:evenodd;clip-rule:evenodd;stroke-linecap:round;"><path d="M139.676,107.36l-0.949,6.011c0.38,-3.324 0.433,-6.402 -0.859,-8.472c0.782,0.794 1.808,2.461 1.808,2.461Z" style="fill:#fff;"/><path d="M84.225,48.432c-3.766,1.833 -10.094,3.967 -13.87,4.25c-1.839,0.139 -6.433,1.067 -14.876,-1.789c-7.606,-2.573 -6.599,-6.264 -6.376,-8.165c0.224,-1.902 3.356,-5.369 8.889,-6.721c0.057,0.061 0.114,0.12 0.171,0.177c1.4,1.4 5.481,4.866 16.666,8.221c6.751,2.026 9.957,1.891 11.438,1.467c0.497,2.723 1.762,3.751 3.502,5.017c1.286,0.935 2.529,2.735 5.869,4.217c-4.777,-1.541 -7.979,-2.983 -11.413,-6.674Z" style="fill:#fff;"/><path d="M101.788,56.899c5.091,1.205 4.932,1.654 6.726,1.583c0.274,-0.011 0.637,-0.085 1.058,-0.203c-1.313,2.168 0.19,5.537 1.606,8.266c0,0 -1.712,-1.395 -3.68,-3.18c-2.416,-2.191 -5.218,-4.968 -5.71,-6.466Z" style="fill:#fff;"/><path d="M107.498,63.365c1.968,1.785 3.68,3.18 3.68,3.18c-1.416,-2.729 -2.919,-6.098 -1.606,-8.266c-0.421,0.118 -0.784,0.192 -1.058,0.203c-1.794,0.071 -1.635,-0.378 -6.726,-1.583c-0.521,-0.124 -1.098,-0.255 -1.737,-0.395c-1.795,-0.392 -3.235,-0.875 -4.413,-1.398c-3.34,-1.482 -4.583,-3.282 -5.869,-4.217c-1.74,-1.266 -3.005,-2.294 -3.502,-5.017c-1.481,0.424 -4.687,0.559 -11.438,-1.467c-11.185,-3.355 -15.266,-6.821 -16.666,-8.221c-0.057,-0.057 -0.114,-0.116 -0.171,-0.177c-2.4,-2.582 -4.48,-8.63 -2.513,-12.127c2.013,-3.579 6.487,-3.467 8.389,-3.131c1.226,0.216 6.948,0.906 11.451,2.074c2.479,0.643 4.528,1.698 5.998,1.896c4.138,0.56 8.497,0.734 11.744,0.895c3.452,0.172 15.143,3.709 15.771,3.915c0.963,0.316 4.698,0.112 7.718,0.895c5.277,1.368 11.297,10.346 11.297,10.346c2.743,1.527 4.651,4.599 6.488,7.215c1.155,0.783 5.18,4.139 5.928,6.599c1.942,1.382 5.742,7.209 5.816,7.83l4.698,5.816c0,-0 11.745,10.85 13.199,13.087c1.454,2.237 2.371,4.261 5.257,5.704c2.684,1.342 8.277,9.955 9.395,12.08c0.518,0.983 3.58,3.213 4.392,4.985c0.985,2.148 3.952,6.083 5.004,7.766c1.957,3.132 11.924,15.37 16.386,20.525c3.016,3.485 7.705,9.791 10.378,11.152c3.138,1.597 5.243,7.785 6.68,9.877c4.418,6.431 7.047,10.514 8.724,13.254c1.678,2.741 11.745,17.841 15.044,23.042c3.072,4.841 5.588,9.503 9.047,16.312l-41.765,67.181c-0.883,-2.263 -2.294,-7.25 -3.242,-10.499c-1.107,-3.796 -3.163,-11.073 -3.796,-14.078c-0.633,-3.006 -4.271,-12.022 -5.536,-14.711c-1.266,-2.689 -2.69,-8.542 -3.322,-10.44c-0.633,-1.898 -3.164,-4.271 -4.588,-10.282c-1.423,-6.011 -3.005,-5.378 -6.643,-10.44c-3.638,-5.062 -4.588,-6.328 -10.784,-13.089c-3.086,0.725 -4.924,0.399 -6.717,0.605c-3.38,0.389 -14.482,-2.612 -13.869,-3.02c-8.459,-2.2 -12.06,-4.4 -16.89,-6.599l-5.593,-2.014c-9.24,-0.903 -16.069,-1.935 -24.272,-4.809c-5.306,-0.714 -8.777,-1.79 -10.93,-1.929c-2.347,-0.153 -6.161,0.406 -13.677,-3.776c-0,0 -5.699,-0.095 -13.246,-2.298c-0.643,-0.188 -1.299,-0.391 -1.966,-0.61c-5.015,-1.757 -9.448,-4.414 -8.724,-11.409c0.636,-6.155 7.605,-9.731 10.402,-10.402c3.075,-1.724 15.659,-4.81 20.693,-4.81c5.499,0 13.311,3.017 15.323,3.579c2.003,0.56 7.055,-0.018 10.514,0c0.888,0.005 2.188,0.088 3.55,0.188c0.667,2.153 1.337,4.139 1.337,4.139l-2.581,-9.462c-0.145,0.014 -0.064,0.587 0.14,1.447c-0.588,-1.144 -1.258,-2.765 -1.87,-4.559c0,0 -6.839,1.424 -8.517,1.201c-1.678,-0.224 -8.725,-2.685 -8.725,-2.685l-2.796,-0.112c0,0 -8.165,1.343 -9.843,1.343c-1.678,-0 -6.823,-0.783 -8.686,-2.501c-3.038,2.706 -12.044,2.595 -16.481,2.389c-4.809,-0.224 -11.073,-4.251 -13.422,-5.817c-2.349,-1.565 -3.02,-3.802 -3.132,-5.928c-0.112,-2.125 1.902,-3.355 4.027,-4.697c2.125,-1.343 12.08,-1.79 13.534,-1.902c1.454,-0.112 7.382,-1.119 9.284,-1.901c1.901,-0.783 8.5,-1.119 10.066,-1.007c1.566,0.112 5.593,-1.231 7.159,-1.678c1.566,-0.447 14.184,-1.717 27.215,-1.493c0.127,-0.432 0.266,-0.809 0.417,-1.133c0.274,-0.216 0.466,-0.507 0.545,-0.882c-0.196,0.23 -0.378,0.523 -0.545,0.882c-1.792,1.417 -7.087,-0.327 -7.387,-2.072c0,0 -6.04,-6.487 -6.711,-8.277c-0.671,-1.789 -3.915,-8.053 -3.915,-8.053c-1.393,-0.515 -1.943,-1.452 -2.796,-2.237c-7.813,-1.573 -16.242,-2.053 -22.371,-6.152c0,-0 -8.5,0.447 -15.771,-0.224c-7.27,-0.671 -11.409,-3.803 -14.429,-6.487c-3.02,-2.685 -5.257,-4.139 -5.48,-7.718c-0.224,-3.579 1.006,-4.698 4.026,-6.711c3.02,-2.014 12.304,-0.56 14.765,-0.224c6.973,0.951 16.666,0 18.455,0.112c1.79,0.112 7.718,1.342 10.291,1.23c2.572,-0.112 8.165,1.007 9.843,1.566c1.678,0.559 6.823,0.112 12.647,0.616Zm5.48,6.597c2.179,7.818 3.798,9.227 4.236,10.349c1.547,3.963 3.84,5.836 5.062,6.485c0.002,0.003 0.004,0.006 0.006,0.008c0.308,-2.635 2.563,-2.245 2.563,-2.245c-0.071,-0.506 -0.134,-1.027 -0.192,-1.562c-0.538,-0.039 -0.946,-0.115 -1.168,-0.226c-1.118,-0.559 -6.487,-6.04 -7.494,-8.277c-0.883,-1.962 -1.731,-2.302 -3.013,-4.532Zm24.89,34.937c1.292,2.07 1.239,5.148 0.859,8.472l0.949,-6.011c-0,0 -1.026,-1.667 -1.808,-2.461Z" style="fill:#fff;"/><path d="M174.607,189.656c6.196,6.761 7.146,8.027 10.784,13.089c3.638,5.062 5.22,4.429 6.643,10.44c1.424,6.011 3.955,8.384 4.588,10.282c0.632,1.898 2.056,7.751 3.322,10.44c1.265,2.689 4.903,11.705 5.536,14.711c0.633,3.005 2.689,10.282 3.796,14.078c1.108,3.797 2.848,9.966 3.639,11.389m-102.029,-111.361c0,2.215 -0.316,4.429 -0.474,5.537m27.456,-63.362c1.292,2.07 1.239,5.148 0.859,8.472m0.949,-6.011l-0.949,6.011m-1.108,-8.7c0.791,0.633 2.057,2.689 2.057,2.689l1.344,-0.158m4.509,-3.164c-2.215,2.689 -2.848,5.062 -2.848,6.328c0,1.265 0.949,3.954 0.949,5.378m8.859,-21.988c-0.633,1.582 -1.582,4.588 -1.582,4.588l-1.107,2.056m-13.921,22.62c-2.847,6.328 -3.321,9.333 -3.48,14.87m-69.205,13.682c-0.949,1.661 -1.423,3.243 -1.423,4.192c-0,0.949 -0.08,2.61 0.474,4.113m8.11,-11.001c6.152,-0.336 10.514,0.783 11.857,1.901c1.342,1.119 2.269,3.203 2.157,3.874c-0.111,0.671 -0.354,2.943 -0.354,3.726c-0,0.783 0.434,2.131 0.322,3.473c-0.112,1.343 -0.459,2.782 -1.231,3.356c-3.579,2.665 -13.693,0.61 -13.693,0.61m76.107,-39.535c-1.566,4.139 -3.803,7.383 -5.257,9.284c-1.454,1.902 -4.586,3.915 -7.159,5.034c-2.572,1.118 -3.355,2.125 -8.277,2.125c-1.677,-0 -6.845,-0.547 -9.172,-0.56c-3.459,-0.018 -8.511,0.56 -10.514,0c-2.012,-0.562 -9.824,-3.579 -15.323,-3.579c-5.034,0 -17.618,3.086 -20.693,4.81c-2.797,0.671 -9.766,4.247 -10.402,10.402c-0.724,6.995 3.709,9.652 8.724,11.409c8.501,2.796 15.212,2.908 15.212,2.908c7.516,4.182 11.33,3.623 13.677,3.776c2.153,0.139 5.624,1.215 10.93,1.929c8.203,2.874 15.032,3.906 24.272,4.809l5.593,2.014c4.83,2.199 8.431,4.399 16.89,6.599c-0.613,0.408 10.489,3.409 13.87,3.02c3.119,-0.359 6.375,0.895 16.106,-4.586c9.731,-5.481 7.383,-3.02 8.837,-6.487m-78.521,-54.137c0.112,4.25 2.461,11.073 4.027,13.87m-40.676,-7.758c1.863,1.718 7.008,2.501 8.686,2.501c1.678,-0 9.843,-1.343 9.843,-1.343l2.796,0.112c0,0 7.047,2.461 8.725,2.685c1.678,0.223 8.517,-1.201 8.517,-1.201m-21.045,-15.577c0.895,1.79 1.343,3.579 1.343,4.81m19.385,-14.021c-13.031,-0.224 -25.649,1.046 -27.215,1.493c-1.566,0.447 -5.593,1.79 -7.159,1.678c-1.566,-0.112 -8.165,0.224 -10.066,1.007c-1.902,0.782 -7.83,1.789 -9.284,1.901c-1.454,0.112 -11.409,0.559 -13.534,1.901c-2.125,1.343 -4.139,2.573 -4.027,4.698c0.112,2.125 0.783,4.363 3.132,5.928c2.349,1.566 8.613,5.593 13.422,5.817c4.81,0.224 14.989,0.335 17.114,-3.132c2.125,-3.467 0.223,-8.501 0.223,-8.501m30.424,-15.995c0.346,2.012 7.331,4.022 7.932,1.19m-9.378,-43.749c-5.824,-0.504 -10.969,-0.057 -12.647,-0.616c-1.678,-0.559 -7.271,-1.678 -9.843,-1.566c-2.573,0.112 -8.501,-1.118 -10.291,-1.23c-1.789,-0.112 -11.482,0.839 -18.455,-0.112c-2.461,-0.336 -11.745,-1.79 -14.765,0.224c-3.02,2.013 -4.25,3.132 -4.026,6.711c0.223,3.579 2.46,5.033 5.48,7.718c3.02,2.684 7.159,5.816 14.429,6.487c7.271,0.671 15.771,0.224 15.771,0.224c6.129,4.099 14.558,4.579 22.371,6.152c0.853,0.785 1.403,1.722 2.796,2.237c0,-0 3.244,6.264 3.915,8.053c0.671,1.79 6.711,8.277 6.711,8.277m6.096,10.291c0.194,-5.655 1,-8.687 2.293,-9.508m0.783,-9.843c0.671,-1.454 2.125,-3.244 2.125,-3.244m2.041,-6.816c0.308,-2.635 2.563,-2.245 2.563,-2.245m-11.867,-14.597c2.179,7.818 3.798,9.227 4.236,10.349c1.547,3.963 3.84,5.836 5.062,6.485c0.299,0.342 0.308,1.12 0.316,1.899m-23.491,-3.575c0.932,-1.869 1.864,-3.537 2.797,-4.81c0.392,-0.976 0.119,-1.73 0.111,-2.573m-26.956,-8.388c-0,1.23 -0.783,3.579 -1.23,4.809m27.965,-17.259c0.893,2.718 9.39,9.646 9.39,9.646m-26.953,-18.113c1.118,-0.671 1.118,-1.118 1.118,-1.118m-27.351,-11.307c-5.533,1.352 -8.665,4.819 -8.889,6.721c-0.223,1.901 -1.23,5.592 6.376,8.165c8.443,2.856 13.037,1.928 14.876,1.789c3.776,-0.283 10.104,-2.417 13.87,-4.25c3.434,3.691 6.636,5.133 11.413,6.674m29.015,27.891c0.398,3.689 1.069,6.709 2.747,8.834c1.678,2.125 3.915,4.586 3.915,4.586l0.335,2.237m-22.078,-40.375c-1.732,2.859 1.435,7.807 2.84,10.622c1.61,3.228 2.572,3.356 3.579,5.593c1.007,2.237 6.376,7.718 7.494,8.277c1.119,0.559 6.935,0.224 10.291,-1.119m5.816,-2.796c1.492,-1.042 2.796,-1.678 3.915,-3.803m-57.24,-29.181c0.497,2.723 1.762,3.751 3.502,5.017c1.74,1.265 3.401,4.113 10.282,5.615c6.881,1.503 6.485,2.057 8.463,1.978c1.977,-0.079 8.542,-3.401 8.542,-3.401l1.661,-1.978m-27.222,-12.277c1.231,-1.79 1.902,-3.691 2.125,-4.921m152.909,155.925l8.541,15.739c-3.875,-7.672 -6.534,-12.666 -9.834,-17.867c-3.299,-5.201 -13.366,-20.301 -15.044,-23.042c-1.677,-2.74 -4.306,-6.823 -8.724,-13.254c-1.437,-2.092 -3.542,-8.28 -6.68,-9.877c-2.673,-1.361 -7.362,-7.667 -10.378,-11.152c-4.462,-5.155 -14.429,-17.393 -16.386,-20.525c-1.052,-1.683 -4.019,-5.618 -5.004,-7.766c-0.812,-1.772 -3.874,-4.002 -4.392,-4.985c-1.118,-2.125 -6.711,-10.738 -9.395,-12.08c-2.886,-1.443 -3.803,-3.467 -5.257,-5.704c-1.454,-2.237 -13.199,-13.087 -13.199,-13.087l-4.698,-5.816c-0.074,-0.621 -3.874,-6.448 -5.816,-7.83c-0.748,-2.46 -4.773,-5.816 -5.928,-6.599c-1.837,-2.616 -3.745,-5.688 -6.488,-7.215c0,0 -6.019,-8.978 -11.297,-10.346c-3.02,-0.783 -6.755,-0.579 -7.718,-0.895c-0.628,-0.206 -12.319,-3.743 -15.771,-3.915c-3.247,-0.161 -7.606,-0.335 -11.744,-0.895c-1.47,-0.198 -3.519,-1.253 -5.998,-1.896c-4.503,-1.168 -10.225,-1.858 -11.451,-2.074c-1.902,-0.336 -6.376,-0.448 -8.389,3.131c-2.014,3.58 0.213,9.833 2.684,12.304c1.4,1.4 5.481,4.866 16.666,8.221c11.186,3.356 12.64,0.783 12.64,0.783" style="fill:none;fill-rule:nonzero;stroke:#000;stroke-width:1.8px;"/><path d="M255.772,203.619l-44.62,71.773" style="fill:none;"/><path d="M117.961,137.029l2.581,9.462c-0,0 -3.173,-9.407 -2.581,-9.462Z" style="fill:none;"/></svg>