<?xml version="1.0" encoding="UTF-8" standalone="yes"?>
<!DOCTYPE svg PUBLIC "-//W3C//DTD SVG 1.0//EN" "http://www.w3.org/TR/2001/REC-SVG-20010904/DTD/svg10.dtd">
<svg height="285" style="background-color:white" width="285" xmlns="http://www.w3.org/2000/svg" xmlns:svg="http://www.w3.org/2000/svg" xmlns:xlink="http://www.w3.org/1999/xlink">
	<path d="m 98.237032,151.67724 c 0,0 3.935768,9.30166 5.989298,13.915 1.08903,2.44655 2.41506,4.79207 3.35743,7.29877 0.48218,1.28259 0.63061,2.68079 1.1678,3.94133 1.58057,3.70886 3.74132,7.16062 5.98499,10.51022 1.40838,2.1026 2.94796,4.13164 4.67121,5.98498 0.93832,1.00916 1.94188,1.9758 3.06548,2.77353 1.4914,1.05887 3.12173,1.94132 4.81718,2.62756 2.19948,0.89025 6.86084,1.89768 6.86084,1.89768 0,0 4.31352,3.5777 6.13096,5.69303 0.95866,1.11579 1.41798,2.63312 2.48158,3.64938 1.07402,1.02621 2.64096,1.40072 3.79535,2.33561 2.19318,1.77615 4.34391,3.73734 5.83901,6.13096 0.96244,1.54084 1.13821,3.45877 1.89768,5.10913 2.72272,5.91657 6.16565,12.12868 9.19644,18.24691 1.17848,2.379 4.73973,10.94207 6.94183,14.4111 2.03856,3.21139 5.17411,10.84261 5.17411,10.84261 m -55.47059,-92.25635 c 0,0 1.98209,3.60538 3.35743,5.10913 1.2155,1.32899 2.73748,2.35431 4.23328,3.35743 3.05775,2.05059 6.13917,4.24422 9.63437,5.40108 2.88776,0.95581 6.01251,1.32122 9.05047,1.16781 1.49705,-0.0756 4.37925,-1.02183 4.37925,-1.02183 m -32.26052,-42.33282 c -3.11415,0.57898 -5.49841,1.05398 -8.61255,1.31377 M 77.652155,116.35955 c 0,0 -2.589859,4.32737 -3.058802,6.7539 -0.212554,1.09985 -0.249067,2.3092 0.145975,3.35743 1.49953,3.97896 3.155891,8.05626 5.25511,11.82399 0.630599,1.13182 1.486668,2.12311 2.189628,3.21146 1.113826,1.72447 1.730749,3.83317 3.211456,5.25511 1.767482,1.69733 4.142699,2.67886 6.422911,3.57639 1.795456,0.70672 3.691209,1.43876 5.620047,1.38677 2.6696,-0.072 5.33631,-1.02596 7.6637,-2.33561 1.33645,-0.75203 2.67048,-1.7335 3.43042,-3.06548 0.45861,-0.80383 0.53912,-2.72353 0.53912,-2.72353 m -4.99137,-7.42175 c -0.73907,1.97067 -1.05065,3.94133 -3.06548,5.912 M 83.56786,99.612293 c 0,0 -2.840972,-0.06818 -4.097552,0.491647 -1.415894,0.63081 -2.691435,1.73946 -3.49961,3.06216 -1.149376,1.88112 -1.807372,4.22088 -1.603987,6.41595 0.118391,1.27775 1.033167,2.35033 1.603987,3.49961 1.69283,3.4083 3.536975,6.74037 5.395232,10.06138 1.978361,3.53565 3.159457,6.65261 5.103598,10.2072 1.126564,2.05975 2.788603,4.70762 4.228696,6.56177 1.351899,1.7406 2.820668,3.83593 4.95778,4.37451 0.725971,0.18295 9.427166,0.25495 16.862816,-1.28085 3.71783,-0.7679 4.34574,-1.57281 6.89609,-2.60183 2.55035,-1.02902 7.02315,-2.28216 7.33662,-2.48676 m -0.83559,-48.350633 c 0,0 -1.05377,2.458639 -1.82561,3.538276 -1.95927,2.74058 -4.27883,5.303649 -6.99922,7.290857 -0.81611,0.59616 -2.7222,1.33513 -2.7222,1.33513 m -8.44769,-15.71566 c 0,0 2.90651,3.75507 4.13276,5.816483 1.90435,3.201347 3.2688,6.212775 4.28583,9.796187 0.80353,2.83118 0.65606,3.37151 0.97798,5.8087 m -2.35556,1.38537 c 0,0 4.08626,-2.69703 6.42874,-2.90825 4.81892,-0.43452 9.52796,1.88606 14.08201,3.52051 1.72581,0.61939 4.96699,2.36381 4.96699,2.36381 m -32.36569,6.97317 c -0.19951,2.65161 -0.16331,5.22465 -1.53065,8.26553 m 19.40631,-58.348289 c 0,0 -14.87437,1.839586 -22.00842,4.010094 -5.749327,1.749212 -11.7881,3.503697 -16.531057,7.194071 -1.578705,1.22835 -3.077167,2.835717 -3.673568,4.745026 -1.14256,3.657777 -0.183732,7.731412 0.612261,11.479901 0.385779,1.816711 1.232635,3.508372 1.98985,5.204217 1.683959,3.77137 3.633555,7.42369 5.663418,11.02071 1.38483,2.45399 3.08867,4.72087 4.438895,7.19407 1.924628,3.52533 2.612526,7.79921 5.204221,10.86764 0.68507,0.81109 1.58439,1.53439 2.60211,1.83678 1.32144,0.39264 2.76574,0.0247 4.13277,-0.15306 5.75684,-0.74838 11.33475,-2.51644 16.99025,-3.82663 3.36172,-0.7788 10.07067,-2.3981 10.07067,-2.3981 M 115.06487,47.217275 c 2.54493,5.369866 5.76308,12.738641 11.49083,17.018512 m 11.20311,-8.833806 c 0,0 -3.64608,1.603259 -5.20422,2.869975 -1.72356,1.401183 -3.52851,2.994419 -4.91122,4.673932 -1.50891,1.832802 -3.03644,3.329166 -3.66044,5.619712 -1.02002,3.744223 -0.92891,7.780823 -0.4592,11.632967 0.44365,3.638462 1.11948,7.452727 3.06131,10.561509 1.1673,1.868799 4.89809,4.438895 4.89809,4.438895 M 97.463331,47.418062 c 0,0 2.742999,1.903722 4.325129,2.320501 2.17146,0.572025 4.53133,0.585315 6.73487,0.153065 2.51138,-0.492636 5.06259,-1.437869 7.04101,-3.061307 2.35237,-1.930288 4.10908,-4.661131 5.20422,-7.500202 0.42591,-1.104143 0.45919,-3.520503 0.45919,-3.520503 m 45.82677,29.244629 c 0,0 -2.77455,-3.487335 -4.34606,-5.060304 -2.04565,-2.047551 -4.73018,-3.438869 -6.58181,-5.663418 -0.90692,-1.089576 -1.2327,-2.586738 -2.14291,-3.673568 -0.85989,-1.026746 -2.25908,-1.529708 -3.06131,-2.602111 -0.60201,-0.804756 -0.67222,-1.915526 -1.22452,-2.755176 -0.99212,-1.508291 -2.39799,-2.702154 -3.67357,-3.979699 -3.97958,-3.985698 -7.93422,-8.045525 -12.39829,-11.479901 -1.43601,-1.104778 -2.92099,-2.207865 -4.59196,-2.908242 -2.89917,-1.215172 -6.04155,-2.05717 -9.18392,-2.142915 -1.76089,-0.04805 -3.44448,0.838828 -5.20423,0.918392 -3.63175,0.164204 -7.23746,-1.114142 -10.86764,-0.918392 -1.86847,0.100753 -3.64071,0.99533 -5.510348,1.071458 -1.384918,0.05639 -2.750981,-0.568065 -4.132764,-0.459196 -2.690036,0.211945 -5.319656,1.095227 -7.806333,2.142915 -2.233772,0.941134 -4.23517,2.365212 -6.275679,3.673568 -1.048566,0.672331 -2.221774,1.222749 -3.061307,2.142915 -0.831749,0.911635 -1.092069,2.230358 -1.836784,3.214372 -2.460327,3.250902 -6.427416,5.257191 -8.571659,8.724725 -0.908022,1.468396 -1.789177,3.174848 -1.683719,4.898091 0.135203,2.209295 1.158819,4.613529 2.908241,5.969548 2.016702,1.563193 4.949149,1.477835 7.500202,1.530654 3.203547,0.06633 6.419666,-0.614228 9.490052,-1.530654 2.516793,-0.751194 5.030479,-1.725276 7.194071,-3.214372 1.367085,-0.940898 2.405721,-2.291084 3.520503,-3.520503 1.241879,-1.369586 2.796482,-2.584706 3.520503,-4.28583 1.026061,-2.410786 1.015411,-5.188072 0.918392,-7.806332 -0.05966,-1.609924 -0.918392,-4.745026 -0.918392,-4.745026 m 83.011851,46.148313 c -2.61073,1.432863 -4.90213,1.907718 -7.10792,2.125752 -2.73536,3.283414 -6.26735,6.39612 -7.71782,9.954867 -0.0585,1.337952 0.39835,2.16054 0.94487,2.893469 1.31363,1.394914 2.99452,1.932879 4.59747,2.652712 m 1.23982,67.303103 c 0,0 0.49595,-6.70664 1.26547,-9.96554 0.73197,-3.09987 2.67714,-5.8687 3.16366,-9.01644 0.52376,-3.38869 0.14854,-6.88465 -0.31636,-10.28191 -0.92762,-6.77864 -3.42569,-13.25082 -4.90369,-19.93109 -0.70813,-3.20064 -1.82735,-6.37191 -1.89819,-9.64918 -0.053,-2.45282 0.50438,-4.898261 1.10728,-7.276425 0.34429,-1.358049 0.85227,-2.675381 1.42365,-3.954581 2.17449,-4.868192 4.58915,-9.673105 7.59279,-14.078308 1.01169,-1.483758 2.64025,-2.52537 3.48003,-4.112763 0.46063,-0.8707 0.73626,-1.86378 0.79092,-2.847299 0.0919,-1.653134 0.19377,-3.572636 -0.79092,-4.90368 -2.06159,-2.78674 -5.87145,-4.400089 -9.33281,-4.587313 -5.54635,-0.3 -10.72897,3.138106 -15.66014,5.694596 -1.31154,0.679948 -2.49909,1.590255 -3.63821,2.530932 -2.27134,1.875654 -4.48089,3.874 -6.32733,6.169146 -2.06353,2.564982 -3.80453,5.411578 -5.22005,8.383711 -1.39098,2.920599 -2.35951,6.041247 -3.16366,9.174627 -1.23688,4.819536 -1.42403,9.859997 -2.53093,14.711037 -0.34158,1.49698 -0.97097,2.92218 -1.26547,4.42913 -0.37637,1.92586 0.0622,4.01766 -0.63273,5.85278 -1.09838,2.90054 -3.24905,5.33879 -5.06186,7.43462 -0.87944,1.01673 -0.60909,2.86419 -1.10729,4.11276 -0.62348,1.56254 -1.73349,2.88637 -2.68911,4.27095 -2.13851,3.09844 -4.80771,5.88835 -6.80188,9.01644 -1.56097,2.44857 -2.87175,9.37605 -2.68912,14.39467 0.0441,1.21193 0,3.63822 0,3.63822 m 115.87081,68.65199 c 0,0 -3.08955,-2.875 -4.58595,-4.36225 -5.94737,-5.91104 -12.00225,-11.74476 -17.44898,-18.12009 -4.85826,-5.68653 -9.6222,-11.52175 -13.53415,-17.89639 -0.846,-1.37858 -1.34698,-2.9443 -2.12519,-4.36225 -2.12592,-3.87356 -4.95854,-7.3451 -6.93486,-11.29709 -1.94648,-3.89231 -3.62105,-7.95156 -4.80472,-12.13937 -1.32509,-4.68816 -2.33372,-9.52684 -2.53093,-14.39468 -0.16078,-3.96851 1.13632,-7.89208 1.10728,-11.86374 -0.0287,-3.92448 -0.44848,-7.86695 -1.26546,-11.70556 -1.03789,-4.87655 -3.16143,-9.45897 -4.58732,-14.23649 -1.25116,-4.19209 -2.81804,-9.32201 -3.48003,-12.654656 -0.36436,-1.834326 -0.44094,-5.33147 -0.44094,-5.33147" style="fill:none;stroke:#000000;stroke-width:1.79999995;stroke-linecap:round;stroke-miterlimit:4;stroke-opacity:1;stroke-dasharray:none;display:inline" />
	<!-- 
	Generated using the Perl SVG Module V2.50
	by Ronan Oger
	Info: http://www.roitsystems.com/
 -->
</svg>