<?xml version="1.0" encoding="UTF-8" standalone="yes"?>
<!DOCTYPE svg PUBLIC "-//W3C//DTD SVG 1.0//EN" "http://www.w3.org/TR/2001/REC-SVG-20010904/DTD/svg10.dtd">
<svg height="285" style="background-color:white" width="285" xmlns="http://www.w3.org/2000/svg" xmlns:svg="http://www.w3.org/2000/svg" xmlns:xlink="http://www.w3.org/1999/xlink">
	<path d="m 121.0244,135.03253 c -0.95693,1.6991 -0.74329,4.04918 -0.63647,5.33104 0.10682,1.28186 0.20955,6.27081 0.35127,6.26351 m 37.42956,71.44956 c 2.56817,0.30213 4.8342,-0.30214 5.89167,-1.05748 M 76.425961,152.64219 c -2.561764,1.70784 -5.657228,5.87071 -5.977449,7.04485 m -7.792033,-24.23002 c -0.10674,1.49437 -1.814583,6.40441 -3.629166,8.43248 -1.814582,2.02806 -3.095464,3.41568 -4.589827,4.05612 M 43.763469,125.20997 c 2.455024,-0.74718 12.061639,3.52242 16.437986,7.25833 m 92.223505,-18.46605 c -1.81458,3.94939 -7.57855,17.39865 -9.39313,19.85367 -1.81459,2.45502 -5.01679,5.33701 -8.219,8.53921 -3.2022,3.20221 -6.83137,3.52243 -8.96617,3.84265 -2.1348,0.32022 -8.53921,0.5337 -10.56728,0.64044 -2.02806,0.10674 -8.53921,-0.5337 -9.28639,-0.96066 -0.74718,-0.42696 -10.674019,-4.69657 -13.235783,-5.65723 -2.561764,-0.96066 -4.056126,-2.77524 -5.977449,-4.16287 -1.921323,-1.38762 -7.792033,-5.44374 -11.741419,-7.57855 -3.949386,-2.1348 -14.516663,-8.32573 -22.628916,-9.49987 -8.112253,-1.17414 -14.089702,1.0674 -16.651466,4.8033 -2.561764,3.73591 -3.842642,8.85944 -1.921323,11.9549 3.562279,5.73924 22.842396,16.65147 23.589577,19.21323 0.747181,2.56177 8.539213,8.32574 11.634678,10.56728 3.095465,2.24154 9.820096,8.53921 13.662742,12.27512 3.842646,3.73591 15.370585,14.83688 17.185169,15.69081 1.81458,0.85392 14.30318,7.36507 16.43798,8.11225 5.66746,1.9836 13.12305,7.80163 15.15711,9.07291 5.12354,3.2022 17.61213,7.25833 18.78627,8.32574 1.17414,1.0674 7.68529,8.00551 11.84816,14.30318 4.16286,6.29767 7.57855,12.27512 9.28639,15.79754 1.70784,3.52243 2.88199,6.72463 5.87071,12.16838 2.98873,5.44375 5.76397,9.39314 7.04485,11.9549 M 146.23403,105.78326 c -0.96066,4.48308 -2.77524,7.68529 -3.62916,8.96617 -0.85393,1.28088 -5.44375,5.33701 -6.61789,5.76397 -1.17415,0.42696 -3.84265,3.2022 -4.58983,4.91005 -0.74718,1.70784 -2.66851,3.52242 -4.26961,4.58982 m -16.6876,-27.20022 c 1.85072,-1.08592 2.95434,-2.27815 4.11037,-3.229769 M 101.83012,82.513899 c -0.21348,0.426961 -0.97577,1.824866 -2.028062,2.561764 M 86.246057,71.626402 c -0.426961,0.853921 -0.228919,1.938577 -0.915011,3.104092 m 32.616844,18.457422 c -1.0674,0.533701 -3.20221,1.067402 -3.20221,1.067402 M 112.3974,73.547725 c -1.38762,1.067402 -3.52243,2.455024 -5.01679,4.162867 M 87.740419,60.098464 c -0.21348,1.174142 -0.320221,2.028063 -0.747181,2.881984 m 33.196192,-4.803307 c -0.64044,2.134803 -4.48309,6.61789 -6.51115,8.432473 M 90.835884,46.755943 c -0.213481,1.280882 -0.533701,1.814583 -0.853922,2.561764 M 56.290033,61.341598 c -1.105366,3.346693 -0.998625,6.548898 3.697942,9.217402 4.696567,2.668505 12.80882,3.842647 16.544726,4.376347 3.735906,0.533701 8.859434,-0.21348 8.859434,-0.21348 2.330966,3.180955 11.41522,10.571635 14.409923,10.353796 0.217192,11.683411 8.254572,16.260087 10.780762,17.825607 0,0 1.49436,12.80882 2.77524,16.65147 1.28088,3.84264 3.84265,16.01102 9.28639,15.79754 M 52.020088,43.820253 c -4.307232,0.800886 -6.121815,4.109832 -6.228555,6.564856 -0.106741,2.455023 0.747181,5.123528 4.376346,7.792032 3.629166,2.668504 12.441963,5.845763 19.960412,7.044851 7.034722,1.12194 15.370584,0.426961 15.370584,0.426961 1.056819,2.226545 3.540532,4.969606 9.286395,7.685292 4.989525,2.358216 8.86609,4.360792 12.70208,4.483087 -0.90544,6.01303 3.02209,12.832436 7.25833,16.437986 0,0 -1.92132,9.499872 4.58983,18.786272 m 9.28639,-32.449014 c -1.28088,0.640441 -2.24153,1.280882 -3.84264,1.814583 m 8.85943,-5.977449 c -0.85392,1.174142 -1.92132,2.028063 -2.88198,2.775244 M 67.792501,31.270955 c -4.2821,0.0077 -7.270825,0.754844 -10.47303,2.355947 -3.202205,1.601103 -6.08419,4.162867 -5.763969,8.112253 0.32022,3.949386 3.629165,6.938111 7.365071,8.645954 3.735906,1.707842 10.93092,4.248897 16.437986,5.123528 5.610036,0.890984 12.802511,0.282358 14.730144,-0.960662 0.0388,1.525913 2.983134,3.292792 6.51115,5.657229 4.347047,2.91334 12.119857,6.780926 17.078427,6.40441 0.0106,1.568021 -0.0114,6.426444 2.77524,9.820096 2.33541,2.844114 5.75964,5.751168 8.32574,5.977449 0,0 -1.6011,6.938111 1.0674,12.27512 2.6685,5.337011 6.08419,8.966171 8.43247,10.567281 m 8.96618,-30.741173 c 2.66514,0.147078 5.55049,0.21348 7.68529,-1.174142 2.1348,-1.387622 5.12353,-4.589827 6.08419,-7.578552 m -34.6213,-11.976571 c 0.13061,3.09664 5.80145,13.150713 6.44189,14.324855 0.64045,1.174141 3.62917,6.72463 7.57856,7.258331 3.94938,0.533701 4.16286,0.10674 4.16286,0.10674 M 102.54162,43.317424 c 1.20982,3.118298 6.33335,5.466582 8.25468,6.960944 1.92132,1.494363 8.75269,3.629166 11.31445,3.522426 2.56177,-0.10674 7.04485,-2.881985 9.07292,-6.19093 2.02806,-3.308945 2.56176,-4.162866 2.88198,-5.550489 m -25.72438,-13.0223 c 0.21348,3.095465 -0.5337,8.325733 -2.88198,11.207717 M 261.14937,256.77172 c -4.22669,-5.58528 -7.24576,-9.35912 -8.90625,-11.77437 -1.66048,-2.41525 -3.62288,-6.34004 -6.7929,-9.96292 -3.17002,-3.62289 -9.51006,-9.81197 -11.3215,-12.68009 -1.81145,-2.86811 -6.34005,-8.60434 -7.54767,-10.71769 -1.20763,-2.11335 -4.67956,-8.15148 -7.54767,-10.56674 -2.86812,-2.41525 -4.2267,-4.98146 -5.88719,-8.30243 -1.66048,-3.32098 -4.83051,-11.0196 -6.64195,-15.2463 -1.81144,-4.22669 -5.58527,-16.45392 -6.49099,-19.62394 -0.90572,-3.17002 -4.07574,-14.49152 -4.98146,-20.37871 -0.90572,-5.88718 -2.26431,-12.37817 -3.01907,-19.02012 -0.75477,-6.64195 -1.9624,-20.529666 -3.47193,-23.699687 -1.50953,-3.170022 -3.42771,-7.09481 -5.69202,-10.113878 -2.2643,-3.019068 -6.53521,-8.151483 -8.4976,-11.019597 -1.96239,-2.868115 -4.11995,-7.573569 -5.78044,-9.083103 -1.66049,-1.509534 -3.99804,-6.015379 -4.90376,-7.675867 -0.90572,-1.660487 -5.22843,-8.947321 -7.19083,-10.909715 -1.96239,-1.962394 -2.80558,-3.578668 -3.4094,-5.088202 -0.60381,-1.509534 -5.58527,-7.849577 -8.00053,-9.359111 -2.41525,-1.509534 -8.45339,-3.471928 -10.56674,-4.679555 -2.11334,-1.207627 -14.97028,-4.591128 -16.30296,-5.434322 -1.17609,-0.744116 -8.45339,-2.868115 -11.47246,-3.170021 -3.01907,-0.301907 -12.981992,-0.150954 -12.981992,-0.150954 0,0 -16.45392,0 -20.982522,1.660488 -4.528602,1.660487 -7.094809,8.00053 -4.981462,11.472458 2.113348,3.471928 7.54767,6.490996 9.661017,7.698623 2.113348,1.207627 7.396717,4.830509 17.057734,4.981462 5.394951,0.0843 7.742835,-0.272866 9.057205,-1.056674" style="fill:none;stroke:#000000;stroke-width:1.79999995;stroke-linecap:round;stroke-miterlimit:4;stroke-opacity:1;stroke-dasharray:none;display:inline" />
	<!-- 
	Generated using the Perl SVG Module V2.50
	by Ronan Oger
	Info: http://www.roitsystems.com/
 -->
</svg>