<?xml version="1.0" encoding="UTF-8" standalone="yes"?>
<!DOCTYPE svg PUBLIC "-//W3C//DTD SVG 1.0//EN" "http://www.w3.org/TR/2001/REC-SVG-20010904/DTD/svg10.dtd">
<svg height="285" style="background-color:white" width="285" xmlns="http://www.w3.org/2000/svg" xmlns:svg="http://www.w3.org/2000/svg" xmlns:xlink="http://www.w3.org/1999/xlink">
	<path d="m 174.22601,194.62894 c 5.02062,6.62293 5.55472,9.07983 6.30248,11.21626 0.74775,2.13643 1.70914,5.23426 2.77736,8.01162 1.06821,2.77736 2.35007,6.62294 3.41829,13.67316 1.06821,7.05023 2.24325,12.92542 2.77736,13.77999 0.53411,0.85457 2.35007,9.61394 2.67054,11.75037 m -32.5717,-67.43172 c 4.69126,4.62063 7.14816,6.32978 9.60506,7.29117 2.45689,0.96139 6.83658,2.4569 11.00262,3.41829 4.16604,0.9614 11.32309,1.81597 14.74138,1.70915 m -80.43666,-54.26537 c -2.13643,2.13643 -3.02126,3.07561 -4.87551,4.20834 M 89.338641,110.44955 c -2.021025,2.93659 -1.718888,6.2601 -1.718888,7.16651 0,0.90641 0.453206,3.77671 3.021371,6.79808 2.568165,3.02137 3.235014,4.85252 4.292494,6.06107 1.05748,1.20854 5.276662,5.72987 6.584442,8.29044 0.84994,1.66414 1.27112,2.5056 3.38608,4.62056 2.11496,2.11496 4.92269,5.1989 6.58444,5.80317 1.66176,0.60428 6.53385,1.97867 12.33104,4.38838 m -1.16384,-53.38483 c 3.41092,-0.402961 6.80996,-0.780632 11.64415,2.24074 m -13.21849,-3.474578 -9.66839,-2.945836 c 6.04274,0.52874 9.97052,2.794768 11.93441,4.834194 1.96389,2.03942 7.39956,12.31996 8.30737,17.41458 m -7.77863,-1.70345 c 6.55815,0.82254 9.00435,1.68105 14.20045,5.58953 6.13338,4.6135 9.51731,7.55343 11.70781,11.85888 2.19049,4.30546 2.64116,8.06272 2.22699,12.3779 M 94.266769,92.085474 c -2.417096,0.07553 -4.532056,1.661754 -5.514002,2.341562 -0.981945,0.679809 -1.714395,0.569736 -4.142938,4.74139 M 117.60686,131.8165 c -0.60428,1.88836 -2.04015,3.8662 -4.49465,5.48321 m -4.57729,-62.336868 c -3.46675,1.335969 -7.7722,3.224326 -10.038232,4.659477 -2.266028,1.435151 -5.66507,3.776714 -7.024687,4.758659 -1.359617,0.981946 -4.60759,2.492631 -5.589536,5.891673 -0.981945,3.399043 -1.963891,12.161019 -0.755342,14.804719 1.208548,2.6437 9.592852,11.028 10.197126,11.70781 0.604274,0.67981 7.175751,8.45984 7.855561,9.59285 0.67981,1.13302 7.78003,9.74392 9.29072,10.5748 1.51068,0.83088 3.62564,1.88836 6.87362,3.32351 3.24797,1.43515 15.98474,6.40938 17.20755,10.07831 m 47.29871,-52.1509 c -7.25129,2.19049 -7.55342,1.586219 -9.97052,3.17244 -2.4171,1.58622 -10.5748,8.68644 -11.17907,10.04606 -0.60428,1.35961 -5.2874,8.3843 -9.06411,11.78334 m 16.01326,-29.382828 c -3.77671,0.453206 -6.42041,2.719234 -8.98858,4.532056 -2.56816,1.812822 -6.72255,4.305452 -8.91304,6.571482 -2.1905,2.26603 -5.36293,5.7406 -12.9919,6.79808 m 61.40937,51.06117 c -0.90642,4.83419 -1.05748,6.04274 -3.02137,9.97052 m -77.10506,-18.20529 c 6.41735,0.97138 11.39024,3.09844 12.90093,4.38252 m 11.028,16.99521 c 1.28408,1.96389 1.35962,4.45653 -0.75534,9.74392 m -45.018429,-3.70117 c 4.305449,0.15106 8.308769,0.37767 8.988579,0.83087 0.67981,0.45321 3.30192,2.44409 2.5196,6.73605 m -15.133824,-7.79353 c -1.284082,3.24798 -3.417911,7.11465 -3.408476,11.79056 m 85.74083,-63.6826 c -4.45652,3.24797 -7.78003,6.42041 -12.68976,9.89499 -4.90972,3.47457 -13.74723,7.40236 -15.71112,8.1577 -1.9639,0.75534 -4.00332,1.51068 -12.31209,2.49263 -8.30877,0.98195 -10.27266,3.24797 -18.20376,4.53206 -7.9311,1.28408 -14.24854,2.57029 -20.620856,6.79808 -5.635507,3.73895 -9.420549,8.02381 -10.701041,10.20906 -1.293921,2.20817 -4.237197,7.79345 -3.348333,12.52675 0.587972,3.13102 2.295008,7.56733 4.985262,8.45984 0.755343,0.30214 6.042741,1.81283 12.085488,-0.6798 6.04274,-2.49263 11.10353,-3.24798 16.39093,-3.24798 5.2874,0 12.61422,-0.37767 16.23987,0.45321 3.62564,0.83088 9.66839,0.2266 11.48121,-0.0755 1.81282,-0.30213 7.40236,-1.05748 9.74392,-1.96389 2.34156,-0.90641 8.30877,-2.71923 10.27266,-3.17244 1.96389,-0.4532 6.11828,-1.51068 9.59285,-1.66175 3.47458,-0.15107 12.91636,-0.15107 16.23987,-0.52874 M 98.656981,72.295286 c 2.329679,1.770186 6.260119,1.43536 9.583629,2.568374 3.32351,1.133014 11.63228,3.474577 13.4451,4.456522 1.81282,0.981946 4.98526,2.341563 5.89167,2.568165 0.90641,0.226603 3.24798,1.510686 4.00332,6.420413 M 63.143679,65.116807 c 2.068319,1.655574 9.973495,4.837126 12.239523,5.214797 2.266028,0.377671 11.028003,2.11496 16.99521,2.11496 5.967208,0 9.536508,0.448628 11.037598,-3.892304 M 51.974775,38.835738 c -3.708376,-0.07746 -12.62142,-1.210473 -15.869394,-1.286007 -3.247973,-0.07553 -7.704495,-0.151069 -9.743921,1.133014 -2.039425,1.284082 -4.834193,3.021371 -4.834193,8.686441 0,5.66507 0.52874,8.535372 3.701179,11.33014 3.26256,2.87416 8.017207,4.306965 15.408991,5.362934 6.87362,0.981945 13.747238,1.208548 16.239868,1.435151 2.492631,0.226603 9.773204,0.695475 9.834097,-4.82636 m 61.956188,12.052283 c 1.55875,1.242753 5.78341,2.366929 7.36963,3.575477 1.58622,1.208549 9.17614,4.235729 12.38762,5.514002 1.85187,1.353808 1.81282,1.812823 3.17244,4.229919 M 92.829773,62.848512 c 2.494476,2.648899 5.74245,3.253173 8.537217,4.688324 2.79477,1.435151 10.19713,5.060796 15.78666,5.287399 5.58954,0.226603 9.89499,0.604274 11.02801,0.151069 1.13301,-0.453206 5.66507,-3.852248 7.47789,-8.233236 m 0,-17.826088 c 0.0755,-1.888356 -1.57757,-4.959257 -5.20754,-6.860616 M 265.37607,214.50476 c -3.17002,-5.28336 -11.62341,-19.32203 -14.2651,-23.32229 -2.64168,-4.00027 -9.20816,-16.60488 -9.66102,-18.56727 -1.22051,-5.28888 -5.71889,-9.5203 -6.1892,-13.66174 -0.18253,-1.60738 -2.18693,-14.94042 -5.66064,-22.86898 -1.96702,-4.48962 -4.64359,-20.52394 -6.7929,-22.71849 -1.89607,-5.91626 -8.22696,-21.510859 -9.35911,-24.831833 -1.13215,-3.320975 -5.41124,-14.845821 -7.39672,-16.831304 -2.64328,-2.643285 -5.35884,-14.642479 -7.39671,-17.208687 -2.03787,-2.566207 -7.54767,-8.226961 -9.43459,-8.90625 -5.83215,-2.099567 -10.90374,-1.932568 -21.73487,-2.188364 -17.93135,-4.410181 -31.93084,-3.321435 -35.55194,-3.321435 -5.96266,0 -8.45339,-1.056674 -18.03893,-1.434057 -9.58554,-0.377384 -16.378448,-0.07548 -25.209221,-2.113348 -6.513823,-1.50319 -9.661017,-2.415254 -15.170816,-2.490731 -5.509799,-0.07548 -16.604873,-1.283104 -19.171081,1.434058 -2.566208,2.717161 -4.302172,6.490996 -2.943591,10.566737 1.35858,4.075742 3.849311,8.604344 5.962659,10.113878 2.113348,1.509534 12.906515,6.868379 19.850371,7.094809 2.036884,0.06642 18.190864,3.772972 22.190149,-6.490996" style="fill:none;stroke:#000000;stroke-width:1.79999995;stroke-linecap:round;stroke-miterlimit:4;stroke-opacity:1;stroke-dasharray:none;display:inline" />
	<!-- 
	Generated using the Perl SVG Module V2.50
	by Ronan Oger
	Info: http://www.roitsystems.com/
 -->
</svg>