<?xml version="1.0" encoding="UTF-8" standalone="no"?><!DOCTYPE svg PUBLIC "-//W3C//DTD SVG 1.1//EN" "http://www.w3.org/Graphics/SVG/1.1/DTD/svg11.dtd"><svg width="100%" height="100%" viewBox="0 0 285 285" version="1.1" xmlns="http://www.w3.org/2000/svg" xmlns:xlink="http://www.w3.org/1999/xlink" xml:space="preserve" xmlns:serif="http://www.serif.com/" style="fill-rule:evenodd;clip-rule:evenodd;stroke-linecap:round;"><path d="M216.806,246.401c18.872,-12.552 43.474,-42.296 47.142,-46.191c-13.128,-14.019 -22.748,-33.073 -34.255,-51.32c-10.771,-17.079 -20.642,-33.642 -28.531,-47.578c-9.757,-17.235 -9.049,-47.1 -39.129,-46.391c-11.969,0.283 -31.444,-6.754 -51.894,-9.257c-22.793,-2.791 -58.662,-12.808 -61.041,-12.243c-7.526,1.789 -6.608,8.242 -6.608,8.242c0,-0 -4.351,-1.632 -9.222,-2.926c-4.852,-1.288 -16.889,-4.865 -17.207,5.069c-0.461,14.356 15.863,19.087 20.878,20.746c4.807,1.589 9.379,1.671 9.379,1.671c0.578,0.287 12.827,5.912 23.964,9.121c10.59,3.052 20.11,3.702 20.11,3.702c12.182,6.492 25.839,9.913 28.468,10.622c-3.436,1.075 -16.219,5.042 -20.704,7.793c-10.776,6.612 -9.952,15.322 -9.952,15.322c-0,0 -11.989,5.594 -14.889,8.416c-4.89,4.757 -7.969,8.861 -9.23,11.666c-1.853,4.117 -0.674,7.837 1.645,12.128c4.667,8.638 24.78,2.903 43.019,3.234c4.052,0.073 5.424,5.65 19.273,9.333c0.838,0.224 16.316,14.201 16.316,14.201c-0,-0 18.915,17.293 26.598,20.91c9.141,4.305 17.728,7.405 17.728,7.405c13.383,18.464 28.142,46.325 28.142,46.325Z" style="fill:#fff;"/><path d="M174.345,194.585c8.134,1.907 12.99,1.768 14.377,1.768m-27.331,-96.422c-2.359,2.913 -4.995,5.133 -6.798,5.827m14.428,-22.198c-4.855,2.636 -9.434,4.855 -11.931,7.214c-2.497,2.359 -5.272,6.521 -8.74,9.573c-3.469,3.052 -11.366,10.628 -14.92,14.179m-18.1,-5.716c4.995,3.33 11.931,4.995 19.007,5.827m-8.92,-26.307c-1.624,4.248 -0.653,6.745 0.734,9.381c1.388,2.636 4.44,6.659 7.076,9.989m-10.387,-18.865c-17.777,4.852 -24.991,7.905 -28.321,11.096c-3.33,3.191 -6.994,8.347 -6.341,12.983m21.918,35.337c6.06,5.265 14.944,10.662 22.756,8.432m-4.894,0.478c1.765,3.975 10.52,9.376 15.136,13.165c4.616,3.79 9.646,8.75 11.919,10.817c2.274,2.067 9.577,7.303 12.677,9.508c3.101,2.205 8.819,5.374 13.159,6.545c4.341,1.171 6.339,1.654 8.337,3.445c1.998,1.791 4.96,6.338 9.163,14.055c4.203,7.716 7.441,11.988 10.679,18.671c3.238,6.683 6.201,10.61 7.579,13.021m-144.683,-104.033c0.276,-4.41 5.719,-8.681 10.335,-8.957c4.616,-0.276 13.09,-0.138 15.226,1.654c2.136,1.791 2.893,3.651 2.342,6.751c-0.551,3.101 0,4.272 0,4.272m42.441,-30.934c-2.894,1.102 -11.575,1.584 -21.565,-1.103c-9.99,-2.687 -25.561,-3.651 -33.897,-0.689c-8.337,2.963 -11.23,5.856 -13.09,7.441c-1.861,1.585 -10.817,10.334 -10.817,16.811c-0,6.476 6.821,11.161 6.821,11.161c5.052,1.578 19.957,0.574 28.316,-0.62c-0,-0 12.47,-0.827 18.327,1.309c5.856,2.136 16.81,7.51 21.909,9.645c5.098,2.136 10.265,3.652 12.814,3.927m-108.723,-121.279c-9.434,-3.767 -17.544,-5.023 -21.422,-4.594c-4.364,0.482 -7.793,9.805 -2.067,17.224c5.787,7.497 20.461,12.252 27.076,11.712c13.412,6.713 35.872,13.297 44.507,12.815c7.25,5.018 20.9,10.174 29.144,10.128c7.775,-0.044 10.725,-2.635 12.762,-6.539m3.955,1.148c1.954,5.253 4.778,6.906 9.257,9.938m-25.01,-22.185c-1.447,1.998 -1.368,2.557 -3.302,4m-30.939,-15.092c-0.965,2.067 -1.651,3.538 -3.788,5.111m181.419,134.702c-5.406,-5.823 -9.652,-11.944 -10.969,-13.746c-1.317,-1.802 -5.063,-7.139 -8.598,-12.823c-3.535,-5.684 -8.386,-14.418 -10.604,-17.815c-2.218,-3.396 -8.111,-13.793 -10.052,-16.774c-1.941,-2.981 -13.516,-20.171 -16.22,-25.37c-2.703,-5.198 -7.209,-13.378 -8.179,-16.844c-0.97,-3.465 -4.575,-12.338 -7.001,-17.883c-2.426,-5.545 -6.1,-15.458 -11.714,-18.785c-5.615,-3.327 -10.814,-4.852 -15.042,-5.06c-4.228,-0.208 -12.199,-0.069 -15.388,-1.039c-3.189,-0.971 -17.052,-3.536 -17.052,-3.536l-19.408,-3.951c-0,0 -10.398,-2.703 -18.3,-3.327c-7.902,-0.624 -26.34,-4.505 -26.34,-4.505c-6.515,-1.664 -13.613,-4.879 -19.547,-4.991c-10.027,1.802 -7.902,10.587 -3.882,15.249c1.484,3.003 5.298,6.647 8.942,8.11c7.185,4.923 21.28,9.066 27.935,8.388c-0,-0 7.21,4.845 13.239,6.515c6.03,1.671 16.734,3.57 21.488,3.466c4.9,4.227 15.828,7.398 19.062,8.249c-0,-0 5.841,-0.356 12.754,-3.743" style="fill:none;fill-rule:nonzero;stroke:#000;stroke-width:1.8px;"/></svg>