<?xml version="1.0" encoding="UTF-8" standalone="yes"?>
<!DOCTYPE svg PUBLIC "-//W3C//DTD SVG 1.0//EN" "http://www.w3.org/TR/2001/REC-SVG-20010904/DTD/svg10.dtd">
<svg height="285" style="background-color:white" width="285" xmlns="http://www.w3.org/2000/svg" xmlns:svg="http://www.w3.org/2000/svg" xmlns:xlink="http://www.w3.org/1999/xlink">
	<path d="m 174.34517,194.58542 c 8.13381,1.90679 12.98964,1.76807 14.377,1.76807 M 161.39086,99.930682 c -2.35854,2.913518 -4.99455,5.133338 -6.79814,5.827028 m 14.42872,-22.19807 c -4.85582,2.636014 -9.43416,4.855815 -11.93145,7.214357 -2.49727,2.358541 -5.27204,6.520669 -8.74047,9.572903 -3.46845,3.05224 -11.36552,10.62781 -14.91958,14.17864 m -18.09999,-5.71557 c 4.99457,3.32974 11.93145,4.99459 19.00706,5.82703 M 125.417,88.330282 c -1.62404,4.247304 -0.65288,6.744581 0.7345,9.380597 1.38737,2.636021 4.43959,6.659441 7.07561,9.989181 M 122.84034,88.834565 c -17.77701,4.852922 -24.991435,7.905151 -28.32114,11.096117 -3.329703,3.190988 -6.994285,8.347718 -6.341264,12.983778 m 21.917664,35.33619 c 6.06023,5.26512 14.94397,10.66253 22.75667,8.43233 m -4.89449,0.47761 c 1.7657,3.97524 10.52046,9.3766 15.13652,13.1659 4.61606,3.78929 9.64549,8.74982 11.91906,10.81672 2.27357,2.06689 9.57659,7.30303 12.67692,9.5077 3.10034,2.20467 8.81874,5.37391 13.1592,6.54515 4.34047,1.17123 6.33845,1.6535 8.33645,3.44481 1.99799,1.79132 4.96054,6.33847 9.16323,14.05485 4.20266,7.71639 7.44079,11.98796 10.67892,18.6709 3.23813,6.68294 6.20067,10.61005 7.5786,13.02142 M 71.924278,142.35458 c 0.275585,-4.40936 5.718394,-8.68094 10.334448,-8.95652 4.616054,-0.27558 13.090303,-0.13779 15.22609,1.6535 2.135785,1.79131 2.893654,3.65152 2.342472,6.75186 -0.551165,3.10033 0,4.27157 0,4.27157 m 42.440252,-30.93446 c -2.89365,1.10235 -11.57459,1.58462 -21.56456,-1.10234 -9.98996,-2.68698 -25.56064,-3.65153 -33.897096,-0.68898 -8.336455,2.96256 -11.230101,5.8562 -13.090302,7.44082 -1.860201,1.58462 -10.816724,10.33445 -10.816724,16.81071 0,6.47625 6.820737,11.1612 6.820737,11.1612 5.052397,1.57768 19.956969,0.57414 28.316391,-0.62006 0,0 12.470344,-0.82676 18.326534,1.30902 5.85618,2.1358 16.8107,7.5097 21.90903,9.64549 5.09833,2.13577 10.26555,3.6515 12.81471,3.92709 M 42.363406,41.744088 c -9.43445,-3.767566 -17.544539,-5.022845 -21.422408,-4.594322 -4.364278,0.482273 -7.793492,9.805593 -2.066888,17.224082 5.78732,7.497143 20.460632,12.252447 27.076252,11.712375 13.411703,6.712667 35.87202,13.296992 44.507027,12.814717 7.249198,5.017778 20.899241,10.174504 29.143261,10.12776 7.7756,-0.04408 10.72524,-2.635188 12.76222,-6.538534 m 3.95502,1.147754 c 1.95366,5.252987 4.77841,6.9065 9.25666,9.937938 M 120.56519,71.39124 c -1.44681,1.997994 -1.36841,2.557 -3.30226,3.999905 M 86.323609,60.298931 c -0.964549,2.066891 -1.651087,3.538488 -3.788085,5.110717 M 263.9552,200.11164 c -5.40664,-5.82254 -9.65212,-11.94332 -10.96912,-13.74553 -1.31701,-1.80221 -5.06258,-7.13954 -8.59769,-12.82346 -3.53512,-5.6839 -8.38597,-14.41772 -10.60409,-17.81419 -2.21811,-3.39649 -8.11123,-13.79388 -10.05208,-16.77447 -1.94084,-2.98058 -13.5166,-20.17095 -16.21993,-25.36963 -2.70332,-5.19875 -7.20885,-13.37811 -8.17928,-16.843903 -0.97042,-3.465796 -4.57485,-12.338239 -7.0009,-17.883516 -2.42606,-5.545275 -6.09981,-15.457457 -11.71441,-18.784622 -5.61458,-3.327166 -10.81329,-4.852116 -15.04156,-5.060064 -4.22827,-0.207949 -12.1996,-0.06933 -15.38813,-1.03974 -3.18854,-0.970424 -17.05173,-3.535113 -17.05173,-3.535113 l -19.40847,-3.95101 c 0,0 -10.39745,-2.703321 -18.299518,-3.327166 C 87.526272,42.535382 69.088229,38.65369 69.088229,38.65369 62.57252,36.990078 55.475018,33.775029 49.54113,33.662941 c -10.027626,1.801804 -7.90178,10.587546 -3.881693,15.24951 1.483419,3.002755 5.297066,6.646779 8.941758,8.109967 7.18437,4.922816 21.280261,9.065884 27.934329,8.38723 0,0 7.210795,4.845113 13.239347,6.5157 6.030519,1.671121 16.734199,3.569488 21.488059,3.465797 4.89968,4.226532 15.8282,7.398072 19.06188,8.248598 0,0 5.84143,-0.356231 12.75414,-3.743061" style="fill:none;stroke:#000000;stroke-width:1.79999995;stroke-linecap:round;stroke-miterlimit:4;stroke-opacity:1;stroke-dasharray:none;display:inline" />
	<!-- 
	Generated using the Perl SVG Module V2.50
	by Ronan Oger
	Info: http://www.roitsystems.com/
 -->
</svg>