<?xml version="1.0" encoding="UTF-8" standalone="yes"?>
<!DOCTYPE svg PUBLIC "-//W3C//DTD SVG 1.0//EN" "http://www.w3.org/TR/2001/REC-SVG-20010904/DTD/svg10.dtd">
<svg height="285" style="background-color:white" width="285" xmlns="http://www.w3.org/2000/svg" xmlns:svg="http://www.w3.org/2000/svg" xmlns:xlink="http://www.w3.org/1999/xlink">
	<path d="m 105.39236,227.44883 c 1.25184,2.07835 11.04602,29.81177 12.72381,38.2007 m 65.53456,-54.20473 c 2.68911,-2.05638 3.74573,-0.89179 5.26392,-3.29282 m -29.46596,5.03283 c 4.27095,2.53094 7.11825,3.48004 9.17463,3.63822 m -37.80579,12.18011 c 6.16915,-5.85278 7.75098,-7.90916 9.01644,-8.85826 1.26547,-0.9491 2.8473,-2.53094 3.16367,-6.80188 m -40.49807,-38.53004 c 2.66499,-3.07499 3.89498,-5.94497 4.30498,-7.07247 m -37.309841,1.23 c 5.022478,-1.84499 7.583583,-4.20249 11.377452,-4.20249 5.126004,0 4.099983,0.1025 7.482469,-0.30749 m -23.8824,-11.47996 c 1.947492,1.9475 1.332494,2.25499 5.227478,2.97249 3.894984,0.7175 7.546008,3.07385 12.690467,1.07568 m 56.876575,-40.10553 c -2.10187,1.26837 -2.75417,1.81195 -3.47895,2.57297 -0.72478,0.76102 -1.77572,2.3193 -2.39178,3.58767 -0.61607,1.26837 -0.68854,2.02939 -1.52204,3.26152 M 120.77144,98.166584 c -1.93234,5.555486 -1.20772,7.246286 -1.32849,9.057856 -0.12077,1.81157 -0.0748,2.96344 0.23522,5.00548 m -40.935192,23.13427 c 0.724629,-2.41543 1.811571,-3.62314 3.623143,-5.79703 m 7.814487,-22.02483 c 0.683187,-1.87877 2.263576,-3.31766 3.459152,-4.51324 1.195577,-1.19558 1.664747,-2.48943 2.860323,-2.48943 M 72.417761,81.239648 c 3.245136,2.561949 3.415932,2.220356 7.173458,4.611508 3.757525,2.391153 6.609559,4.741453 10.478237,10.312769 M 71.971037,124.74857 c -0.407259,-8.15402 0.617521,-12.76553 1.300707,-16.35226 0.683187,-3.58673 5.123899,-8.539832 9.223017,-10.077001 4.099119,-1.53717 12.628697,-3.717391 16.567271,-2.732746 3.204388,0.801098 6.447798,5.349837 11.076788,10.105887 5.94078,6.10385 12.04556,12.46168 13.00553,13.80564 1.70796,2.39115 7.06373,8.60359 8.36904,14.34691 0.85399,3.75753 1.02478,9.05222 -1.36638,12.12656 -2.39115,3.07434 -5.7277,7.40611 -9.39381,8.02745 -2.13005,0.361 -2.65589,-0.1155 -5.51246,-1.68034 m -41.087076,-3.30731 c 7.004743,7.6086 14.613344,13.40563 17.511858,15.2172 2.898515,1.81157 5.555486,4.34777 10.627888,2.89852 5.0724,-1.44926 8.69554,-4.34778 11.11097,-7.36706 2.41543,-3.01929 2.05312,-9.42017 1.20772,-10.50712 -0.8454,-1.08694 -6.52166,-8.454 -8.81632,-9.90326 -2.29466,-1.44925 -12.560229,-9.78248 -14.251029,-11.95637 -1.6908,-2.17388 -4.468544,-4.10623 -8.212458,-4.58931 -3.743915,-0.48309 -10.144801,0.96617 -15.700287,3.86468 -5.555486,2.89852 -11.594058,6.64243 -13.043316,10.38635 -1.449257,3.74391 -0.483085,10.02403 1.086943,13.5264 1.570029,3.50237 3.623144,5.67626 5.313944,9.17863 1.6908,3.50237 2.053114,4.10623 2.053114,5.79703 0,1.6908 -0.362314,3.14005 1.328486,4.58931 1.6908,1.44926 2.5362,4.46854 2.898514,6.88397 0.362315,2.41543 4.014908,14.67358 6.763201,18.84035 2.066831,3.13358 5.434715,5.67626 6.159343,7.36706 0.724629,1.6908 2.656972,5.9178 4.830858,7.12551 2.173886,1.20772 3.623143,2.77774 4.589314,4.34777 0.966172,1.57003 3.985458,4.34778 6.400887,5.67626 4.830856,2.65697 4.468536,4.10624 8.212456,6.40089 2.12745,1.30392 6.69843,3.28451 7.47543,3.92217 0.86036,0.70606 3.39432,2.17678 6.41329,2.23717 M 68.598177,73.770753 c 3.623143,-0.120771 9.057858,-1.570028 9.903258,-2.898514 0.8454,-1.328486 2.294658,-3.985458 3.623143,-5.193172 1.328486,-1.207715 4.106229,-3.3816 4.227001,-4.227 0.120771,-0.845401 0.195082,-1.500019 -0.566702,-3.527753 m -17.911328,0.266924 c 1.932343,0.966171 10.402989,1.744742 15.527452,-0.456115 M 81.39995,37.660093 c -2.5362,3.743915 -4.227001,7.246286 -3.864686,8.816315 0.362314,1.570029 -0.483086,2.898515 5.313943,2.777743 m -2.656972,8.091687 c 7.608601,1.086943 12.801773,0.724628 14.854887,-0.241543 2.053115,-0.966172 5.193168,-3.502372 5.555488,-5.193172 0.36231,-1.6908 0.72463,-7.004744 -0.36232,-9.299401 -1.086939,-2.294657 -7.850139,-6.038572 -10.507111,-7.004743 -2.656972,-0.966172 -3.140057,-2.173886 -6.883972,-3.381601 -3.743914,-1.207714 -6.400886,-1.811571 -8.212458,-1.811571 -1.811571,0 -8.091686,0.8454 -11.594058,4.106229 -3.502372,3.260828 -2.777743,6.521657 -5.193172,10.748658 -2.415429,4.227 -5.313943,9.420172 -4.951629,15.217201 0.362315,5.797029 2.294657,12.681002 5.9178,16.304145 3.623143,3.623143 4.589316,8.212457 6.521659,9.782486 1.932343,1.570029 8.160865,14.856834 9.610122,18.117664 M 107.4619,84.30728 c -5.65158,-2.44484 -6.25543,-3.169469 -7.10083,-4.256412 -0.845404,-1.086943 -4.106233,-3.623143 -5.434719,-4.347772 -1.328486,-0.724628 -4.347772,-6.521657 -4.830858,-8.333229 -0.483085,-1.811572 -2.234911,-4.18342 -3.925711,-5.511906 m 35.084738,15.535935 c -6.89455,2.507109 -4.46854,3.01929 -9.17862,5.676258 -3.77042,2.126903 -4.10623,-0.483089 -8.57478,3.985458 m 12.52485,-33.523779 c 2.02288,1.456279 3.56901,2.702523 5.96365,2.702523 2.39069,0 5.80583,-0.5889 8.13275,-0.176212 2.33256,0.413689 4.48086,-2.010741 5.75207,-3.110089 m 13.26972,27.287723 c -1.4482,-7.5852 -2.03198,-8.606812 -2.46982,-11.963538 -0.43783,-3.356726 -2.33511,-9.632345 -3.64861,-11.967459 -1.3135,-2.335114 -3.50267,-4.816172 -3.21078,-6.859397 0.29188,-2.043225 0.87566,-6.859397 0.43783,-9.048567 -0.43783,-2.189169 0.14647,-2.403467 -0.94838,-6.236823 m 39.79316,87.201926 c -9.07208,-9.45224 -13.30447,-12.22519 -15.3477,-14.85219 -2.04322,-2.627 -5.254,-9.194511 -6.85939,-11.237736 -1.60539,-2.043224 -5.5459,-12.843126 -7.88101,-15.17824 -2.33512,-2.335114 -6.27562,-3.210782 -8.90263,-3.210782 M 115.58814,37.33198 c 2.627,4.378339 3.50267,5.691841 7.44317,5.837785 3.94051,0.145945 7.73507,-1.605391 11.96746,-4.670228 4.2324,-3.064837 6.56751,-7.151286 6.27562,-10.799901 -0.29189,-3.648616 -6.42156,-7.589121 -10.94584,-8.464788 -4.52429,-0.875668 -12.11341,-2.335114 -14.88636,0.729723 -2.77294,3.064837 -5.39995,8.026954 -5.39995,11.529625 0,3.502671 1.3135,6.421563 0.58378,9.924234 -0.72972,3.502671 -1.45944,14.740406 -1.02161,17.513354 0.43783,2.772948 2.33511,4.962117 2.77295,7.443176 0.43783,2.481058 1.91715,11.67982 2.79282,14.452768 m 73.24432,51.660142 c 2.04853,-0.0439 4.34911,-0.1382 8.31827,-0.56622 m -34.44235,-19.1363 c 7.58912,3.79456 12.55123,5.69184 17.07552,8.75668 4.52428,3.06483 12.37385,11.15251 17.42466,9.58973 m 6.43322,-19.43045 c -3.57158,2.54349 -5.61481,9.25694 -5.90669,13.92717 -0.29189,4.67022 -1.45945,9.34045 0.43783,10.94584 m 4.52428,4.08645 c 3.21078,2.77295 6.42157,5.5459 7.29723,7.58912 m -6.5643,107.33292 c -3.91484,-10.17857 -7.82967,-23.26531 -9.1719,-26.17347 -1.34223,-2.90816 -5.25707,-16.10432 -5.25707,-18.67936 0,-3.92049 2.66845,-8.45953 4.01814,-9.51601 3.19153,-2.4982 6.28213,-6.97836 8.1218,-9.20611 1.62567,-1.9686 4.30237,-4.20762 5.75645,-6.33282 1.45408,-2.1252 4.4741,-8.27708 5.92818,-9.95487 1.45408,-1.67778 10.96154,-12.19191 12.41562,-16.10675 1.45408,-3.91483 4.13854,-16.2186 4.36225,-19.23862 0.2237,-3.02001 3.24372,-12.03599 3.91483,-15.61526 0.67112,-3.57928 1.90149,-18.27602 1.00667,-20.06566 -0.89482,-1.78964 -4.36224,-9.395607 -5.92818,-15.211934 -1.56593,-5.816326 -1.54074,-12.31045 -4.25039,-14.988226 -2.90816,-2.873947 -11.00993,-5.191172 -14.65267,0.223705 -4.13854,6.151884 -5.92818,6.263736 -6.93485,12.751178 -1.00667,6.487441 -1.45408,8.948194 -1.34223,12.41562 0.11186,3.467427 0.44741,10.514127 2.1252,11.744507 1.67779,1.23037 2.68446,1.45408 4.92151,3.46742 2.23704,2.01335 4.80965,3.02002 6.82299,3.69113 m 4.36225,1.11853 c 2.90816,-0.11185 3.80298,-0.44741 6.26374,-0.11185" style="fill:none;stroke:#000000;stroke-width:1.79999995;stroke-linecap:round;stroke-miterlimit:4;stroke-opacity:1;stroke-dasharray:none;display:inline" />
	<!-- 
	Generated using the Perl SVG Module V2.50
	by Ronan Oger
	Info: http://www.roitsystems.com/
 -->
</svg>