<?xml version="1.0" encoding="UTF-8" standalone="no"?><!DOCTYPE svg PUBLIC "-//W3C//DTD SVG 1.1//EN" "http://www.w3.org/Graphics/SVG/1.1/DTD/svg11.dtd"><svg width="100%" height="100%" viewBox="0 0 285 285" version="1.1" xmlns="http://www.w3.org/2000/svg" xmlns:xlink="http://www.w3.org/1999/xlink" xml:space="preserve" xmlns:serif="http://www.serif.com/" style="fill-rule:evenodd;clip-rule:evenodd;stroke-linecap:round;"><path d="M72.925,135.821c0.167,1.081 0.351,2.042 0.551,2.78c1.287,4.762 3.968,12.809 6.248,17.242c1.424,2.769 3.516,6.011 6.881,7.751c4.491,2.323 9.209,7.374 13.486,9.07c-0.039,2.663 -0.831,5.009 -3.204,6.828c-2.373,1.819 -8.858,0.474 -11.073,-0.237c-2.214,-0.712 -10.319,-4.965 -12.101,-5.458c-0.007,-0.002 -0.014,-0.004 -0.021,-0.006c-1.084,-0.312 -2.116,-1.662 -2.351,-2.841c-0.167,-0.835 -3.48,-4.271 -4.983,-7.039c-1.503,-2.768 -3.717,-8.068 -4.034,-10.124c-0.316,-2.056 -1.107,-8.226 -0.633,-10.361c0.475,-2.135 3.797,-4.983 4.904,-5.774c1.107,-0.791 3.559,-1.661 6.33,-1.831Z" style="fill:#fff;"/><path d="M130.111,108.23c0.05,-0.104 0.101,-0.209 0.153,-0.316c1.503,-3.085 2.294,-4.271 3.717,-7.593c1.424,-3.322 4.825,-17.242 5.458,-20.485c0.632,-3.242 0.553,-9.649 0.553,-11.784c0,-2.136 0.396,-9.887 0.633,-13.13c0.237,-3.242 -0.158,-7.355 -0.316,-10.519c-0.159,-3.163 -0.475,-13.683 1.74,-20.326c2.214,-6.644 7.355,-8.858 9.332,-8.779c1.978,0.079 5.695,0.791 7.593,4.903c1.898,4.113 2.215,18.982 2.057,22.462c-0.159,3.48 -0.475,4.904 -0.475,7.751c-0,2.848 1.107,8.859 1.424,11.548c0.316,2.689 0.949,10.123 1.265,12.812c0.316,2.69 0.158,9.491 0.158,11.231c0,1.741 2.531,20.881 3.006,24.677c0.187,1.498 0.406,8.062 0.924,9.88c0.739,2.592 2.224,16.475 1.985,23.32c0.958,0.896 2.052,1.914 3.303,3.078c0.856,-1.094 1.534,-2.023 1.855,-2.585c1.266,-2.214 4.746,-5.853 6.327,-7.751c1.582,-1.898 7.157,-9.306 8.264,-11.204c1.108,-1.898 4.104,-2.848 7.953,-4.651c2.988,-1.4 7.028,-2.767 11.196,-2.77c5.668,-0.004 11.458,0.886 14.178,3.075c5.702,4.587 1.752,10.805 1.119,12.07c-0.823,1.646 -5.98,4.893 -8.858,5.853c-2.577,0.859 -6.227,4.589 -7.334,4.905c-1.108,0.317 -4.214,5.06 -5.796,7.433c-1.581,2.373 -6.96,14.395 -7.909,16.293c-2.571,5.142 -4.745,12.497 -5.536,15.977c-0.973,4.28 -7.919,11.435 -9.817,13.808c-1.898,2.373 -6.596,9.048 -8.048,10.924c-1.815,2.346 -2.392,7.36 -2.234,11.947c0.158,4.587 3.838,14.619 5.071,16.945c1.308,2.465 5.444,12.376 6.235,14.591c0.527,1.474 7.345,14.512 10.049,19.762l-73.813,-4.149c-1.014,-2.768 -2.8,-7.812 -3.292,-8.612c-0.633,-1.029 -4.034,-10.915 -8.66,-19.96c-1.938,0.282 -3.302,0.018 -4.39,-0.525c-3.06,-1.528 -7.593,-7.435 -9.728,-10.677c-2.136,-3.243 -7.04,-16.135 -7.356,-18.271c-0.316,-2.135 -4.666,-11.626 -5.536,-14.79c-0.87,-3.163 -2.531,-14.553 -2.869,-20.807c0.007,0.002 0.014,0.004 0.021,0.006c1.783,0.491 9.887,4.746 12.101,5.458c2.215,0.711 8.7,2.056 11.073,0.237c2.373,-1.819 3.165,-4.165 3.204,-6.828c-4.277,-1.696 -8.995,-6.747 -13.486,-9.07c-3.365,-1.74 -5.457,-4.982 -6.881,-7.751c-2.28,-4.433 -4.961,-12.48 -6.248,-17.242c-0.2,-0.738 -0.384,-1.699 -0.551,-2.78c-0.494,-3.204 -0.833,-7.471 -0.952,-10.191c-0.158,-3.638 2.215,-6.327 4.35,-7.988c2.136,-1.661 7.017,-1.424 9.706,-0.949c2.689,0.475 12.598,6.486 21.476,6.67c-0.561,-1.309 -1.355,-2.465 -1.76,-3.427c-0.632,-1.503 -2.689,-3.876 -3.638,-5.062c-0.949,-1.186 -1.819,-3.322 -3.005,-5.299c-1.187,-1.977 -4.192,-5.774 -5.378,-6.723c-1.187,-0.949 -2.294,-4.429 -3.401,-6.09c-1.108,-1.661 -5.616,-8.7 -6.96,-10.757c-1.345,-2.056 -3.322,-4.982 -3.718,-6.09c-0.395,-1.107 -1.977,-3.48 -3.005,-4.824c-1.028,-1.345 -1.978,-5.22 -2.452,-6.881c-0.475,-1.661 -3.48,-6.248 -4.983,-8.384c-1.503,-2.135 -4.271,-7.197 -7.514,-14.157c-3.242,-6.96 -0.316,-12.892 2.69,-14.711c3.005,-1.819 7.671,0.237 9.332,1.265c1.661,1.028 4.746,3.48 6.723,5.616c1.977,2.135 4.983,6.722 6.09,8.858c1.108,2.135 2.768,4.983 3.718,6.406c0.949,1.424 2.451,4.271 4.745,7.119c2.294,2.847 7.356,9.57 9.333,12.417c1.977,2.847 4.35,6.565 5.22,8.384c0.87,1.819 5.774,7.751 8.384,11.073c2.61,3.321 5.536,7.751 12.185,16.134Z" style="fill:#fff;"/><path d="M103.571,238.861c4.626,9.045 8.027,18.931 8.66,19.96c0.633,1.028 1.819,4.666 3.243,8.383m-41.782,-93.413c0.338,6.254 1.999,17.644 2.869,20.807c0.87,3.164 5.22,12.655 5.536,14.79c0.316,2.136 5.22,15.028 7.356,18.271c2.135,3.242 6.668,9.149 9.728,10.677c1.769,0.883 4.271,1.028 8.779,-0.712m-2.61,-56.867c1.424,-1.582 1.898,-2.056 2.689,-3.322m-17.242,-17.637c2.452,-1.186 5.378,-2.768 6.407,-4.35m-22.067,13.999c2.373,-0.791 4.192,-2.135 4.746,-3.005m-6.958,-30.621c-2.771,0.17 -5.223,1.04 -6.33,1.831c-1.107,0.791 -4.429,3.639 -4.904,5.774c-0.474,2.135 0.317,8.305 0.633,10.361c0.317,2.056 2.531,7.356 4.034,10.124c1.503,2.768 4.816,6.204 4.983,7.039c0.237,1.186 1.281,2.547 2.372,2.847c1.783,0.491 9.887,4.746 12.101,5.458c2.215,0.711 8.7,2.056 11.073,0.237c2.373,-1.819 3.165,-4.165 3.204,-6.828m25.902,-38.175c-2.889,8.436 -4.742,13.098 -9.924,19.955m-5.657,-11.413c-0.522,2.679 -3.239,5.219 -5.693,0.948m-7.357,-12.812c1.898,1.74 3.005,3.005 3.559,3.638m2.294,3.401c0.553,1.186 1.798,5.417 1.808,9.471m2.482,-24.314c-8.878,-0.184 -18.787,-6.195 -21.476,-6.67c-2.689,-0.475 -7.57,-0.712 -9.706,0.949c-2.135,1.661 -4.508,4.35 -4.35,7.988c0.159,3.639 0.712,10.045 1.503,12.971c1.287,4.762 3.968,12.809 6.248,17.242c1.424,2.769 3.516,6.011 6.881,7.751c4.588,2.373 9.412,7.593 13.762,9.175c4.35,1.582 10.203,2.689 13.367,2.294c3.163,-0.396 6.723,-2.369 6.723,-5.695c-0,-5.3 -2.294,-8.384 -3.56,-10.756c-1.265,-2.373 -6.248,-6.328 -8.7,-8.305c-2.452,-1.977 -3.48,-3.717 -7.592,-3.955m10.598,-27.998c2.373,-0.633 5.457,-1.819 7.355,-3.164m-25.467,-26.179c1.74,-0.791 2.531,-1.424 3.638,-2.452m-20.643,-25.072c1.266,-0.474 2.452,-1.344 3.243,-2.294m50.782,49.037c-6.649,-8.383 -9.575,-12.813 -12.185,-16.134c-2.61,-3.322 -7.514,-9.254 -8.384,-11.073c-0.87,-1.819 -3.243,-5.537 -5.22,-8.384c-1.977,-2.847 -7.039,-9.57 -9.333,-12.417c-2.294,-2.848 -3.796,-5.695 -4.745,-7.119c-0.95,-1.423 -2.61,-4.271 -3.718,-6.406c-1.107,-2.136 -4.113,-6.723 -6.09,-8.858c-1.977,-2.136 -5.062,-4.588 -6.723,-5.616c-1.661,-1.028 -6.327,-3.084 -9.332,-1.265c-3.006,1.819 -5.932,7.751 -2.69,14.711c3.243,6.96 6.011,12.022 7.514,14.157c1.503,2.136 4.508,6.723 4.983,8.384c0.474,1.661 1.424,5.536 2.452,6.881c1.028,1.344 2.61,3.717 3.005,4.824c0.396,1.108 2.373,4.034 3.718,6.09c1.344,2.057 5.852,9.096 6.96,10.757c1.107,1.661 2.214,5.141 3.401,6.09c1.186,0.949 4.191,4.746 5.378,6.723c1.186,1.977 2.056,4.113 3.005,5.299c0.949,1.186 3.006,3.559 3.638,5.062c0.633,1.503 2.215,3.48 2.373,5.773c0.158,2.294 0.87,7.989 1.345,10.441m36.856,-24.756c2.69,1.74 4.904,2.214 6.644,2.214c1.74,0 4.825,-0.158 5.616,-0.553m-11.073,-31.479c1.582,0.317 3.796,0.554 4.745,0.475m-5.932,-31.399c1.582,0.711 4.351,0.87 5.932,0.553m17.067,92.677c0.239,-6.845 -1.246,-20.728 -1.985,-23.32c-0.518,-1.818 -0.737,-8.382 -0.924,-9.88c-0.475,-3.796 -3.006,-22.936 -3.006,-24.677c0,-1.74 0.158,-8.541 -0.158,-11.231c-0.316,-2.689 -0.949,-10.123 -1.265,-12.812c-0.317,-2.689 -1.424,-8.7 -1.424,-11.548c-0,-2.847 0.316,-4.271 0.475,-7.751c0.158,-3.48 -0.159,-18.349 -2.057,-22.462c-1.898,-4.112 -5.615,-4.824 -7.593,-4.903c-1.977,-0.079 -7.118,2.135 -9.332,8.779c-2.215,6.643 -1.899,17.163 -1.74,20.326c0.158,3.164 0.553,7.277 0.316,10.519c-0.237,3.243 -0.633,10.994 -0.633,13.13c0,2.135 0.079,8.542 -0.553,11.784c-0.633,3.243 -4.034,17.163 -5.458,20.485c-1.423,3.322 -2.214,4.508 -3.717,7.593c-1.503,3.084 -2.056,4.745 -4.113,8.779m46.47,30.267c-6.687,-6.223 -8.901,-8.279 -9.692,-9.861c-0.791,-1.582 -2.531,-3.322 -4.588,-5.22m-9.965,5.694c-2.215,-2.097 -4.412,-4.371 -5.882,-5.21m24.963,20.764c-4.212,-3.374 -9.432,-6.537 -12.279,-10.017m-6.802,85.102c-6.802,-0.316 -7.118,0.791 -12.655,-3.796m-18.982,-7.751c-1.74,-2.373 -2.373,-3.955 -3.005,-6.011m75.295,60.584c-5.536,-10.44 -8.951,-17.204 -9.742,-19.418c-0.791,-2.215 -4.927,-12.126 -6.235,-14.591c-1.233,-2.326 -4.913,-12.358 -5.071,-16.945c-0.158,-4.587 0.419,-9.601 2.234,-11.947c1.452,-1.876 6.15,-8.551 8.048,-10.924c1.898,-2.373 8.844,-9.528 9.817,-13.808c0.791,-3.48 2.965,-10.835 5.536,-15.977c0.949,-1.898 6.328,-13.92 7.909,-16.293c1.582,-2.373 4.688,-7.116 5.796,-7.433c1.107,-0.316 4.757,-4.046 7.334,-4.905c2.878,-0.96 8.035,-4.207 8.858,-5.853c0.633,-1.265 4.583,-7.483 -1.119,-12.07c-2.72,-2.189 -8.51,-3.079 -14.178,-3.075c-4.168,0.003 -8.208,1.37 -11.196,2.77c-3.849,1.803 -6.845,2.753 -7.953,4.651c-1.107,1.898 -6.682,9.306 -8.264,11.204c-1.581,1.898 -5.061,5.537 -6.327,7.751c-1.265,2.215 -8.067,10.124 -9.491,11.389c-1.424,1.266 -2.689,2.848 -6.327,3.48" style="fill:none;fill-rule:nonzero;stroke:#000;stroke-width:1.8px;"/><path d="M104.241,265.176l117.85,-4.628" style="fill:none;"/></svg>