<?xml version="1.0" encoding="UTF-8" standalone="yes"?>
<!DOCTYPE svg PUBLIC "-//W3C//DTD SVG 1.0//EN" "http://www.w3.org/TR/2001/REC-SVG-20010904/DTD/svg10.dtd">
<svg height="285" style="background-color:white" width="285" xmlns="http://www.w3.org/2000/svg" xmlns:svg="http://www.w3.org/2000/svg" xmlns:xlink="http://www.w3.org/1999/xlink">
	<path d="m 103.5714,238.86129 c 4.62593,9.04474 8.02687,18.93119 8.6596,19.95939 0.63273,1.02819 1.81911,4.6664 3.24276,8.38371 M 73.692338,173.79127 c 0.337413,6.25416 1.998337,17.64335 2.868345,20.80702 0.870007,3.16366 5.220046,12.65465 5.536413,14.79013 0.316366,2.13547 5.220046,15.0274 7.35552,18.27016 2.135473,3.24276 6.667939,9.14911 9.728268,10.67737 1.768976,0.88339 4.270946,1.02819 8.779166,-0.71183 m -2.61002,-56.86687 c 1.42365,-1.58183 1.8982,-2.05638 2.68911,-3.32185 M 90.797173,159.79797 c 2.45184,-1.18637 5.37823,-2.7682 6.406421,-4.35003 m -22.066561,13.99921 c 2.372749,-0.79091 4.191856,-2.13547 4.745497,-3.00548 m -6.95746,-30.62106 c -2.770808,0.17079 -5.222648,1.0408 -6.329931,1.83171 -1.107282,0.79092 -4.42913,3.63822 -4.90368,5.77369 -0.47455,2.13547 0.316367,8.30462 0.632733,10.361 0.316366,2.05638 2.530932,7.35552 4.033672,10.12373 1.502741,2.76821 4.815714,6.20386 4.982772,7.03915 0.237274,1.18638 1.280872,2.547 2.372748,2.8473 1.782797,0.49033 9.886452,4.7455 12.101017,5.45732 2.214566,0.71183 8.700078,2.05638 11.072826,0.23728 2.372749,-1.81911 3.165043,-4.16456 3.203903,-6.82778 m 25.90181,-38.17535 c -2.88886,8.43645 -4.74201,13.09852 -9.92426,19.95529 m -5.65679,-11.4134 c -0.52163,2.67925 -3.23901,5.21949 -5.69273,0.94882 m -7.357383,-12.81256 c 1.898199,1.74002 3.005483,3.00548 3.559123,3.63821 m 2.29366,3.40094 c 0.55364,1.18638 1.79801,5.41691 1.80856,9.47079 m 2.48145,-24.31407 c -8.877327,-0.18412 -18.786489,-6.19508 -21.475603,-6.66963 -2.689115,-0.47455 -7.570086,-0.71183 -9.705559,0.94909 -2.135474,1.66093 -4.508223,4.35004 -4.350039,7.98825 0.158183,3.63822 0.711825,10.04464 1.502741,12.97103 1.286786,4.76111 3.968007,12.8082 6.248237,17.24197 1.423653,2.76821 3.515795,6.01038 6.88097,7.75098 4.587318,2.37274 9.411903,7.5928 13.761943,9.17463 4.35004,1.58183 10.20282,2.68911 13.36648,2.29366 3.16367,-0.39546 6.72279,-2.36899 6.72279,-5.6946 0,-5.29973 -2.29366,-8.38371 -3.55912,-10.75646 -1.26547,-2.37275 -6.24824,-6.32733 -8.70008,-8.30462 -2.45184,-1.97729 -3.48003,-3.7173 -7.5928,-3.95458 m 10.59828,-27.99843 c 2.37275,-0.63273 5.45732,-1.81911 7.35552,-3.16367 M 93.09083,89.01098 c 1.740015,-0.790916 2.530932,-1.423649 3.638214,-2.45184 M 76.086133,61.487098 c 1.265466,-0.474549 2.45184,-1.344557 3.242756,-2.293656 M 130.11087,108.2298 c -6.64886,-8.383269 -9.57525,-12.812399 -12.18527,-16.134247 -2.61003,-3.321848 -7.51371,-9.253719 -8.38371,-11.072826 -0.87001,-1.819107 -3.24276,-5.536413 -5.22005,-8.383711 -1.97729,-2.847298 -7.039155,-9.570085 -9.332811,-12.417383 -2.293657,-2.847299 -3.796398,-5.694597 -4.745497,-7.118246 -0.9491,-1.423649 -2.610024,-4.270947 -3.717306,-6.40642 -1.107283,-2.135474 -4.112764,-6.722788 -6.090054,-8.858261 -1.977291,-2.135474 -5.061864,-4.587314 -6.722788,-5.615505 -1.660923,-1.028191 -6.327329,-3.084573 -9.33281,-1.265466 -3.005481,1.819107 -5.931871,7.750978 -2.689115,14.711041 3.242756,6.960062 6.010963,12.021925 7.513703,14.157398 1.502741,2.135474 4.508222,6.722788 4.982772,8.383712 0.47455,1.660923 1.423649,5.536413 2.45184,6.88097 1.028191,1.344557 2.610023,3.717306 3.005481,4.824588 0.395459,1.107283 2.372749,4.033673 3.717306,6.090055 1.344558,2.056382 5.85278,9.095535 6.960062,10.756459 1.107283,1.660924 2.214566,5.140952 3.40094,6.090052 1.186374,0.9491 4.191855,4.7455 5.37823,6.72279 1.186377,1.97729 2.056377,4.11276 3.005477,5.29914 0.9491,1.18637 3.00549,3.55912 3.63822,5.06186 0.63273,1.50274 2.21456,3.48003 2.37275,5.77369 0.15818,2.29366 0.87,7.98825 1.34455,10.44009 m 36.8567,-24.75567 c 2.68911,1.74001 4.90368,2.21456 6.6437,2.21456 1.74001,0 4.82458,-0.15818 5.6155,-0.55364 M 147.50586,81.576368 c 1.58183,0.316367 3.7964,0.553642 4.7455,0.47455 m -5.93187,-31.399371 c 1.58183,0.711825 4.35003,0.870008 5.93187,0.553642 m 17.06712,92.676361 c 0.23895,-6.84485 -1.24693,-20.72793 -1.98581,-23.31971 -0.51815,-1.81753 -0.73663,-8.38153 -0.92391,-9.87976 -0.47455,-3.7964 -3.00549,-22.936566 -3.00549,-24.676581 0,-1.740016 0.15819,-8.541894 -0.15818,-11.231009 -0.31636,-2.689115 -0.9491,-10.123727 -1.26546,-12.812842 -0.31637,-2.689115 -1.42365,-8.700077 -1.42365,-11.547376 0,-2.847298 0.31636,-4.270947 0.47455,-7.750978 0.15818,-3.480031 -0.15819,-18.349254 -2.05639,-22.462018 -1.89819,-4.112764 -5.6155,-4.824589 -7.59279,-4.90368 -1.97729,-0.07909 -7.11825,2.135473 -9.33281,8.779169 -2.21457,6.643695 -1.8982,17.16288 -1.74002,20.326545 0.15819,3.163664 0.55364,7.276428 0.31637,10.519184 -0.23727,3.242757 -0.63273,10.993735 -0.63273,13.129208 0,2.135474 0.0791,8.541895 -0.55364,11.784651 -0.63274,3.242756 -4.03368,17.16288 -5.45733,20.484727 -1.42364,3.32185 -2.21456,4.50822 -3.7173,7.5928 -1.50274,3.08457 -2.05638,4.74549 -4.11277,8.77917 m 46.46982,30.26721 c -6.68673,-6.22336 -8.9013,-8.27975 -9.69221,-9.86158 -0.79092,-1.58183 -2.53094,-3.32185 -4.58732,-5.22004 m -9.96554,5.69459 c -2.21456,-2.09737 -4.41159,-4.37128 -5.88157,-5.21045 m 24.96304,20.76409 c -4.21225,-3.37353 -9.43229,-6.5372 -12.27959,-10.01723 m -6.80188,85.10258 c -6.80188,-0.31637 -7.11825,0.79092 -12.65466,-3.7964 m -18.98199,-7.75097 c -1.74001,-2.37275 -2.37275,-3.95459 -3.00548,-6.01097 m 75.29522,60.58418 c -5.53642,-10.44009 -8.95093,-17.2036 -9.74185,-19.41816 -0.79091,-2.21457 -4.92754,-12.12569 -6.23466,-14.59124 -1.23316,-2.32602 -4.91328,-12.35748 -5.07146,-16.94479 -0.15818,-4.58732 0.41863,-9.6012 2.23376,-11.94681 1.45212,-1.87651 6.14995,-8.55149 8.04815,-10.92424 1.8982,-2.37274 8.8442,-9.52813 9.81696,-13.80827 0.79092,-3.48003 2.96545,-10.83459 5.53641,-15.97651 0.9491,-1.89819 6.32733,-13.92012 7.90916,-16.29287 1.58184,-2.37275 4.68793,-7.11659 5.79521,-7.43296 1.10728,-0.31637 4.75745,-4.04647 7.334,-4.90533 2.87855,-0.95953 8.03538,-4.20701 8.85826,-5.85278 0.63273,-1.26546 4.58306,-7.48279 -1.11852,-12.0699 -2.7208,-2.18898 -8.51069,-3.07906 -14.17854,-3.07473 -4.16744,0.003 -8.2074,1.36941 -11.1963,2.7696 -3.84826,1.80277 -6.84492,2.75299 -7.95221,4.65119 -1.10728,1.8982 -6.68207,9.30567 -8.2639,11.20387 -1.58183,1.8982 -5.06186,5.53641 -6.32733,7.75098 -1.26547,2.21457 -8.06734,10.12373 -9.49099,11.38919 -1.42365,1.26547 -2.68912,2.8473 -6.32733,3.48003" style="fill:none;stroke:#000000;stroke-width:1.79999995;stroke-linecap:round;stroke-miterlimit:4;stroke-opacity:1;stroke-dasharray:none;display:inline" />
	<!-- 
	Generated using the Perl SVG Module V2.50
	by Ronan Oger
	Info: http://www.roitsystems.com/
 -->
</svg>