<?xml version="1.0" encoding="UTF-8" standalone="no"?><!DOCTYPE svg PUBLIC "-//W3C//DTD SVG 1.1//EN" "http://www.w3.org/Graphics/SVG/1.1/DTD/svg11.dtd"><svg width="100%" height="100%" viewBox="0 0 285 285" version="1.1" xmlns="http://www.w3.org/2000/svg" xmlns:xlink="http://www.w3.org/1999/xlink" xml:space="preserve" xmlns:serif="http://www.serif.com/" style="fill-rule:evenodd;clip-rule:evenodd;stroke-linecap:round;"><path d="M107.904,274.116c38.63,0.299 41.861,1.595 68.807,0.382c-1.352,-2.691 -4.36,-8.679 -3.18,-37.512c0.52,-12.712 7.147,-19.27 19.648,-27.029c1.825,-1.133 2.124,-0.248 3.831,-1.431c5.504,-3.813 13.889,-11.184 20.929,-22.787c1.928,-3.177 8.578,-19.81 31.841,-30.191c7.608,-3.395 15.427,-5.747 9.312,-12.189c-6.144,-6.473 -2.856,-5.124 -15.267,-8.02c-24.305,-5.67 -42.065,29.027 -53.521,25.597c-14.019,-4.198 -17.047,-30.767 -17.023,-34.706c0.097,-15.868 3.542,-24.983 5.073,-32.703c1.155,-5.824 2.491,-14.868 3.022,-19.508c0.543,-4.75 1.891,-16.26 2.33,-20.904c0.544,-5.759 2.76,-18.897 -2.399,-24.342c-2.375,-2.508 -11.906,-2.464 -15.727,6.008c-1.936,4.292 -2.626,21.57 -5.582,36.089c-3.799,18.665 -10.269,34.807 -16.603,34.448c-1.946,-0.11 -3.772,-30.34 -3.89,-32.729c-0.513,-10.348 -0.332,-17.918 -0.932,-25.383c-1.702,-21.193 -4.795,-34.241 -13.587,-35.091c-1.425,-0.138 -6.887,1.126 -8.416,10.788c-1.225,7.743 1.461,22.907 0.431,31.922c-0.775,6.779 0.66,21.163 0.475,35.433c-0.088,6.728 1.605,9.389 0.707,15.652c-1.65,11.506 -8.032,5.663 -13.181,-9.596c-4.58,-13.575 -9.635,-24.227 -14.649,-37.394c-4.548,-11.943 -7.611,-20.251 -12.901,-21.62c-3.398,-0.88 -8.763,0.863 -9.148,5.241c-0.443,5.035 8.101,33.151 8.758,35.239c2.159,6.866 6.49,18.88 8.465,25.017c5.379,16.713 8.197,23.71 -0.453,23.374c-8.464,-0.329 -45.705,-47.952 -54.167,-41.235c-1.069,0.848 -3.843,1.997 -2.59,10.364c0.224,1.502 20.623,27.219 38.093,43.999c1.878,1.804 5.263,4.01 7.002,4.618c1.75,0.613 -0.986,12.041 7.643,38.669c5.148,15.884 11.233,33.401 14.487,39.171c4.448,7.888 10.09,10.765 11.405,22.167c0.715,6.207 0.834,12.325 1.212,19.514c0.18,3.437 0.236,3.195 -0.25,6.632l-0.005,4.046Z" style="fill:#fff;"/><path d="M151.896,238.022c0.223,2.349 1.006,6.152 1.006,6.152c0.15,3.932 0.136,6.863 0.448,9.731m-0.895,-28.634c3.915,1.342 9.06,1.566 11.744,1.006m-82.994,-63.308c1.23,-0.559 4.142,-1.164 6.04,-1.566c3.517,-0.745 9.701,-4.878 11.633,-6.711c3.2,-1.216 5.786,-0.894 10.066,-4.81c2.667,-0.873 5.237,-2.037 7.606,-3.803l4.251,-3.243m-13.697,92.724c3.103,2.275 4.809,2.741 8.895,1.189c1.93,-0.733 3.982,-0.983 3.982,-0.983m-46.458,-91.89c-0.745,2.937 1.276,16.594 2.326,17.82c0.322,1.421 0.672,2.828 1.265,4.113c0.895,7.086 2.059,12.42 4.983,19.061c0.867,4.9 3.346,12.571 5.616,17.717c0.878,4.559 5.031,10.923 5.347,12.268c0.317,1.344 4.425,9.83 4.855,11.143c0.731,2.223 2.632,3.371 3.897,4.593c0.682,2.485 2.813,4.169 4.013,6.4c0.85,1.581 1.97,17.267 2.214,25.942c0.102,3.639 -0.316,10.915 -0.316,10.915m-45.003,-145.37c0.949,-1.819 3.321,-3.797 3.954,-4.271m-21.275,-14.316c1.265,-0.949 2.056,-2.135 2.689,-3.163m39.198,19.93c-4.003,-0.79 -9.302,-4.429 -10.013,-4.982c-0.712,-0.554 -3.085,-3.322 -3.955,-4.271c-0.87,-0.949 -4.67,-4.107 -5.457,-4.587c-0.754,-0.46 -3.685,-4.683 -8.305,-7.751c-3.202,-2.127 -5.853,-6.881 -8.305,-8.542c-2.451,-1.661 -8.877,-9.369 -12.892,-11.31c-8.228,-3.981 -12.022,4.587 -9.965,9.491c2.056,4.903 4.429,8.462 9.649,13.445c1.136,1.084 3.288,3.058 3.955,4.35c1.265,2.452 4.824,5.378 5.536,6.723c0.712,1.345 6.09,6.802 7.197,7.356c1.108,0.553 2.373,5.061 5.774,6.564c1.375,0.607 3.824,3.749 5.396,5.613c2.318,2.747 4.607,4.624 5.361,4.906c1.265,0.475 2.53,1.898 6.169,-5.141m10.519,-54.257c0.949,-0.87 3.084,-1.581 3.954,-1.423m-11.942,-20.248c1.819,-0.316 2.926,-0.949 3.242,-1.265m31.65,50.572c-2.386,-1.061 -5.945,-5.411 -6.578,-7.072c-0.632,-1.661 -3.875,-11.389 -4.903,-14.553c-1.028,-3.163 -2.373,-7.118 -3.401,-8.541c-1.028,-1.424 -2.61,-6.961 -3.559,-8.384c-0.949,-1.424 -2.848,-5.695 -3.322,-7.514c-0.475,-1.819 -3.006,-7.672 -3.797,-8.542c-0.79,-0.87 -1.344,-6.169 -2.451,-8.067c-1.108,-1.898 -4.371,-9.93 -7.198,-11.31c-4.647,-2.27 -10.361,-1.107 -11.231,5.536c-0.443,3.387 1.582,12.101 2.61,14.474c1.028,2.373 2.452,6.723 2.689,8.305c0.238,1.581 1.108,6.169 1.582,7.592c0.475,1.424 2.61,5.695 2.61,7.514c0,1.819 2.689,7.672 2.689,7.672l2.294,5.457c0,0 0.87,5.299 1.898,7.514c1.028,2.215 2.452,5.299 2.927,7.356c0.474,2.056 4.112,12.259 3.559,13.366c-0.554,1.107 -5.299,5.457 -7.039,5.853m39.229,-83.284c2.61,-0.158 4.192,-0.316 6.011,-0.158m-3.401,27.208c1.582,0.395 3.085,0.395 3.955,0.158m-5.379,36.54c2.373,0.158 4.35,-0.395 5.141,-0.712m14.918,-2.895c-1.551,-0.585 -2.342,-0.506 -3.054,-5.884c-0.712,-5.378 -1.107,-19.14 -1.424,-21.513c-0.316,-2.373 -0.632,-29.026 -1.581,-32.665c-0.95,-3.638 -0.517,-21.356 -6.96,-29.343c-4.77,-5.912 -9.491,-5.615 -14,1.582c-3.542,5.656 -0.237,28.394 -0.237,28.394c0,0 -0.949,4.825 -0.949,9.57c-0,3.559 1.345,10.994 1.186,12.576c-0.137,1.346 -0.791,9.886 -0.712,13.999c0.08,4.113 1.424,22.857 0.95,23.886c-0.475,1.028 -1.424,5.062 -3.006,5.852c-1.582,0.791 -4.35,1.108 -7.276,3.164m51.726,-4.271c3.005,2.215 7.751,4.904 11.072,7.751m-4.587,-32.427c2.215,1.265 4.271,2.056 6.09,1.977m-2.373,-29.501c2.373,0.712 5.379,2.135 5.853,2.689m-34.8,117.451c-1.582,5.141 -2.61,11.864 -3.006,18.112c-0.395,6.248 2.848,15.027 4.034,17.479m-6.96,-66.358c5.141,-2.847 8.621,-4.192 16.53,-4.745m29.888,9.86c-2.866,-9.081 -5.686,-13.024 -6.319,-14.606c-0.632,-1.582 -1.107,-15.976 -1.66,-17.716c-0.554,-1.74 2.768,-14.711 3.242,-16.61c0.475,-1.898 2.61,-13.445 2.927,-15.501c0.316,-2.057 1.736,-6.927 2.61,-15.977c0.594,-6.153 1.265,-13.208 1.265,-15.265c0,-2.056 1.582,-12.338 1.503,-16.688c-0.079,-4.35 0.791,-13.683 -8.542,-13.762c-9.333,-0.079 -11.547,11.231 -11.943,17.637c-0.395,6.407 -0.87,11.864 -0.87,11.864l-1.265,5.141c-1.805,5.46 -2.725,12.689 -3.955,19.299c-2.083,3.675 -3.395,8.274 -4.429,13.208c-2.129,2.875 -4.574,5.661 -5.299,8.937c-0,0 -7.514,5.141 -10.44,6.09m50.707,51.914c-3.807,-2.519 -5.485,-7.217 -11.525,-11.244c-1.677,-1.118 -4.977,-4.474 -7.606,-5.648m6.879,129.581c-1.118,-10.514 -2.46,-17.002 -2.796,-21.923c-0.336,-4.922 -0.671,-14.541 -0.112,-18.68c0.559,-4.138 4.81,-11.52 6.152,-12.639c1.342,-1.118 9.843,-8.165 11.856,-9.731c2.014,-1.566 6.6,-3.467 7.718,-4.586c1.119,-1.118 9.284,-7.047 10.179,-9.172c0.895,-2.125 4.586,-3.803 4.809,-4.81c0.224,-1.006 4.586,-8.053 5.257,-9.619c0.672,-1.566 12.081,-14.764 12.081,-14.764l1.789,-2.237l3.579,-2.014l4.139,-3.467c-0,-0 5.145,-2.908 8.165,-4.139c3.02,-1.23 9.744,-4.21 10.738,-5.48c0.645,-0.825 1.239,-5.352 -0.671,-7.774c-2.087,-2.646 -7.103,-5.705 -12.192,-7.103c-3.275,-0.9 -12.3,-1.619 -18.791,0.559c-3.367,1.13 -9.412,7.106 -10.626,7.495c-2.796,0.894 -11.906,9.465 -13.87,10.402c-2.214,1.056 -6.412,5.982 -8.836,6.599c-3.076,0.783 -9.149,0.33 -11.745,-0.112c-2.814,-0.479 -6.992,-2.814 -7.941,-4.026" style="fill:none;fill-rule:nonzero;stroke:#000;stroke-width:1.8px;"/></svg>