<?xml version="1.0" encoding="UTF-8" standalone="no"?>
<svg
   height="285"
   width="285"
   version="1.1"
   id="svg1"
   sodipodi:docname="five_angled.svg"
   inkscape:version="1.4.3 (0d15f75, 2025-12-25)"
   xmlns:inkscape="http://www.inkscape.org/namespaces/inkscape"
   xmlns:sodipodi="http://sodipodi.sourceforge.net/DTD/sodipodi-0.dtd"
   xmlns="http://www.w3.org/2000/svg"
   xmlns:svg="http://www.w3.org/2000/svg">
  <defs
     id="defs1" />
  <sodipodi:namedview
     id="namedview1"
     pagecolor="#818181"
     bordercolor="#999999"
     borderopacity="1"
     inkscape:showpageshadow="2"
     inkscape:pageopacity="0"
     inkscape:pagecheckerboard="0"
     inkscape:deskcolor="#d1d1d1"
     inkscape:zoom="4.0947368"
     inkscape:cx="202.3329"
     inkscape:cy="240.18638"
     inkscape:window-width="2560"
     inkscape:window-height="1369"
     inkscape:window-x="-8"
     inkscape:window-y="584"
     inkscape:window-maximized="1"
     inkscape:current-layer="svg1" />
  <!-- 
	Generated using the Perl SVG Module V2.50
	by Ronan Oger
	Info: http://www.roitsystems.com/
 -->
  <path
     style="fill:#ffffff"
     d="m 206.79238,272.24066 c 0,0 -8.02994,-70.62888 -7.25284,-69.50642 0.77709,1.12246 -6.13038,-17.5277 -6.13038,-17.5277 0,0 -18.3048,0 -29.87481,-8.63434 -11.57001,-8.63434 -22.70831,-23.91712 -22.70831,-23.91712 0,0 -9.86473,-11.46208 -10.72816,-11.03036 -0.86344,0.43171 -19.38409,-3.60484 -19.38409,-3.60484 l -17.117574,2.37444 -16.40524,-2.93567 c 0,0 -7.555046,2.33127 -7.857247,2.24493 -0.302202,-0.0863 -13.81494,-4.53303 -13.81494,-4.53303 l -6.518925,-5.22377 -1.640524,-6.30307 4.230825,-5.56915 15.196434,0.3022 5.525976,-7.59821 9.368256,-5.48281 -13.685425,-3.54007 -5.698662,-4.921577 -8.418479,0.345373 -15.11009,-6.044036 -5.785006,-8.677509 0.647575,-9.022882 5.569147,-1.899554 28.14794,5.655491 34.537349,-1.079293 -5.957692,-7.296015 -7.425531,0.259031 -12.088072,-2.80616 -16.059867,-6.518925 -2.331271,-3.281048 -4.748886,0.345374 -10.231689,-4.489856 c 0,0 -10.059003,-7.94359 -9.843145,-9.238741 0.215858,-1.29515 -4.576199,-9.497771 -3.151533,-12.390274 1.424666,-2.892503 4.187653,-4.662542 4.187653,-4.662542 l 4.878401,0.345373 c 0,0 1.899554,-5.741834 5.396461,-5.051087 3.496906,0.690747 31.040442,10.404377 31.040442,10.404377 l 24.478349,4.273997 13.77177,1.467837 18.1321,3.32422 c 0,0 13.03785,0.733918 14.41935,2.374443 1.38149,1.640524 21.45633,2.676644 21.45633,2.676644 l 7.94359,4.619371 16.05986,25.730325 10.36121,15.023747 5.82818,7.296015 24.392,35.184921 18.95237,39.24307 10.44755,29.5726 z"
     id="path2" />
  <path
     d="m 67.25192,118.64836 c -8.41754,-0.64404 -13.898309,-1.53886 -16.470915,0.13892 -2.195203,1.43165 -5.033356,5.36892 -2.237049,10.06672 3.410235,5.7292 12.86303,8.72449 15.211931,9.39561 2.348901,0.67111 7.49059,2.76464 13.588309,-1.02251 M 97.42347,98.541993 c 0.894819,-1.565934 1.789638,-3.355573 2.237048,-4.585949 m -37.382652,2.352098 c 0.679059,2.984748 7.006388,5.832048 9.379136,6.622958 2.372749,0.79092 7.60902,1.54293 12.174741,2.17363 M 65.329673,91.700095 c 0.870008,-1.22592 1.740016,-3.084573 2.17502,-4.705951 M 103.89894,76.421462 c -4.559873,-0.53969 -9.621736,0.725776 -9.621736,0.725776 -4.270947,-0.508683 -12.972465,0.115664 -14.869223,10e-7 -1.50118,-0.09154 -9.133892,-0.701709 -12.021926,-0.158184 -2.967825,-0.384751 -4.336818,-0.454836 -6.485512,-0.790916 -2.085076,-0.32613 -16.767422,-3.796397 -18.191071,-4.112764 -5.543857,-1.23197 -8.541895,0.158183 -9.332811,2.056382 -0.790916,1.898198 -2.214565,12.338292 7.276429,17.716521 9.490993,5.37823 19.298354,6.960062 23.094751,3.480031 m 61.375089,-6.88097 c 1.66093,1.50274 2.8473,2.92639 6.80188,3.084573 m -7.22063,-10.792536 c -2.58673,2.250641 -3.21946,3.832474 -3.69401,4.544298 m -1.26547,3.005482 c -0.9491,1.50274 -4.35003,8.304619 -5.45732,14.711044 M 96.882701,68.444841 c 0.320893,3.086892 2.060909,5.459641 7.043679,7.990573 4.98277,2.530932 14.39467,6.485512 21.43383,4.112763 M 57.830497,56.100144 c 0.697297,1.74874 2.674588,3.567847 7.578268,5.624229 4.90368,2.056382 15.739231,6.010963 18.270163,6.485513 2.530931,0.474549 12.73375,3.084573 16.213781,-2.135474 M 39.224063,26.582625 c -4.102399,-0.856566 -6.115742,-0.185451 -7.122414,0.709368 -1.006672,0.89482 -2.746295,3.537655 -1.901492,6.822999 1.006672,3.914835 1.677787,9.060047 8.053375,14.317111 6.375589,5.257065 9.843014,6.711146 11.632653,7.382261 1.789639,0.671115 6.637675,2.711599 9.060047,-0.89482 m 74.493718,18.3438 c 1.90149,-2.237049 3.02002,-3.691131 3.91484,-5.48077 M 107.82575,57.268446 c 1.45408,-0.89482 2.23704,-2.237049 2.90816,-3.579278 M 72.592229,48.096546 c 0.89482,-0.894819 1.901492,-2.013344 2.237049,-2.684458 M 261.62284,201.89364 c -4.80965,-12.97488 -5.48077,-13.31044 -6.04003,-16.33045 -0.55926,-3.02002 -4.13854,-11.5208 -5.70447,-15.32379 -1.56594,-3.80298 -6.823,-14.42897 -7.49411,-16.33046 -1.58798,-4.49921 -7.14637,-13.2862 -8.27708,-16.33045 -1.45409,-3.91483 -5.48078,-9.3956 -6.48745,-10.84968 -1.00667,-1.45408 -7.0467,-10.17857 -9.61931,-13.53415 -2.5726,-3.35557 -9.73116,-13.645995 -11.96821,-17.448977 -2.23705,-3.802983 -5.03336,-5.816327 -5.81632,-6.934851 -0.78297,-1.118525 -4.2504,-5.816327 -6.15189,-9.283752 -1.90149,-3.467426 -6.52934,-11.035505 -7.94152,-12.639325 -0.84972,-0.965035 -2.11048,-3.859268 -3.43234,-6.061098 -1.09398,-1.822273 -1.99432,-2.41909 -2.71954,-3.781916 0,0 -3.23227,-11.080737 -16.88972,-12.080063 -3.13147,-0.229132 -16.55416,-1.677787 -16.55416,-1.677787 -8.77662,-2.793655 -16.31054,-2.911392 -24.27198,-3.802982 -7.53414,-1.655031 -14.72168,-3.829954 -23.377156,-3.802983 0,0 -2.125199,-0.559262 -6.487444,-1.454082 C 88.027865,33.332025 76.171507,31.989796 72.480377,30.871271 68.789247,29.752747 56.821036,25.390502 54.24843,24.38383 51.675824,23.377158 44.861239,19.503896 41.329475,22.594191 c -3.781206,3.308556 -2.225561,9.875889 1.286302,13.086735 3.914835,3.579278 8.109301,7.997449 11.744506,9.954867 3.852177,2.07425 8.612637,5.480769 10.849686,6.151884 2.237048,0.671114 5.480769,1.565933 7.158555,2.3489 1.677787,0.782967 8.954782,4.463303 13.534145,5.816327 5.906825,1.745237 17.337131,3.802983 17.337131,3.802983 -0.3644,0 9.08127,4.72458 13.98155,6.487441 6.92447,2.491058 13.6717,4.833442 16.2186,5.257064 2.35732,3.475005 9.19485,7.673201 13.7988,6.375322 m 12.03912,-5.480502 c -3.02002,3.131868 -5.36892,5.704474 -6.823,8.500785 m 4.58595,-13.198587 c -5.03336,5.033359 -8.75533,7.760072 -11.8872,13.464546 -3.13187,5.704474 -4.93875,6.457712 -5.26569,13.463354 m -1.87306,45.67071 c 1.97729,2.05638 4.19185,2.8473 7.59279,2.8473 3.40094,0 6.16915,-0.0791 7.51371,-1.26547 M 70.628811,127.84496 c 0.870008,1.50274 2.689115,4.03367 3.638215,4.7455 m 2.610023,-15.73923 c 1.740015,-1.34456 4.191856,-2.29366 7.197337,-2.29366 3.005481,0 7.35552,0.63273 8.225528,1.58183 0.870007,0.9491 0.237275,6.6437 0.395458,9.25372 0.158183,2.61003 -0.07909,8.85826 -0.711825,10.12373 -0.632733,1.26547 -5.299138,1.02819 -6.643695,0.87001 m 121.309278,38.05636 c 2.023,-0.4046 3.0345,-1.11265 6.069,-4.45059 m -12.84603,18.10582 c 1.51724,2.83219 4.14714,11.02533 6.37244,22.55641 M 147.98041,92.253736 c -1.57269,2.258682 -3.7964,3.559123 -3.7964,3.559123 -3.50673,1.788682 -5.71397,4.032446 -7.84566,5.960391 0,0 -2.9108,1.94877 -5.28355,2.66059 -2.37274,0.71183 -7.69919,1.50275 -10.99373,1.50275 -1.97887,0 -9.21984,-1.42365 -11.15192,-1.42365 -2.38726,0 -8.05963,0.76683 -9.649174,0.79091 -2.525399,0.0383 -6.577218,-0.58861 -11.567844,-0.58861 -7.221098,0 -12.756951,4.00897 -16.762554,7.73806 -4.340198,4.04058 -4.255347,8.82706 -3.780798,11.59527 0.47455,2.7682 1.898199,6.24823 5.931871,9.96554 4.033673,3.7173 6.674895,4.45874 9.247261,4.98654 2.867717,0.5884 9.259294,0.94533 12.107475,0.94533 4.211837,0 16.426813,-2.0849 16.426813,-2.0849 5.04649,2.28687 11.25309,2.58499 17.18712,3.35037 1.70712,0.22999 5.91765,2.93643 7.19734,4.6664 1.60886,2.17496 5.37823,6.96006 6.40642,7.83007 1.02819,0.87001 2.9464,3.3546 3.4865,4.22951 0.64832,1.05025 3.77701,4.42 4.8843,5.29001 1.10728,0.87 8.97377,8.91587 10.5321,10.33248 1.63886,1.48982 4.41596,3.74662 6.74107,5.03603 2.40126,1.33164 5.51813,3.50586 13.26911,5.0086 7.75097,1.50274 11.78465,0.79092 12.41738,1.42365 1.44193,1.44193 4.98277,13.05012 5.93187,17.08379 0.9491,4.03367 2.74161,21.48687 3.16366,25.30931 0.33816,3.06271 2.66266,33.95169 4.62423,45.27493 l 54.91954,-70.80259"
     style="background-color:white;fill:none;stroke:#000000;stroke-width:1.79999995;stroke-linecap:round;stroke-miterlimit:4;stroke-opacity:1;stroke-dasharray:none;display:inline"
     id="path1" />
</svg>
