<?xml version="1.0" encoding="UTF-8" standalone="yes"?>
<!DOCTYPE svg PUBLIC "-//W3C//DTD SVG 1.0//EN" "http://www.w3.org/TR/2001/REC-SVG-20010904/DTD/svg10.dtd">
<svg height="285" style="background-color:white" width="285" xmlns="http://www.w3.org/2000/svg" xmlns:svg="http://www.w3.org/2000/svg" xmlns:xlink="http://www.w3.org/1999/xlink">
	<path d="m 151.8956,238.02198 c 0.22371,2.3489 1.00668,6.15188 1.00668,6.15188 0.15014,3.93182 0.13556,6.86304 0.4474,9.73116 m -0.89481,-28.63422 c 3.91483,1.34223 9.06004,1.56593 11.7445,1.00667 M 81.204867,162.969 c 1.230376,-0.55927 4.142482,-1.1638 6.040031,-1.56594 3.516857,-0.74531 9.701115,-4.87782 11.632653,-6.71114 3.200559,-1.21568 5.786029,-0.89364 10.066719,-4.80966 2.6668,-0.87322 5.23659,-2.03748 7.60597,-3.80298 l 4.25039,-3.24372 m -13.69694,92.72401 c 3.10296,2.2755 4.80958,2.74095 8.89514,1.18947 1.92979,-0.73283 3.98213,-0.98261 3.98213,-0.98261 M 73.52277,143.87589 c -0.744868,2.93744 1.276627,16.59424 2.326088,17.82028 0.322194,1.42074 0.67167,2.82783 1.265466,4.11277 0.894486,7.0859 2.05898,12.42029 4.982772,19.06108 0.867167,4.90008 3.346234,12.57074 5.615504,17.71652 0.87823,4.55979 5.031453,10.9238 5.347819,12.26836 0.316366,1.34456 4.424125,9.8304 4.854999,11.14276 0.730094,2.22372 2.631832,3.37174 3.896742,4.59332 0.68141,2.48534 2.8126,4.16915 4.01242,6.40041 0.84995,1.5806 1.97079,17.26667 2.21456,25.94205 0.10223,3.63831 -0.31636,10.91464 -0.31636,10.91464 M 62.71965,128.4777 c 0.949099,-1.81911 3.321848,-3.7964 3.954581,-4.27095 M 45.398587,109.89117 c 1.265465,-0.9491 2.056382,-2.13548 2.689114,-3.16367 m 39.198023,19.93073 c -4.002254,-0.79056 -9.301392,-4.42877 -10.013217,-4.98241 -0.711824,-0.55364 -3.084573,-3.32185 -3.954581,-4.27095 -0.870007,-0.9491 -4.669849,-4.10707 -5.457321,-4.58731 -0.753782,-0.4597 -3.684917,-4.68287 -8.30462,-7.75098 -3.202041,-2.12659 -5.852779,-6.880973 -8.304619,-8.541897 -2.45184,-1.660923 -8.877446,-9.368237 -12.891933,-11.3101 -8.228362,-3.980174 -12.022026,4.587266 -9.965544,9.490993 2.05645,4.903651 4.429131,8.462804 9.649177,13.445574 1.135613,1.08399 3.287676,3.05791 3.954581,4.35004 1.265466,2.45184 4.824589,5.37823 5.536413,6.72279 0.711825,1.34455 6.090054,6.80188 7.197337,7.35552 1.107283,0.55364 2.372748,5.06186 5.773688,6.5646 1.374468,0.60732 3.824053,3.74926 5.396245,5.61267 2.317988,2.74734 4.606179,4.62375 5.360214,4.90651 1.265466,0.47455 2.530932,1.89821 6.169146,-5.14095 M 87.949875,84.265483 c 0.949099,-0.870008 3.084573,-1.581832 3.954581,-1.423649 M 79.961622,62.594381 c 1.819107,-0.316367 2.92639,-0.949099 3.242756,-1.265466 m 31.649482,50.572065 c -2.38558,-1.06071 -5.94471,-5.41075 -6.57744,-7.07168 -0.63273,-1.66092 -3.87549,-11.38919 -4.90368,-14.552854 -1.02819,-3.163665 -2.37275,-7.118245 -3.40094,-8.541894 C 98.943609,80.310903 97.361777,74.77449 96.412678,73.35084 95.463578,71.927191 93.56538,67.656244 93.09083,65.837137 92.61628,64.01803 90.085349,58.165251 89.294432,57.295243 88.503516,56.425235 87.949875,51.126097 86.842592,49.227898 85.73531,47.329699 82.471886,39.298217 79.645255,37.917797 74.997945,35.648226 69.284254,36.810515 68.414246,43.45421 c -0.443498,3.386708 1.581833,12.101017 2.610024,14.473766 1.028191,2.372748 2.45184,6.722787 2.689114,8.304619 0.237275,1.581832 1.107283,6.169146 1.581833,7.592795 0.474549,1.423649 2.610023,5.694596 2.610023,7.513704 0,1.819107 2.689115,7.671886 2.689115,7.671886 l 2.293657,5.457321 c 0,0 0.870007,5.299139 1.898198,7.513699 1.028191,2.21457 2.45184,5.29914 2.92639,7.35552 0.47455,2.05639 4.112764,12.25921 3.559123,13.36649 -0.553641,1.10728 -5.299138,5.45732 -7.039154,5.85278 M 123.46201,45.273317 c 2.61002,-0.158183 4.19186,-0.316366 6.01096,-0.158183 m -3.40094,27.207515 c 1.58184,0.395459 3.08458,0.395459 3.95458,0.158184 m -5.37823,36.540327 c 2.37275,0.15818 4.35004,-0.39546 5.14096,-0.71183 m 14.91786,-2.89548 c -1.55138,-0.58455 -2.34229,-0.50546 -3.05412,-5.883685 -0.71182,-5.37823 -1.10728,-19.140171 -1.42365,-21.512919 -0.31636,-2.372749 -0.63273,-29.026623 -1.58183,-32.664837 -0.9491,-3.638214 -0.51662,-21.356747 -6.96007,-29.342988 -4.76999,-5.912102 -9.49099,-5.615505 -13.99921,1.581831 -3.54245,5.655496 -0.23727,28.39389 -0.23727,28.39389 0,0 -0.94911,4.824588 -0.94911,9.570085 0,3.559123 1.34457,10.993735 1.18638,12.575567 -0.13709,1.346559 -0.79092,9.886452 -0.71183,13.999216 0.0791,4.112764 1.42366,22.85748 0.94911,23.88567 -0.47455,1.02819 -1.42365,5.06186 -3.00548,5.85278 -1.58184,0.79091 -4.35004,1.10728 -7.27643,3.16366 m 51.72591,-4.27095 c 3.00548,2.21457 7.75098,4.90368 11.07283,7.75098 m -4.58732,-32.42756 c 2.21457,1.265466 4.27095,2.056382 6.09006,1.977291 m -2.37275,-29.501172 c 2.37275,0.711824 5.37823,2.135473 5.85278,2.689115 M 140.62489,178.70087 c -1.58183,5.14096 -2.61002,11.86374 -3.00548,18.11198 -0.39546,6.24824 2.8473,15.02741 4.03367,17.47925 m -6.96006,-66.35787 c 5.14095,-2.8473 8.62098,-4.19185 16.53015,-4.74549 m 29.88736,9.85984 c -2.86572,-9.08093 -5.68533,-13.02351 -6.31807,-14.60534 -0.63273,-1.58183 -1.10728,-15.97651 -1.66092,-17.71652 -0.55364,-1.74002 2.76821,-14.71104 3.24276,-16.60924 0.47455,-1.8982 2.61002,-13.445576 2.92638,-15.501958 0.31637,-2.056382 1.73593,-6.92638 2.61003,-15.976506 0.5943,-6.153175 1.26547,-13.2083 1.26547,-15.264682 0,-2.056382 1.58183,-12.338291 1.50274,-16.68833 -0.0791,-4.350039 0.79092,-13.682849 -8.5419,-13.761941 -9.33281,-0.07909 -11.54737,11.231009 -11.94283,17.63743 -0.39546,6.406421 -0.87001,11.863742 -0.87001,11.863742 l -1.26546,5.140955 c -1.80493,5.459319 -2.72496,12.688423 -3.95458,19.298354 -2.08276,3.675107 -3.39547,8.274273 -4.42913,13.208299 -2.12874,2.875588 -4.57404,5.66073 -5.29914,8.937357 0,0 -7.51371,5.14095 -10.44009,6.09005 m 50.7074,51.9141 c -3.80703,-2.51945 -5.48481,-7.21727 -11.52485,-11.24394 -1.6778,-1.11852 -4.97743,-4.4741 -7.60597,-5.64855 m 6.87893,129.58104 c -1.11853,-10.51412 -2.46076,-17.00157 -2.79631,-21.92307 -0.33556,-4.92151 -0.67112,-14.54082 -0.11186,-18.67936 0.55927,-4.13854 4.80966,-11.5208 6.15189,-12.63932 1.34223,-1.11853 9.84301,-8.16524 11.85636,-9.73117 2.01334,-1.56593 6.59929,-3.46742 7.71781,-4.58595 1.11853,-1.11852 9.28376,-7.0467 10.17858,-9.1719 0.89481,-2.12519 4.58595,-3.80298 4.80965,-4.80965 0.2237,-1.00667 4.58595,-8.05337 5.25706,-9.61931 0.67112,-1.56593 12.08007,-14.76452 12.08007,-14.76452 l 1.78964,-2.23705 3.57927,-2.01334 4.13854,-3.46743 c 0,0 5.14522,-2.90816 8.16523,-4.13854 3.02002,-1.23037 9.74356,-4.21057 10.73784,-5.48077 0.64519,-0.82423 1.23898,-5.35173 -0.67112,-7.77374 -2.08678,-2.64604 -7.10262,-5.70448 -12.19191,-7.10263 -3.27501,-0.89973 -12.3,-1.61924 -18.79121,0.55926 -3.36701,1.13 -9.41135,7.10543 -10.62598,7.49411 -2.79631,0.89482 -11.90594,9.46545 -13.86971,10.40228 -2.21408,1.05624 -6.41253,5.98232 -8.83634,6.59929 -3.07594,0.78297 -9.14913,0.32983 -11.7445,-0.11185 -2.81382,-0.47886 -6.99267,-2.81433 -7.94153,-4.02669" style="fill:none;stroke:#000000;stroke-width:1.79999995;stroke-linecap:round;stroke-miterlimit:4;stroke-opacity:1;stroke-dasharray:none;display:inline" />
	<!-- 
	Generated using the Perl SVG Module V2.50
	by Ronan Oger
	Info: http://www.roitsystems.com/
 -->
</svg>