<?xml version="1.0" encoding="UTF-8" standalone="yes"?>
<!DOCTYPE svg PUBLIC "-//W3C//DTD SVG 1.0//EN" "http://www.w3.org/TR/2001/REC-SVG-20010904/DTD/svg10.dtd">
<svg height="285" style="background-color:white" width="285" xmlns="http://www.w3.org/2000/svg" xmlns:svg="http://www.w3.org/2000/svg" xmlns:xlink="http://www.w3.org/1999/xlink">
	<path d="m 86.447134,53.657028 c 1.621378,-0.514095 2.632478,-1.224978 3.480031,-2.530931 M 173.48312,185.95467 c 1.84557,2.62853 3.80299,9.11597 4.69781,14.26119 0.89482,5.14521 2.51668,9.3956 2.79631,11.24117 m -18.6115,-45.11953 c 3.39957,4.90858 4.29439,8.1523 5.52476,12.62639 1.23038,4.4741 2.90817,10.17857 4.4741,15.65934 1.56593,5.48077 1.23038,4.92151 1.90149,7.60597 0.67112,2.68446 2.68446,18.3438 2.90816,20.80455 0.22371,2.46076 1.23038,10.84969 2.1252,15.32379 0.89482,4.47409 2.90816,11.96821 3.69113,15.54748 0.78297,3.57928 2.57261,12.75118 3.24372,14.98823 M 106.04892,92.58218 c -0.0128,4.393879 0.6583,6.630928 1.44127,7.74945 0.78297,1.11853 4.4741,2.90817 5.14521,3.35558 0.67112,0.44741 2.57261,1.90149 3.69113,4.13854 1.11853,2.23704 3.13187,8.50078 4.36225,11.63265 1.23037,3.13187 3.69113,7.49411 6.15188,11.5208 2.46075,4.02669 1.78964,4.58595 3.69113,6.37559 1.90149,1.78964 5.81633,7.82967 7.38226,10.96154 1.56593,3.13186 3.35557,7.38226 5.25706,9.84301 1.9015,2.46075 6.37559,7.0467 9.50746,7.94152 3.13187,0.89482 8.16523,1.56594 12.63933,-1.00667 m 0.11185,-90.936027 c 2.01335,-0.89482 3.69113,-1.901491 4.92151,-3.579278 m -25.05495,20.133438 c 6.37559,-3.579278 9.84302,-5.033359 12.75118,-9.954866 m -37.58242,21.587523 c 6.71115,0 10.62598,-2.01335 12.08006,-2.796315 1.45409,-0.782967 4.4741,-2.684458 5.70448,-4.362244 m 2.90816,-21.811225 c 0.78297,2.460754 2.01334,3.914835 2.68446,4.58595 m 10.40228,-16.889718 4.81233,-3.467424 m -24.8261,14.733161 c 1.55246,-2.774557 3.78702,-3.685232 7.94578,-4.844096 M 117.8699,84.853132 c 1.14335,-2.812732 2.07359,-3.173506 5.4541,-5.152021 M 69.684066,75.724097 c 1.544507,-0.917247 3.006446,-2.585012 3.579278,-4.13854 M 41.158064,57.32188 c -1.00304,2.742876 -1.114893,6.434007 1.681418,9.006613 2.796311,2.572606 9.843014,7.046703 11.856358,7.941522 2.013344,0.89482 4.58595,2.125197 6.822998,3.467426 2.237049,1.342229 6.822999,3.355573 10.290424,4.250392 3.467426,0.89482 5.480769,1.34223 8.72449,2.684459 3.243721,1.342229 6.151884,2.572606 7.941523,2.684458 4.921507,2.684459 8.27708,4.250393 10.625981,4.58595 2.348904,0.335557 5.368914,1.118524 7.270404,0.559262 1.9015,-0.559262 5.36892,-2.572606 7.38226,-4.026687 2.01335,-1.454082 2.23705,-1.34223 3.13187,-2.460754 0.89482,-1.118524 2.57815,-2.227069 0.8976,-5.308001 m -17.36301,-8.748628 c 0.60536,1.680451 1.03234,3.089223 3.60238,4.213615 3.57928,1.565934 8.27708,4.026687 11.07339,4.362245 2.79631,0.335557 6.26374,0.223705 7.94153,-0.671115 1.67778,-0.894819 6.48744,-4.58595 7.94152,-5.368917 1.45408,-0.782967 4.87941,-1.572465 3.44638,-5.931444 M 71.585557,63.196625 c 1.901492,-0.89482 2.908164,-2.348902 3.467426,-3.243721 M 40.553209,30.724375 c -4.536725,-0.859776 -9.34638,0.258749 -10.688609,1.041716 -1.342229,0.782967 -3.579278,3.020015 -3.802983,5.592621 -0.223705,2.572606 0.335557,6.487442 3.802983,10.178572 3.467425,3.69113 7.38226,7.38226 11.744505,10.066719 4.362245,2.684458 10.737834,5.033359 13.75785,5.480769 3.020015,0.44741 6.711146,1.565934 9.619309,2.684459 2.908163,1.118524 9.954866,3.24372 14.652669,4.250392 4.697802,1.006672 6.375588,2.460754 13.198587,2.684458 6.822998,0.223705 9.95487,-1.118524 13.31044,-4.250392 m 9.55586,-5.756282 c 1.62938,2.065152 5.87978,3.966643 8.67609,4.74961 2.79631,0.782967 6.71114,1.230377 9.95486,1.118524 3.24372,-0.111852 7.71782,-0.782967 9.61931,-1.677786 1.90149,-0.89482 3.35557,-2.237049 3.91484,-2.908163 M 61.110735,26.456544 c -7.980829,-1.513452 -11.112697,-2.408271 -13.573451,-1.849009 -2.460753,0.559262 -6.711146,1.901491 -6.934851,5.480769 -0.223705,3.579278 -1.342229,5.816327 2.237049,10.290424 3.579278,4.474097 6.711146,6.934851 11.408948,8.388933 4.697802,1.454081 5.145212,1.006672 9.507457,2.348901 4.362245,1.342229 8.612637,3.020015 11.297096,3.69113 2.684458,0.671115 7.38226,1.230377 7.38226,1.230377 0,0 3.802983,3.69113 7.382261,4.362245 3.579278,0.671114 18.120096,2.908163 20.357146,2.908163 5.03336,0 9.06004,-1.454082 10.73783,-2.796311 1.67779,-1.342229 3.35557,-3.802983 3.91484,-5.033359 m 64.31514,8.053375 c 3.69114,0 6.26374,0.111852 7.82968,0.559262 m -35.56733,-7.041031 c 1.67604,3.349901 2.12345,5.363245 5.81458,6.369916 3.69113,1.006672 9.50745,1.34223 13.8697,0.559263 4.36224,-0.782967 8.72449,-3.020016 10.84969,-5.145212 M 134.429,51.83237 c 2.59023,3.758289 6.28136,4.205699 8.29471,4.429404 2.01334,0.223705 9.06004,1.454081 12.63932,1.565934 3.57928,0.111852 5.81633,-0.671115 7.38226,-1.230377 m 5.36892,-2.572606 c 1.34223,-1.006672 4.47409,-3.579278 5.70447,-5.480769 M 99.324953,47.42541 c 1.230387,2.125218 3.691137,2.68448 7.941527,3.691152 4.2504,1.006672 12.52748,1.789639 17.00157,1.677786 4.4741,-0.111852 10.47171,-0.170154 14.31711,-2.684458 m 4.69781,-3.802983 c 0.67111,-0.782967 1.90149,-2.572606 2.46075,-3.69113 m 64.089,4.667422 c -2.12275,-5.674094 -3.43788,-9.938735 -7.26796,-13.615617 -2.79631,-2.684459 -5.92818,-6.151884 -9.39561,-6.599293 -3.46742,-0.44741 -11.29709,0.559262 -15.65934,0.559262 -4.36224,0 -14.19967,-1.454082 -18.67935,-1.454082 -2.0673,0 -15.99876,-1.682423 -19.23742,-1.800849 -3.49287,-0.127723 -11.16829,-1.469745 -14.43017,-1.107314 -8.05337,0.894819 -13.19858,0.44741 -16.66601,0.223705 -3.46743,-0.223705 -6.71115,-0.223705 -9.619309,0.335557 -2.908163,0.559262 -22.929749,0.335557 -24.83124,0.111852 -1.901491,-0.223704 -6.599294,-0.447409 -7.82967,-0.335557 -1.230377,0.111853 -5.257065,2.013344 -5.592622,3.802983 -0.335557,1.789639 0.223705,7.046703 4.026688,11.632653 3.802982,4.58595 8.500784,7.382261 11.744505,7.941523 3.243721,0.559262 13.869702,1.118524 16.10675,1.118524 2.237049,0 5.145212,0.559262 8.612638,-1.565934 3.46743,-2.125196 3.80298,-2.572606 4.6978,-4.697802 m 57.60401,108.60871 c -2.57261,-3.91483 -6.26374,-9.28375 -7.04671,-11.7445 -0.78297,-2.46076 -1.00667,-5.81633 -0.78297,-7.49412 m 10.62599,-31.989792 c 3.13186,-5.592622 6.26373,-10.290424 8.27708,-11.96821 2.01334,-1.677787 4.80965,-3.131868 6.26373,-3.467426 M 265.9851,231.13861 c -3.32185,-6.09005 -10.75646,-20.40564 -11.3101,-22.93657 -0.55364,-2.53093 -2.61003,-6.5646 -3.55913,-7.90916 -0.94909,-1.34456 -1.10728,-4.7455 -5.14095,-11.38919 -4.03367,-6.6437 -9.49099,-24.43931 -10.83555,-27.52388 -1.34456,-3.08458 -3.42679,-9.46955 -5.37823,-14.47377 -1.75138,-4.49118 -2.88028,-17.17828 -2.50978,-19.5136 m -24.79846,26.0691 c 3.02002,-0.11185 5.70448,-1.45408 9.1719,-4.6978 3.46743,-3.24372 6.93485,-7.49412 9.28376,-9.95487 2.3489,-2.46075 4.58595,-4.80966 6.04003,-10.17857 1.45408,-5.36892 1.11852,-11.2971 1.00667,-12.86303 -0.11185,-1.56594 -0.55926,-3.80298 -0.33556,-5.48077 0.22371,-1.67779 1.34223,-11.856359 1.67779,-15.100079 0.33556,-3.243721 1.23038,-12.080063 2.3489,-15.211931 1.11852,-3.131869 4.4741,-14.652669 5.25706,-15.211931 0.78297,-0.559263 4.4741,-8.053376 4.80966,-9.060047 0.33556,-1.006672 4.6978,-6.040032 7.27041,-7.270409 2.5726,-1.230376 8.05337,-5.257064 9.06004,-6.375588 1.00668,-1.118525 0.67112,-8.500781 -0.78297,-10.514129 -2.13245,-2.952632 -8.27707,-4.697802 -13.53414,-4.474097 -5.25706,0.223705 -10.3709,2.572411 -12.97488,3.24372 -2.52894,0.651965 -7.48817,2.899323 -8.83634,3.802983 -1.20991,0.975321 -8.16857,7.828641 -9.39561,9.395604 -1.22781,1.567946 -3.02001,3.691131 -4.13854,6.934851 -1.11852,3.243721 -2.3709,5.699779 -3.24372,9.843014 -1.01346,4.810819 -4.36224,12.527473 -5.25706,14.988226 -0.89482,2.460754 -4.25039,8.72449 -4.25039,8.72449 l -1.00668,-1.342229 1.70725,0.01541" style="fill:none;stroke:#000000;stroke-width:1.79999995;stroke-linecap:round;stroke-miterlimit:4;stroke-opacity:1;stroke-dasharray:none;display:inline" />
	<!-- 
	Generated using the Perl SVG Module V2.50
	by Ronan Oger
	Info: http://www.roitsystems.com/
 -->
</svg>