<?xml version="1.0" encoding="UTF-8" standalone="yes"?>
<!DOCTYPE svg PUBLIC "-//W3C//DTD SVG 1.0//EN" "http://www.w3.org/TR/2001/REC-SVG-20010904/DTD/svg10.dtd">
<svg height="285" style="background-color:white" width="285" xmlns="http://www.w3.org/2000/svg" xmlns:svg="http://www.w3.org/2000/svg" xmlns:xlink="http://www.w3.org/1999/xlink">
	<path d="m 93.620487,133.66366 c 3.020015,-2.68446 5.368917,-4.80966 7.046703,-5.81633 m 1.80288,-65.876916 c -1.13177,-2.520846 -4.599191,-3.471592 -6.556608,-3.63937 -1.957418,-0.167779 -5.424843,0.671114 -7.214482,2.292974 -1.789639,1.621861 -3.970762,5.984106 -4.362245,10.905613 -0.391484,4.921507 0.335557,8.948194 0.615188,11.464874 0.279631,2.51668 0.671115,8.221154 0.671115,10.402276 0,2.181123 0.111852,6.263737 0.503336,9.731159 0.391483,3.46743 0.279631,15.49157 0.894819,19.46233 0.615189,3.97076 0.838893,4.08261 0.950746,5.9841 0.111852,1.90149 0.223705,7.82967 -0.167779,9.73116 -0.391483,1.90149 -1.006672,17.0575 -1.118524,20.18937 -0.111853,3.13187 0.782967,11.18524 1.733713,15.88304 0.950745,4.69781 2.125196,9.78709 2.292975,12.3597 0.167778,2.5726 1.398155,7.55004 3.579277,13.42229 2.181123,5.87225 3.970762,11.2971 5.760399,15.156 1.78964,3.85891 3.24372,7.49412 4.6978,9.39561 1.45409,1.90149 5.42485,10.40227 6.54337,11.24117 1.11853,0.83889 2.96409,2.51668 4.80966,5.9841 1.84556,3.46743 2.79631,5.08929 3.35557,7.94153 0.55926,2.85223 1.34223,7.10263 1.45408,10.79376 0.11185,3.69113 0.33556,10.17857 0.55926,12.35969 M 117.3332,118.1721 c -1.78964,0.16777 -5.25706,1.2863 -7.82967,3.41149 1.84557,-1.39815 2.40483,-2.85223 2.18112,-4.41817 -0.2237,-1.56593 -1.90149,-10.6819 -2.12519,-12.35969 -0.22371,-1.67779 -1.23038,-9.395605 -1.51001,-11.520801 -0.27963,-2.125196 -1.34223,-7.661892 -1.56593,-9.507457 -0.22371,-1.845565 -1.78964,-10.625981 -2.18113,-12.86303 -0.39148,-2.237048 -1.84556,-8.724489 -1.84556,-8.724489 0.39148,-6.487442 0.55926,-9.731162 0.39148,-13.75785 -0.16778,-4.026687 -0.50333,-10.570055 0.0559,-13.478218 0.55926,-2.908163 2.68446,-5.592622 3.97076,-6.431515 1.2863,-0.838893 3.80298,-1.733713 5.42484,-1.789639 1.62186,-0.05593 4.93547,-0.127958 7.69684,2.872148 m 13.27272,79.119681 c -0.33275,-5.82032 -0.61238,-8.337 -2.01054,-14.209254 -1.39815,-5.872253 -2.57261,-9.731162 -3.13187,-13.478218 -0.55926,-3.747057 -1.2863,-8.221154 -2.68446,-15.37971 -1.39815,-7.158556 -2.51668,-12.247841 -3.07594,-16.777865 -0.55926,-4.530024 -1.11852,-8.221154 -1.62186,-12.41562 -0.50333,-4.194466 -1.29117,-10.362192 -0.83889,-14.093407 0.22371,-1.845564 2.06927,-5.648549 3.4115,-6.65522 2.25495,-1.691207 5.83788,-1.206771 7.10263,-0.72704 1.62186,0.615188 4.6978,2.404827 6.99077,4.809654 2.29298,2.404828 4.18193,6.050162 5.5367,10.066719 m 11.453,76.688171 c 2.24892,-0.51068 5.88543,-0.52811 5.88543,-0.41543 m -30.53216,6.08609 c 2.03335,-1.4025 5.58676,-1.96734 6.70465,-1.88981 m 4.97907,-1.44528 c -2.79631,0.67112 -7.83528,3.25171 -8.16803,-0.16378 m -6.78211,5.57596 c 1.83888,-1.20614 6.76234,-3.95458 6.78211,-5.57596 m 17.32106,-1.20614 c 2.76821,-0.63274 6.66332,-1.7014 7.19392,-2.14571 m -63.507146,-0.38522 c 2.847298,-0.47455 3.954581,-0.63274 5.536413,-0.63274 M 91.746272,82.841834 c 2.689115,-0.632733 4.112764,-0.949099 6.010963,-0.949099 m 16.451055,1.740015 c 3.16367,-0.632732 3.48003,-0.949099 4.90368,-0.949099 m -8.85826,-29.105714 c 2.37275,-0.632733 4.58731,-0.949099 5.85278,-0.790916 m 19.93109,17.558338 c 2.21456,-0.790916 3.32184,-0.949099 5.06186,-0.949099 M 130.1848,44.561493 c 2.21456,-0.47455 2.84729,-0.949099 4.42913,-0.949099 m 20.88018,10.28191 c 1.8982,-0.47455 4.58732,-0.790917 6.16915,-0.47455 m 1.10728,26.258416 c 2.8473,-0.47455 4.90368,-0.632733 6.96006,-0.316367 m 7.11825,50.618637 c 4.27095,-0.47455 8.85826,-0.15819 10.28191,1.10728 m -12.86467,-23.37383 c 3.61119,0.5343 6.37559,2.23705 8.61264,3.35558 m 7.13845,60.57905 c 2.81642,-4.20543 6.28384,-13.04177 6.50755,-19.30551 0.2237,-6.26373 -1.56594,-13.98155 -2.34891,-17.44898 -0.78296,-3.46742 -3.91483,-13.64599 -4.80965,-17.11342 -0.89482,-3.46742 -3.91484,-17.00157 -5.03336,-20.357141 -1.11852,-3.355573 -5.70447,-14.764521 -6.26374,-18.343799 -0.55926,-3.579278 -1.78963,-10.402276 -2.90816,-13.534144 -1.11852,-3.131868 -4.58595,-9.395605 -6.823,-15.659341 -2.23705,-6.263736 -2.23705,-8.948195 -4.4741,-13.086735 -2.23704,-4.13854 -4.36224,-8.165227 -7.2704,-9.395604 -2.90817,-1.230377 -7.15856,-2.684459 -9.73116,-0.89482 -2.57261,1.789639 -3.91484,3.355573 -3.91484,3.355573 0,0 0.33556,2.796311 0.44741,4.809655 0.11185,2.013344 1.23038,7.941523 2.01334,11.297096 0.78297,3.355573 2.01335,7.717818 2.68446,10.849686 0.67112,3.131868 3.46743,13.981554 3.80298,16.10675 0.33556,2.125197 2.79632,13.75785 3.35558,17.784537 0.55926,4.026688 2.3489,14.428967 2.3489,14.428967 0,0 0.33556,1.34223 6.93485,1.11852 M 119.4584,235.00196 c 4.25039,-1.00667 6.26374,-2.79631 7.94152,-3.80298 1.67779,-1.00667 5.36892,-4.02669 7.60597,-5.59262 m -8.05338,-25.27865 c 2.23705,5.03336 3.80298,8.38893 6.48744,9.73116 2.68446,1.34223 3.80299,2.68446 6.26374,3.57928 2.46075,0.89482 3.91483,2.12519 6.59929,2.68446 m 55.70251,57.604 c -2.01334,-7.49411 -3.24372,-11.85636 -5.92817,-19.01491 -2.68446,-7.15856 -6.5993,-16.21861 -7.82967,-20.80456 -1.23038,-4.58595 -2.1252,-22.92975 -2.1252,-24.04827 0,-1.11852 -0.21655,-2.33358 -1.17087,-4.41051 m -82.71846,-51.0683 c 5.59263,-1.78964 9.61931,-2.5726 14.31712,-5.36891 m 0.27963,39.76354 c 2.06927,-2.29298 2.68446,-3.80299 3.46742,-5.08929 0.78297,-1.2863 1.71159,-3.9495 4.77063,-5.63792 m -1.80654,13.80315 c -0.11185,-5.59262 0.33556,-9.06005 1.23038,-12.08006 0.89482,-3.02002 3.80298,-9.73117 4.4741,-11.2971 0.67111,-1.56593 3.80298,-6.48744 4.58595,-8.27708 0.78296,-1.78964 1.78963,-3.97076 2.46075,-6.20781 0.67111,-2.23705 1.52893,-4.04003 4.06651,-4.13897 m 19.6462,16.72237 c -3.57927,-2.90817 -7.49411,-6.04003 -9.50745,-7.27041 -2.01335,-1.23038 -4.92151,-0.78297 -6.37559,-3.02002 -1.45408,-2.23704 -3.57928,-5.81632 -4.13854,-7.2704 -0.55926,-1.45409 -1.24203,-5.75701 -1.24203,-5.75701 m 31.30849,15.31564 c 3.95458,-0.47455 6.0647,-0.87539 7.86962,-2.21456 1.59175,-1.181 4.15929,-1.85624 6.74605,-1.32358 m -59.46086,-28.94332 c 0.83136,1.359 0.68532,3.12495 0.23791,3.68421 -0.44741,0.55926 -3.46742,1.78964 -5.36891,2.23705 -1.9015,0.44741 -6.93485,1.23037 -6.93485,1.23037 -0.67651,-1.21426 -1.81716,-1.94923 -3.21778,-2.306 m 37.78018,-1.16142 c 0.44741,-1.45408 0.55926,-2.57261 0.67111,-3.80299 m 27.85126,89.25825 c 4.4741,-3.35558 7.0467,-5.14522 8.61264,-8.83635 1.56593,-3.69113 2.12519,-5.48077 2.79631,-8.94819 0.67111,-3.46743 0.67111,-12.75118 1.78963,-16.66601 1.11853,-3.91484 1.56594,-9.06005 0.44741,-10.17857 -1.11852,-1.11853 -1.90149,-2.1252 -2.23704,-4.36225 -0.33556,-2.23705 -1.00668,-7.82967 -3.02002,-11.2971 -2.01334,-3.46742 -7.15856,-10.51412 -9.1719,-12.97488 -2.01334,-2.46075 -5.81633,-5.36891 -8.38893,-7.94152 -2.57261,-2.57261 -4.92151,-6.48744 -8.05338,-8.61264 -3.13187,-2.12519 -7.0467,-5.36891 -8.38893,-6.37559 -1.34223,-1.00667 -4.13854,-2.23704 -5.81633,-2.23704 -1.67778,0 -5.14521,1.67778 -7.38226,3.35557 -2.23705,1.67778 -5.70447,3.02001 -8.38893,4.02669 -2.68446,1.00667 -5.03336,2.79631 -6.71115,3.46742 -1.67778,0.67112 -7.38226,2.1252 -9.28375,2.57261 -1.90149,0.44741 -3.46742,0.67111 -4.02668,1.11852 -0.55927,0.44741 -3.80299,3.24372 -3.69114,5.25707 0.11186,2.01334 0.67112,4.25039 3.80299,6.04003 3.13187,1.78964 8.27708,4.25039 14.54081,3.91483 6.26374,-0.33555 11.5208,-2.01334 13.75785,-2.68446 2.23705,-0.67111 5.92818,-4.13854 7.15856,-6.15188 1.23038,-2.01334 2.1252,-3.46743 2.3489,-4.25039" style="fill:none;stroke:#000000;stroke-width:1.79999995;stroke-linecap:round;stroke-miterlimit:4;stroke-opacity:1;stroke-dasharray:none;display:inline" />
	<!-- 
	Generated using the Perl SVG Module V2.50
	by Ronan Oger
	Info: http://www.roitsystems.com/
 -->
</svg>