<?xml version="1.0" encoding="UTF-8" standalone="yes"?>
<!DOCTYPE svg PUBLIC "-//W3C//DTD SVG 1.0//EN" "http://www.w3.org/TR/2001/REC-SVG-20010904/DTD/svg10.dtd">
<svg height="285" style="background-color:white" width="285" xmlns="http://www.w3.org/2000/svg" xmlns:svg="http://www.w3.org/2000/svg" xmlns:xlink="http://www.w3.org/1999/xlink">
	<path d="m 149.23075,225.2196 c -1.09216,6.47265 -1.17125,14.06545 -0.77579,20.47187 0.39546,6.40642 2.05638,20.56382 2.29366,25.62568 M 121.47174,164.19937 c -6.35033,2.89501 -11.40895,14.87638 -11.96821,17.22528 -0.55926,2.3489 -2.5726,11.63265 -3.35557,15.65934 m 3.80298,-43.95801 c 7.15856,-4.6978 13.42229,-9.3956 16.33046,-11.07339 2.90816,-1.67779 7.71782,-3.69113 10.29042,-4.02669 2.57261,-0.33555 7.15856,-0.89482 9.61931,-0.89482 m -77.178179,15.32379 c 8.388933,-1.11853 13.144517,-3.35513 17.89639,-5.59263 4.579021,-2.15611 11.96821,-7.2704 13.422289,-8.05337 1.45408,-0.78297 4.4741,-1.45408 7.38226,-3.46743 m -56.038066,19.68603 c 2.460754,0.44741 3.802983,0.44741 5.704474,0.22371 m 0.44741,-50.3336 -4.697802,0.33556 c 2.125196,-0.78297 4.250392,-0.89482 5.257064,-0.78297 M 51.725916,84.898216 c 2.214565,-0.316366 4.42913,-0.632733 5.694596,-0.316366 m 53.070468,138.72669 c 2.68912,5.06186 3.87549,5.77369 5.93188,6.40642 M 81.464363,228.3704 c 1.740015,0.63274 4.42913,0.47455 5.378229,0.15819 0.9491,-0.31637 3.005482,-1.66093 3.875489,-2.29366 m -20.286314,2.39092 c 2.253426,0.85184 2.807068,0.77275 3.993442,0.93093 M 62.332146,59.316727 c -2.573674,-2.3459 -7.126199,-1.784209 -8.549848,-0.83511 -1.423649,0.9491 -3.796398,3.796398 -5.85278,8.067345 -2.056382,4.270947 -3.788788,11.444 -3.717306,13.920124 0.07335,2.540971 0.127293,3.630321 -0.07909,7.276428 -0.237275,4.191856 1.265466,14.869226 0.949099,15.976506 -0.316366,1.10728 0,4.90368 0.158183,9.33281 0.158184,4.42913 -0.316366,10.28191 0,13.12921 0.316367,2.8473 0.9491,6.64369 0.47455,9.33281 -0.47455,2.68911 -1.107283,13.92012 -0.316366,20.40563 0.790916,6.48551 2.056381,13.44558 3.796397,20.72201 1.740015,7.27643 3.321848,19.45654 6.485512,27.99843 3.163665,8.54189 6.113479,16.72814 8.383711,18.66562 2.466224,2.10475 6.801879,4.27095 8.067345,8.38371 1.265466,4.11277 3.005481,9.96555 3.321848,18.82381 0.316366,8.85826 -0.47455,13.44557 -0.47455,17.8747 M 70.391537,53.577937 c 2.056382,-0.632733 3.480031,-1.107283 4.270947,-1.107283 m -0.9491,30.37118 c 1.898199,-1.265466 3.005482,-1.898198 4.429131,-2.056382 m -3.119273,36.110218 c -3.19966,1.21391 -6.047972,1.57521 -6.792142,-2.48593 m -1.856122,6.57768 c 2.133457,-1.07996 2.439269,-3.91628 1.769077,-7.23698 m 8.812086,2.30987 c -4.033673,1.81911 -9.095536,3.48003 -11.23101,5.45732 -2.135473,1.97729 -3.717305,4.58732 -9.728268,7.51371 M 80.538966,34.177629 c -2.791909,-3.694443 -4.848291,-4.48536 -6.430124,-4.48536 -1.581832,0 -5.615504,1.265466 -8.304619,5.773688 -2.689115,4.508222 -3.321848,9.016444 -3.559123,13.287391 -0.237274,4.270948 -0.158183,6.722788 0.07909,10.440094 0.237275,3.717305 0.553641,4.982771 0.237275,7.118245 -0.316367,2.135473 -0.711825,4.587313 -0.711825,7.909161 0,3.321848 0.790916,8.462803 1.740016,12.654659 0.949099,4.191855 2.45184,15.264683 3.163664,18.349253 0.711825,3.08457 1.186375,6.96006 1.423649,8.77917 0.237275,1.81911 0.711825,4.82459 0.711825,4.82459 m 31.478776,-9.96064 c 0,0 -7.191644,0.57767 -11.468596,2.36784 2.135474,-0.79091 4.350041,-1.34455 4.429131,-2.7682 C 91.11354,100.47926 89.610799,94.705576 88.582608,89.564621 87.554417,84.423666 85.577127,75.960864 85.181668,72.876291 84.78621,69.791718 84.707119,67.023511 84.153477,62.04074 83.599836,57.057968 82.492554,50.572456 82.255279,46.301508 82.018004,42.030561 81.859821,37.285065 80.515263,34.1214 m 19.931087,74.74158 c -3.875489,0.23727 -6.327329,0.94909 -7.118245,-0.39546 m 1.819107,-36.461237 c 1.819107,-0.711824 3.400939,-0.870008 4.666405,-0.711824 m -10.28191,-27.91934 c 2.135474,-0.47455 3.875489,-0.553642 5.457322,-0.237275 m 20.247451,63.352386 c -0.47455,-5.06187 -1.26546,-9.490997 -2.05638,-13.366486 -0.79092,-3.875489 -1.74002,-9.33281 -2.76821,-13.761941 -1.02819,-4.42913 -2.21456,-11.310101 -2.61002,-14.869223 -0.39545,-3.559123 0.0791,-6.564604 -1.34456,-10.835551 -1.42365,-4.270948 -2.7682,-9.965544 -3.24275,-12.654659 -0.47455,-2.689115 -0.63274,-7.909161 -1.8982,-11.705559 -1.26547,-3.796397 -3.954583,-11.863742 -11.389195,-12.101017 -7.434611,-0.237274 -8.937352,2.610024 -9.886451,4.745497 -0.9491,2.135474 -0.553642,8.146437 0.474549,12.180109 m 46.584957,74.89976 c -6.40642,-0.63273 -9.80736,-1.26547 -11.86374,-2.53093 -1.74001,0.47455 -2.37275,0.47455 -3.63821,0.47455 m 8.62098,-25.546595 c 2.53094,-0.553641 4.42913,-0.553641 6.16915,-0.07909 M 114.1292,53.815212 c 2.05638,-0.316367 3.63821,-0.47455 4.6664,-0.07909 m 27.1159,58.004458 c -0.83889,-5.20114 -1.78964,-8.55671 -3.69113,-14.205258 -1.90149,-5.648548 -4.4741,-10.737834 -5.92818,-14.540817 -1.45408,-3.802983 -2.51668,-6.767072 -3.97076,-12.359694 -1.45408,-5.592621 -2.96409,-10.681907 -4.36225,-12.918956 -1.39815,-2.237048 -0.89482,-3.24372 -1.73371,-5.31299 -0.83889,-2.06927 -0.72704,-5.201139 -1.90149,-7.773745 -1.17445,-2.572605 -2.90816,-6.878924 -6.48744,-10.458202 -3.57928,-3.579278 -6.01125,-5.355347 -8.52793,-5.411273 -2.51668,-0.05593 -5.16053,1.331572 -7.20056,3.740233 m 60.63724,117.717942 6.45205,13.51882 c -2.70949,-4.72958 -2.25758,-4.57063 -3.93537,-8.20583 -1.67779,-3.63521 -4.53002,-8.55671 -5.5367,-11.91229 -1.00667,-3.35557 -4.47409,-12.08006 -6.48744,-16.33045 -2.01334,-4.25039 -3.07594,-8.44486 -4.75372,-11.68858 -1.67779,-3.24372 -2.57261,-3.85891 -2.57261,-3.85891 -2.29298,-0.11185 -4.53002,-0.39148 -6.71115,-1.2863 m 12.10191,45.38911 c 2.7682,2.8473 3.40094,3.00548 5.93187,4.90368 5.14412,3.85809 9.3559,3.94837 15.17067,1.82059 m -23.00074,1.1849 c 5.77369,2.05638 5.10279,2.53235 12.75421,2.96664 m -27.43237,62.42804 c 1.81145,0.67929 6.03814,0.9812 8.90626,-0.15095 2.86811,-1.13215 13.35576,-10.04201 14.94077,-11.55155 1.58501,-1.50953 6.86838,-4.6904 9.58554,-5.6716 2.71716,-0.9812 10.48041,-6.02367 12.89566,-6.32558 2.41526,-0.30191 9.36274,-7.5549 10.64584,-9.51729 1.28311,-1.96239 4.76587,-7.61592 6.19993,-8.74807 1.43406,-1.13215 1.50953,-4.98146 4.60408,-7.54767 2.41673,-2.00412 5.06778,-7.86404 10.27567,-10.20382 5.20789,-2.33977 17.24847,-6.22938 19.68858,-6.62748 1.46399,-0.23885 4.76052,-0.19177 7.3382,-0.78785 1.62601,-0.376 2.96598,-1.24603 3.37949,-1.85384 0.66317,-0.97478 2.56621,-2.71716 2.41525,-5.13241 -0.15095,-2.41526 -3.92479,-7.01934 -6.64195,-8.52887 -2.71716,-1.50953 -9.28363,-4.60408 -17.51059,-4.5286 -8.22696,0.0755 -15.24629,1.73596 -19.92585,4.45312 -4.67955,2.71716 -11.3215,7.32124 -14.26509,8.15149 -2.9436,0.83024 -6.56648,3.77383 -9.66102,5.5098 -3.09455,1.73596 -6.491,3.09454 -9.28363,3.92478 -2.79264,0.83025 -6.03814,2.71717 -8.4534,3.84932" style="fill:none;stroke:#000000;stroke-width:1.79999995;stroke-linecap:round;stroke-miterlimit:4;stroke-opacity:1;stroke-dasharray:none;display:inline" />
	<!-- 
	Generated using the Perl SVG Module V2.50
	by Ronan Oger
	Info: http://www.roitsystems.com/
 -->
</svg>