<?xml version="1.0" encoding="UTF-8" standalone="yes"?>
<!DOCTYPE svg PUBLIC "-//W3C//DTD SVG 1.0//EN" "http://www.w3.org/TR/2001/REC-SVG-20010904/DTD/svg10.dtd">
<svg height="285" style="background-color:white" width="285" xmlns="http://www.w3.org/2000/svg" xmlns:svg="http://www.w3.org/2000/svg" xmlns:xlink="http://www.w3.org/1999/xlink">
	<path d="m 165.4664,199.71263 c 2.9738,9.97654 5.95044,15.63216 6.54576,19.79945 0.59534,4.1673 3.12548,14.58554 4.46497,19.497 1.33948,4.91145 2.97663,10.7159 3.72079,18.30633 M 147.02588,113.83904 c -1.05241,5.15677 -1.78909,6.41965 -1.78909,8.41921 0,1.99957 1.15765,5.78821 1.15765,7.15633 0,1.36813 -0.21049,10.41878 0.84191,14.10218 1.05241,3.6834 5.89346,16.31221 7.05109,18.6275 1.15765,2.31529 4.94629,10.10305 6.52488,12.20786 m -42.517,-54.51438 c 4.31484,-0.42097 7.99826,-1.26288 10.2083,-2.42053 m 51.77814,66.40653 c 2.52576,0.63143 5.89344,0.52619 7.26156,0 m -83.22528,-77.03767 c 2.29562,9.68398 6.08428,14.7355 6.92619,16.52459 0.84192,1.78908 7.15633,15.25981 7.47205,17.36461 0.31572,2.10481 3.78864,10.41878 5.15677,13.26027 1.36812,2.84148 3.99912,10.10304 5.68297,11.78689 1.68383,1.68384 4.10436,7.15632 4.63056,8.52445 0.5262,1.36812 3.6834,4.73579 5.36725,7.15633 1.68384,2.42053 2.94672,5.05152 4.84105,6.31441 1.89432,1.26288 3.36768,4.2096 4.84104,5.89343 1.47335,1.68385 3.78864,3.57818 6.31441,4.63058 2.52576,1.0524 6.52488,1.47336 10.41876,1.47336 3.89389,0 6.84061,-0.52621 10.2083,-1.99956 M 138.50143,92.264824 c 1.15764,4.314845 0.94714,5.788206 0.63143,8.734926 m 0,0 c 2.84149,3.57816 5.99869,4.7358 6.73537,5.78821 0.73669,1.0524 3.89389,4.31484 4.63057,6.52489 0.73668,2.21004 2.94672,6.8406 3.99913,8.52445 1.0524,1.68383 2.73623,4.84105 3.89388,6.20916 1.15764,1.36812 4.94629,3.47293 6.10393,4.10437 M 123.38345,79.988946 c 3.01536,2.383306 4.59396,5.33003 4.38348,6.908631 -0.21047,1.578602 -0.42096,3.788645 -6.73536,6.524888 -6.31442,2.736244 -7.36682,2.736244 -8.41921,2.525764 -1.0524,-0.21048 -2.42054,-2.315284 -3.99913,-2.946724 -1.5786,-0.631441 -3.36886,-1.176405 -5.10474,-1.482744 m 40.39914,-22.987756 c -5.82717,-0.26093 -11.61537,5.737757 -14.45685,7.316359 -2.84149,1.578602 -6.31442,4.630566 -9.99781,6.630128 -3.68342,1.999563 -5.36726,2.946723 -7.36682,3.472924 -1.99956,0.526201 -7.99825,2.315283 -8.31398,3.893884 -0.31571,1.578603 -1.26288,7.15633 1.78909,11.26069 3.05197,4.10437 6.73537,6.63013 10.83974,6.8406 4.10437,0.21049 11.36593,-0.31572 14.62838,-1.78907 3.26244,-1.47337 7.26156,-4.10437 8.10348,-5.15677 M 54.940756,82.477492 c 1.473363,-1.894322 2.210043,-3.051963 2.525764,-4.104365 M 27.765967,59.684279 c -1.534766,2.363538 -1.981262,7.200579 -0.71619,10.102803 1.265072,2.902225 6.260197,10.10394 11.087985,12.799554 4.82099,2.691816 6.270844,4.35974 12.725138,4.985871 1.692555,0.9573 7.108592,3.823122 9.897329,5.134705 2.681793,1.261287 7.143936,2.97664 11.162401,4.241712 4.018464,1.265073 13.469297,3.274306 17.115681,4.985876 3.646384,1.71156 9.599665,5.28353 12.427479,5.50677 2.8278,0.22326 6.85017,-3.23252 6.85017,-3.23252 M 61.355556,70.084746 c 1.637153,-1.041824 2.60456,-1.562736 3.571969,-2.827808 M 28.126294,37.045526 c -5.283776,-1.399891 -9.282901,-0.347489 -11.071983,2.178274 -1.789082,2.525763 -1.894321,9.471611 0.631441,12.102615 2.525763,2.631002 6.255586,5.923484 7.998249,7.051088 1.789083,1.157641 4.420086,2.631004 6.840609,4.735806 2.420524,2.104802 5.08882,4.305165 9.787332,5.893447 4.715684,1.594088 10.239726,3.222071 15.680778,2.946723 0,0 1.789083,1.683843 7.99825,4.209606 6.209168,2.525762 8.629691,4.735806 13.155017,5.998687 4.525324,1.262881 9.05065,1.789082 13.681216,4.209605 4.630565,2.420523 8.918397,3.504965 10.917957,3.610205 m 5.18379,-20.132905 c 1.47337,-1.473362 2.21004,-2.210043 3.26244,-3.051964 M 73.463019,60.587546 c 1.683842,-1.683842 2.525764,-2.631003 3.051964,-3.683405 M 58.017436,32.827017 c -5.345364,-0.386696 -9.826188,-0.342541 -13.49183,-0.600522 -4.739583,-0.333562 -9.406413,-1.553684 -12.106237,-0.05379 -1.894322,1.052402 -4.77992,3.31694 -4.420084,6.735369 0.21048,1.999562 0,5.262006 5.577726,9.997812 5.577727,4.735805 7.99825,7.78777 16.5227,11.050213 8.52445,3.262445 20.521824,4.420086 20.521824,4.420086 0,0 1.999564,2.736243 10.208294,4.946286 8.208729,2.210042 9.997812,3.367684 14.733617,4.209604 4.735804,0.841922 10.524024,1.368123 10.524024,1.368123 0,0 9.57618,5.289897 16.20527,5.837329 M 106.7189,50.484493 c 1.47337,-1.578601 2.52577,-2.841482 2.94673,-3.683404 m 33.67684,10.839733 c 1.68384,-1.578602 2.94673,-3.893885 3.57816,-5.156766 m 52.03013,59.124814 c -0.90426,4.27341 -1.4863,5.6001 -6.5486,9.07876 m 2.40274,-31.632632 c 4.4727,4.683186 5.89344,5.998688 7.68252,7.68253 1.78908,1.683842 5.52511,4.314842 8.89279,5.946072 M 191.54246,75.479022 c 2.26265,-1.789082 3.94649,-3.525545 4.36745,-4.683186 m -22.30179,2.487119 c 1.35901,2.774888 10.19917,8.668334 11.77779,9.983836 m 80.28873,149.365179 c -3.18552,-7.79655 -6.37435,-15.53994 -8.82822,-18.62667 -2.00361,-2.52036 -3.72081,-4.76262 -5.50678,-10.71591 -1.78599,-5.95328 -5.20913,-16.81801 -6.99511,-20.83647 -1.78599,-4.01846 -2.67898,-7.44161 -3.86964,-11.16241 -1.19065,-3.7208 -1.78598,-7.88809 -3.12547,-10.12058 -1.33949,-2.23247 -2.38131,-8.48342 -3.2743,-14.58553 -0.893,-6.10211 -2.67898,-13.84139 -3.57198,-27.83159 -0.94976,-14.87958 -4.01845,-28.873408 -4.61378,-34.380192 -0.59533,-5.506785 -2.38131,-17.562178 -3.7208,-20.985315 -1.33949,-3.423136 -7.14394,-12.799552 -10.7159,-14.585537 -3.57198,-1.785984 -11.16242,-2.381313 -13.84139,-3.571969 -2.67898,-1.190656 -12.94838,-1.785984 -16.07386,-1.785984 -3.12547,0 -10.86472,-2.678975 -15.77619,-3.274303 -4.91145,-0.595329 -11.75773,-1.488322 -13.99021,-2.381313 -2.23247,-0.892992 -8.92992,-2.23248 -14.73436,-2.23248 -5.80446,0 -13.09722,0 -16.37153,-0.744161 -3.2743,-0.74416 -4.61379,-2.678976 -12.65072,-3.571967 -8.036936,-0.892992 -28.724585,-3.423138 -31.403561,-3.423138 -3.7208,0 -11.01357,-1.190655 -14.139042,0.744161 -3.125473,1.934816 -6.250945,4.613792 -4.911456,9.971745 1.339487,5.357952 3.274304,6.995105 6.69744,8.483425 3.423136,1.48832 8.036929,4.46496 11.01357,5.804448 2.976639,1.339488 7.484459,2.214895 11.906561,2.976641 5.184407,0.89306 9.436266,1.032179 14.556908,1.130556 1.32298,1.761998 5.81822,2.991266 10.27999,3.746336 9.67408,1.637153 12.30636,2.494032 15.43183,2.791696 3.12548,0.297664 6.46298,0.378918 8.55566,0.429989 1.93481,0.892992 6.19259,4.952516 11.23307,5.470671 3.58311,0.368341 19.96549,6.487068 26.56278,3.844098 4.3641,-1.748322 10.86474,-5.357954 11.6089,-9.971745" style="fill:none;stroke:#000000;stroke-width:1.79999995;stroke-linecap:round;stroke-miterlimit:4;stroke-opacity:1;stroke-dasharray:none;display:inline" />
	<!-- 
	Generated using the Perl SVG Module V2.50
	by Ronan Oger
	Info: http://www.roitsystems.com/
 -->
</svg>