<?xml version="1.0" encoding="UTF-8" standalone="yes"?>
<!DOCTYPE svg PUBLIC "-//W3C//DTD SVG 1.0//EN" "http://www.w3.org/TR/2001/REC-SVG-20010904/DTD/svg10.dtd">
<svg height="285" style="background-color:white" width="285" xmlns="http://www.w3.org/2000/svg" xmlns:svg="http://www.w3.org/2000/svg" xmlns:xlink="http://www.w3.org/1999/xlink">
	<path d="m 149.75386,224.26461 c 4.16922,0.78877 9.01453,0.67609 11.83157,-0.11268 m -62.876342,-2.36631 c 2.253632,1.57754 9.690622,1.8029 13.747152,0.90145 m 16.5642,-37.9737 c 3.38045,-4.05654 2.81704,-3.26777 4.05654,-6.31017 1.2395,-3.0424 3.60581,-5.97213 5.18335,-8.33844 1.57755,-2.36631 5.40872,-6.64821 7.43698,-8.22575 m 1.12682,-17.46566 c 5.85945,-2.92972 11.83157,-4.61994 14.53593,-4.95799 2.70436,-0.33804 6.53554,-0.22536 8.22576,-0.67609 1.69022,-0.45072 6.31017,-0.90145 8.5638,-0.90145 m -38.47383,-5.801 c 2.86802,-2.16975 4.85997,-3.92266 7.01128,-5.35686 m -45.60799,18.48607 c 5.37823,-0.15819 11.3019,-0.86841 13.67406,-1.50333 4.34319,-1.16247 9.00985,-3.20559 13.05891,-4.19127 3.36841,-0.81999 6.64369,-3.7964 7.90916,-4.90368 1.26547,-1.10728 3.95458,-2.53093 3.95458,-2.53093 m -51.725915,15.50195 c 1.107283,0 2.214565,-0.15818 3.321848,-0.31636 m -6.643696,-25.15114 c 1.107283,-0.87 2.214565,-1.50274 3.480031,-1.89819 m 0.790916,-24.043855 c 1.898199,-0.395458 3.559123,-0.632733 4.982772,-0.395458 M 90.797173,74.616306 c 1.898199,-0.395458 3.559123,-0.395458 4.745497,-0.07909 m 15.35939,36.016114 c -1.93978,-0.13377 -4.41468,1.93978 -4.8829,-0.53511 -0.46822,-2.47489 -1.40467,-8.82935 -1.93978,-12.040029 -0.53512,-3.210675 -1.00334,-10.033359 -0.66889,-12.775811 0.33444,-2.742451 0.20066,-5.284235 0.13377,-9.297579 -0.0669,-4.013343 0.26756,-11.304251 0.0669,-14.514926 -0.20066,-3.210675 -0.23213,-7.106591 -1.35351,-9.472977 -1.12138,-2.366386 -7.074509,-4.90817 -10.285184,-2.500164 -3.210674,2.408006 -6.622017,5.418013 -7.82602,12.307587 -1.204003,6.889573 -0.802668,13.846035 -0.936446,15.652039 -0.133779,1.806005 -1.806005,10.70225 -1.872894,14.314259 -0.06689,3.612009 0.267556,12.240701 -0.267556,16.053371 -0.535113,3.81268 -1.337781,12.37448 -1.806005,15.51826 -0.468223,3.14379 -0.936447,12.10692 -1.270892,15.71893 -0.334445,3.61201 -1.070225,10.23403 -1.605337,14.7156 -0.535113,4.48156 -0.535113,17.19049 0.133778,22.27405 0.66889,5.08357 1.40467,8.62869 2.408006,14.1136 1.003336,5.4849 2.876229,9.09691 3.478231,13.4447 0.602001,4.34778 7.023351,14.91626 7.82602,16.72226 0.802669,1.80601 2.659356,9.3157 2.753952,16.22116 0.0946,6.90547 -1.418932,18.44611 -1.04055,30.64892 m 5.309939,-149.21034 c 4.414678,-3.41134 8.829358,-6.55513 8.762468,-7.89291 m 6.82268,-33.511417 c 2.20734,-0.73578 4.08024,-0.73578 5.41802,-0.200668 m -7.29091,-29.564964 c 1.87289,-0.334445 3.94645,-0.66889 5.75246,-0.334445 m 21.43519,58.956584 c -5.15545,-0.0473 -8.4663,1.22974 -8.70278,-1.70272 -0.23648,-2.93246 -0.42567,-6.101404 -0.89865,-10.878473 -0.47298,-4.777068 -0.94596,-7.804121 -1.27704,-11.256854 -0.33108,-3.452733 -0.0946,-11.304152 -0.47298,-14.898778 -0.37838,-3.594626 -0.99325,-9.601434 -1.32433,-12.817678 -0.33109,-3.216245 -0.99325,-7.993313 -0.94596,-10.641985 0.0473,-2.648671 0.18919,-6.290595 -0.85136,-10.878472 -1.04054,-4.587878 -0.94595,-9.128458 -4.82436,-11.682534 -3.87841,-2.554076 -10.83118,-0.993252 -12.29741,1.65542 -1.46622,2.648671 -2.50677,3.027053 -2.88516,7.662228 -0.37838,4.635176 -0.75676,9.648733 -0.80406,12.770381 -0.0473,3.121649 -0.56757,7.709527 -0.61487,9.223053 m 24.8786,54.723452 c 2.12839,-1.13515 2.22299,-1.65542 2.31758,-2.97976 m 5.34465,-33.959754 c 2.45948,-0.61487 4.63517,-0.662168 6.81087,-0.141893 m -10.78388,-28.47322 c 2.45948,-0.378381 5.20275,-0.567572 6.81087,-0.331084 m 7.67562,-4.503244 c -0.47707,-5.853394 -3.22964,-13.800968 -3.60802,-15.267197 -0.37838,-1.466229 -3.74631,-6.1063 -6.57438,-7.520335 -2.83787,-1.418932 -7.37844,-1.229741 -9.27035,-0.0473 -1.89191,1.182443 -4.99726,5.925408 -5.13915,8.905164 M 151.63196,106.105 c 1.36625,0.0406 2.96296,-1.29722 2.58285,-2.73254 m 1.80124,3.62127 c -1.70831,-2.55989 -2.10377,-4.14172 -2.34104,-6.83083 -0.23728,-2.689117 -0.31637,-2.768209 -0.55364,-7.592797 -0.23728,-4.824589 -1.26547,-12.2592 -1.81911,-15.581048 -0.55364,-3.321848 -1.26547,-5.931871 -1.50274,-11.072826 -0.23728,-5.140955 -0.39546,-8.462803 -1.58184,-14.315582 -1.18637,-5.85278 -2.37274,-9.490994 -2.7682,-12.417384 -0.39546,-2.92639 0.15818,-6.801879 0.15818,-6.801879 m 19.77291,78.696156 c -4.42914,-2.45184 -10.36101,-5.14095 -15.73924,-5.06186 m 27.68207,6.80188 c 1.66092,0.39545 3.23788,1.23242 5.02562,2.05253 M 159.29051,82.604559 c 3.71731,-1.265465 6.50023,-1.108855 9.18934,-0.634305 M 155.33593,56.66251 c 3.08457,-0.949099 4.66641,-1.344558 6.96006,-0.949099 m 20.50294,57.092069 c -1.20458,-8.92528 -2.70732,-18.258087 -3.73552,-22.291759 -1.02819,-4.033673 -3.40093,-14.078308 -3.95458,-17.63743 -0.55364,-3.559123 -1.34455,-10.914643 -2.05637,-12.891933 -0.71183,-1.977291 -2.84731,-6.090055 -3.55913,-8.700078 -0.71183,-2.610023 -2.92639,-9.886452 -4.82459,-13.761941 -1.8982,-3.875489 -4.27095,-7.750978 -6.24824,-8.858261 -1.97729,-1.107282 -6.23328,-1.825556 -8.62098,-0.553641 -2.23008,1.187947 -3.24276,1.819107 -4.19186,4.270947 m 35.74941,128.523866 c -3.24275,0.79092 -7.35552,2.9264 -9.80736,4.50823 -2.45184,1.58183 -4.56897,2.26118 -8.85826,3.87549 m 22.7825,-29.95118 c -1.03231,5.11641 -3.32596,13.10466 -3.40505,16.11015 -0.0791,3.00548 -0.71183,5.45731 -0.71183,5.45731 0,0 1.75142,0.60355 2.93039,1.33917 1.69054,1.05481 3.27059,2.69749 6.16515,6.09545 m 1.18637,-22.93657 c -1.42365,0.23728 -2.8473,0.39546 -3.55912,0.9491 M 171.6288,273.45262 c -1.26546,-11.54737 -3.16366,-21.6711 -3.79639,-24.20203 -0.63274,-2.53093 -1.74002,-8.70008 -1.42365,-14.39467 0.31636,-5.6946 2.37274,-9.80736 4.11276,-12.02193 1.74002,-2.21456 7.43461,-7.27643 8.54189,-9.01644 1.10729,-1.74002 4.7455,-5.85278 6.96007,-6.48552 2.21456,-0.63273 9.33281,-8.70007 11.70556,-10.59827 2.37275,-1.8982 4.27094,-3.16367 6.16914,-5.06186 1.8982,-1.8982 3.95458,-5.06187 4.58731,-6.32733 0.63274,-1.26547 2.53094,-8.22553 2.68912,-10.59828 0.15818,-2.37275 -0.9491,-15.18559 -0.79092,-21.82929 0.15819,-6.64369 0.63274,-14.55285 -0.9491,-17.55833 -1.58183,-3.00549 -4.42913,-7.75098 -5.69459,-14.07831 -1.26547,-6.32733 -2.53093,-13.05012 -5.06186,-15.26468 -2.53093,-2.21457 -9.01645,-1.66093 -10.91465,-0.0791 -1.8982,1.58183 -4.58731,3.79639 -5.37823,8.70007 -0.79091,4.90368 -0.47455,15.02741 0,17.40016 0.47455,2.37275 1.58183,6.80188 4.7455,8.70008 3.16366,1.89819 6.64369,4.42913 11.54737,4.42913" style="fill:none;stroke:#000000;stroke-width:1.79999995;stroke-linecap:round;stroke-miterlimit:4;stroke-opacity:1;stroke-dasharray:none;display:inline" />
	<!-- 
	Generated using the Perl SVG Module V2.50
	by Ronan Oger
	Info: http://www.roitsystems.com/
 -->
</svg>