<?xml version="1.0" encoding="UTF-8" standalone="yes"?>
<!DOCTYPE svg PUBLIC "-//W3C//DTD SVG 1.0//EN" "http://www.w3.org/TR/2001/REC-SVG-20010904/DTD/svg10.dtd">
<svg height="285" style="background-color:white" width="285" xmlns="http://www.w3.org/2000/svg" xmlns:svg="http://www.w3.org/2000/svg" xmlns:xlink="http://www.w3.org/1999/xlink">
	<path d="m 138.3275,121.62395 c -0.63715,2.19669 -1.97938,4.21004 -3.09791,4.65745 -1.11852,0.44741 -9.84301,0.44741 -9.84301,0.44741 -1.82618,-0.57673 -4.79001,-1.68537 -4.06083,-3.67683 m 53.94701,37.45626 c 0.44741,-1.00667 4.69781,-3.35557 5.36892,-3.57928 m -73.93446,-5.92818 c 2.68446,-0.2237 5.81633,-2.12519 5.81633,-2.12519 6.05746,-0.35436 10.44595,-1.0073 14.87637,-1.90149 m 6.93485,22.81789 c -1.78964,5.92818 -3.57928,10.73784 -3.46742,15.32379 0.11185,4.58595 1.23037,7.71781 2.90816,10.29042 m 11.84929,-44.91938 c -2.56554,1.85619 -4.01962,3.75769 -4.91444,10.69254 m 2.86492,-17.99724 c 0.60251,4.12753 0.26695,6.47644 2.83956,7.81866 2.5726,1.34223 6.59929,4.92151 8.27708,5.59262 1.67778,0.67112 4.36224,2.68446 5.48076,4.80966 1.11853,2.1252 5.70448,4.80966 6.26374,6.48744 m 13.31044,21.47567 c 2.01334,-6.59929 4.6978,-14.42896 5.14521,-16.44231 0.44741,-2.01334 3.01059,-12.91388 1.78964,-17.33713 -0.96177,-3.48429 -5.14522,-7.38226 -6.37559,-8.94819 -1.23038,-1.56594 -5.03336,-7.38226 -7.94152,-11.74451 -2.90816,-4.36224 -5.59262,-10.17857 -8.61264,-12.75117 -3.02001,-2.57261 -7.60596,-3.91484 -9.95486,-3.02002 -2.34891,0.89482 -5.92818,1.67779 -9.39561,2.1252 -3.46742,0.44741 -20.35714,0.67111 -23.0416,1.78964 -2.68446,1.11852 -5.92818,3.80298 -4.36224,8.27708 1.56593,4.47409 1.34222,4.13854 5.36891,7.49411 4.02669,3.35557 6.823,5.92818 10.40228,6.15188 3.57928,0.22371 7.58514,0.6022 9.1719,-0.11185 2.23704,-1.00668 4.36224,-7.71782 5.48077,-10.84969 m 41.27355,132.20958 c -0.55927,-6.26374 -2.01335,-15.9949 -3.35558,-21.81122 -1.34223,-5.81633 -3.03113,-11.44519 -3.69113,-15.88305 -0.6654,-4.4741 -0.82792,-17.53987 -0.56269,-17.53987 m -25.27522,18.21099 c 1.23038,6.48744 2.57261,10.51412 2.90816,13.31044 0.33556,2.79631 1.78964,12.41562 2.01335,15.10007 M 149.323,211.51295 c 2.12519,1.56594 2.5726,1.90149 6.59929,2.3489 4.02669,0.44741 5.36892,1.56594 8.16523,1.56594 2.79631,0 5.14521,-0.55927 6.823,-1.34223 m -42.72763,13.53414 c 3.24372,-0.33556 6.15188,-1.67778 9.84301,-4.80965 m -22.07823,1.04396 c 0.93812,6.562 2.72776,11.70721 3.06332,18.0828 0.33556,6.37559 -0.22371,6.59929 -0.33556,10.51413 -0.11185,3.91483 0.78297,10.62599 0.78297,13.08674 0,1.34223 -0.67112,6.15188 -0.78297,7.94152 M 101.3383,126.84066 c -1.901487,2.01334 -3.802978,3.24372 -4.36224,5.36892 m -8.72449,-21.14011 c 0.335557,-0.89482 0.671115,-1.45409 1.677786,-2.23705 M 75.38854,91.607143 c 1.006672,-1.006672 2.237049,-1.677787 3.355573,-2.237049 M 115.31986,74.829278 c 1.78964,-0.559263 4.02669,-1.34223 4.02669,-1.34223 M 108.1613,55.478807 c 0.89482,-0.335558 2.01335,-0.559263 2.90817,-0.89482 m 31.28463,53.591203 c -2.87412,-7.06059 -6.00598,-14.330999 -7.46007,-17.12731 -1.45408,-2.79631 -1.90149,-5.257064 -2.46075,-7.717817 -0.55926,-2.460754 -3.46742,-10.514129 -5.48077,-15.994898 -2.01334,-5.48077 -7.38226,-19.238619 -8.94819,-22.48234 -1.56594,-3.24372 -3.02002,-10.625981 -4.58595,-12.639325 -2.15617,-2.77222 -6.71115,-3.355572 -8.9482,-2.684458 -2.23705,0.671115 -6.348131,3.695692 -6.040029,9.395605 0.223704,4.13854 1.747549,9.908062 3.131869,14.764521 0.40908,1.435133 2.79631,8.612637 3.24372,12.527472 0.44741,3.914835 2.23705,13.75785 3.91484,17.44898 1.67778,3.69113 2.23704,6.040031 2.90816,8.836342 0.67111,2.796311 5.25706,19.238618 5.25706,21.251958 0,2.01335 -2.12519,3.57928 -4.13854,3.02002 -2.01334,-0.55926 -3.80298,-2.90816 -5.36891,-5.14521 -1.56594,-2.23705 -3.46743,-4.80966 -5.48077,-7.60597 -2.013347,-2.79631 -2.908166,-3.24372 -4.026691,-4.697799 -1.118524,-1.454082 -2.125196,-5.03336 -3.802983,-7.046704 -1.677786,-2.013344 -3.914835,-3.914835 -6.93485,-7.605965 -3.020016,-3.691131 -6.487442,-8.72449 -8.165228,-11.520801 -1.677787,-2.79631 -4.244855,-7.213928 -8.165228,-7.605965 -2.237048,-0.223705 -7.489832,2.584235 -6.934851,7.717818 0.447409,4.13854 4.362245,12.751177 5.03336,14.652668 0.671115,1.901492 3.376183,8.131276 4.585949,10.178572 1.454083,2.460756 4.697803,9.060046 6.487442,11.185246 1.789639,2.12519 3.579278,3.80298 4.362245,6.04003 0.385392,1.10112 2.989496,6.00309 5.715042,10.84373 2.811712,4.99368 5.745481,9.93646 6.029463,11.52676 0.55926,3.13186 1.230377,16.88971 1.565934,23.82456 0.335558,6.93485 2.348901,20.24529 4.026686,25.72606 1.67779,5.48077 3.91484,17.89639 5.14521,21.81123 1.23038,3.91483 6.71115,14.54081 12.75118,17.44898 m 33.33203,-124.26806 c -0.11186,1.11853 -0.22371,2.23705 -0.67112,3.24372 m 18.1201,-2.46075 c -2.01335,1.56593 -5.25706,2.23705 -8.05337,2.1252 m -4.2504,-37.694273 c 1.23038,-0.111852 3.46742,-0.335557 4.13854,-0.111852 m -3.02002,-26.509027 c 1.11853,0 2.68446,0 4.2504,0.111852 m 35.23351,16.666013 c 1.67779,0.335557 5.81633,2.237049 6.37559,2.796311 m -13.646,24.160125 c 1.56594,0.111853 6.15189,3.243721 6.823,4.13854 m -11.5208,24.048271 c 1.90149,2.3489 8.50079,6.823 9.28375,7.15856 m -18.00824,-13.646 c 0.33556,0.89482 2.01335,1.90149 2.01335,1.90149 m 17.01375,30.67147 c 1.69381,-1.57591 1.53563,-12.49054 2.01018,-15.02148 0.47455,-2.53093 3.32185,-10.75646 4.42913,-14.39467 1.10729,-3.63822 2.53093,-11.231013 2.68912,-13.445578 0.15818,-2.214565 1.74001,-10.598276 2.37274,-13.287391 0.63274,-2.689115 3.95459,-10.123727 4.7455,-13.761941 0.79092,-3.638214 1.60058,-13.778814 2.68912,-19.772903 0.59623,-3.283179 1.17882,-12.328855 0.79091,-16.292873 -0.47455,-4.8494 -8.2798,-6.995151 -13.17554,-2.716254 -4.91077,4.292036 -8.49556,22.963707 -8.49556,22.963707 -0.71574,1.446095 -1.32206,3.001617 -1.74002,4.745497 -1.83907,2.897667 -3.90185,13.794588 -5.85277,21.512919 -0.73981,1.319816 -1.38644,2.882003 -2.41909,4.494652 -4.62234,3.401359 -6.23429,10.62307 -7.54646,15.120069 0,0 -3.7964,3.321846 -4.90368,1.265466 -1.10728,-2.056383 -1.10728,-26.4166 -1.10728,-28.947531 0,-2.530932 0.79092,-7.897678 0.79092,-12.338292 0,-7.698747 -1.42365,-17.400155 -1.26547,-20.722003 0.15818,-3.321848 0.7018,-14.385852 -0.15818,-20.405637 -1.19107,-8.3373655 -13.94106,-7.278629 -16.33921,-0.883577 -1.42365,3.796397 -2.55011,11.031152 -2.64278,18.125549 -0.0621,4.755625 -1.24627,12.307859 -1.51632,17.874705 -0.19941,4.110971 0.56722,9.332811 -0.54006,14.394674 -1.10729,5.061863 -2.03719,13.920124 -2.10272,20.135601 -0.0667,6.328954 -0.15023,12.141724 -0.17736,13.445581 -1.81678,3.31719 -1.5706,5.62906 -7.3691,8.49556 m 56.06406,34.22293 c 1.04009,-1.79537 2.14737,-4.16812 -0.38356,-6.06632 -1.55272,-1.16454 -7.72535,-2.90749 -13.27176,-4.18088 -3.49427,-0.80224 -6.07219,-1.89511 -9.19026,-1.03917 m 6.9373,79.71903 c 2.90817,-4.02668 5.14521,-7.82967 6.04003,-11.18524 0.89482,-3.35557 2.01335,-12.41562 3.13187,-14.87637 1.11853,-2.46076 6.71115,-22.48234 7.04671,-26.17347 0.33555,-3.69113 1.36249,-14.19655 -0.21934,-16.09475 -1.58184,-1.8982 -7.5928,-2.68912 -10.59828,-3.32185" style="fill:none;stroke:#000000;stroke-width:1.79999995;stroke-linecap:round;stroke-miterlimit:4;stroke-opacity:1;stroke-dasharray:none;display:inline" />
	<!-- 
	Generated using the Perl SVG Module V2.50
	by Ronan Oger
	Info: http://www.roitsystems.com/
 -->
</svg>