<?xml version="1.0" encoding="UTF-8" standalone="yes"?>
<!DOCTYPE svg PUBLIC "-//W3C//DTD SVG 1.0//EN" "http://www.w3.org/TR/2001/REC-SVG-20010904/DTD/svg10.dtd">
<svg height="285" style="background-color:white" width="285" xmlns="http://www.w3.org/2000/svg" xmlns:svg="http://www.w3.org/2000/svg" xmlns:xlink="http://www.w3.org/1999/xlink">
	<path d="m 118.00432,118.28395 c -0.33556,0.50333 -0.67112,1.67778 -0.72704,2.06927 m 54.19334,104.93261 c 2.76821,1.66092 6.72279,1.97729 9.09554,0.0791 m -69.03289,-79.14989 c 0.61864,2.66829 4.41504,8.04652 4.96868,8.83744 0.55364,0.79091 3.55912,3.79639 4.03367,5.45732 0.47455,1.66092 3.16367,7.35552 4.11277,8.77917 0.94909,1.42365 7.90916,9.25372 8.30461,11.46828 0.39546,2.21457 0.87001,3.7964 2.29366,5.61551 1.42365,1.8191 4.66641,7.83007 5.6946,9.09553 1.02819,1.26547 8.38371,11.15192 9.96554,12.2592 1.58183,1.10728 2.29366,1.66092 2.29366,1.66092 1.04566,2.81751 3.3141,5.52049 5.29914,6.88098 1.26546,2.45184 4.58731,5.45732 6.16914,6.48551 1.58183,1.02819 3.55912,1.74001 4.98277,3.95458 1.42365,2.21457 2.45184,6.01096 3.08458,7.35552 0.63273,1.34456 2.92639,9.09554 3.48003,12.49648 0.55364,3.40093 0.63273,9.01644 1.02819,12.81284 0.39546,3.79639 1.66092,9.09553 1.97729,10.12372 M 91.350815,120.8849 c -1.028191,1.18637 -1.502741,1.74001 -1.581832,2.53093 M 66.12059,108.38842 c -0.711825,1.50274 -1.186374,3.24276 -1.344557,4.11277 m 78.458877,-28.3148 c -0.71182,0.870008 -2.13547,2.689115 -2.61002,4.350039 m 19.852,-8.383711 c 1.8982,0.870007 3.16366,1.344557 4.58731,1.344557 M 137.93578,28.426801 c -0.23728,1.502741 -1.18638,3.87549 -1.74002,4.903681 m -11.70998,67.002598 c 2.21899,4.02167 1.11169,5.99896 0.63715,7.26443 -0.23809,0.63492 -1.57507,3.18119 -3.41002,5.79077 -4.81391,4.99603 -3.72794,2.59497 -12.65119,0.60207 -4.98277,-1.10728 -15.100882,-4.49464 -19.134554,-5.52283 -4.033672,-1.0282 -14.078307,-5.6946 -18.270163,-6.96007 -4.191856,-1.26546 -13.2083,-5.694593 -15.897415,-6.801875 -2.689114,-1.107283 -13.761941,-6.960062 -17.400155,-8.146437 -3.638214,-1.186374 -7.679836,-1.969341 -9.411902,-0.237275 -1.424472,1.424472 -3.706026,5.307895 -1.628163,9.394358 2.372749,4.666409 9.714698,11.792599 11.612897,13.690799 1.898199,1.8982 8.409577,6.32375 10.150867,7.77415 1.965734,1.63734 15.297442,6.7883 15.297442,6.7883 0.776182,1.17281 5.674452,4.77891 8.29105,5.20086 2.447685,1.39056 12.74732,5.39742 15.278252,6.66288 2.530931,1.26547 9.570085,4.90368 12.654654,6.24824 3.08458,1.34456 8.85826,4.42913 10.20282,4.35004 1.34456,-0.0791 4.03367,-2.61002 4.66641,-6.24824 M 103.21935,78.911299 c 0.39067,2.823251 0.23248,4.088717 2.28886,5.512366 2.05639,1.423649 4.7455,3.717306 4.7455,3.717306 1.22156,1.747364 2.44024,3.124027 5.61551,5.852779 0,0 6.16914,5.220047 7.83006,6.01096 1.66093,0.79092 4.58732,1.42365 6.09006,0.9491 M 82.955679,67.393067 c -0.22585,2.715015 0.920911,3.29149 1.751441,4.138665 1.527375,1.557987 6.169146,4.42913 9.411902,5.694596 3.242756,1.265466 7.988258,1.819107 10.202818,1.660924 m 5.37823,-0.9491 c 1.10728,-0.474549 3.7964,-1.50274 4.50822,-1.97729 0.71183,-0.47455 1.58183,-1.898199 1.74002,-2.847298 m 39.69142,4.679965 c -1.45115,-1.64e-4 -3.20673,1.588326 -3.20673,1.588326 m 1.50539,-3.348482 c 1.11705,1.983697 -1.14796,3.158148 -2.15464,3.71741 -1.00667,0.559262 -2.82428,2.041307 -4.39021,1.70575 -1.56593,-0.335558 -3.78349,-2.310597 -5.67651,-3.719094 -2.13198,-1.586289 -5.62624,-5.708004 -8.16522,-7.941523 -2.83586,-2.494678 -9.84302,-7.494113 -13.646,-10.066719 -3.80298,-2.572606 -10.29042,-6.487441 -12.63933,-7.82967 C 104.91758,50.557298 95.410127,46.97802 91.942701,46.306905 88.475276,45.63579 80.757458,42.503922 77.290032,41.94466 73.822607,41.385398 68.45369,41.049841 65.769231,41.49725 c -2.684458,0.44741 -6.194592,1.044221 -6.934851,6.822999 -0.572832,4.471769 0.635903,8.814648 6.067172,12.982831 4.809655,3.691131 7.914383,6.255788 14.849234,6.255788 8.872596,0 12.86303,-3.467426 14.205259,-6.487442 M 145.04035,50.232461 c -0.527,3.68041 -0.0796,6.141163 1.26263,9.049326 1.54415,4.083617 2.36112,7.744283 4.13854,11.744506 0.99191,2.176017 3.24372,4.921507 5.25707,6.822999 M 128.16993,41.92309 c 0.23666,1.811209 1.69075,3.488996 3.25668,4.495667 1.56593,1.006672 6.93485,2.572606 8.83634,3.243721 1.90149,0.671115 4.4124,0.947106 7.12771,0.08207 m 14.07227,-20.103089 c -3.41544,-2.796878 -3.63915,-4.586516 -7.66583,-6.264303 -4.02669,-1.677786 -13.08674,-3.914835 -15.32379,-5.257064 -2.23704,-1.34223 -5.25706,-2.796311 -7.49411,-3.243721 -2.23705,-0.44741 -6.6669,-1.346727 -9.84302,1.006672 -2.96866,2.968658 -15.32159,6.25979 -19.46232,11.073391 -2.013341,2.460753 -3.298133,5.713543 -0.78296,9.171899 0.89481,1.230375 3.80298,4.474098 6.15188,5.92818 3.94802,2.822615 10.13514,3.55826 13.19859,2.908163 3.86814,-0.820861 8.18308,-2.638794 10.84968,-5.257065 m 52.74662,20.060761 c -1.07079,1.526759 -1.18264,13.159412 1.0544,16.067576 2.23705,2.908163 4.69781,6.151884 6.15189,7.270408 1.45408,1.118524 2.90816,3.131868 12.52747,4.13854 M 170.81347,54.393883 c 1.55113,1.756036 2.78151,2.539003 4.45929,3.32197 1.67779,0.782967 4.53342,1.130295 7.82968,1.901492 2.66036,0.62242 7.60596,0.782967 7.60596,0.782967 6.26816,-0.145772 9.1719,-2.237048 10.96154,-2.348901 m 58.61067,196.412879 c -5.37961,-12.30421 -7.38226,-21.92308 -9.95486,-27.40385 -2.57261,-5.48077 -5.36892,-13.53415 -6.71115,-21.14011 -1.34223,-7.60597 -2.24485,-22.04121 -2.68446,-33.44388 -0.25886,-6.71429 0.11186,-16.66601 0.22371,-21.02826 0.11185,-4.36224 -0.22371,-7.49411 -0.89482,-10.96154 -0.67112,-3.46742 -3.24372,-9.06004 -4.36225,-14.87637 -1.11852,-5.81633 -2.23704,-12.08006 -3.13186,-15.54749 -0.89482,-3.46742 -4.9306,-16.073512 -6.3756,-19.686025 -1.34222,-3.355574 -4.58594,-12.191916 -6.04002,-15.323784 -1.45409,-3.131868 -2.46076,-6.151884 -3.02002,-8.165228 -0.55926,-2.013344 -2.57261,-8.388933 -4.4741,-13.31044 -1.90149,-4.921507 -2.01334,-6.151884 -3.46742,-8.388932 -1.45408,-2.237049 -4.4741,-6.711146 -8.50079,-8.165228 -4.02669,-1.454082 -5.48077,-3.020016 -8.38893,-3.914835 -2.90816,-0.89482 -5.36892,-2.684459 -8.72449,-3.467426 -3.35557,-0.782967 -7.38226,-1.789639 -9.84301,-2.348901 -2.46076,-0.559262 -5.81633,-0.671114 -8.16523,0.223705 -2.3489,0.89482 -10.96154,5.816327 -13.75785,7.270408 -2.79631,1.454082 -7.38226,3.355573 -7.04671,9.1719 0.33556,5.816327 3.80299,6.711146 6.04004,7.82967 2.23705,1.118525 6.93485,4.697803 12.08006,4.697803 5.29973,-1e-6 7.82967,-1.565934 10.51413,-4.809655 2.68446,-3.243721 3.35557,-3.020016 4.13854,-8.836342 m 36.57575,60.62402 c -5.70448,2.1252 -12.19192,4.02669 -15.54749,4.80965 -3.35558,0.78297 -11.07339,3.80299 -12.30377,4.58595 m -13.31044,-12.19191 c -1.45408,3.91483 -1.78964,6.48744 -1.90149,8.05337 M 137.46664,149.323 c -3.46742,3.57928 -4.58595,4.6978 -10.06672,7.27041 m 16.88972,7.60596 c -0.29561,-2.99899 1.24687,-4.95793 1.24687,-4.95793 m 4.12205,-6.22731 c -3.59897,4.01684 -5.77473,8.68936 -6.37559,10.73783 m 21.81122,13.31044 c 0.33556,6.04003 0.78297,8.72449 3.02002,12.30377 m -1.78964,-38.14168 c -1.34223,10.06672 -1.11852,19.90973 -1.11852,19.90973 m 19.79788,-6.93485 c 3.80298,3.46743 6.70552,6.77024 9.1719,8.50079 m 23.37715,-32.66091 c -0.67111,1.67778 -1.00667,4.80965 -2.46075,6.59929 m -52.79435,-9.39561 c 1.53175,3.24062 2.97345,6.57129 5.36892,8.9482 2.05133,4.50719 4.61573,5.93591 6.93485,8.83634 m -29.8646,-25.05494 c -1.56593,1.45408 -0.67111,4.4741 -1.56593,5.36892 -0.89482,0.89481 -2.46076,1.78963 -4.92151,1.56593 -2.46075,-0.22371 -4.58595,-0.33556 -5.59262,-1.11853 M 165.3179,117.1095 c -2.90817,3.35557 -3.24372,4.9215 -3.46743,6.15188 m 52.01138,6.48744 c -4.80965,-2.46075 -12.97488,-7.60596 -16.2186,-8.61264 -3.24372,-1.00667 -8.72449,-3.24372 -10.51413,-4.6978 -1.78964,-1.45408 -9.84301,-4.02669 -12.52747,-4.4741 -2.68446,-0.44741 -9.28375,0 -11.2971,1.11853 -2.01334,1.11852 -8.16522,5.36892 -8.94819,5.81632 -0.78297,0.44741 -8.27708,4.36225 -9.61931,4.92151 -1.34223,0.55926 -8.50078,3.57928 -9.95487,4.13854 -1.45408,0.55926 -5.70447,3.80298 -5.70447,5.59262 0,1.78964 -0.11185,4.92151 3.69113,8.16523 3.80298,3.24372 6.71115,7.27041 14.98823,8.27708 8.27708,1.00667 15.99489,-0.67111 17.56083,-0.89482 m 62.63736,1.23038 c -2.23705,-3.80298 -3.02001,-8.27708 -3.46742,-9.1719 -0.44741,-0.89482 -1.78964,-3.91484 -2.90817,-5.03337 -1.11852,-1.11852 -3.91483,-3.46742 -3.91483,-3.46742" style="fill:none;stroke:#000000;stroke-width:1.79999995;stroke-linecap:round;stroke-miterlimit:4;stroke-opacity:1;stroke-dasharray:none;display:inline" />
	<!-- 
	Generated using the Perl SVG Module V2.50
	by Ronan Oger
	Info: http://www.roitsystems.com/
 -->
</svg>