<?xml version="1.0" encoding="UTF-8" standalone="yes"?>
<!DOCTYPE svg PUBLIC "-//W3C//DTD SVG 1.0//EN" "http://www.w3.org/TR/2001/REC-SVG-20010904/DTD/svg10.dtd">
<svg height="285" style="background-color:white" width="285" xmlns="http://www.w3.org/2000/svg" xmlns:svg="http://www.w3.org/2000/svg" xmlns:xlink="http://www.w3.org/1999/xlink">
	<path d="m 68.677394,152.79042 c 2.084797,-0.4552 4.096326,-1.09356 5.592622,-3.02001 m 29.417194,-15.43564 c 1.9148,-0.74303 3.75083,-1.72237 5.36891,-3.35557 m -27.852963,81.77523 c 1.747539,3.093 3.487605,6.23206 4.399215,9.69172 1.029494,3.13582 2.834835,6.13881 2.606673,9.55808 -0.247554,3.51073 1.268498,6.64977 2.048057,9.96993 1.220939,6.09092 1.885271,12.31783 2.280087,18.50744 m 25.786091,-63.19067 c 2.90403,2.29175 5.48481,4.48165 8.94123,5.95334 1.83566,0.76462 3.84538,0.78985 5.83153,0.88743 2.33743,0.11483 6.97496,-0.43005 6.97496,-0.43005 M 55.436542,142.34621 c 0.620891,8.21375 1.146198,16.58076 3.712139,24.46068 2.209806,4.1784 2.063715,9.05772 3.520554,13.48612 1.062665,4.18124 2.858652,8.06606 4.571644,12.064 1.399056,3.26525 4.086815,5.15399 5.664554,8.11559 2.282722,4.16061 4.482855,9.28275 7.742948,11.98097 2.613665,2.1632 6.787103,1.08924 9.828164,-0.0429 2.047902,-1.17635 3.923975,-2.64507 5.902048,-3.9372 M 70.322787,120.54545 c -3.022925,0.1707 -6.776159,-0.44484 -8.952144,1.90239 -1.129156,1.21802 -2.097049,2.15513 -3.430212,3.25052 -1.366155,1.1225 -2.520048,3.3979 -3.390012,5.28876 -1.45245,3.15689 0.151127,6.7161 0.567375,10.00987 0.948415,4.72351 3.56417,8.9146 6.263586,12.82902 2.597099,3.21113 5.391866,6.44535 9.150513,8.32513 2.130194,1.15159 4.02616,3.11491 6.63502,2.98933 2.626572,0.36097 4.975219,-1.08018 6.393972,-3.20512 1.608264,-1.8362 1.487927,-4.45023 1.358392,-6.7334 -0.09942,-0.68755 -0.240466,-1.36838 -0.389905,-2.04655 m 11.742489,-6.58623 c -1.715495,2.52171 -4.551446,3.91776 -5.976967,4.16254 m -2.45682,-43.54656 c -3.925523,0.11706 -8.422803,-0.60045 -11.601891,1.80114 -1.708873,1.29095 -1.998541,3.61963 -3.341261,5.40493 -1.693902,2.25223 -3.287375,6.30451 -2.204164,9.67937 1.468353,6.02776 3.439191,11.91494 5.766091,17.66383 0.954405,2.94192 1.668503,6.22873 4.232206,8.25016 2.38869,1.61639 4.273862,3.90577 6.773097,5.33827 3.86429,1.52362 7.812533,2.86356 11.608559,4.55288 3.104279,0.57327 6.048129,-1.78471 7.550209,-4.32999 1.10433,-1.88032 1.61175,-4.02153 2.14766,-6.11369 m 17.99748,-17.7711 -0.45958,6.07427 m 11.79097,-15.197 c -1.10519,2.09958 -2.44666,3.13052 -4.43885,3.74835 -2.50799,1.37625 -4.97518,3.39693 -6.80623,5.22798 -0.9247,0.9247 -1.99246,3.37954 -1.99246,3.37954 m -5.52557,-22.13117 1.59957,5.13917 -2.19604,3.44393 m -0.61795,5.35289 c 0,0 5.00094,5.6598 6.46371,7.77487 1.15059,1.66368 2.45831,4.6769 2.76195,6.60895 0.24805,1.57833 0.12641,4.8083 0.31329,5.36893 m -13.68779,-40.35975 c 2.52121,4.78349 4.17524,9.128 4.8022,13.5041 l -0.12897,6.37457 -1.25549,1.74375 m 1.06878,-30.617458 c 0,0 -8.045,-2.414805 -12.02392,-3.756402 -2.28659,-0.770983 -4.39351,-2.425023 -6.806235,-2.466026 -2.557544,-0.04346 -5.218287,0.880194 -7.299437,2.367385 -1.605111,1.147013 -2.824672,2.900551 -3.551077,4.734769 -0.986682,2.491432 -0.782738,5.312282 -0.887769,7.989922 -0.07994,2.03808 -0.232476,4.1219 0.197282,6.11575 0.434865,2.01755 1.55133,3.82549 2.367385,5.72118 1.623648,3.77173 3.13899,6.87553 4.734769,10.65322 0.690083,1.63364 0.536783,4.21075 1.282334,5.81983 0.658449,1.42109 1.920129,2.47783 2.959231,3.64972 1.943797,2.19219 4.011147,4.04294 6.115747,6.31302 0.53887,0.97783 0.77031,1.9724 1.03325,3.15054 0.96961,0.6525 1.51759,1.80044 2.61647,2.27472 1.73885,0.7505 4.65407,3.31294 4.65407,3.31294 1.08132,0.86014 2.29875,1.39399 4.1957,1.43059 m -12.10493,12.51865 c 1.1666,-4.33347 4.30847,-8.63365 9.27226,-10.65323 l 4.04428,-2.66331 c 4.88814,-4.36205 7.13131,-6.07913 10.35731,-8.77905 3.43975,-2.73461 5.29963,-4.5213 7.49672,-6.51031 M 126.95101,97.877957 c 4.84779,1.786926 12.519,2.226533 16.86762,0.197283 M 123.99178,70.258468 c 1.60105,-0.208681 3.7201,0.193655 6.31482,-0.511861 M 115.70593,44.907722 c 1.90314,-0.205119 4.43018,0.204813 6.09709,-0.472762 m 39.36955,94.06087 c -3.19169,-3.96986 -3.39627,-9.08381 -3.73545,-13.91735 -1.95979,-9.36521 -4.81937,-18.59845 -8.83107,-27.298497 -1.3709,-4.207702 -1.55591,-8.729459 -3.33475,-12.842871 -1.66411,-5.195396 -4.12008,-10.144149 -4.90798,-15.585954 -2.54367,-6.084398 -4.04415,-12.50321 -5.97745,-18.78627 -2.01603,-4.34034 -4.83455,-8.349969 -5.62736,-13.179137 -2.22437,-3.88576 -1.8437,-8.735386 -4.80058,-12.283274 -2.52336,-4.303916 -5.49893,-9.508009 -11.08791,-9.869603 -4.96477,-1.388144 -9.18117,3.056197 -9.05616,7.874538 0.24298,5.714731 2.07782,11.222803 3.24653,16.783459 2.58523,4.685586 4.7283,9.52976 5.46328,14.857591 0.93979,6.140644 5.40177,11.274902 4.97558,17.710902 -0.27309,5.778712 0.38039,11.428489 1.04096,17.118854 -1.02337,8.128861 1.58847,16.232952 0.72915,24.378702 -0.0443,1.00035 -0.50377,4.72694 -0.5582,5.72679 m 39.49833,25.46265 c -0.76483,-1.1531 1.85151,-3.55459 3.59702,-6.10232 m -12.26353,2.99717 c 1.30647,1.14189 2.29605,3.25682 4.58982,3.20221 0,0 3.12525,0.51828 4.48309,-0.10674 2.41865,-1.11331 5.33763,-5.94251 5.33763,-5.94251 m 46.07849,0.0272 c 0,0 -0.38456,-1.77744 0.086,-2.51715 1.66867,-2.62304 8.43248,-3.46905 8.43248,-3.46905 1.97758,0.54256 3.68053,1.49708 6.17632,1.26233 m -59.06607,140.54198 c -1.7824,-8.40236 -4.55829,-16.5283 -7.27677,-24.6465 -1.15174,-10.74908 -7.80785,-20.13674 -7.9122,-31.11488 -0.73479,-8.42321 -2.40652,-18.74127 4.4533,-25.22677 4.12067,-5.46304 11.31902,-7.66675 15.05559,-12.01018 3.11197,-3.61739 6.48652,-6.84373 8.78044,-10.76437 2.28013,-3.89708 7.99254,-7.86419 9.74985,-13.64725 0.9645,-3.17404 5.21359,-9.74708 9.55198,-11.19141 1.8707,-0.62279 1.213,-1.07107 2.92933,-2.30286 5.56141,-4.56775 13.40223,-5.5945 20.36421,-8.30463 5.0822,-1.25631 11.60268,-6.53873 8.78313,-12.27453 -2.93713,-2.85265 -10.65959,-4.62864 -15.99568,-5.41184 -8.24922,-1.21076 -18.05831,-2.70935 -25.00244,3.06833 -3.79718,4.26756 -9.52704,5.30318 -12.36554,10.2809 -4.66509,3.41129 -8.05358,8.63468 -14.74436,7.55902 -1.07955,-0.0286 -2.14357,-0.23274 -3.20221,-0.42696" style="fill:none;stroke:#000000;stroke-width:1.79999995;stroke-linecap:round;stroke-miterlimit:4;stroke-opacity:1;stroke-dasharray:none;display:inline" />
	<!-- 
	Generated using the Perl SVG Module V2.50
	by Ronan Oger
	Info: http://www.roitsystems.com/
 -->
</svg>