<?xml version="1.0" encoding="UTF-8" standalone="yes"?>
<!DOCTYPE svg PUBLIC "-//W3C//DTD SVG 1.0//EN" "http://www.w3.org/TR/2001/REC-SVG-20010904/DTD/svg10.dtd">
<svg height="285" style="background-color:white" width="285" xmlns="http://www.w3.org/2000/svg" xmlns:svg="http://www.w3.org/2000/svg" xmlns:xlink="http://www.w3.org/1999/xlink">
	<path d="m 203.3021,55.165438 c -1.30212,2.999811 -2.25122,3.94891 -3.51668,3.790727 -1.26547,-0.158183 -5.53641,-2.056382 -7.11825,-3.480031 -1.58183,-1.423649 -4.11276,-3.163665 -4.11276,-3.163665 0.66653,-2.078046 -0.49132,-3.791219 -1.90524,-5.453175 M 94.515306,161.96232 c 5.580564,-0.60301 6.975014,-2.5891 10.828894,-5.15186 m 32.9016,48.24402 c 6.89758,6.28859 5.14577,21.97964 5.94015,33.08508 l 1.44186,25.23255 M 84.262595,145.62382 c 0,0 2.551508,12.67959 4.494631,15.66589 1.87816,2.88647 5.480455,4.07947 8.043611,5.88059 5.546913,3.89779 10.104513,9.2714 14.479883,14.44993 2.50254,2.96192 5.41391,4.47694 8.17492,7.39049 2.98076,3.14544 6.07045,6.44098 8.82845,8.65156 4.08137,4.00348 8.41011,7.64173 13.72139,8.49419 5.8244,0.93481 12.22729,-0.97464 17.20618,-4.1382 3.1389,-1.99444 6.9696,-8.71199 6.9696,-8.71199 m -30.34645,-53.68957 c 1.39668,-0.43592 2.79321,-0.87205 3.38817,-2.31012 m -16.0168,17.55688 c 1.317,-1.47652 2.01888,-2.70698 2.31011,-3.77319 m -1.36009,-6.35323 c 6.89262,2.11625 13.99023,6.95613 20.30304,3.35008 3.38954,-1.9362 6.08357,-4.68255 7.57189,-9.19869 m -44.52688,-38.66441 c -3.54782,-0.288264 -12.300543,3.87798 -14.329577,9.66919 -2.137044,6.09949 2.618131,19.09695 2.618131,19.09695 m 28.363396,15.74688 c -8.21303,-3.50442 -17.07183,-12.13847 -25.278649,-15.43564 0,0 -4.870077,-0.16016 -8.662099,0.91313 -2.102515,0.59509 -6.505991,3.38004 -6.505991,8.92989 0,12.8097 4.338454,11.90708 9.128059,13.78538 11.10176,1.29045 18.27053,8.61901 29.52904,9.25622 6.13854,-0.80889 8.89784,-3.68798 10.73784,-7.82967 0.91493,-2.05944 1.04044,-4.08803 0.94634,-5.9445 m 18.63985,-19.24747 c 1.5837,-1.07073 3.05311,-1.91285 5.03203,-3.77402 m 19.18461,-17.45485 -4.56028,6.13279 m 33.65169,-18.712856 c -2.63193,-2.645047 -6.75999,-2.896294 -11.47932,-2.201512 m -3.93127,-7.705293 0,0 c 3.62907,-1.719111 6.84043,-2.185101 10.06113,-2.679131 m -56.45013,8.182912 -1.35217,3.251725 m 13.30323,1.780302 -4.71752,3.45952 M 175.96372,85.6059 c -2.62049,1.179561 -5.60629,2.333717 -7.39079,3.931272 m -30.18079,-5.943779 c -7.13819,-4.919556 -15.24671,-8.731679 -18.0163,-8.775638 -8.12239,-0.128921 -10.68232,5.469247 -13.45991,8.246833 -3.76696,3.766959 -0.88823,17.531132 2.68792,18.895402 17.29323,10.58919 24.56493,24.99538 33.49444,27.99065 3.40165,4.80218 14.40466,17.54542 26.57539,9.90681 3.47746,-3.54308 4.9458,-16.89779 -5.34652,-21.22887 -1.34881,-3.36207 -3.40354,-6.6457 -8.49155,-9.5923 -5.51842,-4.47008 -7.98157,-10.916927 -15.25333,-16.825843 -3.40524,-3.236469 -8.86686,-7.474571 -12.90484,-8.966097 m -9.25673,-30.638033 c -3.08851,1.115261 -5.31936,3.302588 -7.22756,5.893237 M 85.173956,31.813187 c -3.07919,1.69641 -5.628166,3.604906 -7.227555,5.893237 M 192.2013,78.887258 C 174.84651,75.092163 171.72558,68.899646 163.57774,65.442889 155.36256,61.957565 147.50761,56.514126 136.16341,52.880939 131.33559,51.334741 123.29186,45.043046 117.27838,41.85846 110.04045,38.025438 103.15671,35.678484 96.237531,32.288533 93.210933,30.805695 93.247229,30.618298 87.289149,27.581262 80.119882,23.949875 60.825741,11.139636 51.635313,23.536764 c -4.523777,6.102201 4.749456,11.298386 12.334766,15.237865 3.003855,1.560071 5.75123,3.756834 8.402614,4.451725 4.847141,3.039244 12.112362,7.908931 19.053804,11.816667 6.207443,3.494525 11.966093,6.219541 16.174133,8.574796 7.50119,6.123456 9.85783,7.668997 15.18013,11.705402 M 227.28414,244.73312 c -2.7313,-18.54561 -7.92445,-32.51213 -10.73783,-47.87284 -1.35966,-10.36499 -3.13987,-28.79732 -1.94782,-31.41134 4.13305,-5.75102 9.12505,-18.2147 10.89602,-27.19933 0.7952,-4.0343 12.27662,-19.0348 12.27662,-31.31868 0.0601,-8.461926 -3.8067,-15.551486 -9.14476,-22.370491 -1.96051,-2.504423 -3.39235,-19.021043 -8.72449,-22.817896 -2.99839,-3.891069 -11.94742,-4.214004 -17.21403,-6.869329 L 188.3595,47.649136 c -13.35186,-7.108261 -12.62076,13.932554 -6.27963,18.318988 1.39004,1.983678 2.11409,4.20875 4.96221,4.526049 0.86631,3.057891 1.60709,6.218489 4.72494,7.434212 4.30206,10.915201 20.01557,0.667735 22.54224,-1.421321" style="fill:none;stroke:#000000;stroke-width:1.79999995;stroke-linecap:round;stroke-miterlimit:4;stroke-opacity:1;stroke-dasharray:none;display:inline" />
	<!-- 
	Generated using the Perl SVG Module V2.50
	by Ronan Oger
	Info: http://www.roitsystems.com/
 -->
</svg>