<?xml version="1.0" encoding="UTF-8" standalone="yes"?>
<!DOCTYPE svg PUBLIC "-//W3C//DTD SVG 1.0//EN" "http://www.w3.org/TR/2001/REC-SVG-20010904/DTD/svg10.dtd">
<svg height="285" style="background-color:white" width="285" xmlns="http://www.w3.org/2000/svg" xmlns:svg="http://www.w3.org/2000/svg" xmlns:xlink="http://www.w3.org/1999/xlink">
	<path d="m 59.185588,115.02779 c 0,0 -4.874328,4.37504 -5.659958,7.27967 -0.617578,2.28331 0.383402,4.57689 1.269383,6.77005 3.90484,9.66605 9.63234,18.15125 17.136664,25.38765 1.549759,1.49443 3.414657,3.27555 5.500658,3.80815 3.100783,0.7917 9.587947,-0.49606 9.587947,-0.49606 M 195.07601,269.44179 c 0,0 -10.03469,-11.35664 -15.85741,-16.1566 -5.44265,-4.48664 -12.38148,-6.98167 -17.65258,-11.66866 m -19.74696,-20.94374 c -2.92249,-2.33177 -9.14144,-6.49901 -9.14144,-6.49901 M 76.827521,90.289879 c 0,0 -12.22906,3.599253 -15.941067,8.161208 -2.267137,2.786253 -2.456907,6.282433 -2.543169,9.873483 -0.09202,3.83063 0.822884,9.06605 3.559572,11.44056 m 58.061313,61.69788 c 1.00987,1.53894 2.47637,1.83165 4.01219,1.66904 M 82.509865,124.95202 c -3.254053,3.57571 -4.075152,9.75816 -3.38502,17.55979 m -6.029567,-21.47372 c 0.987297,-0.0928 1.974595,-0.20259 2.961892,0.52891 l 1.057819,1.69251 c 0,0 -2.678571,4.57437 -3.173456,7.19317 m -0.211564,5.39487 c 0.06208,1.58552 0.317346,4.76019 0.317346,4.76019 l -3.385021,1.69251 c -5.165758,-1.19389 -9.053938,-4.49703 -12.072919,-10.48742 M 123.58653,71.850957 c 0,0 -20.72365,-3.337733 -30.574792,-0.714681 -5.120656,1.363471 -11.52018,4.787117 -13.074848,8.225527 -1.432149,3.167442 -4.17731,12.70739 -3.48101,17.400155 0.822529,5.543502 8.258931,19.110002 8.258931,19.110002 m 43.527679,-5.44579 c -1.22623,0.38145 -2.23287,0.85074 -4.87698,0.66504 m -7.86968,-18.621208 c 1.66875,3.254679 8.54328,8.407128 7.83274,-1.883483 M 104.7443,85.043687 c 0,0 2.71495,1.465726 4.43362,2.771013 m 6.31791,4.655302 c 1.92268,1.878308 5.76793,9.197968 6.20707,14.409268 0.35441,4.20578 -2.99269,12.3033 -2.99269,12.3033 m 5.2095,-37.68578 c 0,0 -0.94801,7.936181 -0.44336,11.859936 0.26092,2.028757 1.24832,4.072893 2.21681,5.874548 1.07013,1.990726 5.56841,12.000176 7.53716,14.741796 0.83295,1.15993 4.09365,2.03897 4.09365,2.03897 m -10.92985,13.38057 c 3.62815,-2.07168 8.10367,-7.7728 9.76985,-11.03015 3.539,-6.9187 4.75698,-11.47807 6.15527,-13.47832 1.16685,-1.66917 6.4657,-5.246449 8.03594,-7.093792 2.33769,-2.750227 5.57897,-3.473003 8.70098,-6.650432 m -19.9513,36.909894 c -1.90682,2.39694 -5.83846,3.39843 -7.64799,2.88186 -5.1169,-1.46074 -10.8282,-3.43035 -16.18272,-5.32035 -3.64958,-1.2882 -7.19459,-2.86566 -10.86237,-4.1011 -5.040661,-1.69788 -10.07794,-3.51346 -15.295995,-4.54446 -4.2991,-0.84943 -8.70735,-1.63155 -13.079182,-1.33009 -4.514627,0.31131 -9.754041,0.26942 -13.190023,3.21438 -3.005972,2.5764 -4.693673,7.01702 -4.544462,10.97321 0.141986,3.76463 2.626334,7.24392 5.098664,10.08649 3.867479,4.44665 11.940327,8.66962 14.74179,9.97565 3.407347,1.58849 9.266671,8.98352 14.52011,12.96834 3.666493,2.7811 8.664578,4.82084 11.527418,8.42387 4.62823,5.82488 6.15686,14.02655 10.97321,18.8429 2.20596,2.20596 9.54063,15.98367 11.85994,18.28868 4.12129,4.09589 7.55991,7.47609 10.30816,11.52742 2.59472,3.82501 5.00286,7.79101 7.86968,11.41657 2.87185,3.63193 6.66563,6.50785 9.31061,10.30817 2.1762,3.12677 9.59354,10.84475 10.97321,12.8575 3.98982,5.82059 12.45666,17.18889 12.63582,17.06945 M 142.33098,70.876524 c 0,0 -5.57046,3.469595 -11.75642,4.467437 m -3.21341,-0.235128 c -4.13714,-2.164059 -5.21066,-5.772196 -6.81872,-9.248379 -2.43416,-5.261981 -3.98625,-16.930215 -3.98625,-16.930215 m 14.9589,-9.717655 c -2.134,2.098308 -4.33684,4.71067 -6.57026,6.628728 m -3.99527,2.440441 c -1.42112,0.578395 -2.41403,0.675417 -4.32593,0.649466 -6.41287,-0.08704 -12.66527,-1.913481 -18.368749,-4.836046 M 233.32026,212.55208 c -0.46573,0.88581 -17.61432,-18.08315 -20.83284,-21.92397 -1.8956,-2.26211 -4.3333,-3.99477 -6.31118,-6.1853 -2.43178,-2.69324 -4.56875,-5.92843 -6.54901,-8.9691 -5.48286,-8.4189 -5.48018,-9.08916 -7.33072,-11.19758 -1.29848,-1.47943 -3.02376,-7.07059 -3.58392,-9.93548 -1.96127,-10.03067 -2.20875,-20.32871 -2.8473,-30.52936 -0.51417,-8.21367 0.45947,-16.54237 -0.79091,-24.676583 -0.41596,-2.706 -1.22881,-5.355 -2.21457,-7.909162 -1.44336,-3.739834 -2.97369,-7.288463 -5.45661,-10.756459 -2.48292,-3.467996 -4.50255,-7.780658 -7.11824,-11.469 -1.45292,-2.04874 -3.26461,-4.396215 -4.66712,-6.479788 -3.29451,-4.894332 -5.47919,-9.910691 -8.54189,-14.953324 -0.9869,-1.624902 -2.25188,-3.547546 -3.16367,-5.215753 -1.32494,-2.424093 -1.62784,-4.940338 -3.32185,-7.122538 -3.43124,-4.711041 -6.73101,-10.800587 -11.86374,-13.129208 -4.3569,-1.914434 -9.38886,-1.719125 -14.07831,-2.529501 -5.06554,-0.875367 -10.14206,-1.694732 -15.18559,-2.689115 -3.65287,-0.720201 -7.19685,-2.416374 -10.914639,-2.215996 -3.829457,0.206396 -7.259081,1.903865 -10.679515,3.638214 -3.170794,1.607768 -5.983376,4.187844 -8.935205,6.169146 -2.696299,1.809787 -5.633957,3.263234 -8.225528,5.220047 -2.592937,1.957844 -5.405863,3.828924 -7.276428,6.485512 -1.538931,2.185599 -3.261974,4.773904 -3.005482,7.434612 0.241375,2.503898 2.030833,4.915474 4.112764,6.327329 3.115264,2.112606 7.622295,2.453758 11.38633,2.449693 4.787781,-0.0052 12.221426,-2.719836 16.548564,-4.768921 2.518057,-0.763393 6.667243,-3.595319 8.165569,-6.433021 1.52366,-2.885689 3.40249,-5.367679 5.97628,-10.229739" style="fill:none;stroke:#000000;stroke-width:1.79999995;stroke-linecap:round;stroke-miterlimit:4;stroke-opacity:1;stroke-dasharray:none;display:inline" />
	<!-- 
	Generated using the Perl SVG Module V2.50
	by Ronan Oger
	Info: http://www.roitsystems.com/
 -->
</svg>