<?xml version="1.0" encoding="UTF-8" standalone="yes"?>
<!DOCTYPE svg PUBLIC "-//W3C//DTD SVG 1.0//EN" "http://www.w3.org/TR/2001/REC-SVG-20010904/DTD/svg10.dtd">
<svg height="285" style="background-color:white" width="285" xmlns="http://www.w3.org/2000/svg" xmlns:svg="http://www.w3.org/2000/svg" xmlns:xlink="http://www.w3.org/1999/xlink">
	<path d="m 182.6553,85.388581 c 0.13544,0.270871 0.35629,12.598234 -0.20733,18.598809 -1.02943,10.95967 -1.82485,21.88806 -1.91872,32.86744 -0.0703,8.22643 0.28199,16.47618 1.20836,24.65058 0.51602,4.55344 1.11302,9.14044 2.41672,13.53366 0.647,2.18026 1.71216,4.21545 2.6584,6.28348 2.65319,5.79861 5.22028,11.66538 8.45853,17.15874 2.93917,4.98599 6.49018,9.27025 9.42523,14.25867 2.50296,4.25403 4.25631,9.19478 7.0085,13.29198 2.16359,3.22095 4.87036,6.08142 7.73351,8.7002 1.99732,1.82685 3.78276,2.54886 5.55847,4.59178 2.7668,3.18316 4.69259,7.83378 7.00849,11.3586 2.07951,3.16504 7.0085,8.94188 7.0085,8.94188 M 137.83952,204.00021 c 8.23999,0.16051 14.71851,-2.65024 18.31079,-6.61223 m -32.67967,19.70953 c 2.6071,-1.95589 5.42579,-3.89858 5.97644,-8.64676 m 27.59333,58.23846 c -1.33348,-2.44412 -3.28126,-6.08481 -4.85686,-10.43518 -1.4703,-4.0596 -3.13798,-7.9432 -4.42569,-10.29161 M 73.053782,162.68524 c 0,0 1.593111,5.52097 2.478207,8.25383 0.318027,0.98195 0.596139,1.98229 1.017266,2.92464 1.284972,2.87537 3.272578,5.399 4.577696,8.26528 0.822358,1.80605 1.23022,3.69575 2.20542,5.42407 0.829518,1.47013 2.160254,2.65315 3.008067,4.1128 3.902035,6.71801 7.363245,13.75566 13.224456,19.32805 1.371726,1.30413 1.869406,3.3383 3.178956,4.70485 3.50167,3.65406 7.44387,7.31809 12.20719,9.02824 1.51803,0.54501 3.29465,-0.23349 4.83201,0.25432 1.28904,0.40901 2.46061,1.22209 3.43328,2.16169 2.98475,2.88328 4.98231,6.66989 6.9937,10.29981 2.29032,4.1333 3.45516,8.82399 5.72212,12.97014 2.02465,3.70298 4.73049,6.99195 6.9937,10.55413 1.83608,2.8899 5.34065,8.77392 5.34065,8.77392 M 65.380746,125.79652 c 0,0 -2.920094,-0.11547 -3.32753,0.001 -1.537495,0.44095 -2.93161,1.41865 -4.069063,2.54316 -1.396347,1.38046 -2.709071,3.05269 -3.178956,4.95917 -0.702525,2.85038 0.221322,5.88864 0.76295,8.77392 0.529582,2.82111 1.110916,5.70875 2.416006,8.26528 1.195012,2.3409 2.808032,4.55405 4.832013,6.23076 1.649561,1.36653 4.237115,1.25371 5.72212,2.79748 2.036743,2.11734 5.65121,4.15288 8.901076,5.34064 2.742308,1.00226 5.85435,0.98741 8.773918,1.01727 3.038955,0.0311 5.935244,-0.0996 8.901076,-0.76295 1.818606,-0.40677 7.458194,-2.6485 7.458194,-2.6485 m -22.462865,-1.54772 c 1.040553,-1.2483 2.156384,-2.42131 2.543165,-4.32338 m 11.317082,-9.91834 c 1.102038,-1.67651 2.585551,-4.72621 3.178956,-7.50234 M 66.85563,120.70155 c 0,0 -1.181695,2.13503 -1.369141,3.31613 -0.173246,1.09163 -0.207538,2.30194 0.254316,3.30611 1.527902,3.322 5.421466,4.94293 7.756652,7.75666 2.492724,3.00355 4.058351,6.71229 6.612228,9.66402 1.43277,1.65597 3.097046,3.11451 4.832013,4.45054 1.872523,1.44195 3.693614,3.20296 5.976437,3.81475 1.844178,0.49424 3.863718,0.1834 5.72212,-0.25432 1.219007,-0.28712 2.344845,-0.90643 3.433275,-1.5259 0.87399,-0.49742 2.46131,-1.74458 2.46131,-1.74458 M 116.9632,70.373677 c 0,0 -11.74293,-2.514841 -16.60175,-2.533721 -2.719678,-0.01057 -5.342727,1.162852 -8.060529,1.264396 -1.954311,0.07302 -3.934805,-0.880339 -5.847832,-0.474149 -1.937169,0.411316 -3.779171,1.481669 -5.215634,2.844892 -1.749938,1.660715 -3.037543,3.872805 -3.793189,6.163931 -0.579665,1.757549 -0.510095,3.681411 -0.474148,5.531734 0.0495,2.547991 0.663435,5.053876 0.948297,7.586377 0.05918,0.526141 0.653147,3.864396 0.653147,3.864396 M 120.59179,86.4898 c -0.8934,-1.641167 -2.37573,-2.886946 -3.63514,-4.267338 -2.13433,-2.339354 -4.66544,-4.318904 -6.63808,-6.796129 -0.5462,-0.685917 -1.17536,-1.371404 -1.42245,-2.212693 m 18.29793,18.52608 c -0.79024,-5.948939 -2.24681,-6.812472 -2.63157,-13.266633 m 24.63627,-18.851706 c -4.15413,-0.504516 -7.29444,-1.129825 -12.23389,0.645837 m 2.43482,-24.985464 c -3.07783,2.632168 -3.90136,10.558727 -4.12,14.41626 M 109.68637,35.913952 c 2.16001,-0.610851 4.32002,-0.863838 6.48003,-0.632198 m 61.16516,68.277396 c 0,0 2.26206,-3.46017 3.00295,-5.373686 1.17199,-3.026929 1.95143,-6.247604 2.21269,-9.482971 0.18701,-2.315903 0.2379,-4.742537 -0.47415,-6.954179 -2.29845,-7.139028 -6.76441,-12.978525 -11.06346,-19.123992 -3.22604,-4.611602 -7.78475,-8.819388 -11.22152,-13.27616 -1.49277,-1.935805 -3.057,-3.822194 -4.42539,-5.847833 -1.37568,-2.036429 -2.40407,-4.294697 -3.79319,-6.321981 -1.35813,-1.982059 -2.89224,-3.839773 -4.42538,-5.689782 -1.52428,-1.839307 -2.63924,-4.239219 -4.74149,-5.373684 -2.95053,-1.592234 -6.60804,-1.265944 -9.95712,-1.422446 -5.42683,-0.253594 -11.11438,-0.895127 -16.2791,0.790248 -2.45871,0.802337 -4.40536,2.723071 -6.48003,4.267337 -2.03994,1.518419 -4.18533,2.975206 -5.84783,4.899535 -1.57719,1.825579 -2.99986,3.885579 -3.79319,6.163931 -0.732755,2.104393 -1.285488,4.465492 -0.79025,6.63808 0.305326,1.33945 1.05457,2.773867 1.97562,3.793189 3.84608,4.25646 7.84702,8.285791 10.98444,13.11811 2.13475,3.287992 4.7637,6.304546 7.74443,8.850774 1.27808,1.091775 2.59228,2.546538 4.26733,2.686841 1.36498,0.114332 2.5623,-0.979522 3.79319,-1.580495 2.11983,-1.034995 4.52453,-1.780835 6.16393,-3.477089 1.03166,-1.067442 1.65002,-2.522939 2.05465,-3.951238 0.79187,-2.795226 0.83022,-5.794253 0.6322,-8.692724 -0.24227,-3.54619 -1.05234,-7.071548 -2.2127,-10.431269 -1.0153,-2.939701 -2.17657,-5.939968 -4.10928,-8.376624 -0.46531,-0.586637 -1.73855,-1.422446 -1.73855,-1.422446 m 19.95338,51.96076 c -1.6245,5.476337 -6.68762,6.28978 -10.62059,7.547124 m -48.661203,3.63812 c -0.160182,-5.191016 6.321711,-9.511163 5.469298,-13.193112 m 60.971045,11.179768 c 0,0 -3.85856,0.772419 -5.81632,0.894819 -2.68026,0.167575 -5.46767,0.501545 -8.05338,-0.223705 -1.73655,-0.487076 -3.02583,-2.008171 -4.6978,-2.684458 -3.63824,-1.471611 -7.68696,-1.663495 -11.40895,-2.908163 -5.13528,-1.717285 -9.8138,-4.66828 -14.98823,-6.263737 -2.83692,-0.874723 -5.75739,-1.887654 -8.72449,-1.789638 -3.091773,0.102135 -6.08116,1.299018 -8.948191,2.460753 -2.443414,0.990083 -4.472532,2.860897 -6.93485,3.802983 -2.145469,0.820859 -4.471372,1.055778 -6.711146,1.565934 -0.670318,0.152679 -2.762292,2.144654 -2.762292,2.144654 M 137.8022,127.73548 c 5.24616,0.75994 9.40061,-0.78484 12.75118,-4.02669 m 22.14678,20.80455 c 0,0 -1.73414,-5.23947 -2.68446,-7.82967 -2.53743,-6.91601 -4.85643,-13.94388 -8.05338,-20.58084 -0.71045,-1.47492 -2.46075,-4.2504 -2.46075,-4.2504 m -62.556761,11.02193 c 0,0 -0.917081,2.39156 -2.31765,3.29518 -1.155373,0.74543 -2.658408,0.75933 -4.026688,0.89482 -3.488443,0.34542 -7.075801,0.45927 -10.514129,-0.2237 -2.825112,-0.56116 -5.527453,-1.74772 -8.053375,-3.13187 -3.322227,-1.82051 -6.95117,-3.64197 -9.171899,-6.71114 -1.700283,-2.34989 -2.428743,-5.38787 -2.684459,-8.27708 -0.192455,-2.17446 -0.02498,-4.50774 0.89482,-6.48745 0.845421,-1.81962 2.478218,-3.198166 4.026687,-4.474093 0.671125,-0.553002 1.398994,-1.110102 2.237049,-1.34223 2.816965,-0.262329 7.043309,-0.0063 9.541476,-0.316099 2.48127,2.847984 0.422194,8.694952 0.130119,11.502532 -0.303441,0.79422 -0.965825,1.60663 -1.697245,2.04009 -2.097409,1.24297 -4.21612,1.07821 -6.632121,1.09059 -0.90715,0.005 -2.684458,-0.44741 -2.684458,-0.44741 m 40.264844,16.56262 c 0,0 -5.08199,-0.66491 -7.156524,-2.0218 -2.261268,-1.47903 -3.652957,-4.01118 -5.145212,-6.26374 -0.976289,-1.47371 -2.460754,-4.6978 -2.460754,-4.6978 m 15.21193,71.13814 c 0,0 -1.56247,-3.20734 -2.01334,-4.9215 -1.35754,-5.16117 -1.67712,-10.55694 -2.01335,-15.88305 -0.35705,-5.65593 -0.42569,-11.35039 0,-17.00157 0.3739,-4.96361 1.28251,-9.87922 2.23705,-14.76452 0.36764,-1.88156 1.34223,-5.59262 1.34223,-5.59262" style="fill:none;stroke:#000000;stroke-width:1.79999995;stroke-linecap:round;stroke-miterlimit:4;stroke-opacity:1;stroke-dasharray:none;display:inline" />
	<!-- 
	Generated using the Perl SVG Module V2.50
	by Ronan Oger
	Info: http://www.roitsystems.com/
 -->
</svg>