<?xml version="1.0" encoding="UTF-8" standalone="yes"?>
<!DOCTYPE svg PUBLIC "-//W3C//DTD SVG 1.0//EN" "http://www.w3.org/TR/2001/REC-SVG-20010904/DTD/svg10.dtd">
<svg height="285" style="background-color:white" width="285" xmlns="http://www.w3.org/2000/svg" xmlns:svg="http://www.w3.org/2000/svg" xmlns:xlink="http://www.w3.org/1999/xlink">
	<path d="m 85.00785,60.624017 c -0.223705,-2.684458 1.34223,-3.579278 4.250393,-4.921507 2.908163,-1.342229 7.82967,-1.565933 9.171899,-0.671114 1.342229,0.89482 2.085028,4.288579 2.572608,7.38226 0.33556,2.12908 0.55296,4.854999 -0.083,6.56477 -3.432215,0.367542 -4.986808,0.819432 -6.516346,1.488605 M 122.81397,58.610673 c 4.2504,-1.789639 11.18525,-0.671115 11.18525,-0.671115 0,0 5.36891,-8.053375 4.02668,-10.066718 -1.34223,-2.013344 -7.15855,-1.565934 -7.15855,-1.565934 m 7.49411,170.015704 c 4.80965,3.13186 6.59929,3.91483 7.71782,5.25706 1.11852,1.34223 3.24372,5.70447 4.4741,6.71115 1.23037,1.00667 6.82299,6.26373 7.49411,7.71781 0.67111,1.45409 4.13854,4.92151 4.4741,5.92818 0.33555,1.00668 3.57927,4.69781 4.25039,6.04003 0.67111,1.34223 1.45408,2.79632 2.12519,3.57928 M 83.34491,155.05503 c 2.669611,5.11765 4.01184,5.90062 5.465922,8.47323 1.454082,2.5726 4.697802,6.823 6.375589,10.84968 1.677786,4.02669 6.487439,12.41562 8.165229,14.20526 1.67778,1.78964 3.13186,5.48078 4.47409,6.48745 1.34223,1.00667 15.32379,17.00156 18.3438,18.00824 3.02002,1.00667 4.13854,2.23704 5.81633,3.57927 1.67779,1.34223 3.46743,1.78964 3.91484,2.79631 0.44741,1.00668 5.14521,10.62599 7.94152,14.20526 2.79631,3.57928 8.38893,14.98823 9.3956,18.00824 1.00668,3.02002 5.36892,12.08007 7.49412,15.32379 M 66.868271,113.85732 c -5.461285,0.90328 -7.810186,2.24551 -8.481301,6.38405 -0.671114,4.13854 -0.111852,6.82299 1.342229,8.83634 1.454082,2.01334 3.355573,6.37559 4.921508,9.06004 1.565934,2.68446 4.362244,7.71782 6.263736,9.39561 1.901491,1.67779 6.151884,5.81633 9.954866,6.93485 3.802983,1.11852 7.382261,1.23038 10.178572,-0.2237 2.796311,-1.45409 3.573181,-2.58767 6.652171,-3.81052 M 95.06812,98.660157 c 2.293657,0.316366 4.112764,3.084573 5.77369,4.824593 1.66092,1.74001 3.32185,3.7173 4.03367,4.90368 m 1.04877,-22.150204 c -0.11185,6.599294 2.68446,10.065355 2.68446,14.652664 0,3.08576 0.55926,4.4741 -1.11852,8.83635 m 3.46742,-34.674258 c -0.17265,2.177455 -4.80965,5.48077 -10.17857,7.158556 -5.368914,1.677787 -6.878922,1.510008 -11.464871,2.628532 -4.58595,1.118525 -10.331614,2.792318 -14.037482,3.243721 -3.668651,0.446869 -5.926271,1.220839 -8.724489,5.03336 -2.491289,3.394335 -3.69113,5.201138 -3.467426,6.990779 0.223705,1.78964 0.249452,5.1734 1.510009,7.15856 1.222315,1.92493 3.40624,3.99569 3.40624,3.99569 M 132.71573,76.119047 c -2.92639,3.163664 -3.71731,13.999216 -2.76821,27.682063 m -2.5476,6.48539 c -5.48077,7.15855 -6.6086,10.56006 -6.7158,13.1097 m 31.32334,-14.67564 c -13.08674,10.29043 -12.86303,10.96154 -18.00824,13.08674 -5.14522,2.1252 -3.5821,2.83165 -11.80184,2.98176 M 87.317142,109.73298 c 2.214565,1.66093 3.717306,2.13548 3.638214,3.7964 -0.07909,1.66092 -2.214565,4.03367 -3.638214,6.32733 -1.423649,2.29366 -2.056382,6.88097 -3.242756,8.06734 -1.186374,1.18638 -3.480031,1.81911 -5.457322,1.50274 -1.97729,-0.31636 -3.875489,-2.29365 -4.982771,-3.55912 -1.107283,-1.26546 -3.242756,-3.48003 -4.112764,-5.53641 m 22.06656,10.20282 c 1.660924,-2.37275 5.694596,-8.22553 8.225528,-9.64918 m 52.437743,10.12373 c -4.27095,-1.10729 -8.22553,0 -12.33829,-0.0791 -4.11277,-0.0791 -10.67737,0.15818 -16.60924,-5.14096 -5.93187,-5.29914 -9.80736,-9.80736 -18.9029,-13.92012 -9.095535,-4.11277 -17.479246,-8.46281 -22.06656,-8.70008 -4.587313,-0.23728 -9.095535,2.29366 -11.468284,4.35004 -2.372748,2.05638 -4.350038,6.16914 -4.42913,8.4628 -0.07909,2.29366 1.028191,7.35552 4.350039,11.15192 3.321847,3.7964 5.457321,6.32733 6.40642,7.5137 0.9491,1.18638 2.92639,3.24276 5.773688,4.66641 2.847298,1.42365 4.745497,1.34455 8.225528,5.45732 3.480031,4.11276 6.090054,5.06186 8.462803,7.19734 2.372746,2.13547 4.349906,2.56039 6.010966,4.98277 1.8982,2.76821 2.92639,3.95458 4.6664,11.23101 1.74002,7.27642 3.63822,13.52466 7.19734,19.45653 3.55912,5.93187 3.00548,6.6437 5.85278,9.57009 2.8473,2.92639 5.85278,3.7964 9.09553,6.5646 M 106.89907,67.788771 c 1.8519,5.324795 5.01556,8.172093 5.01556,8.172093 0,0 4.03368,0.870008 7.83007,0.237275 m -6.80187,-37.093967 c -1.34456,4.745496 -3.18914,8.527214 -7.52644,9.80002 M 124.85962,37.76915 c -3.53308,-5.387766 -7.01311,-10.845087 -9.54405,-12.743286 -2.53093,-1.898199 -6.96006,-3.638214 -12.89193,-2.293657 -5.931871,1.344558 -8.85826,2.847299 -12.2592,4.112764 -3.400939,1.265466 -16.055598,6.564604 -17.400155,9.411902 -1.344557,2.847299 -1.107283,7.118246 -0.158183,9.807361 0.949099,2.689114 4.724833,5.707866 6.564604,9.728268 2.654325,5.800422 5.143799,8.13878 6.594072,13.499855 1.126661,4.164812 3.371471,8.962164 7.879693,8.80398 4.508222,-0.158183 6.248238,-0.474549 9.095539,-3.242756 2.84729,-2.768206 4.74549,-3.242756 4.35004,-14.157399 -0.39546,-10.914643 -2.13548,-14.948315 -8.225532,-23.964759 m 54.494122,36.065776 c -4.50822,-1.97729 -8.06734,-3.954581 -9.88645,-5.852779 m 23.07608,-16.275268 c -3.80298,3.243721 -9.16744,4.006333 -12.23145,4.006333 -2.98493,0 -4.55505,-0.231081 -5.86679,-1.42117 m 86.10452,186.557305 c -3.91483,-5.92818 -11.29454,-15.60287 -12.91895,-18.70733 -1.61749,-3.09122 -10.90562,-15.18396 -11.57673,-17.30916 -0.67111,-2.12519 -7.27041,-9.06004 -8.61264,-11.85635 -1.34223,-2.79632 -3.69113,-6.26374 -4.47409,-8.16523 -0.78297,-1.90149 -3.80299,-6.71115 -5.14522,-10.62598 -1.34223,-3.91484 -5.25706,-18.3438 -7.38226,-22.25864 -2.12519,-3.91483 -2.37576,-8.25384 -2.69213,-10.94295 -0.31637,-2.68912 -1.10728,-11.70556 -1.10728,-14.71104 0,-3.00548 1.58183,-14.39467 1.42365,-21.98747 -0.15819,-7.592794 -1.58184,-28.631164 -2.05639,-31.478462 -0.47455,-2.847298 -1.10728,-4.42913 -0.9491,-6.960062 0.15819,-2.530931 0.15819,-10.914642 -0.63273,-16.767422 -0.79091,-5.852779 -0.47455,-9.490994 -3.32185,-12.496475 -2.84729,-3.005481 -5.06186,-5.220046 -8.22552,-6.010963 -3.16367,-0.790916 -14.39468,-3.95458 -16.13469,-4.112764 -1.74002,-0.158183 -5.31272,-1.404458 -7.05273,-1.404458 -1.74002,0 -4.0201,0.138993 -5.12738,0.138993 -1.10728,0 -5.58275,-0.520881 -7.0064,0.902768 -1.42365,1.423649 -6.12281,4.950011 -6.59736,11.27734 -0.47455,6.327329 -0.63273,10.75646 -2.21456,14.71104 -1.58184,3.954581 -3.00549,7.592795 -2.8473,9.807361 0.15818,2.214565 0.31475,6.010962 8.06734,6.010962 4.84606,0 12.33829,0.632733 15.81832,-5.694596 3.48004,-6.327329 9.491,-14.394674 8.22553,-18.981987" style="fill:none;stroke:#000000;stroke-width:1.79999995;stroke-linecap:round;stroke-miterlimit:4;stroke-opacity:1;stroke-dasharray:none;display:inline" />
	<!-- 
	Generated using the Perl SVG Module V2.50
	by Ronan Oger
	Info: http://www.roitsystems.com/
 -->
</svg>