<?xml version="1.0" encoding="UTF-8" standalone="yes"?>
<!DOCTYPE svg PUBLIC "-//W3C//DTD SVG 1.0//EN" "http://www.w3.org/TR/2001/REC-SVG-20010904/DTD/svg10.dtd">
<svg height="285" style="background-color:white" width="285" xmlns="http://www.w3.org/2000/svg" xmlns:svg="http://www.w3.org/2000/svg" xmlns:xlink="http://www.w3.org/1999/xlink">
	<path d="m 186.90542,234.6664 c -4.92151,-7.71781 -20.469,-17.67268 -23.93642,-18.23194 -3.46743,-0.55926 -9.84302,-4.02669 -12.75118,-6.26374 M 68.844766,122.93907 c 0.118596,2.13471 -2.492001,6.4756 -5.841581,6.41023 m -11.015016,-5.16094 c 1.421368,3.7149 1.033115,5.28083 5.392129,7.79751 2.674831,1.54431 6.319663,8.75554 7.270409,10.40228 2.906547,5.03429 8.973517,15.01619 11.408948,17.22527 1.757467,1.59413 6.375588,8.72449 7.494113,9.73116 1.118524,1.00668 3.355573,4.80966 4.026687,5.48077 0.671115,0.67112 5.372709,7.16387 5.92818,7.94153 0.838893,1.17445 6.934855,8.27708 10.737835,9.84301 3.80298,1.56593 18.23194,8.16523 20.13344,9.84301 1.90149,1.67779 7.15855,6.43152 9.84301,8.89227 2.68446,2.46076 13.06309,13.11439 13.31044,14.03749 0.60048,2.24104 10.06672,10.84968 11.63265,12.30376 1.56594,1.45408 4.30633,4.36224 5.7604,5.92818 0.72704,0.78297 2.31572,3.32824 3.86507,5.35588 1.54935,2.02764 3.05936,3.53765 3.62905,4.48714 1.00667,1.67778 6.44043,6.86759 7.55004,8.16522 1.31379,1.53641 3.97076,3.97077 5.03336,5.59263 1.13028,1.72516 3.07594,4.9215 3.97076,6.26373 m -72.3126,-101.33831 c -3.04577,-2.60632 -7.60597,-11.07339 -9.73116,-16.10675 -2.1252,-5.03336 -5.12432,-12.553 -6.15189,-17.89639 -0.55926,-2.90816 -2.178112,-13.2985 -4.500554,-15.42966 M 41.725281,86.287857 c -2.800634,0.397779 -7.945846,1.740008 -9.06437,3.529647 -1.118525,1.789639 -2.460754,7.158555 -0.89482,11.408946 1.565934,4.25039 2.348901,3.80298 3.243721,5.03336 0.894819,1.23038 1.677786,4.25039 3.802982,5.70448 2.125197,1.45408 10.625982,11.07339 14.540817,13.08673 3.914835,2.01334 7.494113,4.25039 11.96821,4.6978 4.474097,0.44741 11.96821,-1.11852 13.981554,-1.23037 2.013344,-0.11186 11.856358,-1.23038 14.652669,-2.01335 2.796311,-0.78297 2.934853,-5.93871 1.4115,-10.46347 m -11.478219,-7.43292 c -0.529428,2.33716 -2.648561,3.42095 -3.579278,5.59262 M 46.651084,57.695703 c -4.818274,3.040168 -10.970158,7.178708 -11.193863,11.764658 -0.223704,4.58595 3.355573,12.751177 5.816327,16.218603 2.460753,3.467425 20.692705,24.943086 23.936421,27.180136 1.62186,1.11853 6.294214,4.33893 9.395604,4.89355 4.662787,0.83384 16.232772,-0.11134 20.357143,-1.53797 3.961904,-1.37043 2.461912,-9.56563 2.852816,-16.527319 M 47.089874,52.682496 c 0.554324,0.280655 0.99772,1.357586 2.679227,1.745226 m -5.58739,-14.608256 c -1.067981,2.826995 -0.641701,6.310758 -0.111852,8.165228 M 57.062026,29.771051 c -4.043973,-0.689419 -11.538086,1.323925 -13.439577,4.232088 -1.901491,2.908164 -2.460754,7.829671 -2.237049,10.961539 0.223705,3.131868 0.335558,6.822998 2.237049,9.395604 1.901491,2.572606 5.637829,5.702364 5.637829,5.702364 m 29.70754,-7.939412 c 2.46878,2.946776 5.327864,4.057388 8.287055,4.733543 m 7.036728,19.426582 c 0.978096,-0.426979 2.198728,-1.018408 3.020016,-1.565934 M 56.149922,64.538854 c 3.278598,0.669983 5.451496,-0.20419 7.494113,-1.565934 m 80.807585,0.399286 c -9.96382,0.109359 -14.48045,1.421687 -13.34961,-4.260114 m 12.72466,10.989769 c -10.12175,-5.858933 -15.24322,-6.720535 -15.14285,-9.874522 m 15.85179,-10.330335 c -1.32438,3.29994 -11.69754,8.069007 -14.17885,9.659339 -2.02957,1.300809 -6.67579,1.135666 -6.67579,1.135666 m 2.21595,-18.67883 c 0,0 0.47076,10.951883 -0.63327,14.997805 -1.36827,5.014276 -7.22493,11.426961 -7.22493,11.426961 m -7.96844,-44.649029 c 0,0 -11.160042,0.288492 -15.92124,2.81349 -1.504777,0.798026 -2.863758,2.11176 -3.558899,3.666744 -2.088466,4.671758 -0.409101,10.240688 -1.078454,15.314048 -0.517339,3.921168 -2.278063,8.849427 -2.264753,11.647304 0.01623,3.411759 0.664964,6.757212 0.806935,10.210771 0.14197,3.453559 -0.479056,7.032858 0.271519,10.387701 0.788508,3.524395 2.658028,6.71764 4.098125,10.029623 2.052383,4.72014 4.169142,9.416131 6.470725,14.019903 2.003402,4.00732 2.633502,9.10246 6.147192,12.07869 2.77388,2.34958 8.01151,0.79826 11.14504,-1.04455 4.16163,-2.44743 6.17624,-6.96744 7.04343,-11.71687 0.38838,-2.12709 0.38475,-7.013678 0.17343,-10.534377 -0.21131,-3.520699 -0.70251,-8.418675 -1.50586,-11.795746 -0.73706,-3.098429 -2.25633,-8.3264 -3.96557,-10.572246 -1.40521,-1.846369 -3.65405,-5.274904 -3.65405,-5.274904 m 58.86569,49.819153 c 0,0 -0.16282,-2.11257 -0.22643,-3.17002 -0.34029,-5.65729 -0.47528,-11.325869 -0.83024,-16.982255 -0.43301,-6.900182 -1.23262,-13.775846 -1.58501,-20.680615 -0.45281,-8.87243 1.16324,-17.952465 -0.67929,-26.643274 -0.49129,-2.317308 -1.7116,-4.421682 -2.71716,-6.566473 -0.68792,-1.467295 -1.17353,-3.10367 -2.2643,-4.302172 -1.98209,-2.177847 -4.70469,-3.636908 -7.39672,-4.830508 -3.99425,-1.770981 -7.70877,-2.904043 -12.07001,-3.168459 -4.66321,-0.282724 -9.8263,1.328075 -14.49779,1.276853 -3.5404,-0.03882 -7.03303,-0.443567 -10.49126,-1.202939 -5.69436,-1.250391 -11.2429,-3.094022 -16.8313,-4.755032 C 99.991927,20.754012 96.467111,19.573158 92.911814,18.491782 90.20053,17.66712 87.493115,16.826873 84.760331,16.076527 80.70613,14.963356 76.736959,13.039553 72.533106,12.981983 c -1.495281,-0.02048 -3.044149,0.304392 -4.377648,0.981197 -1.907876,0.968324 -3.469965,2.575465 -4.830509,4.226695 -1.369263,1.661813 -2.148994,3.73212 -3.245498,5.585275 -1.241412,2.098059 -2.262456,3.89435 -3.087511,6.188308 -2.143941,5.960947 -2.168609,11.417415 -2.648718,13.209204 -0.942227,3.516438 -3.445747,6.500086 -4.302172,10.0384 -0.676384,2.794476 -1.054636,5.76474 -0.603813,8.604344 0.493741,3.109935 2.004226,6.010469 3.547405,8.755297 1.797679,3.197504 4.163154,6.059538 6.566472,8.830773 2.878959,3.319691 6.232226,6.196346 9.359111,9.283634 2.911761,2.874888 6.016555,5.564176 8.755297,8.604344 1.162395,1.290328 1.929722,2.942236 3.245498,4.075746 0.990632,0.8534 2.109896,1.72909 3.396451,1.96239 1.204639,0.21844 2.521438,-0.0693 3.622881,-0.60381 2.387379,-1.15854 4.746554,-2.962861 5.887183,-5.35885 0.769025,-1.615404 0.301907,-5.358845 0.301907,-5.358845 M 258.03651,208.19062 c -5.59936,-5.95923 -12.54456,-9.94709 -17.79418,-15.19671 -1.20836,-1.20836 -2.79385,-1.57654 -4.05848,-2.84117 -0.78193,-0.78193 -1.85848,-1.73121 -2.64063,-2.51337 -1.12891,-1.1289 -3.44668,-2.22504 -4.69787,-3.47624 -0.86077,-0.86076 -1.33971,-2.89641 -2.64169,-3.5474 -0.0375,-0.0188 -3.62288,-1.4864 -3.62288,-1.50954 0,-0.67733 -3.49878,-3.37213 -4.00026,-3.62288 -0.90017,-0.45008 -2.5787,-1.22011 -3.32098,-1.96239 -0.86233,-0.86233 -1.87744,-2.5688 -3.21423,-3.15276 -7.59999,-3.31995 -8.70151,-6.91164 -9.69228,-7.94232 -2.79872,-2.91144 -6.23449,-5.40424 -8.90625,-8.076 -0.65437,-0.65437 -1.68234,-1.78379 -2.304,-2.35807 -1.01172,-0.93462 -6.79417,-6.6387 -7.20138,-7.45312 -0.56803,-1.13607 -3.21347,-4.26226 -4.15591,-6.56726 -3.2795,-8.02097 -6.90437,-20.64345 -6.64195,-25.13374" style="fill:none;stroke:#000000;stroke-width:1.79999995;stroke-linecap:round;stroke-miterlimit:4;stroke-opacity:1;stroke-dasharray:none;display:inline" />
	<!-- 
	Generated using the Perl SVG Module V2.50
	by Ronan Oger
	Info: http://www.roitsystems.com/
 -->
</svg>