<?xml version="1.0" encoding="UTF-8" standalone="no"?><!DOCTYPE svg PUBLIC "-//W3C//DTD SVG 1.1//EN" "http://www.w3.org/Graphics/SVG/1.1/DTD/svg11.dtd"><svg width="100%" height="100%" viewBox="0 0 285 285" version="1.1" xmlns="http://www.w3.org/2000/svg" xmlns:xlink="http://www.w3.org/1999/xlink" xml:space="preserve" xmlns:serif="http://www.serif.com/" style="fill-rule:evenodd;clip-rule:evenodd;stroke-linecap:round;"><path d="M71.067,62.5c-2.687,-4.458 -4.829,-8.377 -5.521,-10.265c-1.385,-3.778 -1.557,-7.945 -1.566,-11.968c-0.009,-3.871 0,-8.094 1.991,-11.413c2.091,-3.487 6.139,-6.838 10.17,-7.369c2.561,-0.338 4.213,1.732 6.518,2.899c3.007,1.523 8.437,5.574 8.437,5.574c-0.009,-0.185 -0.013,-0.371 -0.013,-0.556c-0,-1.34 2.659,-8.555 6.082,-11.424c3.613,-3.028 11.102,-5 13.065,-5.028c1.935,-0.027 16.205,8.904 16.205,8.904c0.71,-1.638 1.785,-3.195 2.978,-4.629c2.68,-3.22 2.728,-4.387 9.435,-4.579c7.194,-0.205 9.927,2.925 14.004,5.2c2.827,1.578 6.898,3.839 9.11,6.202c2.681,2.863 4.457,6.582 6.23,10.081c2.134,4.211 3.977,8.572 5.403,13.073c1.14,3.599 2.046,11.14 2.046,11.14c1.705,1.259 3.359,2.622 4.748,4.153c1.642,1.809 2.7,4.075 3.925,6.189c1.027,1.772 2.185,3.503 2.868,5.434c2,5.657 2.867,11.692 3.472,17.662c0.649,6.408 0.628,10.337 0.434,16.775c-0.167,5.546 -1.828,11.182 -1.662,16.146c0.162,4.851 -0.954,11.237 -1.168,19.752c-0.143,5.685 -0.771,11.393 0.585,16.916c0.67,2.732 3.606,4.391 3.844,7.194c0.156,1.831 6.29,8.97 9.591,13.185c1.719,2.196 3.626,4.088 5.354,6.279c2.156,2.734 4.55,5.486 6.269,8.514c0.401,0.707 0.437,1.601 0.906,2.265c1.275,1.805 3.868,3.497 5.406,5.085c2.312,2.388 3.947,4.311 5.915,6.991c1.636,2.227 2.788,4.798 4.529,6.944c1.154,1.423 4.827,4.89 6.264,6.238l-81.126,50.839c-2.849,-3.832 -13.764,-18.576 -13.764,-20.045c-0,-2.272 -4.646,-8.765 -6.394,-10.351c-4.225,-3.833 -6.932,-9.075 -10.047,-13.853c-1.155,-1.772 -1.857,-4.384 -3.197,-5.48c-1.589,-1.3 -4.901,-5.071 -6.698,-8.069c-1.978,-3.298 -4.138,-9.593 -6.228,-11.682c-1.094,-1.095 -4.758,-7.139 -5.147,-8.9c-5.837,-1.136 -11.089,-9.134 -16.963,-12.526c-2.743,-1.583 -8.592,-5.259 -12.192,-9.06c-3.044,-3.214 -4.844,-7.412 -7.159,-11.185c-2.848,-4.644 -6.011,-8.006 -8.125,-13.028c-4.076,-9.687 -6.804,-21.106 -8.429,-31.489c-0.773,-4.941 -1.203,-10.016 -0.671,-14.989c0.353,-3.299 3.8,-7.516 4.151,-14.267c0.266,-5.125 4.522,-13.479 5.916,-17.275c2.617,-7.132 10.219,-10.204 10.219,-10.204Zm57.046,12.039c0.085,-0.068 0.169,-0.137 0.252,-0.207c-0.086,0.057 -0.17,0.126 -0.252,0.207Z" style="fill:#fff;"/><path d="M155.579,274.648c-0,0 -13.549,-18.076 -13.549,-19.79c0,-2.272 -4.645,-8.765 -6.393,-10.351c-4.225,-3.833 -6.932,-9.075 -10.047,-13.853c-1.155,-1.772 -1.857,-4.384 -3.197,-5.48c-1.589,-1.3 -4.901,-5.071 -6.698,-8.069c-1.978,-3.298 -4.138,-9.593 -6.228,-11.682c-1.094,-1.095 -4.758,-7.139 -5.147,-8.9m-33.253,-134.023c-0,-0 -7.602,3.072 -10.219,10.204c-1.394,3.796 -5.65,12.15 -5.916,17.275c-0.351,6.751 -3.798,10.968 -4.151,14.267c-0.532,4.973 -0.102,10.048 0.671,14.989c1.625,10.383 4.353,21.802 8.429,31.489c2.114,5.022 5.277,8.384 8.125,13.028c2.315,3.773 4.115,7.971 7.159,11.185c3.6,3.801 9.449,7.477 12.192,9.06c6.148,3.55 11.615,12.147 17.784,12.64c3.014,0.24 12.064,-5.772 14.532,-7.606c3.64,-2.706 9.852,-9.843 9.852,-9.843m-52.119,-42.562c1.35,-1.495 7.858,-5.197 6.316,-9.029m-22.913,-6.567c3.635,-0.716 11.158,-3.229 16.609,-0.881m-18.04,-16.717c1.858,1.354 5.737,2.077 7.567,0.88m-6.097,-9.461c1.606,2.418 3.033,4.236 3.307,5.59c0.307,1.517 4.75,6.486 8.102,7.944c-0,0 2.563,7.386 4.527,10.787c1.247,2.16 7.24,9.618 9.79,10.577c4.232,1.591 10.037,1.286 13.677,-1.396c5.864,-4.321 1.553,-12.876 1.768,-17.667c0.266,-5.937 -2.543,-10.161 -5.155,-15.5c-1.82,-3.72 -1.996,-8.008 -1.996,-8.008m23.248,37.649c-0.426,4.994 1.865,11.56 1.863,14.124c-0.003,3.266 2.762,9.109 3.282,14.063m-17.001,-42.839c2.662,-7.38 5.725,-14.826 17.158,-23.668m-4.966,26.688c1.864,-9.173 2.171,-23.949 5.592,-27.516c1.44,-3.787 2.588,-10.2 4.321,-11.347m69.39,153.735c0,0 -9.872,-12.974 -10.738,-15.547c-0.798,-2.374 -8.365,-10.993 -10.178,-12.863c-2.16,-2.228 -4.394,-6.157 -5.034,-7.83c-0.869,-2.275 -5.707,-6.613 -6.711,-9.06m6.151,-94.044c-1.318,-1.69 -11.007,-7.354 -15.82,-9.951c-1.274,-0.687 -5.448,-1.925 -12.678,-2.1m-66.901,-38.764c3.309,-0.522 6.144,-2.033 8.917,-4.19m6.333,-3.76c0,0 -5.43,-4.051 -8.437,-5.574c-2.305,-1.167 -3.957,-3.237 -6.518,-2.899c-4.031,0.531 -8.079,3.882 -10.17,7.369c-1.991,3.319 -2,7.542 -1.991,11.413c0.009,4.023 0.181,8.19 1.566,11.968c1.89,5.158 14.604,25.473 19.686,30.536c1.912,1.905 4.154,3.952 6.823,4.362c2.824,0.434 6.046,-0.379 8.384,-2.022c3.273,-2.3 4.095,-4.488 4.814,-7.262c0.739,-2.847 -0.899,-8.78 -0.899,-8.78m22.081,-47.215c0,-0 -14.27,-8.931 -16.205,-8.904c-1.963,0.028 -9.452,2 -13.065,5.028c-3.423,2.869 -6.082,10.084 -6.082,11.424c-0,2.036 0.556,4.111 1.083,6.077c2.92,10.896 11.469,35.298 16.061,39.89c2.247,2.247 5.822,2.629 8.999,2.524c4.57,-0.151 9.458,-1.346 12.416,-4.833c1.473,-1.737 1.769,-6.6 1.769,-6.6m-27.488,-37.174c2.173,-1.186 4.872,-2.834 7.348,-2.834m26.873,-0c1.191,-0.592 3.674,-0.879 3.674,-2.415m33.823,34.305c0,0 -0.906,-7.541 -2.046,-11.14c-1.426,-4.501 -3.269,-8.862 -5.403,-13.073c-1.773,-3.499 -3.549,-7.218 -6.23,-10.081c-2.212,-2.363 -6.283,-4.624 -9.11,-6.202c-4.077,-2.275 -6.81,-5.405 -14.004,-5.2c-6.707,0.192 -6.755,1.359 -9.435,4.579c-1.993,2.396 -3.657,5.134 -3.837,8.019c-0.248,3.973 4.9,21.449 5.739,27.215c0.882,6.064 -1.303,12.763 1.23,18.344c1.134,2.496 3.451,4.349 6.026,5.291c2.917,1.067 6.217,0.655 8.969,-0.783c4.765,-2.489 8.327,-6.04 9.976,-11.156c1.363,-4.231 1.006,-12.777 -0.229,-18.094c2.35,-7.108 1.11,-18.762 -0.75,-18.762m80.309,196.716c-0,-0 -4.351,-3.924 -6.189,-6.189c-1.741,-2.146 -2.893,-4.717 -4.529,-6.944c-1.968,-2.68 -3.603,-4.603 -5.915,-6.991c-1.538,-1.588 -4.131,-3.28 -5.406,-5.085c-0.469,-0.664 -0.505,-1.558 -0.906,-2.265c-1.719,-3.028 -4.113,-5.78 -6.269,-8.514c-1.728,-2.191 -3.635,-4.083 -5.354,-6.279c-3.301,-4.215 -9.435,-11.354 -9.591,-13.185c-0.238,-2.803 -3.174,-4.462 -3.844,-7.194c-1.356,-5.523 -0.728,-11.231 -0.585,-16.916c0.214,-8.515 1.33,-14.901 1.168,-19.752c-0.166,-4.964 1.495,-10.6 1.662,-16.146c0.194,-6.438 0.215,-10.367 -0.434,-16.775c-0.605,-5.97 -1.472,-12.005 -3.472,-17.662c-0.683,-1.931 -1.841,-3.662 -2.868,-5.434c-1.225,-2.114 -2.283,-4.38 -3.925,-6.189c-2.915,-3.213 -7,-5.69 -10.265,-8.001c-3.586,-2.539 -6.944,-5.539 -12.837,-8.433" style="fill:none;fill-rule:nonzero;stroke:#000;stroke-width:1.8px;"/><path d="M237.729,221.197l-84.492,53.444" style="fill:none;"/></svg>