<?xml version="1.0" encoding="UTF-8" standalone="yes"?>
<!DOCTYPE svg PUBLIC "-//W3C//DTD SVG 1.0//EN" "http://www.w3.org/TR/2001/REC-SVG-20010904/DTD/svg10.dtd">
<svg height="285" style="background-color:white" width="285" xmlns="http://www.w3.org/2000/svg" xmlns:svg="http://www.w3.org/2000/svg" xmlns:xlink="http://www.w3.org/1999/xlink">
	<path d="m 117.45579,166.18459 c -2.19049,3.55011 -3.47458,6.79809 -9.89499,12.16102 M 147.59397,42.912664 c -0.60428,1.963891 -0.63814,3.055174 -0.35684,4.511191 m 39.75909,9.10532 c -1.7764,-3.846449 -3.58785,-7.016471 -4.56904,-9.658155 -0.9812,-2.641685 -7.24577,-16.982257 -9.7365,-17.13321 -2.49073,-0.150954 -6.26456,4.000265 -6.56647,6.792902 m 94.2704,206.957108 c -4.00027,-3.32098 -10.7177,-9.43459 -13.35938,-11.62341 -2.64168,-2.18883 -4.22669,-2.86812 -6.86838,-6.491 -2.64168,-3.62288 -5.43432,-7.54767 -12.98199,-13.73676 -7.54767,-6.18909 -13.81224,-10.71769 -16.00106,-12.37818 -2.18883,-1.66049 -4.75503,-6.11361 -7.69862,-13.88771 -2.9436,-7.7741 -6.26457,-20.90705 -7.01934,-26.26589 -0.75476,-5.35885 -3.62288,-21.81277 -3.77383,-33.13427 -0.15096,-11.32151 6.86838,-36.002386 6.64195,-39.398837 -0.22643,-3.396452 -0.30191,-4.905985 -2.18883,-9.510064 -2.04105,-4.980161 -5.30568,-12.316551 -6.91727,-14.838095 m -5.25875,56.839726 c 1.15643,-8.26355 2.66596,-17.92456 2.96787,-21.245539 0.3019,-3.320975 1.66048,-14.189619 2.11334,-18.869175 0.45286,-4.679555 0.69047,-15.432321 0,-17.963454 -0.68482,-2.510404 -6.47546,-8.957306 -11.17055,-11.774364 -4.16232,-2.497395 -9.51006,-8.906251 -11.92532,-11.472458 -2.41525,-2.566208 -7.01933,-7.170287 -10.3403,-8.22696 -3.32097,-1.056674 -15.92559,-4.755032 -20.00133,-7.019333 -4.07574,-2.264301 -9.0572,-5.207893 -12.68009,-5.207893 -3.5474,0 -5.71983,3.268312 -5.73622,7.019334 -0.0132,3.02281 0.22977,6.784816 3.7755,10.411741 m 11.7727,29.892815 c 0.45286,2.415254 1.35858,3.471928 1.35858,3.471928 0,0 -1.9624,8.302437 -1.50954,13.434852 0.45286,5.132415 2.84965,17.614676 2.25507,19.751456 M 113.06409,47.09745 c 0,1.509534 -0.60381,5.132415 0,7.396716 0.60382,2.264301 3.47193,5.736229 5.73623,7.245763 2.2643,1.509534 12.22723,6.943856 16.15202,7.849576 m 51.1732,51.777015 c -2.41526,-5.13242 -4.2267,-6.94386 -5.43433,-8.7553 -1.20762,-1.81144 -3.32097,-6.34004 -3.77383,-8.45339 -0.45286,-2.11334 -2.71716,-7.24576 -3.92479,-10.415781 -1.20763,-3.170021 -3.92479,-12.227225 -5.13242,-15.5482 -1.20762,-3.320974 -5.58527,-19.322034 -7.0948,-21.888242 -1.50954,-2.566208 -3.47193,-5.434322 -7.54767,-6.641949 -4.07575,-1.207627 -12.83104,-5.132416 -15.39725,-6.792903 -2.56621,-1.660487 -8.90625,-3.924788 -10.56674,-5.283369 -1.66049,-1.35858 -7.09481,-4.075741 -10.26483,-4.226695 -3.17002,-0.150953 -16.15201,2.264301 -19.774894,3.320975 -3.622881,1.056674 -11.321504,3.773835 -12.680085,4.679555 -1.358581,0.90572 -2.717161,4.377649 -1.509534,6.641949 1.207627,2.264301 9.218303,7.726175 14.64248,8.453391 5.782873,0.775306 12.400333,-0.52369 15.419403,-1.882271 m 74.82982,107.03407 c -0.69381,-3.62916 -2.56177,-15.85091 -3.0421,-18.30593 m 2.34829,97.29366 c -2.02807,4.26961 -4.03939,6.47247 -6.40441,7.68529 -3.36999,1.72819 -7.93615,2.36075 -9.71336,2.34829 m -46.32523,-81.01579 c -1.17414,1.81458 -2.98873,5.65723 -4.48309,8.64595 m -20.814332,32.12879 c -0.106741,1.70784 0.10674,2.24155 -0.426961,3.09547 -0.533701,0.85392 -0.853922,1.6011 -1.067402,2.34828 M 41.452447,170.54236 c 2.559905,-2.52852 5.054662,-2.43701 5.619968,-4.13069 0.854028,-2.5587 -3.869519,-7.91364 -8.325734,-10.8875 0,0 -2.421983,-1.76672 -6.76148,0.66438 m 28.778567,2.11278 c -2.269327,-0.85695 -3.250525,-1.08338 -7.47722,-3.87602 m 25.73047,16.36268 c -4.42889,-1.94936 -5.478911,-2.03681 -9.285405,-5.93053 m 31.709067,-61.30344 c -0.45286,4.5286 -0.006,6.64636 1.35858,8.45339 1.16503,1.54294 3.95403,6.14781 5.28337,7.39671 1.09031,1.02433 4.83051,4.83051 6.64195,6.1891 1.81144,1.35858 3.01907,3.77383 6.03814,8.45339 3.01906,4.67955 4.67955,8.30243 4.8305,13.13294 0.15096,4.83051 -1.50953,6.64195 -2.41525,8.00053 -0.90572,1.35858 -4.83051,6.7929 -7.84958,11.17055 -3.01906,4.37765 -10.19819,12.81189 -14.49152,14.79343 -1.962396,0.90572 -9.171728,-0.031 -10.717693,-1.81144 -1.439052,-1.65732 -4.445559,-4.4354 -6.340043,-5.88718 -4.501018,-3.44921 -11.202318,-4.59916 -10.566738,-4.07574 -5.75103,-8.42153 -10.586939,-10.78605 -16.001059,-12.22723 0,0 -8.822657,-7.23843 -17.510594,-6.7929 -5.887184,0.3019 -7.747513,5.29583 -8.00053,6.94386 -0.387619,2.52476 7.227722,10.89054 10.415784,13.88771 1.526994,4.00107 2.196182,8.49232 4.981462,11.77437 2.726419,6.91734 8.275418,9.82819 14.114142,11.84984 0,0 7.32124,7.17028 9.887448,8.98172 4.409374,3.1125 6.174249,6.52781 9.661017,8.45339 3.426144,1.8921 6.943852,4.67956 9.057204,7.69863 2.627501,3.75356 5.434322,4.67955 10.41578,6.03813 4.98147,1.35858 11.0196,1.81144 17.96346,4.67956 6.94385,2.86811 14.18962,7.09481 23.69968,10.11388 9.51006,3.01906 22.79396,10.11387 26.71875,12.98199 3.92479,2.86811 9.51007,8.60434 11.92532,11.77436 2.41525,3.17002 6.94386,8.60435 7.84958,9.51007 M 80.005299,101.59163 c 1.207627,1.05667 0.754767,3.01906 1.962394,4.07574 1.207627,1.05667 2.264301,4.98146 6.792903,5.73623 4.528602,0.75476 8.952135,-0.96073 12.876924,-1.71549 m 46.74967,1.71549 c -1.81144,-2.11335 -2.2643,-2.56621 -5.28337,-4.52861 -3.01907,-1.96239 -8.90625,-7.094805 -11.62341,-9.057199 -2.71716,-1.962394 -9.51007,-8.302437 -12.22723,-9.510064 -2.71716,-1.207627 -8.00053,-2.113348 -9.96292,-1.962394 -1.9624,0.150953 -19.47299,2.264301 -22.341105,2.566207 -2.868114,0.301907 -9.208157,0.754767 -11.321504,2.113348 -2.113348,1.35858 -8.906251,6.641949 -12.227225,8.604343 -3.320975,1.962399 -11.925318,7.698619 -12.227225,10.415789 -0.301907,2.71716 1.509534,6.7929 7.094809,8.45339 5.585276,1.66048 13.283899,0.15095 17.057734,-1.50954 3.773835,-1.66049 9.886376,-5.31971 11.094004,-6.37639 m 82.648052,23.58508 c 0.15096,-4.5286 -0.60381,-7.39672 -1.50953,-9.0572 -0.90572,-1.66049 -1.9624,-1.9624 -3.01907,-3.01907" style="fill:none;stroke:#000000;stroke-width:1.79999995;stroke-linecap:round;stroke-miterlimit:4;stroke-opacity:1;stroke-dasharray:none;display:inline" />
	<!-- 
	Generated using the Perl SVG Module V2.50
	by Ronan Oger
	Info: http://www.roitsystems.com/
 -->
</svg>