<?xml version="1.0" encoding="UTF-8" standalone="yes"?>
<!DOCTYPE svg PUBLIC "-//W3C//DTD SVG 1.0//EN" "http://www.w3.org/TR/2001/REC-SVG-20010904/DTD/svg10.dtd">
<svg height="285" style="background-color:white" width="285" xmlns="http://www.w3.org/2000/svg" xmlns:svg="http://www.w3.org/2000/svg" xmlns:xlink="http://www.w3.org/1999/xlink">
	<path d="m 155.57896,274.64837 c 0,0 -13.54846,-18.07631 -13.54846,-19.78989 0,-2.27274 -4.64532,-8.76541 -6.39365,-10.35163 -4.22464,-3.83292 -6.93169,-9.07459 -10.04718,-13.85293 -1.15506,-1.77155 -1.85713,-4.38417 -3.19683,-5.48027 -1.58878,-1.29988 -4.90053,-5.07044 -6.69811,-8.06819 -1.97789,-3.29846 -4.13759,-9.59298 -6.22751,-11.6829 -1.09463,-1.09463 -4.76709,-7.13608 -5.15604,-8.89669 M 71.066651,62.499655 c 0,0 -7.601315,3.072004 -10.218927,10.204427 -1.393257,3.796322 -5.649301,12.149568 -5.915641,17.274439 -0.35086,6.751208 -3.798204,10.968959 -4.151078,14.267949 -0.531903,4.97271 -0.101882,10.04724 0.671114,14.98822 1.624471,10.3836 4.352734,21.8024 8.42931,31.48948 2.113198,5.02155 5.276412,8.38366 8.12485,13.02779 2.314386,3.77341 4.114504,7.97142 7.158556,11.18525 3.600456,3.80127 9.448919,7.47638 12.191916,9.06005 6.148494,3.54983 11.614954,12.14719 17.784539,12.63932 3.01327,0.24036 12.06367,-5.7719 14.53153,-7.60597 3.64053,-2.70558 9.8523,-9.84301 9.8523,-9.84301 M 77.406248,136.6261 c 1.349495,-1.49499 7.858176,-5.19667 6.315397,-9.02947 m -22.91267,-6.56624 c 3.634686,-0.71682 11.157808,-3.22978 16.608848,-0.8809 M 59.378175,103.43156 c 1.858028,1.35478 5.736754,2.07699 7.566824,0.88005 m -6.097275,-9.460747 c 1.605935,2.418247 3.033108,4.236321 3.30739,5.590297 0.307197,1.51646 4.749655,6.48589 8.101558,7.94385 0,0 2.563669,7.38583 4.527468,10.78723 1.246969,2.15981 7.239765,9.6177 9.789643,10.57658 4.231901,1.5914 10.037533,1.28659 13.677227,-1.3956 5.86446,-4.32169 1.55278,-12.87662 1.76749,-17.66757 0.26607,-5.93709 -2.54258,-10.1608 -5.154293,-15.499229 -1.820349,-3.720856 -1.995967,-8.008562 -1.995967,-8.008562 m 23.24793,37.649451 c -0.4259,4.99417 1.86522,11.55949 1.86313,14.12357 -0.003,3.26583 2.76202,9.10929 3.28208,14.06325 m -17.00157,-42.83948 c 2.66251,-7.37964 5.72488,-14.825932 17.15848,-23.667425 m -4.96656,26.687435 c 1.86411,-9.17224 2.17141,-23.949015 5.59262,-27.515696 1.43961,-3.786579 2.58734,-10.200091 4.32028,-11.34675 M 197.7551,228.06711 c 0,0 -9.87249,-12.97402 -10.73783,-15.54749 -0.7983,-2.37409 -8.36481,-10.99223 -10.17857,-12.86303 -2.15968,-2.22761 -4.39412,-6.15637 -5.03336,-7.82967 -0.86925,-2.27537 -5.70753,-6.61293 -6.71115,-9.06004 m 6.15114,-94.043678 c -1.31854,-1.690335 -11.00773,-7.354293 -15.81991,-9.950739 -1.27426,-0.687536 -5.44877,-1.924969 -12.67818,-2.100702 M 75.846426,37.908245 c 3.308683,-0.522073 6.143649,-2.033623 8.916789,-4.189817 m 6.332975,-3.760085 c 0,0 -5.430064,-4.051571 -8.437242,-5.574513 -2.304691,-1.167178 -3.957182,-3.237138 -6.51839,-2.89932 -4.030601,0.531628 -8.078873,3.88235 -10.169728,7.368996 -1.990683,3.319603 -2.000048,7.542646 -1.991238,11.41337 0.0092,4.023396 0.181151,8.190621 1.565934,11.96821 1.890836,5.158065 14.604456,25.473337 19.686028,30.535714 1.912397,1.905173 4.15487,3.95233 6.822999,4.362245 2.824874,0.433997 6.046122,-0.378951 8.384507,-2.022186 3.27325,-2.300185 4.09464,-4.488302 4.81408,-7.261566 0.73875,-2.847681 -0.89877,-8.779948 -0.89877,-8.779948 m 22.08073,-47.21574 c 0,0 -14.26983,-8.93041 -16.20463,-8.90311 -1.96326,0.0277 -9.45248,1.999129 -13.065823,5.027484 -3.422816,2.868673 -6.081812,10.084434 -6.081812,11.424214 0,2.036102 0.556393,4.110491 1.083375,6.077214 2.919589,10.896053 11.46851,35.297365 16.06085,39.889703 2.2472,2.247203 5.82234,2.628701 8.99863,2.523949 4.5701,-0.150719 9.45835,-1.345981 12.41585,-4.833353 1.47318,-1.737116 1.76938,-6.599977 1.76938,-6.599977 M 103.92318,29.286005 c 2.17248,-1.186162 4.8718,-2.834268 7.3481,-2.834268 m 26.87306,0 c 1.19064,-0.592171 3.67405,-0.878856 3.67405,-2.414377 m 33.82285,34.305015 c 0,0 -0.90614,-7.541229 -2.04626,-11.140648 -1.42561,-4.500734 -3.26933,-8.861672 -5.40332,-13.072976 -1.77275,-3.498416 -3.54892,-7.217459 -6.22934,-10.080478 -2.21236,-2.363068 -6.28313,-4.624634 -9.10998,-6.20182 -4.07772,-2.275085 -6.81027,-5.405902 -14.00397,-5.200249 -6.70774,0.191761 -6.75515,1.359145 -9.4351,4.57907 -1.99365,2.395346 -3.65772,5.134142 -3.83738,8.018977 -0.24744,3.973048 4.89972,21.448833 5.73887,27.21454 0.88263,6.064445 -1.30309,12.763645 1.23037,18.343799 1.13348,2.496584 3.45126,4.349668 6.02628,5.291462 2.91662,1.06673 6.21626,0.655058 8.96883,-0.782967 4.76427,-2.488999 8.32706,-6.039694 9.97551,-11.155946 1.36337,-4.23148 1.00633,-12.776998 -0.22838,-18.094406 2.34952,-7.107293 1.1097,-18.76186 -0.75078,-18.76186 m 80.30929,196.715957 c 0,0 -4.35081,-3.9235 -6.18909,-6.18909 -1.74112,-2.14584 -2.89297,-4.71656 -4.5286,-6.94386 -1.96771,-2.67951 -3.60293,-4.60325 -5.91567,-6.99132 -1.53785,-1.58794 -4.13015,-3.27964 -5.40584,-5.08495 -0.46912,-0.66388 -0.50439,-1.55737 -0.90572,-2.2643 -1.71912,-3.02817 -4.11329,-5.78026 -6.26931,-8.51463 -1.72735,-2.19072 -3.63419,-4.08223 -5.3541,-6.2788 -3.30062,-4.21537 -9.43443,-11.35414 -9.59029,-13.18469 -0.23864,-2.80271 -3.1741,-4.46224 -3.84456,-7.19402 -1.35548,-5.5229 -0.72806,-11.23127 -0.58483,-16.91627 0.21453,-8.51481 1.32979,-14.90114 1.16769,-19.75151 -0.16591,-4.96423 1.49531,-10.60068 1.66245,-16.14597 0.19405,-6.43795 0.21529,-10.367687 -0.43387,-16.775765 -0.60471,-5.969305 -1.47182,-12.004883 -3.47193,-17.661547 -0.6828,-1.93109 -1.84083,-3.662319 -2.86812,-5.434323 -1.22522,-2.113405 -2.2831,-4.380075 -3.92478,-6.189089 -2.91535,-3.21251 -7.00028,-5.689514 -10.26483,-8.00053 -3.58653,-2.538952 -6.94408,-5.539119 -12.83711,-8.433433" style="fill:none;stroke:#000000;stroke-width:1.79999995;stroke-linecap:round;stroke-miterlimit:4;stroke-opacity:1;stroke-dasharray:none;display:inline" />
	<!-- 
	Generated using the Perl SVG Module V2.50
	by Ronan Oger
	Info: http://www.roitsystems.com/
 -->
</svg>