<?xml version="1.0" encoding="UTF-8" standalone="yes"?>
<!DOCTYPE svg PUBLIC "-//W3C//DTD SVG 1.0//EN" "http://www.w3.org/TR/2001/REC-SVG-20010904/DTD/svg10.dtd">
<svg height="285" style="background-color:white" width="285" xmlns="http://www.w3.org/2000/svg" xmlns:svg="http://www.w3.org/2000/svg" xmlns:xlink="http://www.w3.org/1999/xlink">
	<path d="m 266.20746,214.58801 c -2.61324,-2.61324 -8.76202,-7.0711 -10.45293,-9.06946 -1.69092,-1.99835 -9.22317,-9.22317 -11.06781,-12.14385 -1.84464,-2.92067 -10.76037,-11.06781 -13.21989,-13.68103 -2.45951,-2.61324 -10.41003,-9.16822 -12.91244,-10.9141 -2.53532,-1.76882 -5.60919,-6.38094 -8.60831,-15.37195 -2.74639,-8.2334 -4.91902,-13.68105 -6.76365,-18.7538 -1.84463,-5.07275 -4.30415,-13.68104 -7.99342,-19.36867 -3.68927,-5.68762 -7.05538,-25.827102 -10.60665,-34.5869 -2.3058,-5.687621 -4.61158,-13.988482 -7.68598,-17.216594 -3.07439,-3.228111 -10.29921,-5.226465 -11.99013,-5.226465 -1.69091,0 -8.97991,0.981186 -8.97991,0.981186 m -40.40061,54.126033 c 2.34233,-0.38304 4.17521,-0.11869 5.71828,0.44087 m -2.14314,-11.74084 c -1.54025,1.69375 -2.60215,2.10399 -7.18275,2.90943 M 99.575431,93.149536 c 0.768599,1.383476 2.613229,3.996709 4.150429,5.53391 1.5372,1.537194 2.76695,3.381834 3.53555,3.842984 0.7686,0.46116 5.22646,2.45952 6.91738,3.99671 1.45591,1.32356 1.84463,6.45623 1.22976,7.0711 -0.61488,0.61488 -7.22482,5.68763 -9.06946,9.22317 m 6.60994,-44.732393 c -0.30744,2.305794 -0.7686,7.839699 -0.30744,9.223176 0.46116,1.383476 2.61324,7.224819 3.0744,8.762016 0.46116,1.537195 2.15207,4.765301 3.53554,6.148781 1.38348,1.38348 3.53556,4.76531 3.53556,4.76531 l 0,2.92067 -2.92067,7.37854 c 0,0 -4.76531,5.5339 -6.76367,8.76202 -1.99835,3.22811 -5.38018,7.83969 -6.14878,9.37689 -0.7686,1.5372 -1.4304,4.06973 -1.0995,7.79935 m 5.73392,-74.342236 c -7.6661,1.753246 -8.01625,1.519504 -9.09229,1.980663 -1.07603,0.461159 -14.443155,3.693134 -16.909152,4.765307 -3.53555,1.537195 -8.473341,6.113426 -8.762016,10.299211 -0.307439,4.457869 2.822006,12.10889 3.996709,15.371955 1.383476,3.84299 4.611588,14.14221 5.687625,16.29428 1.076037,2.15208 4.611587,8.30086 5.226465,10.1455 0.614879,1.84462 3.535551,7.99341 5.380186,9.68433 1.844639,1.69091 4.850773,2.77885 8.693763,2.62514 m 9.29143,-78.562618 c -0.46116,2.920673 -0.15372,5.995064 0.15372,7.37854 m -5.38018,105.912788 c -0.15373,2.92067 -1.22976,4.91904 -1.69092,5.68763 -0.46116,0.7686 -2.15208,3.22811 -2.45951,4.45787 M 33.894838,143.54106 c 0.131358,3.21412 1.524949,8.56843 2.258418,10.25542 0.733469,1.68697 4.547506,5.7944 7.628076,9.31505 3.080569,3.52065 6.82126,5.13428 8.434891,6.08779 1.613631,0.95351 9.828482,5.86775 12.615664,7.55472 2.787181,1.68699 10.34191,6.96796 13.349132,8.65494 3.007222,1.68698 7.481382,4.76755 11.368767,6.23448 3.887385,1.46695 10.635304,4.62086 13.495834,5.79441 2.86052,1.17355 15.18279,6.9539 17.3832,7.76071 2.20041,0.80682 12.02889,6.01445 14.66938,6.60122 2.64048,0.58678 21.53348,3.67029 23.54435,5.07499 1.39966,0.97774 10.63529,10.12187 11.36876,10.85534 0.73348,0.73347 9.02167,8.80162 9.75514,10.48861 0.73347,1.68697 4.6942,4.6942 5.72105,5.94109 1.02687,1.2469 7.77477,8.87498 8.87498,10.26857 1.1002,1.39358 11.14872,11.36877 13.34913,13.34913 M 55.970853,148.52522 c -0.985418,0.46678 -2.016117,1.36927 -2.074563,2.0227 -0.06813,0.76169 -1.833556,4.28641 -2.178291,4.66777 -0.374585,0.41437 -0.518642,2.7488 -0.518642,2.7488 M 38.12961,124.46029 c -3.3193,-2.69693 -6.431145,-6.53487 -10.683999,-6.22369 -4.252855,0.31118 -6.016233,3.11064 -6.016233,7.57215 0,7.07748 9.850475,17.84125 11.306368,17.84125 4.869936,0 3.581955,-4.8267 5.497592,-6.74233 5.21554,-5.21554 1.751108,-10.93543 -0.103728,-12.44738 z m 87.02792,-1.86711 c -4.04539,4.56405 -4.35658,5.91251 -5.80878,7.98707 -1.45219,2.07456 -4.04539,5.39386 -4.66776,6.53487 -0.62238,1.14101 -4.25285,3.73422 -6.43114,4.87523 -2.1783,1.14101 -8.401989,4.46031 -11.825017,4.35658 -3.423028,-0.10372 -6.223689,0.10373 -11.20264,-2.69693 -4.978952,-2.80066 -3.215573,-1.97084 -5.601321,-3.73421 -2.385747,-1.76339 -9.128077,-6.11996 -10.995184,-8.0908 -1.867107,-1.97084 -2.385748,-3.11184 -5.082679,-5.08269 -2.696933,-1.97083 -7.364699,-6.32741 -9.02435,-6.84605 -1.659651,-0.51864 -12.447378,-5.08268 -16.700233,-5.29014 -4.252854,-0.20746 -8.956772,0.14714 -10.823878,3.6739 M 102.79795,50.34383 c 0.16176,2.232849 1.4065,5.448421 2.02886,6.589431 0.62237,1.14101 6.55802,12.787862 8.5642,14.100854 M 83.679017,50.154077 c 1.750632,0.970407 5.79603,1.903961 8.389234,1.592776 2.593203,-0.311184 9.542989,-0.311184 10.787729,-1.452194 1.24474,-1.14101 3.73421,-6.74233 4.56403,-10.061632 m 67.72559,72.049113 c -0.14669,-5.13428 1.28098,-20.716122 0.42228,-24.912771 -1.11317,-5.440373 -3.68592,-14.070782 -5.84996,-16.234829 -0.95632,-0.956324 -10.41525,-10.635298 -13.9359,-11.955542 -3.52065,-1.320244 -10.85533,-9.828485 -11.44211,-11.442113 -2.03445,-5.594668 -6.89461,-10.415258 -6.89461,-10.415258 -0.97603,-1.94321 -3.43358,-4.2568 -5.42767,-6.454525 -1.17443,-2.441377 -2.6698,-3.598985 -4.10742,-4.987588 0.009,-1.351236 -3.61697,-6.204116 -6.23971,-6.747913 -2.50853,-0.52012 -7.39794,-0.965607 -14.29742,0.586775 -5.86775,1.320243 -6.60122,1.320244 -8.801626,1.320244 -3.548874,0 -11.162207,1.295076 -13.069226,1.295076 -1.907019,0 -6.147659,1.198718 -8.494759,2.225574 -2.347101,1.026856 -5.86775,1.907019 -8.361545,4.254119 -2.493794,2.3471 -2.787181,4.25412 -4.107425,5.42767 -1.320243,1.17355 -2.640488,2.3471 -3.667344,3.520649 -1.026857,1.17355 -2.787181,1.613633 -4.400813,3.227264 -1.613631,1.613631 -3.090822,4.398049 -4.254119,4.840894 -0.729553,0.277726 -8.089329,6.979297 -8.508238,9.681788 -0.340039,2.193682 2.640487,5.574363 2.640487,5.574363 4.558903,5.300947 9.995065,3.990445 14.669377,1.320243 2.933876,-0.123927 5.441791,-1.337018 8.801625,-3.373956 5.019486,-0.688473 6.454527,-2.053712 7.628076,-3.227262 1.17355,-1.17355 5.134282,-3.373957 5.867751,-4.840894 0.733469,-1.466938 1.320244,-2.493795 -1.90702,-11.882195 m 94.910869,92.563767 c -0.58678,-1.76032 -1.02686,-5.13428 -1.02686,-6.45453" style="fill:none;stroke:#000000;stroke-width:1.79999995;stroke-linecap:round;stroke-miterlimit:4;stroke-opacity:1;stroke-dasharray:none;display:inline" />
	<!-- 
	Generated using the Perl SVG Module V2.50
	by Ronan Oger
	Info: http://www.roitsystems.com/
 -->
</svg>