<?xml version="1.0" encoding="UTF-8" standalone="no"?><!DOCTYPE svg PUBLIC "-//W3C//DTD SVG 1.1//EN" "http://www.w3.org/Graphics/SVG/1.1/DTD/svg11.dtd"><svg width="100%" height="100%" viewBox="0 0 285 285" version="1.1" xmlns="http://www.w3.org/2000/svg" xmlns:xlink="http://www.w3.org/1999/xlink" xml:space="preserve" xmlns:serif="http://www.serif.com/" style="fill-rule:evenodd;clip-rule:evenodd;stroke-linecap:round;"><path d="M207.404,267.669c0,0 38.511,-41.357 57.683,-51.786c0.422,-2.574 -0.663,-2.119 -2.682,-3.688c-16.008,-12.443 -19.733,-22.38 -19.733,-22.38l-17.231,-15.696c0,0 -9.47,-6.363 -10.936,-9.354c-4.295,-8.762 -11.915,-36.504 -16.264,-43.256c-2.839,-4.406 -6.585,-17.565 -7.173,-19.128c-3.802,-10.11 -4.824,-17.325 -5.887,-20.666c-2.708,-8.515 -3.499,-8.082 -6.948,-16.272c-3.1,-7.362 -13.797,-6.402 -19.158,-6.234c-5.03,0.158 -12.516,-5.876 -13.595,-10.125c-1.305,-5.144 -9.542,-14.374 -10.848,-15.76c-7.717,-8.183 -8.425,-14.972 -14.948,-14.608c-12.682,0.708 -27.73,2.314 -37.199,4.821c-19.702,5.216 -9.713,4.015 -24.402,16.517c-3.682,3.133 -21.324,18.265 -11.696,21.326c2.558,0.813 0.201,6.164 15.461,1.089c6.21,-2.065 13.196,-4.026 22.278,-12.357c0.877,-0.804 -1.189,2.931 12.444,1.14c0.393,-0.051 5.811,-0.604 6.215,-0.628c2.223,10.285 9.003,18.318 9.003,18.318c-0,0 -24.161,4.001 -29.537,8.862c-3.695,3.341 -5.179,4.842 -5.434,8.6c-0.269,3.967 1.283,7.425 4.106,15.427c5.834,16.531 9.922,23.808 10.833,25.845c6.655,14.897 6.948,10.062 13.959,12.726c0.346,1.422 0.175,3.025 0.175,3.025c-0,0 -8.065,3.515 -13.298,2.823c-6.043,-0.799 -12.774,-6.775 -19.052,-9.963c-6.091,-3.094 -7.281,-7.726 -12.51,-11.524c-8.385,-6.09 -20.422,-10.319 -24.052,-10.187c-11.104,0.405 -8.981,3.65 -9.635,3.708c-12.993,1.144 -1.552,24.733 6.71,25.231c-0.297,17.528 24.739,29.044 33.072,35.211c13.803,10.214 55.93,28.268 60.275,30.17c14.062,6.153 25.803,3.482 34.08,10.319c6.431,5.312 45.924,48.454 45.924,48.454Z" style="fill:#fff;"/><path d="M266.207,214.588c-2.613,-2.613 -8.762,-7.071 -10.452,-9.069c-1.691,-1.999 -9.224,-9.224 -11.068,-12.144c-1.845,-2.921 -10.761,-11.068 -13.22,-13.681c-2.46,-2.614 -10.41,-9.169 -12.913,-10.914c-2.535,-1.769 -5.609,-6.381 -8.608,-15.372c-2.746,-8.234 -4.919,-13.681 -6.764,-18.754c-1.844,-5.073 -4.304,-13.681 -7.993,-19.369c-3.689,-5.687 -7.055,-25.827 -10.607,-34.587c-2.305,-5.687 -4.611,-13.988 -7.686,-17.216c-3.074,-3.228 -10.299,-5.227 -11.99,-5.227c-1.691,0 -8.98,0.981 -8.98,0.981m-40.4,54.126c2.342,-0.383 4.175,-0.118 5.718,0.441m-2.143,-11.741c-1.54,1.694 -2.602,2.104 -7.183,2.91m-12.343,-11.822c0.769,1.383 2.614,3.996 4.151,5.533c1.537,1.538 2.767,3.382 3.535,3.843c0.769,0.462 5.227,2.46 6.918,3.997c1.456,1.324 1.844,6.456 1.23,7.071c-0.615,0.615 -7.225,5.688 -9.07,9.223m6.61,-44.732c-0.307,2.306 -0.769,7.84 -0.307,9.223c0.461,1.384 2.613,7.225 3.074,8.762c0.461,1.537 2.152,4.766 3.536,6.149c1.383,1.383 3.535,4.765 3.535,4.765l0,2.921l-2.921,7.379c0,-0 -4.765,5.533 -6.763,8.762c-1.999,3.228 -5.38,7.839 -6.149,9.376c-0.769,1.538 -1.43,4.07 -1.1,7.8m5.734,-74.342c-7.666,1.753 -8.016,1.519 -9.092,1.98c-1.076,0.461 -14.443,3.693 -16.909,4.766c-3.536,1.537 -8.473,6.113 -8.762,10.299c-0.308,4.458 2.822,12.109 3.997,15.372c1.383,3.843 4.611,14.142 5.687,16.294c1.076,2.152 4.612,8.301 5.227,10.145c0.615,1.845 3.535,7.994 5.38,9.685c1.845,1.691 4.851,2.779 8.694,2.625m9.291,-78.563c-0.461,2.921 -0.154,5.995 0.154,7.379m-5.38,105.913c-0.154,2.92 -1.23,4.919 -1.691,5.687c-0.461,0.769 -2.152,3.228 -2.46,4.458m-71.829,-41.379c0.131,3.214 1.525,8.568 2.258,10.255c0.734,1.687 4.548,5.795 7.628,9.316c3.081,3.52 6.822,5.134 8.435,6.087c1.614,0.954 9.829,5.868 12.616,7.555c2.787,1.687 10.342,6.968 13.349,8.655c3.007,1.687 7.481,4.768 11.369,6.234c3.887,1.467 10.635,4.621 13.496,5.795c2.86,1.173 15.182,6.954 17.383,7.761c2.2,0.806 12.029,6.014 14.669,6.601c2.641,0.587 21.534,3.67 23.545,5.075c1.399,0.978 10.635,10.122 11.368,10.855c0.734,0.734 9.022,8.802 9.755,10.489c0.734,1.687 4.695,4.694 5.722,5.941c1.026,1.247 7.774,8.875 8.874,10.268c1.101,1.394 11.149,11.369 13.35,13.35m-151.741,-119.253c-0.986,0.467 -2.016,1.369 -2.075,2.023c-0.068,0.762 -1.833,4.286 -2.178,4.668c-0.375,0.414 -0.519,2.748 -0.519,2.748m-13.069,-33.504c-3.32,-2.697 -6.432,-6.535 -10.684,-6.223c-4.253,0.311 -6.017,3.11 -6.017,7.572c0,7.077 9.851,17.841 11.307,17.841c4.87,-0 3.582,-4.827 5.497,-6.742c5.216,-5.216 1.751,-10.936 -0.103,-12.448Zm87.028,-1.867c-4.046,4.564 -4.357,5.913 -5.809,7.987c-1.452,2.075 -4.046,5.394 -4.668,6.535c-0.622,1.141 -4.253,3.734 -6.431,4.875c-2.178,1.141 -8.402,4.461 -11.825,4.357c-3.423,-0.104 -6.224,0.104 -11.203,-2.697c-4.979,-2.801 -3.215,-1.971 -5.601,-3.734c-2.386,-1.764 -9.128,-6.12 -10.995,-8.091c-1.867,-1.971 -2.386,-3.112 -5.083,-5.083c-2.697,-1.971 -7.365,-6.327 -9.024,-6.846c-1.66,-0.518 -12.448,-5.082 -16.701,-5.29c-4.252,-0.207 -8.956,0.147 -10.823,3.674m75.803,-67.936c0.162,2.233 1.406,5.448 2.029,6.589c0.622,1.141 6.558,12.788 8.564,14.101m-29.712,-20.88c1.751,0.97 5.796,1.904 8.389,1.593c2.593,-0.311 9.543,-0.311 10.788,-1.452c1.245,-1.141 3.734,-6.743 4.564,-10.062m67.726,72.049c-0.147,-5.134 1.281,-20.716 0.422,-24.913c-1.113,-5.44 -3.686,-14.07 -5.85,-16.234c-0.956,-0.957 -10.415,-10.636 -13.936,-11.956c-3.521,-1.32 -10.855,-9.828 -11.442,-11.442c-2.035,-5.595 -6.895,-10.415 -6.895,-10.415c-0.976,-1.944 -3.433,-4.257 -5.427,-6.455c-1.175,-2.441 -2.67,-3.599 -4.108,-4.987c0.009,-1.352 -3.617,-6.205 -6.239,-6.748c-2.509,-0.521 -7.398,-0.966 -14.298,0.586c-5.868,1.321 -6.601,1.321 -8.802,1.321c-3.548,-0 -11.162,1.295 -13.069,1.295c-1.907,-0 -6.147,1.198 -8.495,2.225c-2.347,1.027 -5.867,1.907 -8.361,4.254c-2.494,2.347 -2.787,4.255 -4.108,5.428c-1.32,1.174 -2.64,2.347 -3.667,3.521c-1.027,1.173 -2.787,1.613 -4.401,3.227c-1.613,1.614 -3.09,4.398 -4.254,4.841c-0.729,0.278 -8.089,6.979 -8.508,9.682c-0.34,2.193 2.64,5.574 2.64,5.574c4.559,5.301 9.996,3.99 14.67,1.32c2.934,-0.124 5.442,-1.337 8.801,-3.374c5.02,-0.688 6.455,-2.053 7.629,-3.227c1.173,-1.174 5.134,-3.374 5.867,-4.841c0.734,-1.467 1.321,-2.494 -1.907,-11.882m94.911,92.564c-0.587,-1.761 -1.027,-5.135 -1.027,-6.455" style="fill:none;fill-rule:nonzero;stroke:#000;stroke-width:1.8px;"/></svg>