<?xml version="1.0" encoding="UTF-8" standalone="no"?><!DOCTYPE svg PUBLIC "-//W3C//DTD SVG 1.1//EN" "http://www.w3.org/Graphics/SVG/1.1/DTD/svg11.dtd"><svg width="100%" height="100%" viewBox="0 0 285 285" version="1.1" xmlns="http://www.w3.org/2000/svg" xmlns:xlink="http://www.w3.org/1999/xlink" xml:space="preserve" xmlns:serif="http://www.serif.com/" style="fill-rule:evenodd;clip-rule:evenodd;stroke-linecap:round;"><path d="M189.034,273.474c2.316,-1.364 5.283,-11.645 33.966,-32.565c7.024,-5.124 31.941,-29.7 34.641,-32.364l-7.516,-7.55c0,0 -16.225,-14.702 -35.797,-27.985c-9.945,-6.749 -19.222,-16.967 -25.37,-22.621c-6.598,-6.069 -11.549,-16.39 -13.454,-25.127c-4.103,-18.823 -4.257,-47.43 -4.886,-59.404c-0.877,-16.702 0.601,-28.681 -11.817,-35.702c-10.85,-6.133 -20.283,-2.28 -27.097,-2.397c-15.997,-0.273 -41.459,-10.176 -50.009,-12.552c-4.655,-1.294 -11.456,-3.429 -16.081,0.559c-3.544,3.057 -8.563,13.106 -8.563,13.106c-7.267,1.809 -12.445,2.046 -14.492,7.614c-1.649,4.487 -3.307,14.284 4.089,21.229c0,0 -9.088,3.848 -10.947,11.204c-1.203,4.758 1.413,10.477 5.593,16.752c-8.613,2.491 -9.535,5.074 -10.02,9.001c-0.803,6.491 3.427,16.205 20.596,29.324c3.888,13.353 1.192,-1.234 15.053,22.275c8.105,13.746 20.097,28.91 33.02,43.279c2.811,3.125 11.954,5.866 23.348,12.499c12.48,7.266 21.523,22.158 34.209,34.158c8.625,8.159 19.924,22.607 27.596,31.824l3.938,5.443Z" style="fill:#fff;"/><path d="M186.905,234.666c-4.921,-7.717 -20.469,-17.672 -23.936,-18.232c-3.467,-0.559 -9.843,-4.026 -12.751,-6.263m-81.373,-87.232c0.118,2.135 -2.492,6.476 -5.842,6.41m-11.015,-5.161c1.422,3.715 1.033,5.281 5.392,7.798c2.675,1.544 6.32,8.755 7.271,10.402c2.906,5.034 8.973,15.016 11.409,17.225c1.757,1.595 6.375,8.725 7.494,9.732c1.118,1.006 3.355,4.809 4.026,5.48c0.672,0.671 5.373,7.164 5.929,7.942c0.839,1.174 6.934,8.277 10.737,9.843c3.803,1.566 18.232,8.165 20.134,9.843c1.901,1.678 7.158,6.431 9.843,8.892c2.684,2.461 13.063,13.115 13.31,14.038c0.601,2.241 10.067,10.849 11.633,12.303c1.566,1.455 4.306,4.363 5.76,5.929c0.727,0.783 2.316,3.328 3.865,5.355c1.55,2.028 3.06,3.538 3.63,4.488c1.006,1.677 6.44,6.867 7.55,8.165c1.313,1.536 3.97,3.971 5.033,5.592c1.13,1.726 3.076,4.922 3.971,6.264m-72.313,-101.338c-3.046,-2.606 -7.606,-11.073 -9.731,-16.107c-2.125,-5.033 -5.124,-12.553 -6.152,-17.896c-0.559,-2.908 -2.178,-13.299 -4.501,-15.43m-54.553,-36.42c-2.8,0.398 -7.946,1.74 -9.064,3.53c-1.119,1.789 -2.461,7.158 -0.895,11.408c1.566,4.251 2.349,3.803 3.244,5.034c0.895,1.23 1.678,4.25 3.803,5.704c2.125,1.454 10.626,11.074 14.541,13.087c3.914,2.013 7.494,4.25 11.968,4.698c4.474,0.447 11.968,-1.119 13.981,-1.231c2.014,-0.111 11.857,-1.23 14.653,-2.013c2.796,-0.783 2.935,-5.939 1.412,-10.463m-11.479,-7.433c-0.529,2.337 -2.648,3.421 -3.579,5.592m-33.659,-56.505c-4.818,3.04 -10.97,7.178 -11.194,11.764c-0.223,4.586 3.356,12.752 5.817,16.219c2.46,3.467 20.692,24.943 23.936,27.18c1.622,1.119 6.294,4.339 9.396,4.894c4.662,0.833 16.232,-0.112 20.357,-1.538c3.962,-1.371 2.462,-9.566 2.853,-16.528m-50.726,-47.005c0.554,0.281 0.998,1.358 2.679,1.746m-5.587,-14.609c-1.068,2.827 -0.642,6.311 -0.112,8.166m12.992,-18.214c-4.044,-0.689 -11.538,1.324 -13.44,4.232c-1.901,2.908 -2.46,7.83 -2.237,10.962c0.224,3.132 0.336,6.823 2.237,9.395c1.902,2.573 5.638,5.703 5.638,5.703m29.708,-7.94c2.469,2.947 5.328,4.058 8.287,4.734m7.037,19.426c0.978,-0.427 2.198,-1.018 3.02,-1.566m-41.162,-10.178c3.279,0.67 5.451,-0.204 7.494,-1.566m80.808,0.399c-9.964,0.11 -14.481,1.422 -13.35,-4.26m12.725,10.99c-10.122,-5.859 -15.244,-6.721 -15.143,-9.875m15.852,-10.33c-1.325,3.3 -11.698,8.069 -14.179,9.659c-2.03,1.301 -6.676,1.136 -6.676,1.136m2.216,-18.679c-0,0 0.471,10.952 -0.633,14.998c-1.369,5.014 -7.225,11.427 -7.225,11.427m-7.969,-44.649c0,-0 -11.16,0.288 -15.921,2.813c-1.505,0.798 -2.864,2.112 -3.559,3.667c-2.088,4.672 -0.409,10.241 -1.078,15.314c-0.518,3.921 -2.278,8.85 -2.265,11.648c0.016,3.411 0.665,6.757 0.807,10.21c0.142,3.454 -0.479,7.033 0.271,10.388c0.789,3.524 2.658,6.718 4.099,10.03c2.052,4.72 4.169,9.416 6.47,14.02c2.004,4.007 2.634,9.102 6.147,12.078c2.774,2.35 8.012,0.798 11.145,-1.044c4.162,-2.448 6.177,-6.968 7.044,-11.717c0.388,-2.127 0.385,-7.014 0.173,-10.535c-0.211,-3.52 -0.702,-8.418 -1.506,-11.795c-0.737,-3.099 -2.256,-8.327 -3.965,-10.573c-1.405,-1.846 -3.654,-5.275 -3.654,-5.275m58.866,49.82c-0,-0 -0.163,-2.113 -0.227,-3.17c-0.34,-5.658 -0.475,-11.326 -0.83,-16.983c-0.433,-6.9 -1.233,-13.775 -1.585,-20.68c-0.453,-8.873 1.163,-17.953 -0.679,-26.644c-0.492,-2.317 -1.712,-4.421 -2.718,-6.566c-0.688,-1.467 -1.173,-3.104 -2.264,-4.302c-1.982,-2.178 -4.705,-3.637 -7.397,-4.831c-3.994,-1.771 -7.708,-2.904 -12.07,-3.168c-4.663,-0.283 -9.826,1.328 -14.497,1.277c-3.541,-0.039 -7.033,-0.444 -10.492,-1.203c-5.694,-1.251 -11.243,-3.094 -16.831,-4.755c-3.562,-1.059 -7.087,-2.24 -10.642,-3.321c-2.711,-0.825 -5.419,-1.665 -8.152,-2.415c-4.054,-1.114 -8.023,-3.037 -12.227,-3.095c-1.495,-0.02 -3.044,0.304 -4.378,0.981c-1.907,0.969 -3.47,2.576 -4.83,4.227c-1.369,1.662 -2.149,3.732 -3.246,5.585c-1.241,2.098 -2.262,3.895 -3.087,6.188c-2.144,5.961 -2.169,11.418 -2.649,13.21c-0.942,3.516 -3.446,6.5 -4.302,10.038c-0.676,2.795 -1.055,5.765 -0.604,8.604c0.494,3.11 2.004,6.011 3.548,8.756c1.797,3.197 4.163,6.059 6.566,8.83c2.879,3.32 6.232,6.197 9.359,9.284c2.912,2.875 6.017,5.564 8.756,8.604c1.162,1.291 1.929,2.943 3.245,4.076c0.991,0.854 2.11,1.729 3.396,1.963c1.205,0.218 2.522,-0.07 3.623,-0.604c2.388,-1.159 4.747,-2.963 5.888,-5.359c0.769,-1.615 0.301,-5.359 0.301,-5.359m163.918,116.185c-5.6,-5.96 -12.545,-9.947 -17.795,-15.197c-1.208,-1.208 -2.794,-1.577 -4.058,-2.841c-0.782,-0.782 -1.859,-1.731 -2.641,-2.514c-1.129,-1.129 -3.446,-2.225 -4.698,-3.476c-0.86,-0.861 -1.339,-2.896 -2.641,-3.547c-0.038,-0.019 -3.623,-1.487 -3.623,-1.51c-0,-0.677 -3.499,-3.372 -4,-3.623c-0.901,-0.45 -2.579,-1.22 -3.321,-1.962c-0.863,-0.862 -1.878,-2.569 -3.215,-3.153c-7.6,-3.32 -8.701,-6.911 -9.692,-7.942c-2.799,-2.912 -6.234,-5.404 -8.906,-8.076c-0.655,-0.655 -1.683,-1.784 -2.304,-2.358c-1.012,-0.935 -6.794,-6.639 -7.202,-7.453c-0.568,-1.136 -3.213,-4.263 -4.156,-6.568c-3.279,-8.021 -6.904,-20.643 -6.641,-25.133" style="fill:none;fill-rule:nonzero;stroke:#000;stroke-width:1.8px;"/></svg>