<?xml version="1.0" encoding="UTF-8" standalone="yes"?>
<!DOCTYPE svg PUBLIC "-//W3C//DTD SVG 1.0//EN" "http://www.w3.org/TR/2001/REC-SVG-20010904/DTD/svg10.dtd">
<svg height="285" style="background-color:white" width="285" xmlns="http://www.w3.org/2000/svg" xmlns:svg="http://www.w3.org/2000/svg" xmlns:xlink="http://www.w3.org/1999/xlink">
	<path d="m 57.383713,227.34028 c 3.200463,13.68478 4.307746,20.64484 4.940479,24.91579 0.632733,4.27095 0.949099,12.33829 0.949099,14.39468 m 76.765959,-5.13976 c -1.77608,-11.94436 -3.00813,-30.84815 1.26511,-33.55308 m 12.03535,-89.98776 c -2.60407,0.30047 -3.80595,2.20344 -5.70892,2.70423 -1.90298,0.50078 -12.61973,2.80438 -18.52897,3.70579 m 2.20345,-21.33335 c -0.50078,6.10955 -1.10172,9.41472 -2.70423,10.71675 m -76.118995,19.12991 c 3.705793,1.40219 5.999316,0.38512 7.812212,0.60094 4.206575,0.50079 5.308299,0.9014 10.416284,0.50078 M 55.486742,133.76357 c 2.203444,-0.10015 4.853772,-0.33145 7.411586,-1.20188 m -10.81691,-24.53836 c 1.502349,-0.10015 2.604071,-0.70109 3.906107,-0.60094 M 47.07359,85.988888 c 1.702661,0.100157 3.104853,0.100157 5.007828,-0.600939 M 66.777317,109.03334 C 64.701147,102.51472 63.198798,96.004546 62.297389,91.4975 61.39598,86.990454 61.09551,84.386383 60.093944,80.580433 59.092378,76.774483 58.591596,75.272135 58.090813,71.966968 57.59003,68.661801 56.688621,63.553816 54.985959,57.143795 c -1.702662,-6.410021 -8.012526,-10.51644 -11.11738,-10.51644 -3.104854,0 -6.009393,2.804384 -7.111116,6.810647 -0.591512,2.150951 -1.062412,6.894395 -0.801253,9.114248 0.400625,3.405323 1.001566,9.114248 1.001566,11.618162 0,2.503915 2.103288,9.815345 2.403757,12.118946 0.30047,2.303601 1.802819,11.317693 2.403758,14.122072 0.60094,2.80439 2.303601,7.71206 2.704228,10.31613 0.400626,2.60407 1.302035,14.22224 1.502348,17.22693 0.200313,3.0047 0.500783,8.21284 -0.801252,11.01723 -1.302036,2.80438 -4.707359,8.81377 -4.707359,11.91863 0,3.10485 2.103288,9.51487 2.704227,14.92333 0.60094,5.40845 1.402192,14.42254 2.303601,20.13147 0.90141,5.70892 1.802819,13.42098 3.605637,20.03131 1.802818,6.61034 3.80595,15.02349 6.009395,17.82787 2.203444,2.80439 2.303601,4.00627 3.305166,5.00783 1.001566,1.00157 2.103288,1.80282 3.505481,2.10329 m 4.306732,0.7011 c 1.702662,-0.10016 9.214405,-1.70267 12.920198,-3.90611 m 28.945247,-79.62448 c 1.90298,-0.50078 3.0047,-0.90141 4.50705,-0.80125 m -26.241024,7.91237 c 2.503915,-0.7011 3.80595,-1.00157 5.408455,-0.80125 m 16.726149,11.518 c 0.20031,-3.40532 3.70579,-4.80751 8.91393,-5.10798 m -30.347437,9.41472 c 0.100156,-2.50392 1.101722,-3.10486 3.50548,-4.10642 2.403757,-1.00157 6.910803,-1.60251 8.513308,0 m 23.902359,6.9446 c 3.03976,-4.04006 4.54211,-8.34679 4.94273,-13.05415 0.40063,-4.70736 -0.40062,-10.11582 -1.70266,-14.22224 -1.30203,-4.10642 -1.6025,-5.80908 -1.6025,-6.81064 0,-1.00157 1.80282,-2.70423 1.80282,-5.60877 0,-2.90454 0.50078,-3.10486 0.40062,-6.41002 -0.10015,-3.30517 -0.20031,-8.313 -0.70109,-10.01566 m -21.41164,50.61414 c 1.8811,3.77088 3.02484,8.26585 6.92754,7.5979 m -13.225413,2.69266 c 2.970833,-2.71373 5.074123,-4.41639 5.875373,-7.82172 0.80126,-3.40532 0.50079,-5.3083 -0.10015,-8.41315 m -26.841965,24.23789 c 7.511743,-3.50548 10.716753,-5.60877 18.929592,-7.51174 8.212843,-1.90298 11.992473,-2.62305 17.827873,-3.60563 7.9407,-1.33708 17.32708,-3.30517 20.43194,-5.00784 M 96.669193,116.53883 c -4.024362,-4.8097 -4.925772,-6.41221 -7.02906,-8.31518 -2.103288,-1.90298 -5.408455,-3.60564 -10.015657,-3.7058 -4.607202,-0.10015 -10.015657,1.60251 -11.818476,3.10486 -1.802818,1.50235 -3.906106,9.01409 -4.006263,12.71988 -0.100156,3.7058 1.101723,11.61817 3.80595,17.32709 2.704228,5.70892 4.507046,11.21754 5.508612,15.12364 1.001566,3.90611 2.103288,5.50861 4.006263,7.91237 1.902975,2.40376 3.705793,7.41159 5.608768,9.81535 1.902975,2.40376 5.493519,9.28549 9.584506,8.84658 M 133.40856,118.9404 c -4.60721,-5.60877 -7.81222,-9.41472 -12.01879,-11.41785 -4.20658,-2.00313 -6.81065,-3.40532 -12.01879,-3.20501 -5.20814,0.20031 -7.41159,2.40376 -9.21441,4.80752 -1.802815,2.40375 -3.805946,4.40689 -3.605633,10.61659 0.200313,6.20971 2.804384,16.02506 2.604071,20.43194 -0.200313,4.40689 1.001562,13.02036 1.802822,15.02349 0.80125,2.00313 2.20344,5.20814 3.20501,6.41002 m 30.34744,-49.5775 c 2.3036,-0.10016 3.9061,-0.10016 5.40845,0.30047 m 6.71049,3.20501 c 2.20345,1.10172 5.90924,2.90454 7.31143,4.70736 M 143.2239,84.887166 c 2.90454,0.701096 4.6072,1.101722 7.11112,1.001566 M 142.5228,54.339411 c 2.60408,0.500783 5.3083,0.701096 7.6119,0.400626 m 18.74479,111.933823 c -1.71817,-1.9619 -3.42083,-8.27177 -4.02177,-11.37662 -0.60094,-3.10486 -2.50391,-11.11738 -3.70579,-16.32552 -3.41995,-14.81981 -2.34663,-27.44326 -2.60408,-33.05167 -0.22968,-5.00356 1.50235,-11.818479 1.30204,-18.128344 -0.20031,-6.309864 0.10016,-14.923329 -0.90141,-24.137734 -1.00156,-9.214405 0,-16.225365 -0.30047,-21.63382 -0.30047,-5.408455 -3.10485,-18.428809 -4.80751,-21.03288 -1.70266,-2.604071 -4.90767,-4.306733 -8.01253,-4.406889 -3.10485,-0.100157 -6.20971,0.600939 -7.21127,4.507045 -1.00157,3.906107 -2.50392,13.521138 -2.40376,19.831002 0.10016,6.309864 0.80125,9.214405 0.80125,12.719885 0,3.50548 -2.10329,10.316127 -2.3036,16.225365 -0.20031,5.909238 -0.10015,12.920198 -0.80125,17.126774 -0.7011,4.206576 -1.50235,15.624426 -1.60251,18.929596 -0.10015,3.30516 -0.60094,5.40845 -1.40219,6.71049 m 23.03601,35.35527 c 2.10329,4.20657 3.40533,6.2097 5.00783,7.71205 1.60251,1.50235 3.80595,4.10642 4.80752,5.50861 m -38.79125,71.59306 c 2.53093,0.9491 4.58731,1.10729 7.43461,0.31637 2.8473,-0.79092 6.29995,-2.60132 8.42584,-4.72721 2.77843,-2.77843 13.878,-7.29471 18.46531,-9.3511 4.58731,-2.05638 9.42263,-4.23676 10.52991,-5.18586 1.10728,-0.9491 2.54128,-2.48324 6.60396,-3.34808 4.20874,-0.89594 7.7009,-3.3298 9.91546,-6.01891 2.21457,-2.68912 3.63822,-4.90368 6.01097,-7.27643 2.37274,-2.37275 14.71104,-15.18559 16.13468,-15.66014 1.42365,-0.47455 4.98484,-2.28146 6.01097,-3.7964 1.14512,-1.69062 4.50046,-3.4973 5.69459,-4.90368 1.47576,-1.73808 6.60157,-3.15571 12.18011,-3.7964 5.40057,-0.62025 19.07926,-4.68524 19.93109,-6.16914 0.48226,-0.8401 2.93191,-5.0424 -1.19354,-8.52619 -4.12506,-3.48346 -6.59929,-6.48744 -14.76452,-7.82967 -8.16523,-1.34223 -17.56083,-2.01335 -24.16012,-0.33556 -8.2815,2.10547 -10.40228,7.60597 -12.63933,8.27708 -2.23705,0.67111 -10.40228,5.14521 -12.30377,5.70447 -1.90149,0.55927 -12.43901,6.46076 -17.67268,6.48745 -5.03826,0.0257 -8.50079,1.78963 -13.31044,-4.58595" style="fill:none;stroke:#000000;stroke-width:1.79999995;stroke-linecap:round;stroke-miterlimit:4;stroke-opacity:1;stroke-dasharray:none;display:inline" />
	<!-- 
	Generated using the Perl SVG Module V2.50
	by Ronan Oger
	Info: http://www.roitsystems.com/
 -->
</svg>