<?xml version="1.0" encoding="UTF-8" standalone="yes"?>
<!DOCTYPE svg PUBLIC "-//W3C//DTD SVG 1.0//EN" "http://www.w3.org/TR/2001/REC-SVG-20010904/DTD/svg10.dtd">
<svg height="285" style="background-color:white" width="285" xmlns="http://www.w3.org/2000/svg" xmlns:svg="http://www.w3.org/2000/svg" xmlns:xlink="http://www.w3.org/1999/xlink">
	<path d="m 98.318289,116.32653 c 1.11404,-1.12151 1.392015,-3.13596 1.230377,-3.24372 0.132526,-0.54966 0.399205,-0.87574 0.111852,-2.1252 M 111.51688,70.467033 c 1.23037,-0.782967 2.01334,-1.789639 2.3489,-2.237049 m 34.00314,118.116166 c 2.23705,-2.12519 2.12519,-6.04003 3.57927,-7.82967 1.45409,-1.78964 4.69781,-5.36891 5.36892,-7.60596 0.67112,-2.23705 2.23705,-7.94152 3.13187,-8.9482 m 24.96893,-19.61328 c 1.50953,-1.96239 2.71716,-3.01907 2.71716,-3.01907 0,0 4.49086,0.0377 7.54767,0.75477 1.00816,0.23648 1.9624,1.50954 1.9624,1.50954 m -14.03867,3.32097 c -0.83024,0.94346 -1.09805,2.1775 -0.60381,2.90585 0.71702,1.05667 4.52859,1.35859 5.92492,1.50954 1.67793,0.18139 2.55575,0.63299 2.83231,0.26561 m -0.4548,43.62409 c -0.45286,-3.77384 -0.15095,-6.03814 -1.20763,-7.84958 -1.05667,-1.81144 -1.35858,-6.03814 -1.20762,-9.35911 0.15095,-3.32098 0.3019,-4.83051 0.3019,-4.83051 l 0,-8.00053 c 0,0 0.60382,-2.41525 0.30191,-4.83051 -0.30191,-2.41525 -0.30191,-4.37765 0.75477,-6.49099 1.05667,-2.11335 6.18909,-7.84958 7.39672,-10.26483 1.20762,-2.41526 2.26429,-5.58528 0.45285,-8.15149 -1.81144,-2.56621 -8.30243,-4.07574 -12.68008,-4.07574 -4.37765,0 -12.07627,1.50954 -15.24629,4.52861 -3.17003,3.01906 -6.18394,7.17138 -7.39672,12.83103 -0.45286,2.11335 -1.21559,6.73703 -0.75476,9.96292 0.45285,3.17003 0.3019,7.54767 0.3019,8.45339 0,0.90573 -0.15095,7.54767 -1.20763,9.05721 m -19.02013,-34.56833 c -1.20762,2.41526 -2.53495,3.38181 -4.06011,5.01188 M 116.99735,86.541813 c -2.12182,1.1621 -2.72563,2.671634 -2.42372,5.237842 0.3019,2.566208 0.47131,4.94479 2.65091,8.661485 m 41.88575,-0.20406 c -3.02448,-2.570243 -8.76071,-8.759332 -10.7231,-10.419819 -1.9624,-1.660487 -5.58528,-5.434322 -7.09481,-6.943856 -1.50954,-1.509534 -9.1068,-9.768763 -10.41579,-11.321505 -1.37393,-1.62978 -5.02486,-8.366577 -7.84957,-9.962924 0.0535,-0.106973 -2.10386,-5.75522 -3.47193,-8.604343 -1.57091,-3.271557 -4.98146,-11.472458 -7.84958,-13.585806 -1.14648,-0.844771 -4.22669,-1.207627 -5.88718,-0.45286 -1.66049,0.754767 -5.73623,5.132415 -5.887183,10.264831 -0.150953,5.132415 1.207623,8.755297 3.170023,12.981992 1.96239,4.226695 6.94385,11.623411 6.94385,11.623411 0,0 4.2267,8.151483 5.88719,11.019598 1.66048,2.868114 4.37765,6.189089 5.73623,8.604343 1.35858,2.415255 3.10799,4.366847 6.00712,7.768698 m 70.52625,121.29645 c -2.41526,-3.47192 -4.83052,-8.90625 -5.28338,-10.11387 -0.45286,-1.20763 -0.90571,-5.13242 -2.41524,-7.54767 m -30.94545,33.05879 c 7.54767,-0.45286 11.0196,-0.15095 12.83104,-1.96239 m -30.95806,-32.59638 c -0.64044,4.80331 -0.42697,13.34252 0.42696,16.75821 1.07055,4.28216 3.20221,6.19093 3.20221,6.19093 1.42858,1.69874 4.16186,6.21377 5.84403,8.51253 1.92213,1.12077 2.2282,1.84127 4.29629,3.44237 m -2.34829,-83.47082 c -4.16286,0.5337 -6.72463,1.70785 -8.64595,3.73591 -1.92132,2.02806 -4.58983,4.58983 -5.76397,8.00551 -1.17414,3.41569 -2.34828,7.15159 -2.77525,9.39314 -0.42696,2.24154 -1.28088,17.39864 -1.28088,20.70759 0,3.30895 0.96066,11.20772 1.49437,13.66274 0.5337,2.45503 2.02806,9.92684 2.77524,11.52794 0.74718,1.6011 5.55049,9.28639 6.83137,11.10098 1.28088,1.81458 4.16287,4.05612 5.55049,6.40441 1.38762,2.34828 4.48309,4.91005 6.29767,9.92683 1.81458,5.01679 5.01679,15.05037 5.76397,19.85367 M 127.5545,124.35684 c 0.85392,4.58903 2.77525,8.43168 3.84265,9.49908 1.0674,1.0674 3.30894,4.37635 3.7359,6.08419 0.42696,1.70784 2.45503,3.41569 2.88199,6.61789 0.42696,3.20221 0,7.25833 0.42696,8.64595 0.42696,1.38763 3.45823,5.77248 3.45823,5.77248 m -0.34926,-33.57271 c 2.48628,5.26855 1.62349,4.92372 6.81786,5.17132 -1.73604,1.76969 -3.7359,4.05613 -3.7359,4.05613 0.0428,-1.64756 0.38019,-2.83358 -0.41885,-4.57581 m -11.11113,-8.55137 c 1.28292,1.91946 9.50192,4.58796 14.30522,5.12166 m -9.71335,-10.14031 c 1.28088,-1.28089 2.56176,-2.77525 2.98872,-4.05613 m 18.67953,11.20772 c -0.85392,2.16035 -1.70784,6.07263 -0.85392,11.31446 m -3.41568,-8.32574 c 2.1348,-2.24154 3.30894,-5.44375 3.7359,-6.61789 m 0.74718,-4.80331 c 0.74718,-3.09546 0.42696,-5.23026 0.5337,-6.51115 0.10674,-1.28088 1.82931,-3.56066 1.82931,-3.56066 m -1.43592,-8.99917 c -2.10123,3.48692 -3.70233,4.87454 -5.41017,4.98128 -1.70785,0.10674 -11.42645,-2.15854 -16.33125,-2.24154 -2.8839,-0.0488 -6.93811,0.64044 -9.17965,0.5337 -2.24155,-0.10674 -5.87071,-0.96066 -8.11226,-1.0674 -4.16359,-0.19827 -9.07291,0.74718 -11.63468,0.74718 -2.56176,0 -13.022297,0.5337 -14.73014,0.64044 -1.707843,0.10674 -7.151591,1.17414 -11.100978,1.28088 -3.949386,0.10674 -15.370583,0.42696 -16.331245,0.64044 -0.960661,0.21348 -5.657229,4.80331 -3.202205,9.07292 2.455024,4.2696 6.19093,6.93811 10.994237,6.93811 4.803308,0 14.303183,0.21348 14.303183,0.21348 3.256567,0.58608 6.638853,1.04644 10.460538,1.0674 l 7.89877,1.28088 4.16287,0.10674 c 6.08596,1.9231 9.85996,2.00622 14.6234,2.02807 4.4963,0.0206 7.19755,-0.22135 8.85944,-3.84265 m 26.82757,-36.596542 c 1.49436,0.426961 4.35589,-0.574602 5.4233,-0.788079 M 151.57104,54.654716 c 1.0674,0.21348 2.56176,0.10674 3.41569,-0.213481 m 69.93383,213.501035 c -2.2643,-4.98147 -6.7929,-15.09534 -8.45339,-18.86918 -1.66049,-3.77383 -4.2267,-12.22722 -5.58528,-15.8501 -1.35858,-3.62289 -4.67955,-14.34058 -4.83051,-16.30297 -0.15095,-1.9624 -0.45286,-6.94386 0,-10.56674 0.45286,-3.62288 0.15096,-11.62341 1.05668,-15.39724 0.90572,-3.77384 0.9133,-8.98709 1.96998,-18.95002 1.05667,-9.96292 3.08468,-28.54076 2.40767,-33.27986 -0.45286,-3.17002 -2.56621,-7.84958 -3.77384,-9.81197 -1.20763,-1.96239 -7.24576,-10.11388 -7.24576,-10.11388 l -6.7929,-12.52913 -7.84958,-15.246292 -4.07574,-8.755297 c -0.47629,-2.039605 -1.06674,-4.071781 -2.39694,-5.25747 -1.85643,-5.627754 -4.14066,-10.742151 -7.41503,-14.668378 -1.56497,-5.425788 -2.78045,-11.434076 -5.13242,-15.5482 0.10014,0.400558 -1.9338,-7.433268 -2.71716,-12.378178 -0.66805,-4.217018 -2.52199,-10.787804 -3.27676,-12.599244 -0.75477,-1.811441 -4.33788,-3.250863 -7.59188,-3.250863 -2.1866,0 -7.24577,1.509534 -8.30244,7.09481 -1.05667,5.585276 0.75477,22.492056 2.56621,26.416844 1.81144,3.924788 1.20762,5.585276 1.50953,7.698623 0.30191,2.113348 2.86811,11.472458 4.5286,15.09534 1.66049,3.622881 1.9624,5.736229 2.86812,8.45339 0.90572,2.717161 4.67955,16.302966 4.83051,18.114405 0.15095,1.81144 0.90572,8.7553 2.11334,10.86865 1.20763,2.11334 4.5286,5.28337 6.34005,6.18909" style="fill:none;stroke:#000000;stroke-width:1.79999995;stroke-linecap:round;stroke-miterlimit:4;stroke-opacity:1;stroke-dasharray:none;display:inline" />
	<!-- 
	Generated using the Perl SVG Module V2.50
	by Ronan Oger
	Info: http://www.roitsystems.com/
 -->
</svg>