<?xml version="1.0" encoding="UTF-8" standalone="no"?><!DOCTYPE svg PUBLIC "-//W3C//DTD SVG 1.1//EN" "http://www.w3.org/Graphics/SVG/1.1/DTD/svg11.dtd"><svg width="100%" height="100%" viewBox="0 0 285 285" version="1.1" xmlns="http://www.w3.org/2000/svg" xmlns:xlink="http://www.w3.org/1999/xlink" xml:space="preserve" xmlns:serif="http://www.serif.com/" style="fill-rule:evenodd;clip-rule:evenodd;stroke-linecap:round;"><path d="M108.67,108.996c0.659,-0.246 1.305,-0.403 1.936,-0.493c-0.447,-6.487 -3.451,-23.943 -3.451,-26.18c-0,-2.237 -2.126,-12.303 -2.237,-14.317c-0.112,-2.013 -1.343,-10.178 -1.343,-10.178c0,-0 -1.118,-6.04 -1.677,-8.501c-0.56,-2.461 -1.231,-9.508 -0.224,-13.087c1.007,-3.579 2.684,-7.829 6.823,-8.165c4.138,-0.336 7.27,2.349 10.184,6.487c-0.27,-2.645 -0.445,-6.039 -0.229,-8.5c0.559,-6.376 3.915,-7.606 7.27,-8.389c3.356,-0.783 7.271,1.566 10.067,5.145c2.796,3.579 3.739,7.556 6.861,17.598c-0.226,-1.788 -0.374,-3.595 -0.374,-4.959c0,0 1.454,-2.349 2.125,-3.355c0.672,-1.007 3.692,-4.363 9.732,-1.231c6.04,3.132 6.823,6.6 7.606,8.277c0.783,1.678 3.579,8.613 4.697,10.291c1.119,1.678 3.356,6.823 4.475,10.402c0.581,1.86 1.681,2.709 2.572,5.145c1.273,3.482 1.454,7.83 3.02,10.738c1.566,2.908 2.125,6.376 2.237,7.606c0.112,1.23 1.566,4.81 3.803,12.416c2.237,7.606 3.579,14.988 3.755,20.205c0.226,0.15 0.433,0.313 0.607,0.487c1.57,1.57 5.593,11.633 6.264,15.212c0.671,3.58 0.671,14.094 0.448,18.456c-0.224,4.362 -0.448,8.836 -1.231,14.317c-0.783,5.481 -2.796,17.896 -2.796,19.462c-0,1.566 0.335,6.712 0.335,9.62c0,2.908 -0.894,11.856 -1.23,14.541c-0.335,2.684 -3.244,12.191 -4.25,14.205c-1.007,2.013 -1.231,5.145 -0.56,7.494c0.672,2.349 0.783,7.494 2.797,14.988c1.95,7.261 3.796,14.416 5.943,21.975l-68.697,-0.929c-1.65,-7.675 -3.54,-15.893 -6.815,-25.054c-1.661,-1.384 -2.705,-2.832 -3.583,-3.71c-1.901,-1.901 -4.586,-6.823 -6.152,-9.731c-1.566,-2.908 -2.572,-6.264 -3.355,-8.948c-0.783,-2.685 -3.356,-13.982 -4.586,-18.12c-1.231,-4.139 -3.468,-16.219 -4.474,-21.811c-1.007,-5.593 -1.566,-18.12 -2.014,-21.812c-0.447,-3.691 0.112,-16.218 0.224,-18.343c0.112,-2.126 -0.447,-8.501 -1.454,-11.074c-1.007,-2.572 -0.447,-5.481 -0.112,-6.935c0.336,-1.454 2.573,-7.829 3.468,-9.395c0.894,-1.566 3.579,-4.251 5.816,-4.251c1.458,0 4.25,0.448 7.779,2.401Zm48.484,2.619c3.623,-0.4 6.809,1.381 10.177,2.251c-3.008,-1.029 -6.251,-1.917 -7.829,-3.803c-0,1.168 -1.864,1.489 -2.348,1.552c-0.037,0.005 -0.075,0.009 -0.113,0.014c-0,-0 0.041,-0.004 0.113,-0.014Zm-18.826,0.675c-1.637,-0.256 -2.74,-1.096 -3.689,-3.041c-0.066,2.698 -0.297,5.174 -0.519,5.807c-0.04,0.05 -0.08,0.101 -0.121,0.152c0.039,0.02 0.08,-0.034 0.121,-0.152c1.352,-1.673 2.613,-2.434 4.208,-2.766c1.27,0.198 2.863,0.046 4.955,-0.214c-2.052,-0.041 -3.62,-0.064 -4.955,0.214Z" style="fill:#fff;"/><path d="M99.814,141.211c1.107,0 3.005,-0.316 3.005,-0.316m14.294,99.83c3.352,9.377 5.254,17.766 6.931,25.596m11.633,-55.703c1.454,3.244 3.132,5.145 6.04,6.823c2.908,1.678 7.494,5.257 8.613,6.264c1.118,1.007 5.033,3.915 7.27,3.915c2.237,-0 3.468,-0.112 5.481,-1.566m-26.509,-59.506c-2.461,8.725 -4.586,13.982 -5.034,16.219c-0.447,2.237 -1.23,8.948 -0.335,13.758m-28.075,-31.431c4.474,-1.23 10.067,-4.698 11.856,-5.704c1.79,-1.007 3.915,-2.908 3.915,-2.908m-23.265,-31.543c0.671,3.691 4.027,10.179 4.698,10.962c0.671,0.783 3.243,2.908 5.033,5.48c1.79,2.573 3.915,7.718 6.152,9.955c2.237,2.237 3.244,3.803 5.704,3.58c2.461,-0.224 5.095,-0.169 6.183,-5.398m11.154,91.077c2.014,-0.895 6.041,-2.014 6.935,-4.922m-32.823,-126.677c-3.529,-1.953 -6.321,-2.401 -7.779,-2.401c-2.237,0 -4.922,2.685 -5.816,4.251c-0.895,1.566 -3.132,7.941 -3.468,9.395c-0.335,1.454 -0.895,4.363 0.112,6.935c1.007,2.573 1.566,8.948 1.454,11.074c-0.112,2.125 -0.671,14.652 -0.224,18.343c0.448,3.692 1.007,16.219 2.014,21.812c1.006,5.592 3.243,17.672 4.474,21.811c1.23,4.138 3.803,15.435 4.586,18.12c0.783,2.684 1.789,6.04 3.355,8.948c1.566,2.908 4.251,7.83 6.152,9.731c1.902,1.902 4.586,6.488 12.64,7.271m53.801,-86.686c1.677,0.112 3.02,0 4.026,-0.447m-24.384,-18.12c4.251,-1.455 7.495,-1.007 10.067,-1.79c2.573,-0.783 6.935,-1.454 10.402,-5.369m-73.934,-7.159c-1.119,-3.02 -0.895,-4.921 -0.559,-6.04m21.587,16.778c1.342,-2.013 2.908,-4.698 4.139,-5.369m-20.917,-0.559c1.231,1.566 3.02,4.251 4.474,3.915c1.455,-0.336 3.803,-4.81 5.034,-6.152c1.23,-1.342 4.809,-5.033 4.586,-6.935c-0.224,-1.901 -2.349,-3.915 -4.251,-5.369m64.539,58.947c-0.335,-4.475 -2.013,-9.508 -3.132,-10.738c-1.118,-1.231 -3.691,-5.146 -9.06,-8.948c-5.369,-3.803 -12.639,-11.186 -14.988,-13.646c-2.349,-2.461 -7.158,-4.81 -8.948,-6.823c-1.79,-2.014 -8.389,-6.935 -9.508,-9.061c-1.118,-2.125 -7.494,-7.382 -10.626,-8.836c-2.047,-0.95 -6.434,-5.356 -11.856,-6.711c-3.132,-0.783 -7.494,-2.013 -12.08,2.573c-1.699,1.698 -2.908,7.717 -1.342,12.751c1.566,5.033 3.355,9.619 5.257,10.402c1.901,0.783 3.132,2.013 4.25,3.02c1.119,1.007 3.691,2.796 4.251,3.467c0.559,0.672 1.454,2.126 2.46,3.356c1.007,1.23 2.573,3.803 5.369,6.04c2.797,2.237 4.698,3.244 6.152,5.033c1.454,1.79 2.573,2.573 4.698,5.369c2.125,2.797 5.033,6.711 5.593,7.606c0.559,0.895 2.796,3.468 4.362,4.698m-28.522,-87.357c1.23,-0.671 2.684,-1.454 4.809,-1.454m-10.738,-29.081c1.79,-0.224 2.237,-0.448 3.132,-1.007m4.368,-20.022c-2.914,-4.138 -6.046,-6.823 -10.184,-6.487c-4.139,0.336 -5.816,4.586 -6.823,8.165c-1.007,3.579 -0.336,10.626 0.224,13.087c0.559,2.461 1.677,8.501 1.677,8.501c0,-0 1.231,8.165 1.343,10.178c0.111,2.014 2.237,12.08 2.237,14.317c-0,2.237 3.004,19.693 3.451,26.18m25.742,-32.22c2.461,-1.006 2.908,-1.454 4.474,-1.566m-11.409,-27.515c1.454,-0.336 2.349,-0.448 2.908,-1.007m10.329,-5.779c-3.122,-10.042 -4.065,-14.019 -6.861,-17.598c-2.796,-3.579 -6.711,-5.928 -10.067,-5.145c-3.355,0.783 -6.711,2.013 -7.27,8.389c-0.352,4.015 0.335,10.514 0.783,12.192c0.447,1.677 2.013,5.816 2.46,7.605c0.448,1.79 1.343,7.718 2.014,10.403c0.671,2.684 2.013,6.152 2.237,8.389c0.224,2.237 1.007,7.27 1.566,11.073c0.559,3.803 1.678,7.942 2.684,11.409c1.007,3.467 3.166,11.763 4.027,15.212c0.877,3.515 0.229,13.089 -0.224,12.863c2.535,-3.225 4.707,-3.224 9.284,-3.132c-4.789,0.594 -6.958,0.627 -8.644,-2.827m28.666,-24.241c1.118,-1.231 3.02,-2.237 4.697,-2.237m-11.073,-20.693c0.895,-0.671 1.566,-1.007 2.461,-1.118m-17.114,-25.503c0,2.908 0.671,7.83 1.343,10.291c0.671,2.46 2.237,8.836 2.684,10.849c0.447,2.014 1.901,7.942 2.908,9.843c1.007,1.902 1.678,5.705 1.79,6.264c0.112,0.559 0.895,2.125 1.454,3.132c0.559,1.007 1.23,4.698 1.678,7.159c0.447,2.46 2.908,11.185 3.467,13.869c0.559,2.685 1.902,11.857 1.902,13.199c-0,1.342 -2.461,1.566 -2.461,1.566c3.669,-0.451 6.887,1.358 10.29,2.237c-3.008,-1.029 -6.251,-1.917 -7.829,-3.803m26.796,5.888c-0.176,-5.217 -1.518,-12.599 -3.755,-20.205c-2.237,-7.606 -3.691,-11.186 -3.803,-12.416c-0.112,-1.23 -0.671,-4.698 -2.237,-7.606c-1.566,-2.908 -1.747,-7.256 -3.02,-10.738c-0.891,-2.436 -1.991,-3.285 -2.572,-5.145c-1.119,-3.579 -3.356,-8.724 -4.475,-10.402c-1.118,-1.678 -3.914,-8.613 -4.697,-10.291c-0.783,-1.677 -1.566,-5.145 -7.606,-8.277c-6.04,-3.132 -9.06,0.224 -9.732,1.231c-0.671,1.006 -2.125,3.355 -2.125,3.355m50.558,231.982c-2.237,-7.83 -4.139,-15.212 -6.152,-22.706c-2.014,-7.494 -2.125,-12.639 -2.797,-14.988c-0.671,-2.349 -0.447,-5.481 0.56,-7.494c1.006,-2.014 3.915,-11.521 4.25,-14.205c0.336,-2.685 1.23,-11.633 1.23,-14.541c0,-2.908 -0.335,-8.054 -0.335,-9.62c-0,-1.566 2.013,-13.981 2.796,-19.462c0.783,-5.481 1.007,-9.955 1.231,-14.317c0.223,-4.362 0.223,-14.876 -0.448,-18.456c-0.671,-3.579 -4.694,-13.642 -6.264,-15.212c-1.176,-1.176 -3.803,-1.789 -3.803,-1.789" style="fill:none;fill-rule:nonzero;stroke:#000;stroke-width:1.8px;"/><path d="M121.817,265.75l72.271,0.978" style="fill:none;"/></svg>