<?xml version="1.0" encoding="UTF-8" standalone="yes"?>
<!DOCTYPE svg PUBLIC "-//W3C//DTD SVG 1.0//EN" "http://www.w3.org/TR/2001/REC-SVG-20010904/DTD/svg10.dtd">
<svg height="285" style="background-color:white" width="285" xmlns="http://www.w3.org/2000/svg" xmlns:svg="http://www.w3.org/2000/svg" xmlns:xlink="http://www.w3.org/1999/xlink">
	<path d="m 99.813617,141.21145 c 1.107283,0 3.005483,-0.31637 3.005483,-0.31637 m 14.29359,99.82943 c 3.35238,9.37753 5.25387,17.76646 6.93166,25.59613 M 135.677,210.61813 c 1.45408,3.24372 3.13187,5.14521 6.04003,6.823 2.90817,1.67779 7.49412,5.25706 8.61264,6.26374 1.11852,1.00667 5.03336,3.91483 7.27041,3.91483 2.23705,0 3.46742,-0.11185 5.48077,-1.56593 m -26.50903,-59.5055 c -2.46075,8.72449 -4.58595,13.98156 -5.03336,16.21861 -0.44741,2.23704 -1.23038,8.94819 -0.33556,13.75785 m -28.07496,-31.43054 c 4.4741,-1.23038 10.06672,-4.6978 11.85636,-5.70447 1.78964,-1.00667 3.91484,-2.90817 3.91484,-2.90817 M 95.633831,124.93917 c 0.671114,3.69113 4.026687,10.17857 4.697799,10.96154 0.67112,0.78296 3.24372,2.90816 5.03336,5.48077 1.78964,2.5726 3.91484,7.71781 6.15189,9.95486 2.23704,2.23705 3.24372,3.80298 5.70447,3.57928 2.46075,-0.2237 5.09495,-0.16905 6.18268,-5.39752 m 11.15445,91.07648 c 2.01335,-0.89482 6.04003,-2.01334 6.93485,-4.9215 M 108.67005,108.9963 c -3.52876,-1.95352 -6.32077,-2.40093 -7.77916,-2.40093 -2.237044,0 -4.921502,2.68446 -5.816322,4.25039 -0.894819,1.56594 -3.131868,7.94152 -3.467425,9.39561 -0.335557,1.45408 -0.89482,4.36224 0.111852,6.93485 1.006672,2.5726 1.565934,8.94819 1.454082,11.07339 -0.111852,2.12519 -0.671114,14.65267 -0.223705,18.3438 0.44741,3.69113 1.006672,16.2186 2.013344,21.81122 1.006672,5.59262 3.243721,17.67269 4.474097,21.81123 1.230377,4.13854 3.802987,15.43563 4.585947,18.12009 0.78297,2.68446 1.78964,6.04003 3.35558,8.94819 1.56593,2.90817 4.25039,7.82968 6.15188,9.73117 1.90149,1.90149 4.58595,6.48744 12.63932,7.2704 m 53.80103,-86.68563 c 1.67778,0.11185 3.02001,0 4.02668,-0.44741 m -24.38383,-18.1201 c 4.25039,-1.45408 7.49412,-1.00667 10.06672,-1.78963 2.57261,-0.78297 6.93485,-1.45409 10.40228,-5.36892 m -73.93446,-7.15856 c -1.11853,-3.02001 -0.89482,-4.9215 -0.55926,-6.04003 m 21.58752,16.77787 c 1.34223,-2.01335 2.90816,-4.69781 4.13854,-5.36892 m -20.91641,-0.55926 c 1.23038,1.56593 3.02002,4.25039 4.4741,3.91483 1.45408,-0.33555 3.80298,-4.80965 5.03336,-6.15188 1.23038,-1.34223 4.80965,-5.03336 4.58595,-6.93485 -0.22371,-1.90149 -2.3489,-3.91484 -4.25039,-5.36892 m 64.53885,58.94623 c -0.33556,-4.47409 -2.01334,-9.50745 -3.13187,-10.73783 -1.11852,-1.23038 -3.69113,-5.14521 -9.06005,-8.94819 -5.36891,-3.80299 -12.63932,-11.18525 -14.98822,-13.646 -2.3489,-2.46076 -7.15856,-4.80966 -8.9482,-6.823 -1.78963,-2.01334 -8.38893,-6.93485 -9.50745,-9.06005 -1.11853,-2.12519 -7.49412,-7.38226 -10.62598,-8.83634 -2.04738,-0.95057 -6.43481,-5.35576 -11.85636,-6.71115 -3.13187,-0.78297 -7.49412,-2.01334 -12.08007,2.57261 -1.69868,1.69868 -2.90816,7.71782 -1.34222,12.75118 1.56593,5.03336 3.35557,9.61931 5.25706,10.40227 1.90149,0.78297 3.13187,2.01335 4.25039,3.02002 1.11853,1.00667 3.69113,2.79631 4.2504,3.46743 0.55926,0.67111 1.45408,2.12519 2.46075,3.35557 1.00667,1.23038 2.5726,3.80298 5.36892,6.04003 2.79631,2.23705 4.6978,3.24372 6.15188,5.03336 1.45408,1.78964 2.57261,2.57261 4.6978,5.36892 2.1252,2.79631 5.03336,6.71114 5.59262,7.60596 0.55927,0.89482 2.79631,3.46743 4.36225,4.6978 M 117.1095,86.126373 c 1.23037,-0.671114 2.68446,-1.454081 4.80965,-1.454081 M 111.18132,55.590659 c 1.78964,-0.223705 2.23705,-0.44741 3.13187,-1.006672 m 4.36816,-20.022191 c -2.91408,-4.137934 -6.04595,-6.822393 -10.18449,-6.486836 -4.13854,0.335558 -5.81633,4.58595 -6.823,8.165228 -1.00667,3.579278 -0.33556,10.625981 0.22371,13.086735 0.55926,2.460753 1.67778,8.500785 1.67778,8.500785 0,0 1.23038,8.165227 1.34223,10.178571 0.11186,2.013344 2.23705,12.080063 2.23705,14.317112 0,2.237048 3.00407,19.692559 3.45148,26.179999 m 25.74201,-32.220031 c 2.46075,-1.006672 2.90816,-1.454081 4.47409,-1.565934 M 129.41327,47.201727 c 1.45408,-0.335558 2.3489,-0.44741 2.90816,-1.006672 m 10.32853,-5.778729 c -3.12206,-10.042052 -4.0648,-14.019152 -6.86111,-17.59843 -2.79631,-3.579278 -6.71114,-5.928179 -10.06671,-5.145212 -3.35558,0.782967 -6.71114,2.013345 -7.27041,8.388933 -0.35223,4.015413 0.33555,10.514128 0.78296,12.191915 0.44741,1.677786 2.01335,5.816326 2.46076,7.605965 0.44741,1.789639 1.34223,7.717818 2.01334,10.402277 0.67112,2.684458 2.01335,6.151884 2.23705,8.388932 0.2237,2.237049 1.00667,7.270408 1.56593,11.073391 0.55927,3.802983 1.67779,7.941523 2.68446,11.408948 1.00667,3.467426 3.16562,11.76307 4.02669,15.211935 0.8775,3.51469 0.22858,13.08917 -0.2237,12.86303 2.53469,-3.22516 4.7069,-3.22394 9.28375,-3.13187 -4.7893,0.5942 -6.95804,0.62722 -8.6438,-2.82666 m 28.66538,-24.241631 c 1.11853,-1.230377 3.02002,-2.237049 4.6978,-2.237049 M 156.92896,62.0781 c 0.89482,-0.671114 1.56594,-1.006672 2.46076,-1.118524 M 142.2763,35.457221 c 0,2.908163 0.67111,7.82967 1.34222,10.290424 0.67112,2.460753 2.23705,8.836342 2.68446,10.849686 0.44741,2.013344 1.90149,7.941523 2.90817,9.843014 1.00667,1.901492 1.67778,5.704475 1.78963,6.263737 0.11186,0.559262 0.89482,2.125195 1.45408,3.131867 0.55927,1.006672 1.23038,4.697803 1.67779,7.158556 0.44741,2.460754 2.90817,11.185244 3.46743,13.869702 0.55926,2.684459 1.90149,11.856353 1.90149,13.198583 0,1.34223 -2.46075,1.56594 -2.46075,1.56594 3.66948,-0.45103 6.88684,1.35856 10.29042,2.23705 -3.00777,-1.02893 -6.25097,-1.91661 -7.82967,-3.80299 m 26.7966,5.88858 c -0.17572,-5.21746 -1.51795,-12.59972 -3.755,-20.205687 -2.23705,-7.605966 -3.69113,-11.185244 -3.80298,-12.41562 -0.11185,-1.230377 -0.67112,-4.697803 -2.23705,-7.605966 -1.56593,-2.908163 -1.74666,-7.255684 -3.02002,-10.737833 -0.8909,-2.436282 -1.99144,-3.285517 -2.5726,-5.145212 -1.11852,-3.579281 -3.35557,-8.72449 -4.4741,-10.402277 -1.11852,-1.677786 -3.91483,-8.612637 -4.6978,-10.290424 -0.78297,-1.677786 -1.56594,-5.145212 -7.60597,-8.27708 -6.04003,-3.131868 -9.06004,0.223705 -9.73116,1.230377 -0.67111,1.006672 -2.12519,3.355573 -2.12519,3.355573 m 50.5573,231.981949 c -2.23705,-7.82967 -4.13854,-15.21193 -6.15189,-22.70605 -2.01334,-7.49411 -2.12519,-12.63932 -2.79631,-14.98822 -0.67111,-2.3489 -0.44741,-5.48077 0.55926,-7.49412 1.00667,-2.01334 3.91484,-11.52079 4.2504,-14.20525 0.33555,-2.68446 1.23038,-11.63266 1.23038,-14.54082 0,-2.90817 -0.33557,-8.05338 -0.33557,-9.61931 0,-1.56593 2.01335,-13.98155 2.79632,-19.46232 0.78296,-5.48077 1.00667,-9.95487 1.23038,-14.31711 0.2237,-4.36225 0.2237,-14.87638 -0.44742,-18.45566 -0.67111,-3.57927 -4.69381,-13.642 -6.26374,-15.21193 -1.17609,-1.17609 -3.80298,-1.78964 -3.80298,-1.78964" style="fill:none;stroke:#000000;stroke-width:1.79999995;stroke-linecap:round;stroke-miterlimit:4;stroke-opacity:1;stroke-dasharray:none;display:inline" />
	<!-- 
	Generated using the Perl SVG Module V2.50
	by Ronan Oger
	Info: http://www.roitsystems.com/
 -->
</svg>