<?xml version="1.0" encoding="UTF-8" standalone="no"?><!DOCTYPE svg PUBLIC "-//W3C//DTD SVG 1.1//EN" "http://www.w3.org/Graphics/SVG/1.1/DTD/svg11.dtd"><svg width="100%" height="100%" viewBox="0 0 285 285" version="1.1" xmlns="http://www.w3.org/2000/svg" xmlns:xlink="http://www.w3.org/1999/xlink" xml:space="preserve" xmlns:serif="http://www.serif.com/" style="fill-rule:evenodd;clip-rule:evenodd;stroke-linecap:round;"><path d="M93.778,113.549c1.352,-0.457 2.772,-0.741 3.198,-1.025c0.671,-0.448 1.007,-4.81 1.007,-10.738c-0,-5.928 -1.454,-11.074 -2.014,-19.463c-0.559,-8.389 0,-14.317 -0.223,-16.554c-0.224,-2.237 -1.678,-10.849 -2.014,-13.981c-0.335,-3.132 -0.783,-9.955 -0.783,-9.955c0,-0 -1.566,-9.843 -2.125,-12.975c-0.559,-3.132 -1.118,-8.165 -0.224,-12.304c0.895,-4.138 4.363,-5.704 9.843,-4.809c5.481,0.894 7.383,6.263 8.613,8.388c1.23,2.126 5.257,22.706 6.823,26.621c1.566,3.915 3.02,21.923 3.356,24.384c0.335,2.461 2.125,16.331 2.796,18.68c0.671,2.348 2.573,13.422 3.949,14.244c0.065,-0.015 0.128,-0.028 0.19,-0.039c1.23,-0.224 3.691,-1.79 4.138,-2.349c0.447,-0.559 0.783,-2.237 1.23,-10.85c0.448,-8.612 1.902,-14.429 2.349,-17.225c0.448,-2.796 0.895,-9.619 1.007,-14.429c0.112,-4.81 1.23,-13.758 1.23,-13.758c0,0 -0.894,-15.883 -0.783,-17.449c0.112,-1.566 0.112,-9.731 3.915,-11.185c3.803,-1.454 6.935,0.671 10.291,4.138c3.355,3.468 5.257,11.186 5.816,15.1c0.559,3.915 0.336,11.969 0.447,12.864c0.112,0.894 1.566,10.032 1.566,14.652c0,4.81 -1.23,10.402 -1.118,10.85c-0,2.237 -0.448,5.145 -0.112,6.04c0.336,0.895 1.119,9.507 1.23,11.856c0.112,2.349 -0.447,6.264 -0.559,7.83c-0.112,1.566 0.783,4.138 0.306,12.364c1.368,3.189 3.57,13.145 4.504,17.501c1.006,4.697 0.895,5.368 5.688,12.271c2.736,1.832 5.879,4.141 7.063,5.178c1.79,1.565 6.376,5.368 11.135,8.579c0.682,-0.139 1.124,-0.237 1.124,-0.237c3.248,-2.018 4.609,-2.925 7.928,-3.322c0,0 5.853,-5.061 7.593,-6.169c1.74,-1.107 3.48,-3.163 3.48,-3.163c0,-0 2.763,-4.246 4.989,-5.49c0.883,-2.587 4.074,-6.328 6.447,-7.91c2.372,-1.581 10.077,-4.001 17.195,-4.001c8.685,0 14.395,3.639 14.395,3.639c3.428,1.118 10.054,7.981 5.536,12.338c-2.036,1.964 -13.832,2.759 -16.134,5.062c-1.366,1.365 -4.02,4.205 -4.02,4.205c-0.739,1.68 -1.253,2.395 -1.991,2.913c-0.276,1.002 -0.781,2.004 -2.531,3.006c-0,-0 -1.74,2.531 -4.587,6.327c-2.848,3.796 -2.913,7.137 -3.071,9.036c-0.281,3.37 -3.89,4.884 -3.89,8.522c0,3.638 -7.33,9.295 -9.07,10.877c-1.74,1.581 -5.008,4.942 -8.013,6.84c-3.006,1.898 -7.435,7.276 -8.859,9.174c-1.423,1.899 -6.643,7.751 -8.383,9.65c-1.74,1.898 -5.537,5.378 -7.277,8.067c-0.238,0.369 -0.447,0.8 -0.629,1.278c-1.142,3.001 -1.204,7.813 -0.794,10.269c0.474,2.848 4.112,9.649 5.062,11.231c0.949,1.582 0.79,2.689 2.372,5.537c1.558,2.804 5.112,12.67 7.335,18.558l-76.4,2.34c-1.459,-2.828 -4.806,-10.882 -5.36,-12.198c-0.633,-1.503 -2.135,-6.328 -2.689,-7.83c-0.554,-1.503 -2.689,-6.565 -3.48,-7.751c-0.791,-1.187 -1.582,-2.927 -2.709,-6.621c-2.02,-1.758 -3.881,-4.692 -5.126,-6.518c-1.678,-2.461 -2.349,-3.356 -2.349,-3.356l-3.355,-6.264l-4.251,-8.389c0,0 -2.237,-3.802 -3.355,-6.711c-1.119,-2.908 -3.58,-10.626 -5.257,-15.771c-1.678,-5.145 -3.803,-11.968 -4.698,-15.435c-0.895,-3.468 -1.566,-5.258 -1.566,-5.258l-2.573,-7.046c0,-0 -0.559,-2.014 -1.454,-6.488c-0.895,-4.474 -1.118,-10.849 -1.23,-14.205c-0.112,-3.356 -1.678,-7.718 -2.237,-11.968c-0.56,-4.251 -0.336,-5.816 0.112,-10.402c0.413,-4.235 2.281,-6.276 4.656,-9.118c-2.065,-2.408 -6.67,-11.351 -7.9,-13.477c-1.231,-2.125 -3.02,-5.704 -3.468,-8.165c-0.447,-2.461 -2.684,-7.047 -3.803,-9.06c-1.118,-2.013 -2.237,-4.586 -3.579,-7.047c-1.342,-2.46 -3.803,-6.151 -4.586,-7.606c-0.783,-1.454 -3.915,-6.599 -6.935,-10.178c-3.02,-3.579 -4.697,-9.172 -5.704,-12.975c-1.007,-3.803 0.895,-7.494 1.566,-8.613c0.671,-1.118 5.928,-4.138 9.843,-2.013c3.915,2.125 8.389,7.942 11.744,12.416c3.356,4.474 4.661,8.624 5.481,9.507c0.954,1.027 3.579,4.586 6.04,8.277c2.558,3.837 3.579,6.152 4.922,8.277c1.342,2.125 3.579,8.054 4.809,9.396c1.231,1.342 1.902,2.796 2.685,3.579c0.783,0.783 4.026,6.376 6.04,9.06c2.013,2.685 4.474,7.718 5.816,10.067c1.342,2.349 1.902,5.033 4.408,8.855Z" style="fill:#fff;"/><path d="M148.771,74.695c-2.926,0.079 -2.926,-0.316 -3.638,-1.028c-0.712,-0.712 -0.733,-1.628 -2.61,-1.977m-43.441,168.488c1.127,3.694 1.918,5.434 2.709,6.621c0.791,1.186 2.926,6.248 3.48,7.751c0.554,1.502 2.056,6.327 2.689,7.83c0.633,1.503 4.904,11.784 5.853,13.05m50.144,-46.743c3.796,0.395 11.788,-2.044 11.788,-2.044m-84.921,-92.644c1.231,0 2.237,-0.447 2.685,-0.895m-22.93,15.212c2.908,-2.237 5.478,-3.941 10.904,-4.878m-13.253,-11.9c2.125,7.942 11.572,8.229 11.572,8.229m53.75,96.689c1.566,-1.678 2.013,-2.908 3.132,-3.132c1.118,-0.224 2.237,-0.783 2.796,-1.23m-60.4,-97.536c-0,8.401 4.921,11.633 4.921,11.633c1.305,2.112 2.61,2.955 3.915,3.915c0,-0 2.573,5.704 8.613,5.481c6.04,-0.224 9.395,-2.237 10.178,-6.376c0.783,-4.138 -6.04,-15.435 -6.04,-15.435c-1.678,-2.859 -3.244,-6.552 -4.921,-8.054c-0.969,-1.106 -1.746,-2.185 -3.58,-3.579c-2.812,-3.574 -5.95,-6.527 -9.06,-8.613c-3.399,-2.768 -11.885,-6.165 -16.106,-1.006c-2.656,3.244 -4.81,5.257 -5.257,9.843c-0.448,4.586 -0.672,6.151 -0.112,10.402c0.559,4.25 2.125,8.612 2.237,11.968c0.112,3.356 0.335,9.731 1.23,14.205c0.895,4.474 1.454,6.488 1.454,6.488l2.573,7.046c-0,0 0.671,1.79 1.566,5.258c0.895,3.467 3.02,10.29 4.698,15.435c1.677,5.145 4.138,12.863 5.257,15.771c1.118,2.909 3.355,6.711 3.355,6.711l4.251,8.389l3.355,6.264c0,0 0.671,0.895 2.349,3.356c1.678,2.46 4.474,6.935 7.27,7.829c2.797,0.895 9.732,1.119 11.633,0.783c4.745,-0.712 7.902,-1.847 11.074,-5.033m-58.947,-145.296c1.342,-1.119 3.244,-2.349 4.474,-2.573m-19.798,-24.496c2.238,-0.783 4.586,-2.125 5.146,-2.684m38.97,51.359c-2.506,-3.822 -3.066,-6.506 -4.408,-8.855c-1.342,-2.349 -3.803,-7.382 -5.816,-10.067c-2.014,-2.684 -5.257,-8.277 -6.04,-9.06c-0.783,-0.783 -1.454,-2.237 -2.685,-3.579c-1.23,-1.342 -3.467,-7.271 -4.809,-9.396c-1.343,-2.125 -2.364,-4.44 -4.922,-8.277c-2.461,-3.691 -5.086,-7.25 -6.04,-8.277c-0.82,-0.883 -2.125,-5.033 -5.481,-9.507c-3.355,-4.474 -7.829,-10.291 -11.744,-12.416c-3.915,-2.125 -9.172,0.895 -9.843,2.013c-0.671,1.119 -2.573,4.81 -1.566,8.613c1.007,3.803 2.684,9.396 5.704,12.975c3.02,3.579 6.152,8.724 6.935,10.178c0.783,1.455 3.244,5.146 4.586,7.606c1.342,2.461 2.461,5.034 3.579,7.047c1.119,2.013 3.356,6.599 3.803,9.06c0.448,2.461 2.237,6.04 3.468,8.165c1.23,2.126 5.835,11.069 7.9,13.477m39.637,-45.802c1.902,0 3.132,-0.224 3.803,-0.112m-8.165,-26.733c1.566,0.336 3.355,0.224 4.474,0m19.832,63.46c-1.376,-0.822 -3.278,-11.896 -3.949,-14.244c-0.671,-2.349 -2.461,-16.219 -2.796,-18.68c-0.336,-2.461 -1.79,-20.469 -3.356,-24.384c-1.566,-3.915 -5.592,-24.495 -6.823,-26.621c-1.23,-2.125 -3.132,-7.494 -8.613,-8.388c-5.48,-0.895 -8.948,0.671 -9.843,4.809c-0.894,4.139 -0.335,9.172 0.224,12.304c0.559,3.132 2.125,12.975 2.125,12.975c0,-0 0.448,6.823 0.783,9.955c0.336,3.132 1.79,11.744 2.014,13.981c0.223,2.237 -0.336,8.165 0.223,16.554c0.56,8.389 2.014,13.535 2.014,19.463c-0,5.928 -0.336,10.29 -1.007,10.738c-0.671,0.447 -3.803,0.894 -5.257,2.013m49.662,-68.678c2.573,0 5.034,0.224 6.152,1.119m-32.437,59.17c-1.151,1.256 -3.355,1.678 -6.264,1.566m48.291,4.758c0.477,-8.226 -0.418,-10.798 -0.306,-12.364c0.112,-1.566 0.671,-5.481 0.559,-7.83c-0.111,-2.349 -0.894,-10.961 -1.23,-11.856c-0.336,-0.895 0.112,-3.803 0.112,-6.04c-0.112,-0.448 1.118,-6.04 1.118,-10.85c0,-4.62 -1.454,-13.758 -1.566,-14.652c-0.111,-0.895 0.112,-8.949 -0.447,-12.864c-0.559,-3.914 -2.461,-11.632 -5.816,-15.1c-3.356,-3.467 -6.488,-5.592 -10.291,-4.138c-3.803,1.454 -3.803,9.619 -3.915,11.185c-0.111,1.566 0.783,17.449 0.783,17.449c0,0 -1.118,8.948 -1.23,13.758c-0.112,4.81 -0.559,11.633 -1.007,14.429c-0.447,2.796 -1.901,8.613 -2.349,17.225c-0.447,8.613 -0.783,10.291 -1.23,10.85c-0.447,0.559 -2.908,2.125 -4.138,2.349c-1.231,0.223 -3.356,1.23 -4.139,1.342m-32.885,56.821l-9.507,4.586c5.257,-2.461 11.968,-5.257 11.968,-5.257c0,-0 3.468,-1.678 4.474,-2.573c1.007,-0.895 4.362,-2.572 5.593,-3.02c1.23,-0.447 4.586,-2.908 5.592,-4.586c1.007,-1.677 2.797,-2.349 3.915,-3.467c1.119,-1.119 3.468,-4.139 4.027,-4.698c0.559,-0.559 2.573,-3.132 2.908,-4.921m0,24.831c1.902,-2.461 2.685,-3.803 3.02,-5.034c0.336,-1.23 2.349,-2.796 3.356,-3.691c1.006,-0.894 0.895,-2.908 2.013,-4.026c1.119,-1.119 3.02,-4.586 4.25,-5.034c1.231,-0.447 2.573,-3.467 3.244,-3.579m33.316,0.527c-4.793,-6.903 -4.682,-7.574 -5.688,-12.271c-1.007,-4.698 -3.489,-15.91 -4.81,-18.121c-1.566,-2.62 -4.823,-4.509 -7.606,-4.474c-0.439,-1.388 -1.917,-2.184 -3.244,-2.684m39.546,51.307c-4.759,-3.211 -9.345,-7.014 -11.135,-8.579c-1.79,-1.566 -8.053,-6.041 -10.626,-7.383c-2.573,-1.342 -6.711,-3.243 -11.968,-2.796m38.036,135.261c-2.215,-5.853 -5.853,-15.977 -7.435,-18.824c-1.582,-2.848 -1.423,-3.955 -2.372,-5.537c-0.95,-1.582 -4.588,-8.383 -5.062,-11.231c-0.475,-2.847 -0.317,-8.858 1.423,-11.547c1.74,-2.689 5.537,-6.169 7.277,-8.067c1.74,-1.899 6.96,-7.751 8.383,-9.65c1.424,-1.898 5.853,-7.276 8.859,-9.174c3.005,-1.898 6.273,-5.259 8.013,-6.84c1.74,-1.582 9.07,-7.239 9.07,-10.877c0,-3.638 3.609,-5.152 3.89,-8.522c0.158,-1.899 0.223,-5.24 3.071,-9.036c2.847,-3.796 4.587,-6.327 4.587,-6.327c1.75,-1.002 2.255,-2.004 2.531,-3.006c0.738,-0.518 1.252,-1.233 1.991,-2.913c-0,0 2.654,-2.84 4.02,-4.205c2.302,-2.303 14.098,-3.098 16.134,-5.062c4.518,-4.357 -2.108,-11.22 -5.536,-12.338c0,-0 -5.71,-3.639 -14.395,-3.639c-7.118,0 -14.823,2.42 -17.195,4.001c-2.373,1.582 -5.564,5.323 -6.447,7.91c-2.226,1.244 -4.989,5.49 -4.989,5.49c0,-0 -1.74,2.056 -3.48,3.163c-1.74,1.108 -7.593,6.169 -7.593,6.169c-3.319,0.397 -4.68,1.304 -7.928,3.322c0,0 -5.209,1.154 -7.481,1.154c-2.048,-0 -4.287,-1.154 -7.527,-1.154c-2.681,0 -5.378,0.317 -5.378,0.317" style="fill:none;fill-rule:nonzero;stroke:#000;stroke-width:1.8px;"/><path d="M198.373,271.973l-90.638,2.776" style="fill:none;"/></svg>