<?xml version="1.0" encoding="UTF-8" standalone="yes"?>
<!DOCTYPE svg PUBLIC "-//W3C//DTD SVG 1.0//EN" "http://www.w3.org/TR/2001/REC-SVG-20010904/DTD/svg10.dtd">
<svg height="285" style="background-color:white" width="285" xmlns="http://www.w3.org/2000/svg" xmlns:svg="http://www.w3.org/2000/svg" xmlns:xlink="http://www.w3.org/1999/xlink">
	<path d="m 148.77133,74.695398 c -2.92639,0.07909 -2.92639,-0.316367 -3.63822,-1.028191 -0.71182,-0.711825 -0.73334,-1.628164 -2.61002,-1.97729 M 99.081551,240.17831 c 1.127529,3.69405 1.918439,5.43407 2.709359,6.62044 0.79091,1.18637 2.92639,6.24824 3.48003,7.75098 0.55364,1.50274 2.05638,6.32733 2.68911,7.83007 0.63274,1.50274 4.90368,11.78465 5.85278,13.05011 m 50.14409,-46.74314 c 3.79639,0.39546 11.78797,-2.04392 11.78797,-2.04392 M 90.824176,133.99921 c 1.230377,0 2.237049,-0.4474 2.684458,-0.89481 m -22.929749,15.21193 c 2.908164,-2.23705 5.477726,-3.94113 10.904091,-4.87873 M 68.229984,131.53846 c 2.125196,7.94152 11.571841,8.22828 11.571841,8.22828 m 53.749985,96.6893 c 1.56593,-1.67778 2.01334,-2.90816 3.13186,-3.13187 1.11853,-0.2237 2.23705,-0.78296 2.79631,-1.23037 M 79.07967,134.55848 c 0,8.40085 4.921507,11.63265 4.921507,11.63265 1.304945,2.11219 2.609891,2.95451 3.914836,3.91484 0,0 2.572606,5.70447 8.612637,5.48076 6.04003,-0.2237 9.3956,-2.23704 10.17857,-6.37558 0.78297,-4.13854 -6.04003,-15.43564 -6.04003,-15.43564 -1.677786,-2.85838 -3.24372,-6.55197 -4.921507,-8.05337 -0.968317,-1.10574 -1.745946,-2.1852 -3.579278,-3.57928 -2.812406,-3.57337 -5.950071,-6.52712 -9.060047,-8.61264 -3.399547,-2.76841 -11.884998,-6.1649 -16.10675,-1.00667 -2.655432,3.24447 -4.809655,5.25706 -5.257065,9.84301 -0.447409,4.58595 -0.671114,6.15189 -0.111852,10.40228 0.559262,4.25039 2.125196,8.61264 2.237048,11.96821 0.111853,3.35557 0.335558,9.73116 1.230377,14.20526 0.89482,4.47409 1.454082,6.48744 1.454082,6.48744 l 2.572606,7.0467 c 0,0 0.671114,1.78964 1.565934,5.25707 0.894819,3.46742 3.020016,10.29042 4.697802,15.43563 1.677787,5.14521 4.13854,12.86303 5.257064,15.7712 1.118525,2.90816 3.355573,6.71114 3.355573,6.71114 l 4.250393,8.38893 3.355573,6.26374 c 0,0 0.671115,0.89482 2.348901,3.35557 1.677787,2.46076 4.474097,6.93485 7.270406,7.82967 2.79631,0.89482 9.73116,1.11853 11.63265,0.78297 4.74522,-0.71187 7.90159,-1.84733 11.0734,-5.03336 M 64.986264,91.9427 c 1.342229,-1.118524 3.24372,-2.348901 4.474097,-2.572606 M 49.66248,64.874411 c 2.237049,-0.782967 4.58595,-2.125196 5.145212,-2.684458 m 38.970097,51.358677 c -2.506203,-3.82139 -3.065466,-6.50585 -4.407695,-8.85475 -1.342229,-2.3489 -3.802982,-7.382263 -5.816326,-10.066722 -2.013344,-2.684458 -5.257065,-8.27708 -6.040032,-9.060047 -0.782967,-0.782967 -1.454081,-2.237048 -2.684458,-3.579278 -1.230377,-1.342229 -3.467425,-7.270408 -4.809655,-9.395604 -1.342229,-2.125196 -2.363344,-4.439835 -4.921507,-8.27708 -2.460753,-3.69113 -5.08616,-7.250164 -6.040032,-8.27708 -0.819871,-0.882656 -2.125195,-5.03336 -5.480768,-9.507457 -3.355573,-4.474097 -7.829671,-10.290424 -11.744506,-12.41562 -3.914835,-2.125196 -9.171899,0.894819 -9.843014,2.013344 -0.671115,1.118524 -2.572606,4.809654 -1.565934,8.612637 1.006672,3.802983 2.684458,9.395604 5.704474,12.974882 3.020016,3.579278 6.151884,8.72449 6.934851,10.178572 0.782967,1.454081 3.24372,5.145212 4.58595,7.605965 1.342229,2.460754 2.460753,5.03336 3.579277,7.046704 1.118525,2.013343 3.355573,6.599293 3.802983,9.060047 0.44741,2.460753 2.237049,6.040031 3.467426,8.165227 1.230376,2.1252 5.835251,11.06859 7.899948,13.47677 M 106.03611,67.447017 c 1.90149,0 3.13186,-0.223705 3.80298,-0.111852 m -8.16523,-26.732732 c 1.56594,0.335557 3.35557,0.223705 4.4741,0 m 19.832,63.459227 c -1.37635,-0.82186 -3.27784,-11.895255 -3.94896,-14.244156 -0.67111,-2.348901 -2.46075,-16.218603 -2.79631,-18.679357 -0.33555,-2.460753 -1.78963,-20.468995 -3.35557,-24.38383 -1.56593,-3.914835 -5.59262,-24.495683 -6.823,-26.620879 -1.23037,-2.125197 -3.13187,-7.494113 -8.61263,-8.388933 -5.480774,-0.894819 -8.948199,0.671115 -9.843019,4.809655 -0.894819,4.13854 -0.335557,9.171899 0.223705,12.303768 0.559262,3.131868 2.125196,12.974882 2.125196,12.974882 0,0 0.44741,6.822998 0.782967,9.954866 0.335557,3.131868 1.789639,11.744506 2.013344,13.981555 0.223705,2.237048 -0.335557,8.165227 0.223705,16.55416 0.559262,8.388932 2.013344,13.534144 2.013344,19.462319 0,5.92818 -0.335558,10.29043 -1.006672,10.73784 -0.671115,0.44741 -3.802983,0.89482 -5.257065,2.01334 M 141.38148,45.859497 c 2.5726,0 5.03336,0.223705 6.15188,1.118525 m -32.43721,59.169938 c -1.15139,1.25639 -3.35557,1.67779 -6.26373,1.56593 m 48.2906,4.75853 c 0.47706,-8.22595 -0.41777,-10.79855 -0.30591,-12.36449 0.11185,-1.565937 0.67111,-5.480772 0.55926,-7.829673 -0.11185,-2.348901 -0.89482,-10.961538 -1.23037,-11.856358 -0.33556,-0.894819 0.11185,-3.802982 0.11185,-6.040031 -0.11185,-0.44741 1.11852,-6.040032 1.11852,-10.849686 0,-4.619925 -1.45408,-13.757849 -1.56593,-14.652669 -0.11185,-0.894819 0.11185,-8.948195 -0.44741,-12.86303 -0.55926,-3.914835 -2.46075,-11.632653 -5.81633,-15.100078 -3.35557,-3.467426 -6.48744,-5.592622 -10.29042,-4.13854 -3.80298,1.454081 -3.80298,9.619309 -3.91484,11.185243 -0.11185,1.565934 0.78297,17.44898 0.78297,17.44898 0,0 -1.11852,8.948194 -1.23038,13.757849 -0.11185,4.809655 -0.55926,11.632653 -1.00667,14.428964 -0.44741,2.796311 -1.90149,8.612637 -2.3489,17.225275 -0.44741,8.612637 -0.78297,10.290424 -1.23038,10.849684 -0.4474,0.55926 -2.90816,2.1252 -4.13854,2.3489 -1.23037,0.22371 -3.35557,1.23038 -4.13854,1.34223 m -32.884611,56.82104 -9.507456,4.58595 c 5.257064,-2.46076 11.96821,-5.25707 11.96821,-5.25707 0,0 3.467425,-1.67778 4.474097,-2.5726 1.006672,-0.89482 4.36225,-2.57261 5.59262,-3.02002 1.23038,-0.44741 4.58595,-2.90816 5.59262,-4.58595 1.00668,-1.67778 2.79631,-2.3489 3.91484,-3.46742 1.11852,-1.11853 3.46742,-4.13854 4.02669,-4.69781 0.55926,-0.55926 2.5726,-3.13186 2.90816,-4.9215 m 0,24.83124 c 1.90149,-2.46076 2.68446,-3.80299 3.02002,-5.03336 0.33555,-1.23038 2.3489,-2.79631 3.35557,-3.69113 1.00667,-0.89482 0.89482,-2.90817 2.01334,-4.02669 1.11853,-1.11852 3.02002,-4.58595 4.25039,-5.03336 1.23038,-0.44741 2.57261,-3.46742 3.24373,-3.57928 m 33.31591,0.5266 c -4.79354,-6.90219 -4.68169,-7.5733 -5.68836,-12.2711 -1.00668,-4.6978 -3.48902,-15.9095 -4.80966,-18.1201 -1.56564,-2.6207 -4.82281,-4.50951 -7.60596,-4.4741 -0.43884,-1.38808 -1.91739,-2.18386 -3.24372,-2.68445 m 39.54534,51.30698 c -4.75924,-3.21044 -9.34519,-7.01342 -11.13483,-8.57935 -1.78964,-1.56594 -8.05337,-6.04003 -10.62598,-7.38226 -2.57261,-1.34223 -6.71114,-3.24372 -11.96821,-2.79631 m 38.03612,135.26058 c -2.21456,-5.85277 -5.85278,-15.9765 -7.43461,-18.8238 -1.58183,-2.8473 -1.42365,-3.95458 -2.37275,-5.53641 -0.9491,-1.58183 -4.58731,-8.38371 -5.06186,-11.23101 -0.47455,-2.8473 -0.31637,-8.85826 1.42365,-11.54738 1.74002,-2.68911 5.53641,-6.16914 7.27643,-8.06734 1.74001,-1.8982 6.96006,-7.75098 8.38371,-9.64918 1.42365,-1.8982 5.85278,-7.27643 8.85826,-9.17463 3.00548,-1.89819 6.27305,-5.25842 8.01307,-6.84025 1.74001,-1.58183 9.07072,-7.23805 9.07072,-10.87627 0,-3.63821 3.60823,-5.15268 3.88906,-8.5227 0.15818,-1.8982 0.2237,-5.23924 3.071,-9.03564 2.8473,-3.79639 4.58731,-6.32732 4.58731,-6.32732 1.74992,-1.00183 2.25555,-2.00366 2.53094,-3.00549 0.73819,-0.51836 1.25267,-1.2327 1.99086,-2.91281 0,0 2.65477,-2.8401 4.0201,-4.20543 2.30245,-2.30245 14.09853,-3.09804 16.13469,-5.06186 4.51737,-4.35689 -2.10836,-11.21964 -5.53642,-12.3383 0,0 -5.71049,-3.63821 -14.39467,-3.63821 -7.11824,0 -14.82289,2.41908 -17.19564,4.00091 -2.37275,1.58184 -5.56414,5.32228 -6.44713,7.90916 -2.22521,1.24465 -4.98839,5.49008 -4.98839,5.49008 0,0 -1.74002,2.05639 -3.48003,3.16367 -1.74002,1.10728 -7.5928,6.16914 -7.5928,6.16914 -3.31949,0.39703 -4.68073,1.30317 -7.92835,3.32185 0,0 -5.2088,1.15362 -7.48094,1.15362 -2.04843,0 -4.28685,-1.15362 -7.52728,-1.15362 -2.68117,0 -5.37823,0.31637 -5.37823,0.31637" style="fill:none;stroke:#000000;stroke-width:1.79999995;stroke-linecap:round;stroke-miterlimit:4;stroke-opacity:1;stroke-dasharray:none;display:inline" />
	<!-- 
	Generated using the Perl SVG Module V2.50
	by Ronan Oger
	Info: http://www.roitsystems.com/
 -->
</svg>