<?xml version="1.0" encoding="UTF-8" standalone="yes"?>
<!DOCTYPE svg PUBLIC "-//W3C//DTD SVG 1.0//EN" "http://www.w3.org/TR/2001/REC-SVG-20010904/DTD/svg10.dtd">
<svg height="285" style="background-color:white" width="285" xmlns="http://www.w3.org/2000/svg" xmlns:svg="http://www.w3.org/2000/svg" xmlns:xlink="http://www.w3.org/1999/xlink">
	<path d="m 235.75525,230.46177 c -3.73876,-2.56372 -5.76837,-5.34108 -9.29348,-8.11844 -3.52511,-2.77736 -16.45053,-15.16867 -18.26649,-18.26649 -1.81597,-3.09783 -6.51612,-6.62294 -9.07984,-9.50712 -2.56372,-2.88419 -9.50712,-10.78899 -11.85719,-12.49813 -2.35008,-1.70915 -2.88419,-3.41829 -3.84558,-6.4093 -0.9614,-2.991 -4.16604,-6.9434 -4.80697,-19.3347 -0.64093,-12.39131 -3.41829,-21.68478 -4.05922,-32.26012 -0.64093,-10.57534 4.70015,-37.494382 5.02061,-42.08771 0.32047,-4.593328 -0.64093,-12.498126 -2.02961,-15.489131 -1.38868,-2.991004 -4.16604,-8.545727 -5.76836,-11.857196 -1.60233,-3.311469 -2.56372,-5.554723 -4.59333,-7.584333 -2.02961,-2.02961 -1.60233,-4.593328 -2.67054,-7.370689 -1.06822,-2.777362 -3.52511,-5.661545 -4.48651,-7.157047 -0.96139,-1.495502 -1.81597,-3.845577 -5.02061,-4.166042 -3.20465,-0.320465 -5.36044,2.916562 -5.72464,4.662929 m -12.11457,7.194267 c -1.4955,1.388681 -1.21416,3.157645 -1.46165,4.78347 m 34.78999,59.523132 c 1.06821,-9.934413 3.52511,-20.296107 4.05922,-24.889435 0.5341,-4.593328 0.34088,-12.902281 -0.74775,-15.168665 -1.05831,-2.203276 -5.76837,-8.973014 -11.00263,-14.100451 -5.23426,-5.127436 -6.30247,-7.477511 -7.69115,-9.507121 -1.38868,-2.02961 -2.67054,-2.563718 -4.48651,-6.088831 -1.81597,-3.525112 -8.86619,-6.516117 -13.67316,-7.584332 -4.80697,-1.068216 -6.08883,-2.456897 -11.53673,-3.845578 -5.44791,-1.38868 -12.60495,-3.204647 -13.88681,-2.777361 -1.28186,0.427286 -4.16604,1.709145 -4.27286,4.806972 -0.10683,3.097826 1.18959,5.643265 3.0105,7.928392 m 12.58545,22.195296 c 1.38868,1.815967 2.88418,4.913793 3.09782,8.118441 M 100.83958,43.203523 c 0.85457,2.243253 0.96139,2.456897 0.64093,4.806971 -0.32046,2.350075 -1.28186,3.845578 2.24325,7.157047 3.52512,3.311469 4.48651,5.234258 7.26387,5.982009 2.77736,0.747751 5.12744,1.068216 6.62294,2.456897 1.4955,1.38868 6.19565,4.166042 6.19565,4.166042 0,0 0.9614,17.411919 2.4569,22.21889 1.4955,4.806972 0.0274,4.450505 0.0671,6.711759 m 39.45689,7.602332 c -1.38868,-4.27286 -2.4569,-6.516115 -3.20465,-7.904796 -0.74775,-1.38868 -4.80697,-10.895802 -5.34108,-13.673163 -0.53411,-2.777361 -0.10682,-3.845577 -2.02961,-8.438906 -1.92279,-4.593328 -4.05922,-11.002623 -4.48651,-13.45952 -0.42728,-2.456896 -0.96139,-5.554722 -2.35007,-7.050225 -1.38868,-1.495502 -4.70015,-5.447901 -7.79798,-6.836581 -3.09782,-1.388681 -9.82758,-3.631934 -10.57534,-4.486507 -0.74775,-0.854573 -4.59332,-2.67054 -8.11844,-3.952399 -3.52511,-1.281859 -7.26386,-2.456897 -9.50712,-3.952399 -2.24325,-1.495502 -4.05922,-2.243253 -5.87519,-2.563718 -1.81596,-0.320465 -9.827582,0.854573 -11.109441,1.815967 -1.281859,0.961394 -7.157046,3.097826 -11.002623,3.952399 -3.845578,0.854573 -12.391305,1.602324 -11.857197,7.263868 0.534108,5.661544 5.020615,9.934408 8.545727,11.323088 3.525113,1.388681 8.973014,1.28186 13.459521,-0.534107 4.486506,-1.815967 6.088833,-1.175038 6.836583,-2.67054 m 70.07496,71.143179 c -1.17504,-3.52511 -2.991,-11.21627 -3.41829,-12.28448 m -33.05062,-8.05559 c -6.26934,-6.042744 -12.53869,-9.743923 -13.52063,-11.10354 -0.98195,-1.359617 -5.66507,-3.927782 -6.72255,-5.13633 -1.05748,-1.208548 -8.83751,-6.420413 -11.02801,-7.100221 -2.19049,-0.679809 -13.248328,2.261288 -15.106851,3.02137 -1.441303,0.589451 -7.175755,3.17244 -9.894989,3.474577 -2.719234,0.302137 -8.913044,2.870302 -9.819455,3.776714 -0.906411,0.906411 -3.625646,6.344878 -5.136331,7.931098 -1.510685,1.586222 -6.269344,7.780032 -7.553427,10.272662 -1.284082,2.49263 -5.287399,4.15438 -5.287399,7.9311 0,3.77671 2.178016,5.90783 4.48805,6.27742 m 91.213872,-10.28074 c -2.03943,-1.13301 -2.8703,-2.03942 -3.85225,-3.39904 m 12.38762,24.2465 c -0.52874,-4.00332 -0.37767,-5.2874 -1.20855,-7.7045 -0.83087,-2.41709 -2.71923,-7.02468 -3.39904,-8.45983 m -90.490055,7.17575 c 2.341562,0 12.626386,-5.28463 14.061538,-8.15493 1.435151,-2.8703 7.251289,-5.06079 4.834193,-8.8375 m -5.98633,-7.83899 c 0.747751,2.02961 0.854572,2.35007 2.243253,3.63193 1.388681,1.28186 5.020615,5.98201 5.875187,6.30248 0.854573,0.32046 4.166042,0.85457 6.72976,-0.32047 2.563719,-1.17504 5.894206,-3.6603 6.445572,-5.75262 m 15.239212,12.37556 c 0.21364,-0.64093 1.06821,-1.81597 1.4955,-2.02961 M 93.896177,96.187031 c 0.534108,2.991005 0.106822,4.166039 0.213643,6.516119 0.106822,2.35007 1.781773,7.29589 2.884183,8.4389 1.617441,1.67701 6.348807,6.81085 10.468517,7.47752 1.57425,4.81912 2.77133,6.93011 5.76836,9.18665 0.75095,0.96352 1.66639,2.03671 1.60233,2.4569 0,0 3.09782,4.05922 2.88418,5.76836 -0.21364,1.70915 -2.24325,5.02062 -4.48651,6.30248 -2.24325,1.28186 -5.02061,4.59333 -6.51611,5.34108 -1.4955,0.74775 -2.77736,1.81596 -4.48651,3.41829 -1.70914,1.60232 -5.127435,4.05922 -6.729759,4.27286 -1.602324,0.21364 -2.769422,1.97322 -5.322939,4.05541 M 52.022114,132.50637 c 0,2.88418 -0.961394,7.05023 -1.709145,7.37069 m 5.982009,15.91642 c -1.28186,0.21364 -4.272864,3.52511 -4.70015,4.16604 m 36.853448,23.82121 c -1.495502,0.9614 -2.243253,3.20465 -2.456897,4.05922 M 72.088821,147.11888 c 1.241675,-1.31082 0.601234,-5.90064 -0.145947,-6.43434 -0.747181,-0.53371 -6.19093,-7.36508 -6.19093,-7.36508 0,0 -1.494362,-7.95214 -10.353796,-10.03357 -8.859434,-2.08144 -11.154348,3.09546 -10.940868,5.44375 0.213481,2.34828 2.668505,8.53921 2.668505,11.63467 0,3.09547 1.231166,9.0455 -0.693649,14.46151 -1.179723,3.31948 1.227349,7.15338 2.134641,7.74045 0.907291,0.58707 2.294914,2.34828 2.721874,3.2022 0.426961,0.85393 2.188174,2.13481 3.842646,3.94939 1.654473,1.81458 10.033821,10.56728 11.901774,12.11501 1.867953,1.54773 11.816778,13.39159 14.195383,14.03576 5.125645,1.38811 10.621461,3.523 20.975256,9.7673 10.3538,6.2443 15.63744,8.16562 22.09522,11.36783 6.45778,3.2022 12.75545,5.39037 15.31721,8.27236 2.56177,2.88198 10.14032,10.67402 13.12904,13.60937 2.98873,2.93536 7.95214,6.67126 13.66274,12.32849 5.7106,5.65723 7.52519,5.60386 11.52794,9.8201 M 103.75144,154.18717 c -1.92132,1.6011 -5.785787,4.41779 -7.952139,4.85667 -2.266146,0.4591 -4.749937,1.12078 -7.311701,-0.26685 -2.561764,-1.38762 -13.78051,-10.76744 -14.943624,-11.31445 -1.390305,-0.65386 -3.008741,-0.20683 -2.988724,-0.10674" style="fill:none;stroke:#000000;stroke-width:1.79999995;stroke-linecap:round;stroke-miterlimit:4;stroke-opacity:1;stroke-dasharray:none;display:inline" />
	<!-- 
	Generated using the Perl SVG Module V2.50
	by Ronan Oger
	Info: http://www.roitsystems.com/
 -->
</svg>