<?xml version="1.0" encoding="UTF-8" standalone="yes"?>
<!DOCTYPE svg PUBLIC "-//W3C//DTD SVG 1.0//EN" "http://www.w3.org/TR/2001/REC-SVG-20010904/DTD/svg10.dtd">
<svg height="285" style="background-color:white" width="285" xmlns="http://www.w3.org/2000/svg" xmlns:svg="http://www.w3.org/2000/svg" xmlns:xlink="http://www.w3.org/1999/xlink">
	<path d="m 157.90668,33.715705 c -4.72452,-4.980698 -7.6087,-9.360383 -10.70653,-12.671852 -3.09783,-3.311469 -6.08883,-6.836582 -8.97301,-6.516117 -2.88419,0.320465 -7.56869,4.392528 -6.82876,8.552148 M 245.63745,188.76934 c -5.13633,-4.22992 -13.4451,-7.7045 -19.03464,-9.66839 -5.58954,-1.96389 -10.72587,-3.47457 -16.3154,-10.12159 -5.58954,-6.64701 -14.20044,-22.05601 -16.16434,-27.94768 -1.96389,-5.89167 -5.43846,-17.22181 -9.06411,-34.44363 -3.62564,-17.22181 -4.22992,-16.617536 -3.77671,-26.739128 0.4532,-10.121592 -0.60427,-22.358144 -1.96389,-24.775241 -1.35962,-2.417096 -8.98466,-10.220862 -14.08518,-13.4192 m -44.37835,-10.29856 c 0,0.906411 -0.90641,1.661754 -1.20855,4.07885 -0.30213,2.417097 -0.16474,3.869724 0.14424,5.636042 m 60.73639,60.683047 c -1.05748,-8.610906 -1.9639,-12.085483 -3.62565,-19.63891 -1.66175,-7.553427 -3.77671,-17.826087 -5.43847,-21.904938 -1.66175,-4.078851 -4.07885,-12.085483 -4.53205,-14.351511 -0.45321,-2.266028 -3.32351,-7.855564 -5.89168,-9.970524 -2.56816,-2.11496 -7.40235,-4.683125 -10.27266,-5.740605 -2.8703,-1.057479 -10.42373,-3.776713 -13.29403,-4.683124 -2.8703,-0.906412 -13.4451,-5.589536 -14.80472,-5.891673 -1.35961,-0.302137 -13.8983,-0.151069 -15.71112,-0.302137 -1.81283,-0.151069 -6.34488,0.906411 -9.819459,0.302137 -3.474576,-0.604275 -12.749428,-1.410604 -14.653648,0.604274 -2.43127,2.572555 -2.568165,12.085483 0.453206,14.50258 3.02137,2.417096 6.949152,3.625645 16.013265,3.927782 9.064116,0.302137 19.621306,0.874334 20.527716,-0.636351 m 66.03456,84.02618 c -2.56817,-6.04274 -5.74061,-16.16433 -6.79809,-18.12822 -1.05748,-1.96389 -4.53205,-6.949153 -5.89167,-8.761975 -1.35962,-1.812823 -6.19381,-6.19381 -8.00663,-8.006633 m -5.74061,-8.157701 c -2.26603,-3.021371 -5.2874,-7.855564 -6.49594,-9.970524 -1.20855,-2.114959 -4.38099,-7.25129 -6.19381,-9.970523 -1.81283,-2.719234 -5.89168,-9.517318 -8.00664,-11.330141 -2.11496,-1.812822 -6.34488,-5.13633 -8.91304,-5.891673 -2.56817,-0.755343 -13.14296,-0.755343 -14.65365,-0.755343 -1.51068,0 -6.49595,-1.812822 -11.028,-1.963891 -4.532059,-0.151068 -13.294034,0.604275 -14.200446,0.453206 -0.906411,-0.151069 -8.610906,-0.906411 -11.179072,0.151069 -2.568165,1.057479 -13.747237,8.006632 -15.711128,8.459838 -1.963891,0.453205 -13.898305,4.07885 -15.408991,5.438467 -1.510685,1.359617 -1.208548,5.891673 0.604274,7.855564 1.812823,1.963891 8.30877,6.495948 14.653649,6.344879 6.344878,-0.151069 18.426883,-6.629349 19.520908,-8.41838 M 77.498161,47.671323 c 0.302137,1.05748 0.604274,2.719234 0.604274,2.719234 m 1.359617,3.172439 c 1.510686,3.021371 0.604274,4.532056 3.17244,6.19381 2.568165,1.661754 8.157701,3.474577 10.574797,4.22992 2.417097,0.755342 13.167491,3.155982 17.611751,3.013142 m 9.73166,4.691353 c 0.60427,2.568165 1.81282,7.553427 3.92778,10.876935 M 107.40973,60.210012 c 1.20855,3.927782 3.17244,4.532056 3.17244,5.589536 0,1.05748 2.11496,7.25129 3.77672,9.668387 1.66175,2.417096 4.68312,7.704495 5.7406,9.970523 1.05748,2.266028 3.12751,12.086053 4.80636,12.597014 m 47.91656,33.932098 c -1.35962,-4.07885 -2.8703,-7.25129 -4.38099,-9.81946 -1.51068,-2.56816 -3.47457,-8.45983 -5.7406,-10.42373 -2.26603,-1.96389 -6.34488,-4.53205 -8.1577,-5.7406 m -67.981517,24.29053 c 2.266699,1.39112 -1.526446,24.02456 -8.76952,25.32206 m 68.442267,-53.23824 c -8.00664,-1.05748 -16.16434,-2.719229 -20.54532,-4.078846 -4.38099,-1.359617 -14.80472,-4.683125 -17.37289,-5.287399 -2.56816,-0.604274 -5.58953,-3.474576 -11.028,-3.474576 -5.438467,0 -10.272661,3.776713 -11.179072,4.683125 -0.906411,0.906411 -12.689757,11.934416 -14.653648,14.351506 -1.963891,2.4171 -4.22992,6.19382 -5.438468,7.7045 -1.208548,1.51069 -2.417097,4.22992 -3.172439,6.19381 -0.755343,1.96389 0.568767,14.96735 0.813123,19.11595 m 8.553126,-15.33924 c 2.719234,-0.15106 3.17244,-1.05748 4.834194,0 1.661754,1.05748 6.798084,4.07885 9.215181,4.07885 2.417096,0 9.961669,-7.2442 9.140892,-8.39863 m -3.853494,-8.06784 c 1.510686,2.26603 1.510686,3.92779 2.719234,6.34488 1.208548,2.4171 3.927782,4.68313 6.495951,5.13633 2.56816,0.45321 11.48121,2.71924 14.04937,4.38099 2.56817,1.66175 5.89167,4.98526 7.7045,6.04274 1.81282,1.05748 7.9556,5.66362 12.43764,5.85318 m 2.06494,-7.21279 c -1.35962,4.38098 -1.51069,7.25129 -3.77672,10.42372 -2.26603,3.17244 -8.00663,8.45984 -12.08548,11.17908 -4.07885,2.71923 -11.17907,7.55342 -12.84083,9.36625 -1.66175,1.81282 -4.62317,4.66226 -5.25742,9.80902 M 54.479011,149.33658 c -0.534108,-2.67054 -1.57154,-6.20024 -4.05922,-5.98201 m 5.127435,9.4003 c -0.106821,1.28186 -0.534108,2.13643 -1.281859,2.99101 -0.747751,0.85457 -1.415061,2.2132 -2.777361,2.77736 m 6.195652,13.03223 c -1.495502,0.9614 -3.738755,2.99101 -4.486507,3.63194 m 11.086382,-32.7572 c -1.840534,-3.5575 -10.699968,-4.51816 -13.261732,-2.59684 -2.561764,1.92132 -3.522426,6.08419 -2.348284,12.59534 1.174142,6.51115 2.134803,7.47181 2.134803,13.34252 0,5.87071 -1.280882,7.15159 -1.174141,9.39314 0.10674,2.24154 4.376347,9.60661 8.432473,11.52793 4.056126,1.92133 7.898772,5.97745 9.926836,8.11226 2.028063,2.1348 7.898772,5.97745 9.286394,6.83137 1.387623,0.85392 13.556002,9.82009 19.426711,11.74142 5.870707,1.92132 12.702077,2.56176 21.348037,4.8033 8.64595,2.24155 18.03909,5.33701 28.39288,7.04486 10.3538,1.70784 15.37059,1.49436 22.20196,4.2696 6.83137,2.77525 18.25257,9.07292 20.60085,10.67402 2.34828,1.6011 9.92684,5.65723 15.1571,8.21899 5.23027,2.56177 18.78627,9.60662 22.41544,10.99424 3.62916,1.38762 14.19644,6.40441 18.14583,8.85943 M 81.193097,162.34506 c 0.569872,-1.59062 -2.098632,-6.28719 -4.660396,-7.67481 M 118.69507,168.333 c -4.05613,2.24154 -8.64596,5.23026 -10.78076,5.8707 -2.1348,0.64045 -7.04485,1.60111 -8.539213,0.64045 -1.494362,-0.96067 -6.190929,-4.58983 -6.83137,-5.97745 -0.640441,-1.38763 -7.578552,-7.79204 -17.932349,-6.93811 M 64.150842,141.96817 c 0.747181,2.98873 5.337008,11.10098 7.471811,12.16838 2.134804,1.0674 4.269607,0.64044 4.910048,0.5337" style="fill:none;stroke:#000000;stroke-width:1.79999995;stroke-linecap:round;stroke-miterlimit:4;stroke-opacity:1;stroke-dasharray:none;display:inline" />
	<!-- 
	Generated using the Perl SVG Module V2.50
	by Ronan Oger
	Info: http://www.roitsystems.com/
 -->
</svg>