<?xml version="1.0" encoding="UTF-8" standalone="yes"?>
<!DOCTYPE svg PUBLIC "-//W3C//DTD SVG 1.0//EN" "http://www.w3.org/TR/2001/REC-SVG-20010904/DTD/svg10.dtd">
<svg height="285" style="background-color:white" width="285" xmlns="http://www.w3.org/2000/svg" xmlns:svg="http://www.w3.org/2000/svg" xmlns:xlink="http://www.w3.org/1999/xlink">
	<path d="m 119.22877,129.90653 c -1.0674,1.70785 -2.1348,2.56177 -2.66851,2.77525 M 99.535934,121.22012 c 1.547006,2.38874 2.934626,3.02919 5.176176,4.31007 2.24154,1.28088 5.44374,4.2696 7.25833,5.65723 1.81458,1.38762 3.38939,3.24202 4.95027,4.98332 M 94.00743,94.787635 c -3.278287,-3.414301 -7.334413,-6.829987 -9.362476,-8.004128 -2.028063,-1.174142 -4.910048,-4.056127 -6.724631,-4.162867 -1.814583,-0.10674 -4.803307,2.348284 -5.123528,5.443749 -0.32022,3.095464 1.724743,8.917878 4.384797,12.357711 M 109.30193,85.182404 c 0.64044,-0.747182 1.38763,-2.668504 1.38763,-2.668504 M 86.273133,66.197897 c 1.040325,2.439781 2.214467,5.641986 3.175128,7.029608 0.960662,1.387622 3.522426,4.056127 4.910048,5.230268 1.387622,1.174142 4.696568,4.269607 5.657231,5.337009 0.96066,1.067401 3.62916,3.202205 4.58983,3.629166 0.96066,0.42696 2.98872,1.387622 3.52242,2.134803 0.5337,0.747181 0.97482,2.600411 1.98177,4.23556 M 64.784035,39.939381 c -0.526453,1.586294 -0.739934,5.64242 0.327468,8.310925 1.067402,2.668504 6.08419,10.140316 8.218993,11.634678 2.134803,1.494362 8.859434,5.870709 10.460537,6.29767 1.601102,0.426961 4.376346,-0.320221 5.123528,-0.747181 m 24.209579,9.33242 c 3.54286,0.06072 5.35745,-0.259506 6.42485,-1.220167 1.0674,-0.960662 3.2022,-3.522426 4.48309,-5.016788 M 85.498875,50.385109 c -1.280881,0.533701 -2.305112,1.695245 -5.208682,0.847623 m 10.652431,-7.358773 c -0.533701,1.174142 -0.640441,2.028063 -1.494363,3.095465 m 88.213779,46.225154 c -5.59689,-4.276268 -7.51821,-6.624552 -13.28218,-11.321119 -5.76397,-4.696568 -13.12904,-9.072915 -15.05036,-11.100978 -1.92133,-2.028063 -4.80331,-5.016788 -7.36508,-5.977449 -2.56176,-0.960662 -6.08419,-3.735906 -8.00551,-5.443749 -1.92132,-1.707843 -6.72463,-5.443748 -10.03357,-7.471812 -3.30895,-2.028063 -8.53922,-5.016788 -10.24706,-6.51115 -1.70784,-1.494362 -4.2696,-3.415686 -7.57855,-5.016788 -3.30895,-1.601103 -5.55049,-2.775244 -7.685294,-4.589827 -2.134804,-1.814583 -3.202205,-1.707843 -5.657229,-3.095465 -2.455024,-1.387622 -3.949387,-2.348284 -7.792033,-4.269607 -3.842646,-1.921323 -6.40441,-2.775244 -9.820095,-5.763969 -3.415686,-2.988725 -5.657229,-5.870709 -8.859434,-6.19093 -3.202205,-0.32022 -6.29767,2.561764 -7.578552,4.803308 -1.280882,2.241543 -1.921323,6.51115 -0.747181,9.286395 1.174142,2.775244 5.123528,7.898772 7.151591,9.713355 2.028063,1.814583 9.072914,7.898772 10.567277,8.859434 1.494362,0.960661 6.29767,2.775244 6.938111,3.095465 0.640441,0.32022 2.988724,3.202205 4.056126,4.483087 1.067402,1.280882 5.337009,5.443749 7.151591,6.831371 1.814583,1.387622 7.578552,5.230268 10.140312,6.938111 2.56177,1.707842 9.92684,4.483087 10.56728,5.016788 0.64044,0.5337 3.84265,4.910047 4.48309,5.977449 0.64044,1.067402 4.58983,5.763969 5.44375,6.724631 0.85392,0.960661 1.80627,4.134683 2.61098,5.536397 m 56.95003,17.946444 c -2.1348,0.96066 -5.01679,2.6685 -7.04485,3.52242 m -132.67803,12.4886 c 2.348284,-1.92132 7.578552,-2.6685 12.27512,-1.70784 4.696567,0.96066 7.847275,1.28139 9.072914,2.98872 1.676053,2.33477 1.387622,7.15159 0.10674,10.03358 M 47.142099,120.61654 c -2.844929,-0.10314 -6.367354,4.05973 -7.221276,5.66083 -0.853921,1.6011 -2.134803,7.25833 0,9.71335 2.134804,2.45503 10.780757,5.65723 13.769482,6.93812 2.988725,1.28088 13.129041,4.48308 15.904285,5.44374 2.775245,0.96067 8.859434,3.73591 10.567277,4.80331 1.707843,1.0674 7.365072,5.01679 11.100978,6.51115 3.735905,1.49436 8.752695,5.23027 9.606615,7.36507 0.85392,2.13481 3.41569,7.04485 5.33701,9.92684 1.92132,2.88198 3.94938,5.65723 6.19093,10.46054 2.24154,4.8033 2.1348,6.40441 6.72463,11.42119 4.58983,5.01679 6.61789,7.25834 9.17965,9.17966 2.56177,1.92132 6.61789,5.55049 10.46054,7.89877 3.84265,2.34828 6.72463,4.69657 11.63468,7.79203 4.91005,3.09547 14.17822,6.21581 17.39865,8.32574 3.09546,2.02806 5.337,8.32573 7.68529,11.31445 2.34828,2.98873 6.61789,10.03358 8.53921,12.91556 1.92132,2.88199 5.12353,6.19093 6.40441,8.219 M 82.40341,140.79403 c -0.32022,1.17414 -0.747181,2.56177 -1.067401,3.62917 m 71.515911,-23.80306 c -2.34828,1.70784 -4.91005,2.98872 -9.39313,3.84265 -4.48309,0.85392 -8.11226,3.7359 -9.39314,4.91004 -1.28088,1.17415 -7.17831,6.3096 -8.55257,7.74463 m 25.20404,-1.23348 c -5.01679,-0.10674 -9.49988,-0.21348 -13.556,0.5337 -4.05613,0.74719 -9.17966,1.17415 -13.98296,0.42697 -4.80331,-0.74719 -9.8201,-0.74719 -13.44927,-1.49437 -5.4332,-1.1186 -8.96617,-3.2022 -12.061635,-4.16286 -3.095465,-0.96067 -7.471812,-3.41569 -9.179655,-4.80331 -1.707843,-1.38762 -4.903352,-3.05137 -12.805472,-3.39364 m 70.018202,-10.8028 c -1.70784,1.92132 -2.6685,4.05612 -3.73591,5.44374 -1.0674,1.38763 -4.16286,3.20221 -4.91004,4.80331 -0.74718,1.60111 -0.41625,4.34164 -0.30951,4.87534 m -29.86832,-7.9128 c 4.02649,1.22288 9.04327,3.25094 12.24548,3.99812 3.2022,0.74719 16.54791,0.50981 17.61532,-0.0239 m -58.905412,-1.06999 c 2.543409,0.88041 6.599536,1.20063 9.801741,0.98715 3.202205,-0.21348 18.786271,-3.30894 19.319971,-3.94938 0.5337,-0.64044 1.38762,-6.29767 1.0674,-8.219 m 36.9321,-18.039084 c -5.33701,0.10674 -9.07291,1.174142 -12.59534,0.960662 -3.52243,-0.213481 -8.43247,-0.640441 -12.4886,-0.426961 -4.05613,0.21348 -6.30688,0.466222 -8.32573,0.32022 -2.46847,-0.178518 -5.87071,-0.853921 -7.6853,-0.853921 -1.81458,0 -9.28639,1.494363 -10.674012,1.921324 -1.387623,0.42696 -8.645954,3.629165 -11.314458,4.162866 -2.668505,0.533701 -9.499875,2.881984 -14.089703,3.522424 -4.269606,0.64044 -23.269357,1.38762 -24.550239,2.1348 -1.280882,0.74719 -3.656082,4.54891 -2.348284,9.2864 0.653533,2.36742 2.958502,5.59996 6.938112,6.72463 4.910047,1.38762 16.331246,2.24154 19.533451,2.56176 3.202205,0.32022 9.926835,-0.32022 10.460536,-1.0674 0.533701,-0.74718 1.067402,-3.52242 1.174142,-4.58982 M 247.79,242.12924 c -2.18883,-1.81144 -7.84958,-8.37792 -10.86865,-11.47246 -3.01906,-3.09455 -5.20789,-7.17029 -9.20815,-13.05747 -4.00027,-5.88718 -5.5098,-7.17029 -7.84958,-10.79317 -2.33978,-3.62288 -3.2455,-6.56647 -5.28337,-10.18935 -2.03787,-3.62288 -6.56647,-8.45339 -7.69862,-13.96319 -1.13215,-5.5098 -2.64169,-12.22723 -4.15122,-19.09561 -1.50953,-6.86838 -3.2455,-11.62341 -4.67956,-21.20895 -1.43405,-9.58554 -3.62288,-24.6054 -5.43432,-28.68114 -1.81144,-4.07574 -4.15122,-10.56674 -6.03813,-13.05747 -1.88692,-2.490733 -6.64195,-7.019334 -10.7177,-8.076008 -4.07574,-1.056674 -9.0572,-0.830244 -10.79316,-0.754767 -1.73597,0.07548 -9.05721,1.056674 -10.56674,1.132151" style="fill:none;stroke:#000000;stroke-width:1.79999995;stroke-linecap:round;stroke-miterlimit:4;stroke-opacity:1;stroke-dasharray:none;display:inline" />
	<!-- 
	Generated using the Perl SVG Module V2.50
	by Ronan Oger
	Info: http://www.roitsystems.com/
 -->
</svg>