<?xml version="1.0" encoding="UTF-8" standalone="yes"?>
<!DOCTYPE svg PUBLIC "-//W3C//DTD SVG 1.0//EN" "http://www.w3.org/TR/2001/REC-SVG-20010904/DTD/svg10.dtd">
<svg height="285" style="background-color:white" width="285" xmlns="http://www.w3.org/2000/svg" xmlns:svg="http://www.w3.org/2000/svg" xmlns:xlink="http://www.w3.org/1999/xlink">
	<path d="m 110.04911,136.84465 c 2.66851,0 3.14483,0.0619 5.62855,-0.87635 m -10.53859,13.47169 c 2.98872,-1.38763 4.37634,-2.34829 6.19093,-3.62917 1.81458,-1.28088 6.10923,-5.42277 7.5377,-8.90232 m 28.43373,3.35183 c -5.12352,1.0674 -11.20771,6.51115 -13.66274,8.64595 -2.45502,2.13481 -10.46053,9.17966 -12.06164,10.56728 -1.6011,1.38762 -7.15159,5.23027 -9.07291,6.08419 -1.92132,0.85392 -6.29767,1.81458 -9.49988,1.92132 m 67.03283,5.65723 c -0.21348,-2.34828 -5.15852,-17.03688 -8.07638,-20.9003 m -22.45131,3.92862 c -0.74718,-1.38763 -0.96066,-3.20221 -0.32022,-4.48309 m 27.112,73.01027 c -4.37634,-2.77524 -7.15159,-3.52242 -10.78075,-9.60661 -3.62917,-6.08419 -5.01679,-7.89877 -6.40441,-13.0223 -1.38763,-5.12353 -1.92133,-11.9549 -2.13481,-16.43799 -0.21348,-4.48308 0.10674,-11.4212 0.32022,-14.40992 0.21348,-2.98872 1.17415,-9.8201 2.13481,-13.12904 m 2.34828,66.07216 c -4.16287,-0.32022 -8.04772,0.72005 -10.3749,1.4808 m -9.69225,8.76626 c 3.09546,-2.88198 8.00551,-6.40441 9.39313,-8.32573 1.38763,-1.92133 3.30895,-6.40441 4.05613,-9.60662 m -33.62315,41.62867 c 0.42696,-2.77525 0.64044,-7.89878 0.64044,-10.78076 0,-2.88198 -0.72752,-13.28116 -2.44519,-17.04775 m 15.78771,-114.77636 c -4.16287,-0.64044 -12.59534,-1.28088 -14.30318,-0.85392 -1.70785,0.42696 -9.92684,3.52243 -11.314462,5.12353 -1.387622,1.6011 -2.348284,2.34828 -2.881984,3.94938 -0.533701,1.60111 -1.387623,4.37635 -1.707843,5.33701 -0.320221,0.96066 -1.280882,6.93811 -1.707843,9.07292 -0.42696,2.1348 -1.972534,9.63207 -2.348284,12.16838 -0.42696,2.88198 -1.174141,11.4212 -1.280882,16.01102 -0.101778,4.37647 0.426961,12.16838 1.707843,19.10649 1.280882,6.93811 3.308945,11.52794 3.949386,14.30318 0.640441,2.77525 3.095465,9.92684 4.803309,14.08971 1.70784,4.16286 5.65723,13.0223 7.15159,13.87622 1.49436,0.85392 4.16287,6.29767 5.87071,8.21899 m -4.58983,-102.79078 c 2.98873,1.70784 11.52794,5.01679 17.39865,4.80331 5.87071,-0.21348 10.3538,-0.32023 12.38186,-1.60111 1.75096,-1.10587 7.85952,-5.84354 6.57823,-12.89051 m -46.904084,-1.89649 c 0.403884,-5.34354 -0.448891,-18.40919 0.19155,-20.33051 0.640441,-1.921324 3.522424,-6.724632 4.910044,-7.471813 1.38763,-0.747181 10.56728,-2.455024 14.30319,-2.348284 3.7359,0.106741 10.99423,-0.21348 12.27512,0.426961 1.28088,0.640441 5.76396,4.269607 7.47181,5.97745 1.70784,1.707842 9.17965,9.286396 10.14031,10.780756 0.96067,1.49436 5.33701,4.37635 5.01679,5.76397 -0.32022,1.38762 -0.32022,2.88198 -1.38762,4.37635 -1.0674,1.49436 -4.16287,4.37634 -5.87071,4.69656 -1.70784,0.32022 -6.93811,0.21348 -11.31446,-1.28088 -4.37634,-1.49436 -10.42273,-3.96025 -11.06317,-6.94898 m 0.0693,-23.779568 c -0.6291,-3.312539 -0.21387,-8.124871 0.7468,-10.366415 0.96066,-2.241544 2.56176,-4.269607 3.41568,-5.230268 0.85392,-0.960662 6.38843,-5.17906 10.24714,-5.443586 2.26842,-0.155506 4.33602,1.403658 6.40433,2.348121 1.73841,0.793821 3.58462,1.509878 5.01678,2.775244 2.90131,2.56342 5.93643,8.91934 6.83138,9.393135 1.08849,0.576263 5.31354,6.598051 8.73066,11.792432 2.27941,3.464945 4.29164,5.861895 4.29164,7.527535 0,2.57065 -1.47992,6.13594 -4.48309,8.43248 -2.54358,1.94509 -7.91512,2.27951 -11.65102,1.31885 m 28.08901,27.50099 c 1.70784,-1.81458 2.77524,-4.05612 2.6685,-5.76397 m -24.87046,-7.15159 c 2.56177,2.13481 5.76397,3.73591 7.15159,3.73591 1.38762,0 5.55049,-1.17414 6.40441,-6.29767 m -15.05036,-4.37635 c 0.42696,-1.70784 1.28088,-3.7359 2.24154,-5.44375 m 9.8201,40.56127 c -2.98873,-1.38763 -7.47181,-4.58983 -8.43248,-5.55049 -0.96066,-0.96066 -5.01678,-5.12353 -6.83137,-8.32574 -1.81458,-3.2022 -3.94938,-7.25833 -4.8033,-10.56727 -0.85393,-3.30895 -1.60336,-7.92047 -1.06966,-10.26875 m 47.28815,138.14347 c -1.6011,-3.84265 -2.34828,-6.40441 -2.98873,-11.4212 -0.64044,-5.01679 -1.7961,-28.64913 -1.11153,-34.87205 M 163.37218,113.18033 c 1.49437,0.42696 5.91773,7.43981 9.76037,10.53527 2.76818,2.22993 9.17966,6.72464 10.8875,8.64596 1.70784,1.92132 3.52243,4.91005 4.37635,7.15159 0.85392,2.24154 5.33701,12.27512 5.76397,13.23578 0.42696,0.96066 2.02806,6.08419 2.1348,8.21899 0.10674,2.13481 0.32022,9.49988 0.32022,10.99424 0,1.49436 0.42696,4.91005 0.10674,8.64595 -0.32022,3.73591 -0.85392,4.58983 -0.85392,6.83138 0,2.24154 -0.42696,13.44926 -1.17414,16.54472 -1.9093,8.74192 -6.63403,15.82717 -12.38186,22.52218 M 161.49788,71.306182 c 4.58982,1.707842 7.98862,2.708387 13.556,0.32022 M 163.4192,41.632415 c 1.81458,1.280882 6.93811,2.988724 10.3538,0.5337 m 10.9101,90.987225 c 0.10674,-7.25833 -1.83719,-20.32523 -1.83719,-24.16788 0,-3.84264 -1.17414,-16.758205 -1.38762,-21.348033 -0.21348,-4.589827 -0.74718,-10.247056 -0.74718,-14.516662 0,-4.269607 -0.32022,-7.258332 -0.5337,-10.674017 -0.21349,-3.415686 -0.10674,-8.752694 0.10674,-11.527939 0.21348,-2.775244 0.42696,-19.746931 -0.64045,-25.083939 -1.0674,-5.337009 -5.8707,-14.196443 -13.12904,-13.982963 -7.25833,0.213481 -9.28639,5.550489 -10.14031,8.325734 -0.85392,2.775244 0,14.730143 0.10674,18.145828 0.10674,3.415686 0.32022,4.696568 0.10674,8.432474 -0.21348,3.735906 -0.74718,11.314458 -0.96066,14.516663 -0.21348,3.202205 -0.89252,14.549602 -0.67904,22.661855" style="fill:none;stroke:#000000;stroke-width:1.79999995;stroke-linecap:round;stroke-miterlimit:4;stroke-opacity:1;stroke-dasharray:none;display:inline" />
	<!-- 
	Generated using the Perl SVG Module V2.50
	by Ronan Oger
	Info: http://www.roitsystems.com/
 -->
</svg>