<svg width="44" height="44" xmlns="http://www.w3.org/2000/svg" xmlns:xlink="http://www.w3.org/1999/xlink" xml:space="preserve" overflow="hidden"><g><g><g><path d="M27.9474 23C27.5776 22.9053 27.3163 22.4127 27.3269 20.9238M29.3077 36.4607C27.48 34.5361 26.0965 32.2906 23.2091 31.1314M21.3082 29.4269C21.3082 29.4269 23.0958 30.9334 23.8662 31.8067 24.4694 32.4905 24.9338 33.2853 25.4652 34.0263 26.263 35.1384 27.0832 36.2351 27.8519 37.3676 28.4046 38.1819 29.4509 39.8497 29.4509 39.8497M10.7192 20.8008C10.7192 20.8008 12.4286 22.6566 13.2696 23.5967 14.0739 24.4958 14.8488 25.4211 15.6562 26.3175 16.4325 27.179 17.6351 28.5232 18.1621 28.8473 18.9022 29.3023 19.6563 29.5872 20.525 29.5872 21.0462 29.5872 22.0285 29.1576 22.0285 29.1576M20.014 17.2629C19.3458 19.7562 17.7475 22.7992 19.5941 26.3413M6.80702 13.3939C6.80702 13.3939 5.93239 13.8081 5.68016 14.1934 5.35975 14.683 5.0861 15.3765 5.32218 15.9118 5.54385 16.4145 6.66302 18.1155 7.23147 18.7519 7.84421 19.438 8.48773 20.1761 9.33169 20.5419 9.85323 20.7679 10.4871 20.9129 11.0262 20.7328 11.2126 20.6706 11.4547 20.328 11.4547 20.328M10.0464 10.9196C10.0464 10.9196 9.03269 11.4177 8.56798 11.7352 8.00367 12.1208 7.37598 12.4819 6.99281 13.0479 6.80523 13.3249 6.67924 13.6679 6.68255 14.0025 6.68662 14.4151 6.85355 14.8884 7.01668 15.2674 7.72247 16.9073 10.6484 19.5212 11.1933 20.0884 12.0013 20.9295 12.8106 20.8014 13.4128 20.6134 13.9228 20.4543 14.6451 19.5888 14.6451 19.5888M15.8472 12.0216C18.7144 13.4486 18.2312 15.0895 18.2338 16.6994M10.4049 10.4606C10.4049 10.4606 9.73595 11.2331 9.61809 11.7114 9.52073 12.1065 9.5729 12.5466 9.71356 12.9285 10.0099 13.7331 10.6634 14.6533 11.1933 15.4823 11.8269 16.4734 12.5408 17.4864 13.3174 18.3701 13.7374 18.848 14.1052 19.3894 14.7016 19.611 15.2089 19.7996 15.7247 19.7292 16.2529 19.611 16.9726 19.4502 17.6472 19.1042 18.2815 18.7281 18.8619 18.3839 19.3518 17.9123 19.8328 17.4393 20.2403 17.0386 20.678 16.6507 20.9546 16.1505 21.1664 15.7674 21.3517 15.346 21.3841 14.9094 21.4087 14.5782 21.2008 13.9301 21.2008 13.9301M26.5631 13.1433C26.5631 13.1433 25.6724 12.5196 25.155 12.4035 24.3898 12.5173 23.6106 12.4684 23.6106 12.4684M25.7994 9.63499C25.7486 9.94044 24.0169 11.4056 23.8781 11.6994 23.7862 11.8941 23.8185 12.3796 23.8185 12.3796M23.8185 12.3796C23.0444 12.6448 22.6728 13.4863 21.599 13.8355 21.1103 14.0462 19.5314 13.9885 18.8305 13.8832 18.4662 13.7435 17.937 13.5313 17.7088 13.2149 17.4995 12.925 17.3901 12.5645 17.3269 12.2125 17.2741 11.9184 17.3347 11.316 17.3347 11.316M14.0304 10.4771C14.0304 10.4771 14.4604 11.0386 14.7841 11.1912 15.2228 11.398 15.7486 11.3593 16.2335 11.3705 16.7385 11.3821 17.2496 11.3416 17.7474 11.2556 18.9488 11.0481 19.9728 10.3119 20.485 9.88882M14.3976 10.4364C14.3976 10.4364 12.7897 10.6254 11.9819 10.6296 11.207 10.6337 10.471 10.5004 9.93658 10.3397 9.84605 10.199 9.83899 9.99841 9.83899 9.99841M16.1046 8.63266C15.9854 9.11368 15.8457 9.55341 15.5571 9.69556M10.0493 8.56824C9.7809 9.00396 9.51249 9.22798 9.24408 9.50231M21.0077 5.44228C21.0077 5.44228 20.3972 4.71807 19.9698 4.5743 19.5419 4.43037 19.0488 4.5074 18.617 4.6387 18.0064 4.82433 16.9776 5.62739 16.9776 5.62739M29.8669 15.1586C29.8669 15.1586 29.3946 13.7878 29.1753 13.3692 28.9776 12.9921 28.8812 12.5687 28.697 12.1849 28.4485 11.667 28.0742 11.2023 27.8316 10.6817 27.6774 10.3507 27.5452 10.0004 27.4216 9.65677 27.1119 8.79609 26.8352 8.00969 26.4879 7.08316 26.2273 6.38834 25.7369 5.77614 25.0986 5.39777 24.75 5.1912 24.3185 5.14969 23.9142 5.12447 22.726 5.05036 21.5514 5.46429 20.3612 5.48888 19.7376 5.50175 19.1158 5.3315 18.4936 5.375 17.5431 5.44146 16.5965 5.73113 15.6923 5.94438 15.064 5.77831 14.2049 5.72054 13.3919 5.85328 13.1337 5.85197 12.8758 5.87516 12.6176 5.87606 11.3342 5.677 8.60542 5.76621 7.53867 5.76218 6.89951 5.69015 6.2793 5.4997 5.6483 5.375 5.17067 5.2806 4.6967 5.16113 4.21346 5.1017 3.81345 5.0525 3.396 4.93046 3.00635 5.03337 2.73557 5.10488 2.47131 5.26706 2.30032 5.48888 2.0614 5.79881 1.88915 6.21635 1.93591 6.60488 2.02025 7.30556 2.52233 7.9376 3.05191 8.40413 3.92881 9.17665 5.1035 9.59151 6.24046 9.86176 7.4083 10.1394 9.83899 9.99841 9.83899 9.99841M26.1689 17.1271C26.6374 16.977 27.1327 16.9328 27.3833 17.165M29.84 15.6475C29.84 15.6475 29.5012 15.456 29.312 15.4872 29.0037 15.5382 27.1482 17.3776 27.1482 17.3776M29.8358 15.8972C29.8358 15.8972 29.8334 14.9668 29.9725 14.4852 30.0555 14.1975 30.2711 13.8748 30.428 13.6197 30.5603 13.4045 30.626 13.1949 30.7924 13.0048 31.2252 12.5104 31.6697 12.0148 32.25 11.7066 32.9463 11.3367 33.7466 11.1761 34.5275 11.0688 35.5354 10.9304 36.574 10.9139 37.5794 11.0688 38.1775 11.161 38.7875 11.3111 39.3104 11.6155 39.5611 11.7614 39.8322 11.9417 39.9481 12.2076 40.1059 12.5695 40.0599 13.0133 39.9481 13.3919 39.861 13.6868 39.6665 13.951 39.447 14.1663 39.0772 14.5293 38.5619 14.7058 38.1261 14.9862 37.7578 15.2232 37.4008 15.3579 37.01 15.5556 36.5343 15.7962 35.953 16.0286 35.5296 16.3528 34.9845 16.7702 34.6473 17.332 34.2998 17.9242 34.0696 18.3166 33.9412 18.7448 33.7988 19.1769 33.5955 19.7934 33.5254 20.4553 33.3888 21.0901 33.3067 21.4716 33.249 21.9166 33.0927 22.2743 32.9394 22.6255 32.7275 22.8947 32.4778 23.1854 32.0225 23.7153 31.3716 24.0569 30.9291 24.5975 30.7047 24.8715 30.6444 25.2701 30.3824 25.5085 30.0961 25.7689 29.3347 26.0096 29.3347 26.0096M40.7681 32.4323C39.5718 31.3214 38.2754 30.3026 37.2151 29.0615 37.0236 28.8373 36.8533 28.5623 36.6684 28.3326 35.8332 27.295 34.9133 26.4977 33.8899 25.6452 33.6957 25.4835 33.524 25.184 33.3433 25.0074 32.8974 24.5719 32.2115 23.4588 32.2115 23.4588" stroke="#000000" stroke-width="0.271579" stroke-linecap="round" stroke-linejoin="miter" stroke-miterlimit="4" stroke-opacity="1" fill="none" fill-rule="nonzero"/></g></g></g></svg>