<?xml version="1.0" encoding="UTF-8" standalone="yes"?>
<!DOCTYPE svg PUBLIC "-//W3C//DTD SVG 1.0//EN" "http://www.w3.org/TR/2001/REC-SVG-20010904/DTD/svg10.dtd">
<svg height="285" style="background-color:white" width="285" xmlns="http://www.w3.org/2000/svg" xmlns:svg="http://www.w3.org/2000/svg" xmlns:xlink="http://www.w3.org/1999/xlink">
	<path d="m 133.34846,90.869633 c 1.44062,-0.82606 1.93718,-2.019253 5.10141,-2.175019 M 115.0783,195.78466 c 3.40067,-0.52604 8.43495,-4.33379 9.64918,-6.48551 m 7.11824,-13.28739 c 3.32671,3.79091 6.69338,7.55639 14.55286,8.4628 m -21.6711,-22.93657 c 0.46309,-5.59831 0.74311,-11.34307 2.21456,-16.13469 0.9152,-1.76889 1.93856,-3.50173 3.48003,-5.06186 1.79349,-4.522 4.42964,-8.3886 8.12078,-11.43464 m -25.28366,30.33753 3.63822,-7.43461 13.58442,-11.61794 m -13.58312,-5.3594 c 0,0 6.34785,5.77775 7.43331,6.0627 1.50081,0.39399 3.23793,-0.2326 4.41953,-1.23833 1.57236,-1.33832 4.90551,-4.96577 6.17874,-8.25266 0.86536,-2.23398 0.88263,-9.70096 0.88263,-9.70096 m -44.699381,15.07919 c 2.520484,0.43344 5.068276,1.21903 9.580771,0.28658 m 5.44664,-5.98118 c 1.97299,-0.0957 3.92898,-0.36141 5.69459,-2.53093 m 10.4401,-5.53642 c 2.21456,0.73819 4.32367,0.21091 6.32732,-1.58183 m 18.19108,-53.782296 c 2.4782,-0.774421 4.95641,-1.016965 7.43461,-0.949099 M 139.42737,41.909302 c 2.44274,0.109123 5.28582,-0.07966 6.56036,-0.95971 m 1.7268,98.704708 C 136.89591,129.31485 135.84139,124.67272 135.05846,115.90367 M 120.04124,87.192949 c 0,0 0.36347,-3.734418 1.33803,-5.217985 0.94871,-1.444225 5.02598,-6.040274 7.30791,-6.514066 2.56649,-0.532873 7.03766,0.96004 9.71796,3.060825 2.34512,1.838059 5.22703,9.021385 6.69672,14.048409 0.40684,1.391557 1.42328,4.700449 1.42328,4.700449 m -41.47602,6.591849 c -1.1801,-10.323728 3.47893,-17.075818 9.44907,-17.244353 4.99883,-0.141116 8.65211,1.164992 12.66852,4.361085 m 15.74515,-4.767294 c 0,0 -1.36004,-7.779696 -1.89984,-10.916203 -0.32954,-1.914913 -2.3724,-7.335677 -3.1435,-11.105207 -1.30658,-6.38725 -1.26856,-10.683222 -1.64009,-13.573026 -0.14612,-1.136747 -0.91703,-2.254548 -1.23005,-3.427533 -0.46684,-1.749202 -0.48343,-3.599502 -0.95672,-5.34695 -0.48376,-1.78598 -1.43005,-4.160318 -1.91345,-5.20985 -0.86998,-1.888867 -2.28433,-10.120627 -2.05012,-14.532738 0.18703,-3.523127 2.5162,-8.104045 5.877,-8.226077 7.18413,-0.260863 11.56886,11.151595 12.30067,14.532737 0.62181,2.872851 0.4072,5.311235 1.77676,8.637383 0.35002,0.850045 0.88432,1.616023 1.23007,2.467822 0.45096,1.111015 0.47881,2.397902 1.09339,3.427533 1.76695,2.960246 3.82003,6.866284 4.92027,10.968104 0.88231,3.289332 1.48603,7.490181 2.68385,11.105204 0.89061,2.687828 2.34826,5.158814 3.32982,7.814775 0.69762,1.887639 0.92931,3.996104 1.81415,5.758253 1.7706,3.526131 5.16449,11.737889 7.20634,18.234468 0.65555,2.085737 1.69965,4.678667 1.91344,6.855067 1.23308,12.55285 1.49042,25.28553 0.27336,37.83997 -0.92705,9.56286 -4.62125,22.4387 -5.74033,28.24287 -1.05107,5.45153 -2.06676,9.5451 -1.64009,15.08113 0.11585,1.50293 0.94359,4.41558 1.23008,5.89536 0.37708,1.94778 0.84801,4.19306 1.32338,6.11906 1.18678,4.80829 5.80927,16.15383 8.65382,24.45454 4.13135,12.05561 11.48064,36.46893 11.48064,36.46893 M 92.473385,121.4799 c 0,0 2.164743,6.92855 3.889612,10.09369 1.373702,2.52074 4.077433,4.26185 5.073403,6.95532 1.12338,3.03796 4.64075,7.48887 8.28658,7.20979 3.42996,-0.26255 4.21178,-2.50094 5.02446,-4.02095 1.70552,-3.18994 1.97111,-7.24989 2.41653,-10.39864 0.65677,-4.64277 -1.22822,-7.86308 -2.87493,-12.04457 -1.33689,-3.39477 -1.54387,-7.40364 -3.80505,-10.26335 -2.1229,-2.68483 -5.12834,-5.512 -8.54023,-5.68302 -2.833309,-0.14201 -5.453728,2.04275 -7.525564,3.98661 -2.587905,2.42804 -4.779474,5.93409 -5.496193,9.41513 -0.301257,1.46318 -0.148396,4.36788 -0.02836,7.07665 0.120044,2.70877 0.122693,4.88228 -0.309879,6.24025 -0.483479,1.51779 -1.869586,2.68218 -2.198478,4.24106 -0.311397,1.47595 -0.449423,7.7841 0.08456,11.62048 0.583752,4.19399 3.864763,19.41881 5.327082,22.81685 4.631068,10.76143 16.803782,26.10688 18.517952,29.857 1.66847,3.65017 2.5186,7.64095 3.34478,11.5701 0.55658,2.64695 0.52069,8.22938 1.32026,20.31514 0.79956,12.08575 2.43458,30.6748 2.50635,31.98527 m 28.59685,-156.85624 c 0.73808,-3.26486 1.65147,-4.25066 2.60453,-4.7207 m 14.69611,-7.182818 c -3.10033,-1.470369 -8.40049,-1.276552 -12.26074,-0.848214 m 15.38478,14.019792 c -3.66823,-0.0764 -5.59909,0.28388 -8.33309,2.02625 m 13.33742,20.42129 c -0.94951,-2.83518 -4.79598,-6.99259 -9.48905,-14.14279 -4.81132,-7.33031 -8.21691,-14.97979 -11.65596,-16.842035 -3.5112,-1.901311 -11.03816,-0.850015 -15.03217,-3.13014 m 2.36354,20.451235 c 0,0 -7.80836,1.04114 -11.29035,-0.34484 -2.67762,-1.06581 -10.13204,-8.4148 -11.33012,-10.74081 -1.44918,-2.81352 -1.8773,-9.787224 -1.8773,-9.787224 m 3.24791,5.023435 c 0,0 -3.01654,-3.066292 -3.30779,-5.357113 -0.39618,-3.116332 3.48036,-5.962859 6.53648,-5.918663 1.64787,0.02387 3.23151,-0.172002 4.48429,0.719731 2.17013,1.544699 8.80819,4.505711 11.17334,5.954249 m -2.85216,1.685569 c -2.60417,1.799823 -4.87916,4.192626 -6.22848,7.234606 -1.55457,0.04 -3.10911,0.0799 -4.66368,0.11997 -0.79045,-0.69636 -1.64377,-1.42426 -2.75038,-2.27917" style="fill:none;stroke:#000000;stroke-width:1.79999995;stroke-linecap:round;stroke-miterlimit:4;stroke-opacity:1;stroke-dasharray:none;display:inline" />
	<!-- 
	Generated using the Perl SVG Module V2.50
	by Ronan Oger
	Info: http://www.roitsystems.com/
 -->
</svg>