<?xml version="1.0" encoding="UTF-8" standalone="yes"?>
<!DOCTYPE svg PUBLIC "-//W3C//DTD SVG 1.0//EN" "http://www.w3.org/TR/2001/REC-SVG-20010904/DTD/svg10.dtd">
<svg height="285" style="background-color:white" width="285" xmlns="http://www.w3.org/2000/svg" xmlns:svg="http://www.w3.org/2000/svg" xmlns:xlink="http://www.w3.org/1999/xlink">
	<path d="m 202.33042,196.25304 c 0,0 6.73062,8.0514 9.96623,12.18095 2.76441,3.52816 5.43444,7.13027 8.06791,10.75721 1.40106,1.9296 4.11305,5.85319 4.11305,5.85319 M 170.0792,168.76037 c 0,0 10.22857,11.31324 14.84985,17.36824 4.21486,5.52249 7.85899,11.45867 11.70638,17.24317 2.30038,3.45859 4.67956,6.87047 6.80235,10.44082 3.79823,6.38828 6.94136,13.14628 10.59901,19.61608 2.65261,4.69205 5.50646,9.26757 8.2261,13.92109 3.34973,5.73165 9.33346,17.24317 9.33346,17.24317 m -56.79826,-93.31646 4.43597,0.14006 M 88.055103,68.482911 c -0.458474,2.442065 1.414454,9.244388 2.590188,11.18098 1.274818,2.064309 3.357123,3.389123 4.745827,5.378604 0.850471,1.218399 1.500638,2.751971 2.372913,3.954856 2.167135,2.988521 4.912849,5.214191 7.435129,7.909711 3.62337,3.872238 7.31696,7.699098 10.59902,11.864568 3.09603,3.92937 6.05056,8.00144 8.54248,12.33915 2.23271,3.8865 3.66316,8.18577 5.695,12.18095 1.33734,2.6296 2.72182,5.24103 4.27124,7.75152 1.07547,1.74256 2.08416,3.56422 3.48027,5.06222 2.71191,2.90984 6.17285,5.02014 9.33346,7.43513 4.46683,3.41306 8.87799,6.92326 13.60471,9.96623 3.71222,2.38986 7.65493,4.40399 11.54818,6.48597 3.07779,1.6459 9.33345,4.74582 9.33345,4.74582 M 103.45903,65.742799 105.9973,63.14925 m -5.38577,5.441045 c 0,0 -2.669425,3.588908 -4.587633,4.587633 -0.807404,0.420379 -1.806601,0.696974 -2.689302,0.474582 -1.237811,-0.311861 -2.140025,-1.4348 -3.00569,-2.372913 -1.289355,-1.397263 -2.657967,-2.913116 -3.163885,-4.745827 -0.505818,-1.83235 0.281145,-5.695716 0.281145,-5.695716 m 27.877425,7.594047 c 0,0 -8.1007,4.265176 -11.07359,7.593323 -1.52517,1.707423 -3.32208,6.011381 -3.32208,6.011381 m 44.64797,-3.944106 c -0.32203,-4.602253 0.44804,-7.531701 1.54666,-8.489429 m 14.99888,5.42949 c -2.84234,1.18352 -5.81628,4.726235 -6.48637,7.563485 m 17.18897,0.719793 c -4.32283,1.915602 -8.03167,1.835146 -11.59147,2.114267 m 13.70594,8.518443 c 0,0 -7.39547,-4.950858 -11.25336,-7.161225 -3.24212,-1.857562 -6.60138,-3.507837 -9.97456,-5.115161 -2.86005,-1.362813 -5.82011,-2.50681 -8.69577,-3.83637 -2.66491,-1.232122 -5.31758,-2.493633 -7.9285,-3.836371 -1.89991,-0.977078 -4.03795,-1.640721 -5.62668,-3.069096 -1.0024,-0.901222 -1.36932,-2.351483 -2.30182,-3.324854 -1.49328,-1.55873 -5.1614,-3.910953 -5.1614,-3.910953 m 36.10911,5.024808 c 0,0 -0.65336,2.031175 -0.49864,3.049482 0.15939,1.049086 0.56282,2.226847 1.42365,2.847298 0.90739,0.654011 2.20418,0.430665 3.32184,0.47455 3.32598,0.130596 6.71766,0.09556 9.96555,-0.632733 3.48724,-0.781963 6.18133,-2.217754 9.60384,-3.246702 2.21834,-0.666925 5.1081,-1.063433 7.16358,-2.131528 3.24959,-1.688598 9.2316,-5.947611 9.33281,-5.694596 m -28.94837,0.37059 c 0,0 -5.49517,3.190599 -8.50078,4.13854 -4.06867,1.283216 -8.37765,2.210191 -12.63933,2.013344 -5.11281,-0.23616 -10.17384,-1.661308 -14.65267,-4.13854 -1.5743,-0.870746 -4.13519,-3.383307 -4.13519,-3.383307 m 2.01,-1.761905 c -0.23139,0.05785 -0.95986,1.166056 -2.57261,2.125196 -1.61275,0.95914 -8.45793,1.038998 -12.86303,1.006672 -4.55831,-0.03345 -9.18974,0.0649 -13.646,-0.89482 -1.24566,-0.268273 -2.55295,-0.587046 -3.57928,-1.342229 -0.900725,-0.662764 -2.059169,-2.648562 -2.059169,-2.648562 m 40.983829,-4.621846 -2.23706,2.572606 m 72.46039,-15.153042 c 0,0 -3.22128,-4.167953 -5.34893,-5.651511 -1.3975,-0.974441 -3.03332,-1.649961 -4.6978,-2.013343 -5.83001,-1.272783 -11.93846,-0.112602 -17.89639,-0.44741 -5.97882,-0.335982 -12.03293,-0.34977 -17.89639,-1.565934 -3.69426,-0.766242 -7.07326,-2.681708 -10.73783,-3.579278 -3.66743,-0.89827 -7.46565,-1.140353 -11.18524,-1.789639 -2.76614,-0.482854 -5.47536,-1.378699 -8.27708,-1.565934 -4.17251,-0.278843 -8.93493,-0.975961 -12.6307,0.980784 -3.85349,2.040246 -7.21875,4.9076 -6.19078,10.969115 M 257.2606,167.55494 c 0,0 -8.60811,-9.12719 -12.08007,-14.31711 -2.52205,-3.76999 -4.49719,-7.90239 -6.26373,-12.08006 -2.20412,-5.21248 -3.68898,-10.7025 -5.36892,-16.10675 -2.23477,-7.18911 -4.70039,-14.33504 -6.26374,-21.69937 -1.92273,-9.057252 -3.52955,-18.26065 -3.80298,-27.5157 -0.11265,-3.812998 1.08348,-7.598955 0.89482,-11.408949 -0.25102,-5.069365 -0.41844,-10.446574 -2.68446,-14.988226 -0.63603,-1.274761 -1.79924,-2.237529 -2.90816,-3.131868 -1.82169,-1.469176 -3.90648,-2.617524 -6.04003,-3.579278 -2.21433,-0.998168 -4.5665,-1.69802 -6.93485,-2.237048 -1.6144,-0.367433 -3.26755,-0.746647 -4.92151,-0.671115 -2.98149,0.136156 -5.73999,1.988715 -8.72449,2.013344 -3.93365,0.03246 -8.34395,-0.578576 -12.08006,-0.89482 -6.79209,-0.574919 -13.35736,-2.839178 -20.13344,-3.579277 -7.12241,-0.777926 -14.31091,-0.886977 -21.47567,-0.89482 -5.6716,-0.0062 -11.33014,0.715175 -17.00157,0.671115 -8.14,-0.06324 -16.29719,-0.409527 -24.383828,-1.342229 -1.278771,-0.147492 -2.537266,-0.436658 -3.802983,-0.671115 -5.004124,-0.926946 -9.953808,-2.163099 -14.988226,-2.908163 -5.783842,-0.855974 -11.618531,-1.35215 -17.448979,-1.789639 -1.563314,-0.117304 -3.140513,-0.404152 -4.697802,-0.223705 -1.617772,0.187456 -3.426219,0.324683 -4.697803,1.342229 -1.459035,1.167548 -2.509708,3.06102 -2.684458,4.921507 -0.227141,2.418269 0.855708,4.936974 2.237049,6.934851 3.741971,5.412131 9.759378,8.976065 15.435635,12.303768 3.404564,1.995923 7.117007,3.582842 10.961539,4.474097 3.203662,0.742686 6.558778,0.840901 9.843014,0.671115 3.929952,-0.203168 8.544842,0.426168 11.632653,-2.013344 0.891214,-0.7041 1.342229,-3.131868 1.342229,-3.131868" style="fill:none;stroke:#000000;stroke-width:1.79999995;stroke-linecap:round;stroke-miterlimit:4;stroke-opacity:1;stroke-dasharray:none;display:inline" />
	<!-- 
	Generated using the Perl SVG Module V2.50
	by Ronan Oger
	Info: http://www.roitsystems.com/
 -->
</svg>