<?xml version="1.0" encoding="UTF-8" standalone="yes"?>
<!DOCTYPE svg PUBLIC "-//W3C//DTD SVG 1.0//EN" "http://www.w3.org/TR/2001/REC-SVG-20010904/DTD/svg10.dtd">
<svg height="285" style="background-color:white" width="285" xmlns="http://www.w3.org/2000/svg" xmlns:svg="http://www.w3.org/2000/svg" xmlns:xlink="http://www.w3.org/1999/xlink">
	<path d="m 204.41681,44.893034 c -7.42343,-2.055904 -11.53854,-5.276686 -15.43007,-5.832618 -2.11496,-0.302137 -13.59616,0.604275 -18.12822,0.151069 -4.53206,-0.453206 -13.89831,-1.359617 -20.39425,-2.11496 -6.49595,-0.755342 -12.08549,-2.114959 -14.95579,-2.114959 -2.8703,0 -17.59159,-1.071129 -24.17097,0.755342 -5.86063,1.626941 -10.86104,4.500255 -12.689753,4.683126 -3.021371,0.302137 -8.136333,3.797861 -10.272661,3.776713 -3.113845,-0.03083 -7.625789,2.392975 -11.632278,4.532056 -4.053071,2.163951 -16.881491,8.325369 -20.243184,9.819455 -6.798084,3.02137 -20.911356,5.551466 -24.775241,8.610907 -4.383776,3.471093 -11.272386,8.949202 -7.157029,15.672245 M 225.21617,64.190824 C 223.88358,59.001464 219.65366,51.1459 215.1216,47.97346 c -4.53205,-3.172439 -9.36625,-3.323508 -18.43036,-3.021371 m 66.31909,166.175391 c -4.22992,-6.19381 -11.27802,-16.25663 -13.14296,-18.7325 -8.76198,-11.63227 -16.27109,-24.21299 -18.27929,-26.28592 -2.59964,-2.68341 -5.27072,-8.61215 -6.04275,-19.03464 -1.05768,-14.27876 2.32326,-29.90622 2.11496,-45.32056 -0.15107,-11.179071 2.11496,-29.005159 -1.20855,-35.652175 -2.38688,-4.773765 -9.66838,-8.610907 -11.48121,-9.366249 M 115.5883,39.164166 c 5.26653,0.349456 7.68363,1.860141 8.13683,3.370827 m 61.03169,1.661754 c -4.83419,0.151068 -14.80471,0.453205 -17.52395,0 -2.71923,-0.453206 -14.80471,-1.812823 -17.97715,-2.417097 -3.17244,-0.604274 -12.84083,-2.870302 -17.07075,-3.021371 -4.22992,-0.151068 -14.95578,-0.453205 -17.82608,0.755343 -2.87031,1.208548 -14.616845,7.110593 -20.847464,11.783346 -5.403883,4.052729 -12.991894,7.25129 -17.221813,9.36625 -4.229919,2.114959 -16.013265,6.647015 -21.149596,9.668386 -5.13633,3.021371 -23.717761,8.459838 -25.983789,9.36625 -2.266028,0.906411 -8.610907,5.13633 -8.459838,11.33014 0.151069,6.19381 4.683125,7.704496 8.459838,8.30877 3.776714,0.604274 6.320251,0.464529 8.90073,0.307799 M 175.9327,205.15294 c 8.21985,9.60019 11.09015,15.03866 13.05404,18.81537 1.96389,3.77671 7.40236,17.07074 9.06412,21.30066 M 90.03685,129.70154 c -2.11496,4.53206 -3.625645,7.85556 -6.344879,9.06411 M 50.305824,108.40088 c 3.474576,1.05748 4.985262,3.92778 5.287399,5.2874 0.302137,1.35961 -0.302137,4.07885 -1.510686,6.04274 -1.208548,1.96389 -1.328743,3.45315 -0.890974,5.65435 M 40.3353,106.13485 c -2.568165,1.96389 -8.304115,4.95062 -6.728688,15.09096 m 6.086675,-18.87336 c -4.645386,-1.0518 -10.839196,3.93347 -11.141333,8.01232 -0.302137,4.07885 2.719234,9.51732 4.078851,10.42373 1.359617,0.90641 11.481209,3.3235 12.689757,3.77671 1.208548,0.45321 2.417097,0.60427 3.625645,0.60427 1.208548,0 4.229919,-0.60427 11.481209,2.56817 7.25129,3.17244 17.300764,12.10489 20.394253,14.04937 5.287399,3.32352 12.425445,5.46424 16.61754,6.79809 6.647021,2.11496 16.741401,6.32632 24.775241,12.53869 7.72737,5.97539 12.99189,11.78334 17.37288,16.61754 4.38099,4.83419 11.33014,11.78334 16.46647,16.01326 5.13633,4.22992 16.91968,10.5748 20.99853,11.78335 4.07885,1.20855 16.3154,1.35961 18.43036,0.75534 M 147.52061,99.130435 c 4.1701,-0.738286 8.33947,2.937025 11.21627,3.952395 2.20583,2.03234 5.46034,4.94854 8.65255,5.87519 3.73422,1.08398 11.42992,2.13643 20.50975,0.85457 M 136.30247,89.335514 c 4.16792,2.851517 4.16792,6.697094 4.48838,10.008564 0.32047,3.311472 1.52752,9.058582 -4.04321,20.712762 m -37.617205,-5.22363 c -1.922789,-3.73876 -4.689198,-9.78476 -18.795124,-11.24827 m 82.460789,15.20067 c -5.76836,-0.21365 -27.97969,1.62787 -30.55097,1.38868 -4.59333,-0.42728 -6.06587,-2.09313 -8.22527,-2.02962 -3.63193,0.10683 -28.243381,-9.4919 -31.982132,-11.30787 M 141.32462,54.544942 c -0.15107,-2.719234 -5.29053,-7.660477 -14.23977,-7.758021 m -3.08469,43.001959 c 5.64037,-0.910698 14.65053,-0.726386 19.9339,0.556718 5.28337,1.283103 13.8915,3.42626 18.71823,3.849311 4.83051,0.423382 14.79343,0.0032 18.86917,-0.603814 0.87465,0.695145 4.39001,2.342055 8.60434,5.887183 M 85.033296,102.43325 c 7.727565,-1.21901 11.652353,-2.04925 15.577144,-3.256879 3.92479,-1.207627 11.08445,-3.882852 13.35937,-4.755032 4.00492,-1.535445 18.56727,-7.396716 19.85037,-14.491526 M 200.61706,54.87155 c -3.32097,-0.905721 -8.15148,-1.811441 -11.84984,-1.886918 -3.69836,-0.07548 -12.75556,-0.528337 -14.79343,-1.056673 -2.03787,-0.528337 -6.03757,-0.989058 -8.07601,-1.132151 -2.03787,-0.143054 -16.06292,-1.919832 -19.54847,-3.170021 -3.32138,-1.191308 -8.60434,-1.962394 -10.86864,-1.886918 -2.2643,0.07548 -10.34031,1.056674 -11.47246,1.962395 -1.13215,0.90572 -12.32825,7.422272 -17.51059,12.604608 -3.86113,3.861134 -11.246028,7.623147 -15.850107,9.35911 -2.059006,0.776347 -6.943856,3.320975 -9.510063,4.528602 -5.314159,2.50078 -17.510594,5.736229 -19.472988,6.340043 -1.962394,0.603813 -4.453125,1.35858 -6.490996,1.660487 -6.168321,0.913826 -15.019863,6.415519 -16.755827,9.359111 -1.735964,2.943591 -0.804746,7.960757 0.301907,9.510065 1.40244,1.96341 2.792638,4.37767 12.227225,4.30217 9.434587,-0.0755 15.957575,-1.03515 18.793697,-1.20763 4.004354,-0.24353 13.210586,-0.52941 14.265096,-1.05667 1.056674,-0.52834 4.377649,-3.09455 6.86838,-7.472194" style="fill:none;stroke:#000000;stroke-width:1.79999995;stroke-linecap:round;stroke-miterlimit:4;stroke-opacity:1;stroke-dasharray:none;display:inline" />
	<!-- 
	Generated using the Perl SVG Module V2.50
	by Ronan Oger
	Info: http://www.roitsystems.com/
 -->
</svg>