<?xml version="1.0" encoding="UTF-8" standalone="yes"?>
<!DOCTYPE svg PUBLIC "-//W3C//DTD SVG 1.0//EN" "http://www.w3.org/TR/2001/REC-SVG-20010904/DTD/svg10.dtd">
<svg height="285" style="background-color:white" width="285" xmlns="http://www.w3.org/2000/svg" xmlns:svg="http://www.w3.org/2000/svg" xmlns:xlink="http://www.w3.org/1999/xlink">
	<path d="m 115.56743,106.89019 c 2.11496,1.35962 3.84589,1.65601 6.60607,1.43228 m 3.51553,-7.47502 c -2.4171,2.11496 -4.07886,7.25129 -3.47458,9.97052 0.60427,2.71924 0.89851,4.26775 2.26603,6.04274 m 6.49685,-23.640738 c 0.30123,4.303969 0.75444,5.361449 1.66085,7.023208 0.90641,1.66175 3.17244,3.17243 3.62564,4.83419 M 122.66765,90.42372 c 2.56817,2.568165 6.34488,3.927782 7.7045,3.172439 1.35962,-0.755342 4.38099,-3.323507 6.19381,-3.927782 M 82.975615,63.722701 c -3.513562,3.88967 -2.309344,12.712644 -2.983292,17.817 M 224.21852,219.62519 c -2.18221,-7.71756 -5.48538,-19.08063 -6.7729,-23.13264 -1.05809,-3.32993 -4.44151,-13.01399 -4.97748,-16.60499 -1.06822,-7.15705 -1.70914,-24.35533 -3.41829,-37.6012 -1.70915,-13.24588 -3.20465,-22.53936 -3.73875,-29.26912 -0.53411,-6.72976 -1.70915,-30.764617 -3.4183,-33.328335 -1.70914,-2.563718 -6.19565,-7.904797 -10.46851,-9.507121 -4.27287,-1.602324 -5.98201,-3.845577 -12.07084,-7.584333 -6.08883,-3.738756 -12.28448,-6.409295 -14.31409,-8.545727 -2.02961,-2.136432 -7.15705,-4.593328 -9.18666,-6.72976 -2.02961,-2.136432 -19.25826,-12.93125 -23.71439,-13.245877 -4.67391,-0.330003 -8.85286,-1.233762 -13.77999,0.961394 -4.87703,2.172833 -12.71177,8.438906 -15.06184,10.254873 -2.35008,1.815967 -4.593331,4.379685 -7.263871,6.195652 -2.67054,1.815967 -11.109445,7.797976 -13.032234,12.177661 -1.922789,4.379685 0.427286,10.361694 0.854573,12.177661 0.427286,1.815967 1.189476,6.38138 1.182257,8.745413 m 81.284005,11.977975 c -4.4865,2.563719 -11.64355,4.272864 -13.3527,5.127434 -1.70914,0.85457 -5.23425,2.56372 -7.90479,4.59333 -2.67054,2.02961 -6.93436,4.42275 -10.57534,6.62294 -2.28318,1.3797 -2.62597,1.48539 -6.72976,4.37968 -3.21706,2.2689 -5.10514,3.5658 -6.87884,5.04096 m 28.77727,-43.496727 c -2.67054,2.670539 -5.66155,3.097826 -7.05023,3.631934 M 126.25655,70.965886 c 0.11339,3.275118 2.143,3.595583 2.143,3.595583 1.82188,4.00464 5.81752,6.270274 10.46852,8.011619 -0.19641,5.948636 0.51598,9.198753 2.21509,11.956561 2.07266,3.364112 5.56144,5.734991 10.00631,8.110071 M 128.82684,57.256372 c 0.64093,5.341079 -2.24326,13.993628 -3.9524,16.450524 -1.70915,2.456897 -2.9068,5.04104 -6.31378,5.458114 m -11.31178,-8.876405 c 3.03245,0.819568 5.39606,3.587462 7.05022,5.768366 0,0 8.11844,3.31147 6.83658,11.857197 -1.28186,8.545727 -5.98201,15.382312 -5.98201,15.382312 0,0 -3.09782,5.4479 -5.55472,6.62294 -2.4569,1.17503 -3.66617,0.85886 -7.06734,-0.37173 M 200.3973,92.721139 c 0.53411,-5.661544 1.38868,-9.827586 -2.56372,-13.779985 -3.9524,-3.952399 -10.14805,-6.72976 -13.77998,-8.973013 -3.63194,-2.243254 -8.75937,-7.050225 -13.67317,-9.934408 -4.91379,-2.884183 -8.65254,-7.477511 -13.03223,-9.827586 -4.37968,-2.350075 -14.8482,-9.613943 -17.3051,-11.964018 -2.45689,-2.350075 -5.87518,-3.845578 -8.54572,-3.738756 -2.67054,0.106822 -5.34108,0.427286 -7.58434,2.991005 -2.24325,2.563718 -5.23425,5.768365 -7.26386,7.797976 -2.02961,2.02961 -9.50713,9.507121 -11.96402,12.81859 -2.4569,3.31147 -8.652551,8.438906 -9.613946,10.788981 -0.961394,2.350075 -2.670539,5.020615 -1.38868,9.186656 1.281859,4.166042 2.456896,5.447902 2.456896,7.691155 0,2.243253 -0.405418,11.93561 -0.629995,14.780584 m -22.550289,6.37009 c -2.350075,2.88418 -4.486507,5.12744 -5.34108,6.30247 m 4.05922,-27.666787 c 2.350075,1.709145 6.729761,5.875187 6.195653,7.797976 -0.534108,1.922788 -3.204648,2.456896 -4.70015,3.631934 -1.495503,1.175037 -3.738756,2.456896 -4.379685,3.418287 -0.64093,0.9614 -1.602324,2.35008 -1.602324,2.35008 m 80.29069,15.58508 c -4.2267,0.15096 -10.26483,3.62288 -12.52914,4.5286 -2.2643,0.90572 -10.26483,1.66049 -12.07627,0.60382 -1.81144,-1.05668 -8.45339,-4.83051 -10.41578,-5.88718 -1.9624,-1.05668 -5.58528,-3.32098 -6.64195,-4.37765 -1.05667,-1.05668 -5.73623,-6.491 -5.73623,-6.491 -1.087478,-2.57443 -2.599065,-3.87653 -4.075741,-5.28337 -0.579304,-0.99627 -1.200447,-2.366357 -2.815974,-3.804713 -1.144934,-2.775454 -3.150269,-6.203497 -4.127882,-7.365836 -1.511529,-1.797141 -3.158479,-5.956888 -6.64195,-7.698623 -3.398013,-1.699006 -9.35911,-3.471928 -13.736758,-0.603814 -4.377649,2.868115 -4.226695,6.340043 -4.226695,7.09481 0,0.754767 0.90572,13.736756 0.90572,13.736756 0,0 -0.483052,14.85382 0.603813,18.11441 0.754767,2.2643 4.528602,7.09481 5.283369,8.90625 0.754767,1.81144 2.566208,4.2267 4.528602,5.28337 1.962394,1.05667 7.245763,6.34004 9.962924,9.66102 2.717161,3.32097 9.661017,12.83103 11.321505,14.79343 1.660487,1.96239 6.038137,9.35911 8.604347,13.2839 2.5662,3.92479 7.35801,12.14067 10.41578,14.64248 4.98146,4.07573 13.2839,12.52913 17.05773,14.34057 3.77384,1.81144 12.07628,6.18909 14.49153,9.81197 1.10524,1.65786 4.10072,11.92825 5.43686,14.03769 1.27934,2.01976 3.65102,8.43894 4.22415,10.56772 1.05667,3.92479 3.47194,9.0572 6.491,15.69915" style="fill:none;stroke:#000000;stroke-width:1.79999995;stroke-linecap:round;stroke-miterlimit:4;stroke-opacity:1;stroke-dasharray:none;display:inline" />
	<!-- 
	Generated using the Perl SVG Module V2.50
	by Ronan Oger
	Info: http://www.roitsystems.com/
 -->
</svg>