<?xml version="1.0" encoding="UTF-8" standalone="yes"?>
<!DOCTYPE svg PUBLIC "-//W3C//DTD SVG 1.0//EN" "http://www.w3.org/TR/2001/REC-SVG-20010904/DTD/svg10.dtd">
<svg height="285" style="background-color:white" width="285" xmlns="http://www.w3.org/2000/svg" xmlns:svg="http://www.w3.org/2000/svg" xmlns:xlink="http://www.w3.org/1999/xlink">
	<path d="m 92.804724,104.27821 c -0.979387,1.03626 -1.377195,4.83466 -1.377195,4.83466 M 85.773535,93.835368 c 0.390258,2.399264 1.458474,4.535696 2.099404,5.710734 0.640929,1.175038 3.204647,4.913798 5.661544,4.806968 2.456896,-0.10682 5.447901,-2.02961 7.157047,-2.88418 1.70915,-0.85457 6.30247,-2.02961 7.69115,-3.738755 1.38868,-1.709146 4.9138,-6.195652 6.72976,-6.622939 M 98.018122,83.434232 c -1.706278,2.331885 -4.163174,4.895603 -5.87232,6.284284 -1.709145,1.38868 -4.806971,4.05922 -5.661544,4.166042 -0.854573,0.106821 -2.426827,-0.440175 -3.456667,-2.783806 M 98.608165,80.141289 c -1.869034,4.236147 1.12197,8.295367 2.083365,10.004513 M 94.795327,73.97178 c 1.516517,3.996361 2.798376,5.812328 4.187057,6.346436 1.388686,0.534108 8.973016,0.213643 10.895806,-0.534108 1.92278,-0.747751 7.16351,-2.934286 8.38873,-4.778612 M 62.356471,42.774336 c -5.24815,3.681436 -6.957296,4.856473 -8.773263,7.633835 -1.815967,2.777361 -1.922788,4.806971 -2.777361,8.225262 -0.854573,3.418291 -4.784465,22.101465 -2.018357,23.174983 M 81.036357,41.862444 c 1.922789,2.563718 1.469875,6.184081 1.803153,8.219476 m 51.92254,-9.057988 c -2.23769,-4.502568 -6.08326,-8.561788 -8.00605,-10.270934 -1.92279,-1.709145 -5.98201,-4.70015 -7.79798,-5.127436 -1.81597,-0.427286 -6.40929,-0.534108 -9.07983,0.213643 -2.67054,0.747751 -13.245881,3.311469 -16.664172,3.525112 -3.41829,0.213643 -14.634558,2.136432 -17.411919,2.884183 -2.777361,0.747752 -8.545727,2.350075 -11.42991,7.050225 -2.884183,4.70015 -3.41829,6.302474 -4.166042,8.866192 -0.479495,1.643982 -0.854573,13.352699 -1.815967,15.061844 -0.961394,1.709146 -4.571107,10.689138 -3.834467,16.400604 M 108.90582,200.97169 c 1.37434,4.27596 4.26093,8.49038 5.3001,9.58728 1.03917,1.09691 10.68038,8.14019 12.64327,10.1608 1.96288,2.02062 5.36905,5.36906 10.27626,10.96905 4.9072,5.59998 10.44946,12.29687 12.3546,15.76078 1.90515,3.46391 9.35256,10.10307 11.54637,13.16285 M 50.18134,102.36956 c 1.501027,9.87214 2.886591,13.9711 4.156691,16.16491 1.2701,2.19381 6.812353,8.65977 7.505135,9.58348 0.692782,0.92371 3.579372,4.73401 4.44535,6.40823 0.865977,1.67422 3.002054,3.11752 4.387617,5.54225 1.385564,2.42474 4.44535,7.7938 5.888645,10.56492 1.443295,2.77113 7.158744,14.49069 8.544308,17.66594 1.385563,3.17525 4.329886,7.15874 5.42679,10.21853 1.096905,3.05979 4.098959,9.29482 10.160804,14.54842 6.06184,5.25359 7.04328,7.67833 11.19997,9.9876 4.15669,2.30927 12.3546,6.29277 14.60614,7.04328 2.25154,0.75051 4.96494,0.63505 6.23504,0.34639 M 66.865834,105.54481 c -2.193809,1.67422 -2.944323,2.7134 -3.983495,4.15669 -1.039173,1.4433 -3.002054,4.27215 -3.348445,5.48452 M 64.82943,81.970978 C 61.208116,78.988177 55.830022,77.846189 53.034547,80.69759 m 0.957093,21.09465 c 2.309272,-2.655661 3.925763,-2.251538 5.773181,-5.83091 1.050157,-2.034679 1.90515,-3.232982 1.789686,-4.44535 -0.115464,-1.212368 -3.810299,-9.121626 -6.812354,-10.333994 -3.002054,-1.212368 -5.484521,-0.346391 -6.523694,1.327831 -0.751951,1.211476 -1.789686,3.637105 -1.674223,7.966991 0.115464,4.329885 2.020614,11.315432 3.637104,11.892752 m 79.67368,18.52255 c -6.85819,0.97974 -8.00122,1.87784 -17.63534,0 -9.63412,-1.87784 -8.89932,-1.46961 -12.328414,-4.08226 -3.429095,-2.61264 -9.715768,-8.57273 -10.123994,-9.79741 -1.535117,-2.50482 -5.080401,-6.9871 -7.919576,-9.144252 -0.979741,-0.489871 0.0056,-3.276627 -1.425976,-4.904118 m 85.68373,4.087666 c -3.67403,2.204418 -7.34806,3.592384 -11.02209,4.082254 -3.67403,0.48987 -11.51196,1.38797 -15.67586,3.10252 -4.1639,1.71454 -11.10374,5.38857 -12.57335,6.6949 -1.46961,1.30632 -5.7968,3.59238 -8.3278,4.49048 -2.531,0.89809 -7.07424,3.64172 -9.85017,4.78475 m 17.49413,-38.032634 c -0.62248,2.875899 -0.78577,10.71383 -0.37754,13.897989 0.40822,3.184159 1.6329,5.715155 2.20441,7.021485 0.57152,1.30632 1.78336,5.03962 1.78336,5.93772 m -13.5114,-38.309468 c 1.11418,3.959244 3.64518,6.490243 5.93124,8.53137 2.28606,2.041128 2.69429,2.939224 5.55187,3.18416 2.85758,0.244935 10.36893,-0.326581 11.67525,-0.489871 1.30632,-0.16329 3.2658,-0.979741 4.73542,-2.041128 M 95.546897,70.941565 c 5.650693,0.881832 19.612003,0.718542 20.918323,-0.342844 1.30632,-1.061387 4.98035,-5.796803 5.87845,-8.899317 0.8981,-3.102514 2.04113,-6.368319 3.67403,-8.572737 M 230.41845,224.57955 c -2.66851,-2.02806 -14.30318,-10.35379 -18.25257,-14.30318 -3.94939,-3.94939 -13.34252,-11.84816 -14.73014,-14.0897 -1.38763,-2.24155 -3.84265,-8.85944 -4.91005,-11.4212 -1.0674,-2.56177 -6.29767,-11.31446 -7.04485,-17.71887 -0.74718,-6.40441 -2.02807,-28.49962 -2.13481,-37.67928 -0.10674,-9.17965 0.74719,-33.516412 -0.32022,-37.786019 -1.0674,-4.269607 -8.85943,-12.38186 -11.10097,-14.196442 -2.24155,-1.814583 -9.07292,-8.112253 -11.74142,-10.674017 -2.66851,-2.561764 -9.71336,-8.966175 -12.16838,-11.954899 -2.45503,-2.988725 -13.98296,-14.836884 -16.54473,-16.651467 -2.56176,-1.814582 -8.32573,-2.881984 -10.14031,-2.455023 -1.81459,0.42696 -12.59534,4.696567 -15.15711,5.230268 -2.56176,0.533701 -10.780755,4.376347 -12.061637,4.696567 -1.280882,0.320221 -7.258331,2.988725 -9.179654,3.522426 -1.921323,0.533701 -6.617891,3.842646 -7.471812,5.337008 -0.853922,1.494363 -2.881985,5.230269 -4.269607,9.072915 -1.387622,3.842646 -3.735906,10.033576 -5.337008,12.70208 -1.601103,2.668504 -3.842646,6.29767 -3.949387,9.926835 -0.10674,3.629166 2.988725,9.072915 7.471812,8.859434 4.483087,-0.21348 8.645954,-0.32022 13.769482,-5.977449 1.911728,-2.110866 3.827457,-5.236407 5.830361,-8.065245 3.36498,-4.752593 6.197847,-10.029511 3.989735,-18.192837" style="fill:none;stroke:#000000;stroke-width:1.79999995;stroke-linecap:round;stroke-miterlimit:4;stroke-opacity:1;stroke-dasharray:none;display:inline" />
	<!-- 
	Generated using the Perl SVG Module V2.50
	by Ronan Oger
	Info: http://www.roitsystems.com/
 -->
</svg>