<?xml version="1.0" encoding="UTF-8" standalone="yes"?>
<!DOCTYPE svg PUBLIC "-//W3C//DTD SVG 1.0//EN" "http://www.w3.org/TR/2001/REC-SVG-20010904/DTD/svg10.dtd">
<svg height="285" style="background-color:white" width="285" xmlns="http://www.w3.org/2000/svg" xmlns:svg="http://www.w3.org/2000/svg" xmlns:xlink="http://www.w3.org/1999/xlink">
	<path d="m 123.09529,188.01583 c 1.01732,2.26071 1.80856,4.06927 2.93891,5.08658 1.13036,1.01732 1.24339,3.16499 7.6864,2.82588 m 22.94613,24.7547 c 2.37374,2.93892 4.1823,5.42569 5.19962,7.34729 1.01732,1.9216 0.56518,2.59981 3.05195,4.63444 2.48677,2.03463 3.61712,5.87783 5.08658,7.23425 1.46946,1.35642 3.27802,4.40837 4.63444,5.99086 1.35643,1.5825 2.26071,2.71285 3.50409,4.63445 1.24339,1.92159 3.73016,5.53872 4.97355,7.57335 M 70.182124,100.32638 c -1.230676,2.57398 -0.6655,7.32145 -0.100324,9.13002 0.565176,1.80856 3.164984,7.00818 3.617125,8.81674 0.452141,1.80856 2.486773,9.38192 2.938914,11.64262 0.452141,2.2607 0.791246,4.29534 1.695527,7.57336 0.904282,3.27801 2.712844,10.28619 3.05195,11.86869 0.339105,1.58249 3.051949,8.25156 3.73016,10.17316 0.678211,1.9216 3.051949,6.55604 4.521407,9.49495 1.469457,2.93892 6.443004,10.85138 7.347285,12.32084 0.904281,1.46945 6.556042,9.26888 7.460322,10.73834 0.90428,1.46945 0.67821,2.2607 4.29533,4.74747 3.61713,2.48678 4.40838,3.95624 6.32997,5.19962 1.9216,1.24339 5.99087,3.73016 8.81675,6.1039 2.82588,2.37374 5.87782,4.40837 10.39923,10.85138 4.52141,6.443 6.89515,10.51227 8.92978,12.77297 2.03463,2.2607 4.86051,8.13853 6.1039,9.83406 1.24338,1.69553 3.50409,5.31265 4.40837,8.25156 0.90428,2.93892 4.06926,6.89515 4.86051,8.59068 0.79125,1.69552 2.37374,3.27802 5.19962,10.85137 M 113.71883,134.51909 c -2.15313,2.85699 -4.52686,8.16964 -4.6399,10.88249 -0.11303,2.71284 -1.13035,7.79942 -0.56517,10.39923 0.56517,2.59981 2.14766,9.38192 3.95623,13.67726 m 48.15297,-58.21311 c -1.35642,0.45214 -2.48677,0.67821 -4.1823,1.80856 m 8.0255,-25.432911 c -3.27802,3.05195 -6.78211,4.747477 -9.60799,5.651758 -2.82588,0.904282 -8.92978,3.05195 -13.79029,6.782113 m -8.25157,-7.686394 c -1.80856,-2.034633 -2.49246,-3.72963 -3.05195,-6.443004 M 103.5866,116.19221 c 1.11899,2.71755 1.59855,4.95554 2.55769,6.55409 0.95913,1.59856 2.8774,4.79568 4.79568,7.35337 1.91827,2.5577 2.8774,5.11539 3.99639,5.91467 1.11899,0.79928 4.47597,3.9964 5.4351,4.79568 0.95914,0.79928 3.83654,4.47596 4.79568,5.59495 M 84.782384,108.04542 c -0.188604,-0.13713 -1.817194,1.91242 -1.657338,3.03141 0.159856,1.11899 0.761089,3.91744 2.596481,5.22842 1.118996,0.79927 7.326063,4.83776 9.71242,5.96149 3.505342,1.65065 11.204043,1.30023 11.204043,1.30023 m -3.9216,-30.322702 c -2.16706,1.047694 -4.724749,2.166685 -6.802876,3.285676 -2.078126,1.118991 -7.673081,3.356973 -8.951928,4.635816 -1.278846,1.27885 -3.197117,5.91467 -2.397837,6.71395 0.799279,0.79928 4.316108,0.95914 5.75481,-0.31971 m 70.176721,11.34976 c -4.15625,-3.83654 -9.11178,-6.55409 -10.8702,-8.95192 -1.75841,-2.39784 -5.27524,-5.11539 -7.99279,-6.87381 -2.71755,-1.75841 -9.75121,-5.754807 -11.66948,-6.713942 -1.91827,-0.959135 -9.75121,-7.033657 -11.82933,-7.353369 -2.07813,-0.319712 -9.4315,-0.479568 -10.71034,0.319712 -1.27885,0.799279 -3.83654,2.877405 -4.47596,3.516828 -0.63943,0.639424 -0.31972,3.037262 -2.23799,4.955532 -0.972366,0.972364 -3.676685,3.356969 -3.676685,4.316109 0,0.95913 1.918271,3.19712 2.877406,3.67668 M 56.34919,71.672358 c 1.598558,-1.039063 2.957333,-2.797477 4.715748,-3.676684 m 7.09959,-10.95126 c -2.543698,0.08106 -7.268993,2.793667 -9.017861,3.59789 -1.380358,0.634763 -4.017233,2.228627 -4.611818,3.780381 -0.967711,2.525538 -1.542632,3.8927 -1.62256,6.850034 -0.07993,2.957333 0.959135,8.792072 1.51863,10.550486 0.559496,1.758415 2.71755,3.356973 3.676685,4.875604 0.959135,1.51863 4.63582,6.95373 5.914667,8.552288 1.278847,1.598559 1.758414,5.594953 9.27164,5.195313 7.513225,-0.39964 8.632216,-0.879205 10.310702,-5.515025 C 85.2831,90.295566 83.343439,84.851634 82.794639,82.498177 M 75.611821,61.121872 c 1.438702,-0.719352 1.998198,-1.438703 2.797477,-2.31791 m 21.540381,-33.86107 c -5.874507,0.930763 -9.471264,3.328601 -11.949029,4.047952 -2.477766,0.719352 -5.834739,2.477766 -6.793874,3.277045 -0.959136,0.79928 -2.797478,3.037262 -3.836541,5.195316 -1.039063,2.158054 -3.277045,6.074522 -4.955532,10.070919 -1.678486,3.996396 -3.916468,5.994594 -4.23618,9.351567 -0.319711,3.356973 1.039063,4.63582 2.957334,7.113586 1.91827,2.477766 4.635819,6.713946 6.394234,9.671279 1.758414,2.957334 4.156252,7.832938 5.674882,9.27164 1.518631,1.438703 2.317911,2.477766 5.355172,4.316108 3.037261,1.838343 3.676685,2.877406 6.314306,3.516829 2.637622,0.639424 6.074519,1.278847 7.832939,0.799279 1.75841,-0.479568 3.59676,-2.31791 5.19531,-5.035459 1.59856,-2.71755 2.07811,-4.955589 2.51772,-8.272569 m 7.47327,-32.011107 c 0.71936,0 1.54479,0.397658 2.29103,0.798288 m -25.470124,8.15364 c 1.838342,-1.118991 2.957333,-1.758415 4.555892,-1.838343 M 132.16446,29.436149 c -4.75934,-4.601557 -9.95466,-7.95853 -12.59228,-10.036656 -2.63762,-2.078126 -7.35337,-3.516829 -9.75121,-3.356973 -2.39783,0.159856 -4.63582,1.358775 -7.35337,5.355171 -2.717545,3.996396 -6.634013,8.552288 -7.832932,13.747604 -1.198919,5.195315 -3.756613,10.710342 -4.475964,13.587748 -0.719352,2.877405 -2.397838,7.193513 -0.39964,10.150847 1.998198,2.957333 7.912865,8.392432 10.710346,10.79027 2.79747,2.397838 7.75301,6.394234 9.91106,8.552288 2.15805,2.158054 5.51503,5.355172 8.79207,5.754811 3.27705,0.39964 7.67308,0.959135 9.99099,-0.719351 2.31791,-1.678487 4.22098,-5.471504 5.38754,-9.76941 m 18.76791,-24.554732 c 2.94012,-0.04487 4.53868,-1.403642 5.7376,-5.479967 m -34.36901,6.074523 c 1.59856,-0.559496 2.8774,-0.959135 4.07632,-1.039063 M 231.53454,225.0471 c -1.34223,-1.67779 -5.14521,-6.48745 -6.71115,-7.82967 -1.56593,-1.34223 -7.49411,-7.71782 -8.27708,-9.1719 -0.78297,-1.45409 -5.03336,-6.37559 -6.04003,-7.38226 -1.00667,-1.00668 -7.49411,-7.71782 -8.61264,-9.1719 -1.11852,-1.45409 -6.71114,-9.1719 -7.60596,-10.84969 -0.89482,-1.67779 -3.91484,-12.52747 -4.92151,-15.32378 -1.00667,-2.79631 -1.11852,-5.03336 -2.46075,-8.27708 -1.34223,-3.24372 -1.67779,-5.25707 -2.1252,-6.823 -0.44741,-1.56594 -1.11852,-8.83634 -0.44741,-11.5208 0.67111,-2.68446 2.90816,-12.30377 3.80298,-15.65934 0.89482,-3.35558 1.56594,-6.48744 1.67779,-7.82967 0.11185,-1.34223 1.23038,-10.40228 1.11852,-11.96821 -0.11185,-1.56594 -0.67111,-9.507461 -1.56593,-13.198591 -0.89482,-3.691131 -2.3489,-10.849686 -4.02669,-15.100079 -1.67778,-4.250392 -5.25706,-13.422292 -6.71114,-14.764521 -1.45409,-1.342229 -4.4741,-5.03336 -5.92818,-7.941523 -1.45408,-2.908163 -2.23705,-5.368917 -4.13854,-7.941523 -1.90149,-2.572606 -4.80966,-6.599293 -5.36892,-9.283752 -0.55926,-2.684458 -2.01334,-4.697802 -4.4741,-6.711146 -2.46075,-2.013343 -7.15855,-3.802982 -9.28375,-4.697802 -2.1252,-0.894819 -8.05337,-0.111852 -10.17857,0.335557 -2.1252,0.44741 -7.60597,6.040032 -9.1719,7.494113 -1.56593,1.454082 -6.37559,8.053376 -7.71782,9.954867 -1.34223,1.901491 -3.24372,7.046703 -1.90149,10.066719 1.34223,3.020016 4.02669,9.060047 5.36892,9.731162 1.34223,0.671114 3.69113,2.348901 4.13854,3.579278 0.44741,1.230376 2.90816,6.151883 4.13854,8.053375 1.23037,1.901491 3.80298,5.816326 5.36891,7.046703 1.56594,1.230377 4.2504,3.467426 7.60597,3.467426 3.35557,0 7.82967,-1.565934 9.06005,-5.257065 1.23037,-3.69113 3.13187,-5.928179 3.02001,-11.297096 -0.11185,-5.368916 -1.78964,-9.171899 -3.46742,-12.639325 -1.67779,-3.467425 -2.57261,-5.928179 -4.36225,-9.171899" style="fill:none;stroke:#000000;stroke-width:1.79999995;stroke-linecap:round;stroke-miterlimit:4;stroke-opacity:1;stroke-dasharray:none;display:inline" />
	<!-- 
	Generated using the Perl SVG Module V2.50
	by Ronan Oger
	Info: http://www.roitsystems.com/
 -->
</svg>