<?xml version="1.0" encoding="UTF-8" standalone="yes"?>
<!DOCTYPE svg PUBLIC "-//W3C//DTD SVG 1.0//EN" "http://www.w3.org/TR/2001/REC-SVG-20010904/DTD/svg10.dtd">
<svg height="285" style="background-color:white" width="285" xmlns="http://www.w3.org/2000/svg" xmlns:svg="http://www.w3.org/2000/svg" xmlns:xlink="http://www.w3.org/1999/xlink">
	<path d="m 171.08477,106.26848 c 0,0 -1.64273,-3.13432 -2.63501,-4.59462 -1.84902,-2.721122 -3.54891,-5.705867 -6.15188,-7.717816 -1.16214,-0.898268 -2.58094,-1.530277 -4.02669,-1.789639 -2.90496,-0.521142 -5.89842,0.278106 -8.83634,0.559262 -1.03579,0.09912 -3.09618,0.397263 -3.09618,0.397263 m -9.64996,-12.196403 c 0.75194,0.01684 1.53571,0.02837 2.55892,1e-6 m -3.09203,2.025807 c 1.28953,-0.127785 2.53393,-0.142769 3.73175,-0.04129 M 134.6629,78.9695 c 1.73129,0.09389 3.52348,0.12688 5.4377,0.03784 m -6.53154,-28.344955 c 3.71305,-0.42275 7.67789,-0.365254 11.71427,-0.233932 M 144.4379,101.9261 c 0,0 1.55859,-3.433424 1.81177,-5.275381 0.39973,-2.908159 -0.17417,-5.87534 -0.50723,-8.791887 -0.22707,-1.98839 -0.92447,-3.918327 -1.01445,-5.917617 -0.1271,-2.824057 0.52948,-5.630638 0.6763,-8.453738 0.24302,-4.672778 0.38806,-9.354378 0.33815,-14.033205 -0.0265,-2.482182 -0.13902,-4.964966 -0.33815,-7.439289 -0.5507,-6.842718 -0.68297,-13.802976 -2.36704,-20.458046 -0.52118,-2.05957 -1.28734,-4.087949 -2.36705,-5.917616 -1.62834,-2.759374 -3.21823,-6.011842 -6.08669,-7.43929 -2.62565,-1.306619 -5.95999,-1.100793 -8.79189,-0.338149 -1.93246,0.520421 -4.05305,1.490063 -5.07224,3.21242 -1.84044,3.110229 -0.73242,7.207254 -0.6763,10.820785 0.0563,3.622307 0.57316,7.215648 0.92991,10.820784 0.26783,2.706614 0.8012,5.396115 0.84537,8.115589 0.0899,5.53645 -0.62157,11.052765 -1.09898,16.569326 -0.28817,3.329841 -0.93072,6.634173 -1.01445,9.975411 -0.0551,2.200169 0.4497,4.395884 0.33815,6.593915 -0.0751,1.480649 -0.61024,2.914862 -0.6763,4.395944 -0.19281,4.322708 0.82375,12.954854 0.82375,12.954854 m 27.39649,5.45117 c 0,0 -2.54362,-4.15197 -4.04255,-6.06357 -1.13221,-1.443923 -2.32625,-2.863941 -3.71964,-4.057791 -0.46293,-0.396635 -0.9305,-0.865682 -1.52168,-1.014448 -2.30587,-0.580255 -4.77027,0.206432 -7.10114,0.676299 -0.92611,0.186688 -1.8275,0.495836 -2.70519,0.845374 -2.73973,1.091085 -5.51304,2.222953 -7.94652,3.888716 -0.82278,0.56321 -1.41298,1.41412 -2.19797,2.0289 -2.65814,2.08179 -6.42626,2.87967 -8.45374,5.57947 -1.0415,1.38686 -1.54175,4.9695 -1.54175,4.9695 m -11.139378,96.94389 c 0,0 2.054712,9.70931 3.207818,14.53507 1.30063,5.44314 3.09562,10.76988 4.18439,16.25933 0.50108,2.52637 0.73567,5.09845 1.07598,7.65145 0.67401,5.0564 1.91287,15.18335 1.91287,15.18335 m -4.18439,-52.84283 c 0,0 6.07372,0.96968 9.0861,0.59777 3.61476,-0.44628 10.40119,-3.34751 10.40119,-3.34751 m 35.50751,2.51063 c 0,0 1.49386,9.61635 1.79331,14.46603 0.10315,1.67057 0,5.02126 0,5.02126 m -18.76997,-41.4852 c 2.33529,2.90914 4.66935,5.81829 8.24922,8.72743 M 96.034463,146.44324 c 0,0 2.99954,-0.0322 4.480477,0.16907 3.02466,0.41114 8.91106,2.10983 8.91106,2.10983 m -11.531715,-15.3822 c 0,0 3.080175,2.21145 4.502935,2.8142 1.85411,0.78549 4.88248,3.95324 6.99415,4.8787 0.69041,0.30258 2.19852,0.52964 2.19852,0.52964 M 109.98313,128.944 c 0,0 -0.19006,1.76803 0,2.62066 0.54854,2.46081 1.87169,4.71236 3.21242,6.84752 0.38178,0.60801 1.3589,1.67101 1.3589,1.67101 m 67.53468,-0.39525 c -6.13727,2.1932 -8.21412,-0.26029 -8.69975,-1.19404 -0.60213,-1.15775 -1.95853,-3.58063 2.20403,-6.52544 m -19.78293,12.56483 -1.74002,-0.9491 m -13.05088,15.77358 c -2.68825,2.55887 -3.30799,3.90834 -4.42836,6.76753 m 16.37196,-17.63743 -4.93034,3.29775 m 17.90137,-9.22961 c -6.48212,0.92214 -6.16618,2.89479 -9.57009,3.95457 m 26.10023,-6.96006 c -2.72605,1.05613 -7.29276,1.44746 -9.64917,2.68912 m -20.08091,-14.9738 c 0,0 0.91333,2.13397 1.09892,3.26824 0.33631,2.05542 0.30554,4.18803 0,6.24824 -0.49307,3.32469 -1.59297,6.56393 -2.92639,9.64917 -1.13385,2.62348 -2.62347,5.09921 -4.27095,7.43461 -1.23957,1.75717 -2.32684,3.8332 -4.19185,4.90368 -1.67291,0.96021 -3.76632,0.97968 -5.6946,1.02819 -1.64759,0.0414 -3.4247,0.0945 -4.90368,-0.63273 -1.86818,-0.91862 -4.41496,-4.41742 -4.41496,-4.41742 M 141.4949,135.9914 c 2.34638,0.51642 4.69277,0.74046 7.03915,0 m -25.70477,6.24824 c 2.61111,0.0685 4.95368,0.58455 8.14643,-0.31637 m -14.55285,-0.87001 c 0,0 -1.81739,-1.53129 -2.68912,-1.10728 -3.19876,1.55588 -4.5758,4.10108 -4.42913,7.11824 0.13441,2.76481 0.5736,5.95184 2.53093,7.90917 2.80256,2.80256 4.69049,3.73276 8.30462,3.55912 2.40256,-0.11543 5.13603,-2.08816 7.03916,-3.55912 0.64156,-0.49587 1.95786,-2.3188 3.5629,-4.13448 1.60504,-1.81569 3.49883,-3.62413 4.02989,-4.72378 0.72403,-1.49922 1.00934,-3.23988 0.9491,-4.90368 -0.12449,-3.43841 -1.42213,-6.76666 -2.68912,-9.96555 -1.607,-4.05734 -3.2896,-8.26824 -6.16914,-11.54737 -2.09504,-2.38576 -4.73365,-4.5481 -7.75098,-5.53642 -3.90876,-1.28031 -8.37739,-1.26672 -12.33829,-0.15818 -3.35318,0.93846 -6.05212,3.47484 -8.858262,5.53641 -1.567063,1.15126 -2.962363,2.51981 -4.42913,3.7964 -2.282377,1.98645 -4.812372,3.73124 -6.801879,6.01096 -1.000027,1.1459 -1.899424,2.4128 -2.530932,3.7964 -0.908254,1.98993 -1.264639,4.1922 -1.740015,6.32733 -0.406916,1.82764 -0.784441,3.67127 -0.949099,5.53641 -0.732641,8.29887 -0.988511,16.70328 -0.158184,24.99295 0.359698,3.59109 1.193164,7.13677 2.214566,10.59828 1.535278,5.20303 3.920356,10.11663 5.852779,15.18559 1.224479,3.21194 1.925926,6.66858 3.638214,9.64918 1.082945,1.8851 2.441488,3.67147 4.112764,5.06186 0.507895,0.42254 1.740016,0.9491 1.740016,0.9491 M 166.77738,107.46447 c -0.014,2.08449 0.26888,4.17762 0.10593,6.69764 -0.0813,1.2576 -0.93114,1.91714 -1.74002,2.05639 -3.72556,0.64134 -7.127,0.42066 -11.70556,-1.26547 -3.46473,-1.27594 -5.50876,-3.85012 -7.80586,-6.23246 m 32.66091,144.51334 c 0,0 -0.11014,-3.30914 -0.44741,-4.92151 -0.19312,-0.92324 -0.62149,-1.78171 -0.89482,-2.68446 -0.98551,-3.25491 -2.00172,-6.51141 -2.68446,-9.84301 -0.54409,-2.65505 -0.90351,-5.35169 -1.11852,-8.05338 -0.28402,-3.56877 -0.42891,-7.16366 -0.22371,-10.73783 0.0949,-1.65296 0.18826,-3.3378 0.67112,-4.92151 1.33243,-4.37018 3.99636,-8.21754 6.04003,-12.30376 1.98401,-3.96693 3.88655,-7.97882 6.04003,-11.85636 2.66367,-4.79619 5.65164,-9.40502 8.50078,-14.09341 2.22494,-3.66124 4.60711,-7.22951 6.71115,-10.96154 1.19566,-2.1208 2.67797,-4.14901 3.35557,-6.48744 0.47913,-1.65352 0.51969,-3.42519 0.44741,-5.14521 -0.18427,-4.3849 -1.00656,-8.76213 -2.23705,-12.97488 -1.1338,-3.88172 -3.00967,-7.51055 -4.6978,-11.18525 -1.04408,-2.27274 -2.37392,-4.41074 -3.35557,-6.71114 -1.30526,-3.05876 -1.31971,-6.76598 -3.35557,-9.39561 -1.54466,-1.99517 -4.56367,-4.58874 -6.26374,-5.1328 -1.14916,-0.36776 -6.82341,0.13019 -8.83634,0.65871 -1.30023,0.34139 -3.48419,-0.4479 -4.80966,-0.22371 -1.35172,0.22863 -2.63603,1.12548 -4.04025,1.24957 -3.36373,0.29726 -6.59695,-0.94462 -10.05315,-1.24957 -2.97212,-0.26224 -6.22489,-0.72427 -8.89625,0.22371 -1.15259,0.40901 -1.59823,1.58797 -2.5127,2.23705 -0.62606,0.44436 -1.55032,0.50614 -2.01335,1.11852 -0.78542,1.03877 -1.02194,2.50692 -0.89482,3.80298 0.26385,2.69013 1.58742,5.33775 3.35558,7.38226 0.81183,0.93871 1.25097,-1.041 3.13187,2.01335 2.1904,3.55693 5.19984,5.42338 7.82967,7.38226 0.23046,0.17166 3.92389,1.55326 6.71114,1.78964 2.12401,0.18013 3.79635,0.41411 5.81633,0.44741 2.45559,0.0405 4.56065,0.42372 6.71114,-1.34223 2.25043,-1.84802 5.59263,-6.71115 5.59263,-6.71115" style="fill:none;stroke:#000000;stroke-width:1.79999995;stroke-linecap:round;stroke-miterlimit:4;stroke-opacity:1;stroke-dasharray:none;display:inline" />
	<!-- 
	Generated using the Perl SVG Module V2.50
	by Ronan Oger
	Info: http://www.roitsystems.com/
 -->
</svg>