<?xml version="1.0" encoding="UTF-8" standalone="no"?><!DOCTYPE svg PUBLIC "-//W3C//DTD SVG 1.1//EN" "http://www.w3.org/Graphics/SVG/1.1/DTD/svg11.dtd"><svg width="100%" height="100%" viewBox="0 0 285 285" version="1.1" xmlns="http://www.w3.org/2000/svg" xmlns:xlink="http://www.w3.org/1999/xlink" xml:space="preserve" xmlns:serif="http://www.serif.com/" style="fill-rule:evenodd;clip-rule:evenodd;stroke-linecap:round;"><path d="M145.283,50.428c0.039,0.53 0.079,1.059 0.121,1.587c0.199,2.474 0.312,4.957 0.338,7.439c0.05,4.679 -0.095,9.361 -0.338,14.033c-0.147,2.824 -0.803,5.63 -0.676,8.454c0.09,2 0.787,3.929 1.014,5.918c0.2,1.744 0.485,3.507 0.597,5.264c-0,-0 2.06,-0.298 3.096,-0.397c2.938,-0.281 5.931,-1.081 8.836,-0.56c1.446,0.26 2.865,0.892 4.027,1.79c2.603,2.012 4.303,4.997 6.152,7.718c0.992,1.46 2.635,4.594 2.635,4.594c-1.334,0.242 -2.604,1.119 -3.991,1.241c-0.106,0.01 -0.211,0.018 -0.317,0.024c-0.007,2.062 0.267,4.137 0.106,6.629c-0.081,1.258 -0.931,1.917 -1.74,2.056c-3.725,0.642 -7.127,0.421 -11.705,-1.265c-3.465,-1.276 -5.509,-3.85 -7.806,-6.232c0.75,-0.533 1.185,-1.423 1.954,-1.951c-0.049,-0.079 -1.728,-2.815 -3.148,-4.844c-0.318,-0.454 -0.623,-0.872 -0.894,-1.217c-1.132,-1.444 -2.326,-2.864 -3.719,-4.058c-0.463,-0.397 -0.931,-0.866 -1.522,-1.015c-2.306,-0.58 -4.77,0.207 -7.101,0.677c-0.926,0.186 -1.827,0.495 -2.705,0.845c-2.74,1.091 -5.513,2.223 -7.947,3.889c-0.124,0.085 -0.244,0.177 -0.359,0.274c-0,-0 -1.017,-8.632 -0.824,-12.955c0.066,-1.481 0.601,-2.915 0.676,-4.396c0.112,-2.198 -0.393,-4.394 -0.338,-6.594c0.084,-3.341 0.726,-6.645 1.014,-9.975c0.478,-5.517 1.189,-11.033 1.099,-16.57c-0.044,-2.719 -0.577,-5.409 -0.845,-8.115c-0.357,-3.605 -0.874,-7.199 -0.93,-10.821c-0.056,-3.613 -1.164,-7.71 0.676,-10.821c1.02,-1.722 3.14,-2.692 5.073,-3.212c2.832,-0.763 6.166,-0.969 8.792,0.338c2.868,1.427 4.458,4.68 6.086,7.439c1.08,1.83 1.846,3.858 2.367,5.918c1.554,6.141 1.787,12.543 2.246,18.871Z" style="fill:#fff;"/><path d="M108.357,113.625c-0,-0 0.5,-3.583 1.542,-4.97c2.027,-2.7 5.795,-3.498 8.453,-5.579c0.666,-0.522 1.192,-1.213 1.839,-1.755c0.115,-0.097 0.235,-0.189 0.359,-0.274c2.434,-1.666 5.207,-2.798 7.947,-3.889c0.878,-0.35 1.779,-0.659 2.705,-0.845c2.331,-0.47 4.795,-1.257 7.101,-0.677c0.591,0.149 1.059,0.618 1.522,1.015c1.393,1.194 2.587,2.614 3.719,4.058c0.271,0.345 0.576,0.763 0.894,1.217c1.42,2.029 3.099,4.765 3.148,4.844c-0.769,0.528 -1.204,1.418 -1.954,1.951c2.297,2.382 4.341,4.956 7.806,6.232c4.578,1.686 7.98,1.907 11.705,1.266c0.809,-0.14 1.659,-0.799 1.74,-2.057c0.161,-2.492 -0.113,-4.567 -0.106,-6.629c0.106,-0.006 0.211,-0.014 0.317,-0.024c1.387,-0.122 2.657,-0.999 3.991,-1.241c0.016,-0.003 0.033,-0.005 0.049,-0.008c1.326,-0.224 3.51,0.565 4.81,0.224c2.013,-0.529 7.687,-1.027 8.836,-0.659c1.7,0.544 4.719,3.137 6.264,5.133c2.036,2.629 2.05,6.336 3.356,9.395c0.981,2.301 2.311,4.439 3.355,6.711c1.688,3.675 3.564,7.304 4.698,11.186c1.23,4.212 2.053,8.59 2.237,12.974c0.072,1.721 0.032,3.492 -0.447,5.146c-0.678,2.338 -2.16,4.366 -3.356,6.487c-2.104,3.732 -4.486,7.3 -6.711,10.962c-2.849,4.688 -5.837,9.297 -8.501,14.093c-2.153,3.878 -4.056,7.89 -6.04,11.856c-2.044,4.087 -4.708,7.934 -6.04,12.304c-0.483,1.584 -0.576,3.269 -0.671,4.922c-0.205,3.574 -0.06,7.169 0.224,10.738c0.215,2.701 0.574,5.398 1.118,8.053c0.683,3.332 1.699,6.588 2.685,9.843c0.273,0.903 0.701,1.761 0.894,2.684c0.208,0.991 0.329,2.623 0.392,3.734l-70.832,10.577c-0.375,-3.046 -1.209,-9.781 -1.719,-13.609c-0.341,-2.553 -0.575,-5.125 -1.076,-7.651c-1.089,-5.49 -2.884,-10.816 -4.185,-16.26c-1.153,-4.825 -3.208,-14.535 -3.208,-14.535c-0.033,-0.024 -0.064,-0.048 -0.092,-0.072c-1.672,-1.391 -3.03,-3.177 -4.113,-5.062c-1.713,-2.981 -2.414,-6.437 -3.638,-9.649c-1.933,-5.069 -4.318,-9.983 -5.853,-15.186c-1.022,-3.461 -1.855,-7.007 -2.215,-10.598c-0.83,-8.29 -0.574,-16.694 0.158,-24.993c0.165,-1.865 0.543,-3.709 0.949,-5.537c0.476,-2.135 0.832,-4.337 1.74,-6.327c0.632,-1.383 1.531,-2.65 2.531,-3.796c1.99,-2.28 4.52,-4.025 6.802,-6.011c1.467,-1.277 2.862,-2.645 4.429,-3.797c2.807,-2.061 5.505,-4.598 8.859,-5.536c0.519,-0.146 1.048,-0.272 1.583,-0.379Zm73.732,26.063c-0.817,0.283 -1.767,0.519 -2.758,0.741c0.813,-0.136 1.728,-0.373 2.758,-0.741Z" style="fill:#fff;"/><path d="M171.085,106.268c-0,0 -1.643,-3.134 -2.635,-4.594c-1.849,-2.721 -3.549,-5.706 -6.152,-7.718c-1.162,-0.898 -2.581,-1.53 -4.027,-1.79c-2.905,-0.521 -5.898,0.279 -8.836,0.56c-1.036,0.099 -3.096,0.397 -3.096,0.397m-9.65,-12.196c0.752,0.016 1.535,0.028 2.559,-0m-3.092,2.025c1.289,-0.127 2.534,-0.142 3.731,-0.041m-5.224,-3.942c1.731,0.094 3.523,0.127 5.438,0.038m-6.532,-28.345c3.713,-0.422 7.678,-0.365 11.714,-0.234m-0.845,51.498c-0,0 1.558,-3.433 1.812,-5.275c0.399,-2.908 -0.174,-5.876 -0.508,-8.792c-0.227,-1.989 -0.924,-3.918 -1.014,-5.918c-0.127,-2.824 0.529,-5.63 0.676,-8.454c0.243,-4.672 0.388,-9.354 0.338,-14.033c-0.026,-2.482 -0.139,-4.965 -0.338,-7.439c-0.55,-6.843 -0.683,-13.803 -2.367,-20.458c-0.521,-2.06 -1.287,-4.088 -2.367,-5.918c-1.628,-2.759 -3.218,-6.012 -6.086,-7.439c-2.626,-1.307 -5.96,-1.101 -8.792,-0.338c-1.933,0.52 -4.053,1.49 -5.073,3.212c-1.84,3.111 -0.732,7.208 -0.676,10.821c0.056,3.622 0.573,7.216 0.93,10.821c0.268,2.706 0.801,5.396 0.845,8.115c0.09,5.537 -0.621,11.053 -1.099,16.57c-0.288,3.33 -0.93,6.634 -1.014,9.975c-0.055,2.2 0.45,4.396 0.338,6.594c-0.075,1.481 -0.61,2.915 -0.676,4.396c-0.193,4.323 0.824,12.955 0.824,12.955m27.396,5.451c0,0 -2.544,-4.152 -4.043,-6.063c-1.132,-1.444 -2.326,-2.864 -3.719,-4.058c-0.463,-0.397 -0.931,-0.866 -1.522,-1.015c-2.306,-0.58 -4.77,0.207 -7.101,0.677c-0.926,0.186 -1.827,0.495 -2.705,0.845c-2.74,1.091 -5.513,2.223 -7.947,3.889c-0.822,0.563 -1.413,1.414 -2.198,2.029c-2.658,2.081 -6.426,2.879 -8.453,5.579c-1.042,1.387 -1.542,4.97 -1.542,4.97m-11.14,96.943c0,0 2.055,9.71 3.208,14.535c1.301,5.444 3.096,10.77 4.185,16.26c0.501,2.526 0.735,5.098 1.076,7.651c0.674,5.057 1.913,15.184 1.913,15.184m-4.185,-52.843c0,-0 6.074,0.969 9.086,0.598c3.615,-0.447 10.401,-3.348 10.401,-3.348m35.508,2.511c-0,-0 1.494,9.616 1.793,14.466c0.103,1.67 0,5.021 0,5.021m-18.77,-41.485c2.336,2.909 4.67,5.818 8.249,8.727m-53.647,-51.402c0,0 3,-0.032 4.481,0.169c3.025,0.411 8.911,2.11 8.911,2.11m-11.532,-15.382c0,-0 3.08,2.211 4.503,2.814c1.854,0.786 4.883,3.953 6.994,4.879c0.691,0.302 2.199,0.529 2.199,0.529m-1.607,-12.618c0,0 -0.19,1.768 0,2.621c0.549,2.46 1.872,4.712 3.213,6.847c0.381,0.608 1.358,1.671 1.358,1.671m67.535,-0.395c-6.137,2.193 -8.214,-0.26 -8.7,-1.194c-0.602,-1.158 -1.958,-3.581 2.204,-6.526m-19.783,12.565l-1.74,-0.949m-13.05,15.774c-2.689,2.559 -3.308,3.908 -4.429,6.767m16.372,-17.637l-4.93,3.298m17.901,-9.23c-6.482,0.922 -6.166,2.895 -9.57,3.955m26.1,-6.96c-2.726,1.056 -7.292,1.447 -9.649,2.689m-20.081,-14.974c0,-0 0.914,2.134 1.099,3.268c0.337,2.056 0.306,4.188 0,6.248c-0.493,3.325 -1.593,6.564 -2.926,9.649c-1.134,2.624 -2.624,5.1 -4.271,7.435c-1.24,1.757 -2.327,3.833 -4.192,4.904c-1.673,0.96 -3.766,0.979 -5.695,1.028c-1.647,0.041 -3.424,0.094 -4.903,-0.633c-1.868,-0.918 -4.415,-4.417 -4.415,-4.417m14.064,-18.757c2.346,0.517 4.693,0.741 7.039,0m-25.705,6.249c2.611,0.068 4.954,0.584 8.147,-0.317m-14.553,-0.87c-0,0 -1.818,-1.531 -2.689,-1.107c-3.199,1.556 -4.576,4.101 -4.429,7.118c0.134,2.765 0.573,5.952 2.531,7.909c2.802,2.803 4.69,3.733 8.304,3.56c2.403,-0.116 5.136,-2.089 7.039,-3.56c0.642,-0.495 1.958,-2.318 3.563,-4.134c1.605,-1.816 3.499,-3.624 4.03,-4.724c0.724,-1.499 1.009,-3.24 0.949,-4.904c-0.124,-3.438 -1.422,-6.766 -2.689,-9.965c-1.607,-4.057 -3.29,-8.268 -6.169,-11.547c-2.095,-2.386 -4.734,-4.549 -7.751,-5.537c-3.909,-1.28 -8.377,-1.267 -12.338,-0.158c-3.353,0.938 -6.052,3.475 -8.859,5.536c-1.567,1.152 -2.962,2.52 -4.429,3.797c-2.282,1.986 -4.812,3.731 -6.802,6.011c-1,1.146 -1.899,2.413 -2.531,3.796c-0.908,1.99 -1.264,4.192 -1.74,6.327c-0.406,1.828 -0.784,3.672 -0.949,5.537c-0.732,8.299 -0.988,16.703 -0.158,24.993c0.36,3.591 1.193,7.137 2.215,10.598c1.535,5.203 3.92,10.117 5.853,15.186c1.224,3.212 1.925,6.668 3.638,9.649c1.083,1.885 2.441,3.671 4.113,5.062c0.507,0.422 1.74,0.949 1.74,0.949m67.912,-103.981c-0.014,2.085 0.269,4.178 0.106,6.698c-0.081,1.258 -0.931,1.917 -1.74,2.057c-3.725,0.641 -7.127,0.42 -11.705,-1.266c-3.465,-1.276 -5.509,-3.85 -7.806,-6.232m32.661,144.513c-0,-0 -0.11,-3.309 -0.448,-4.922c-0.193,-0.923 -0.621,-1.781 -0.894,-2.684c-0.986,-3.255 -2.002,-6.511 -2.685,-9.843c-0.544,-2.655 -0.903,-5.352 -1.118,-8.053c-0.284,-3.569 -0.429,-7.164 -0.224,-10.738c0.095,-1.653 0.188,-3.338 0.671,-4.922c1.332,-4.37 3.996,-8.217 6.04,-12.304c1.984,-3.966 3.887,-7.978 6.04,-11.856c2.664,-4.796 5.652,-9.405 8.501,-14.093c2.225,-3.662 4.607,-7.23 6.711,-10.962c1.196,-2.121 2.678,-4.149 3.356,-6.487c0.479,-1.654 0.519,-3.425 0.447,-5.146c-0.184,-4.384 -1.007,-8.762 -2.237,-12.974c-1.134,-3.882 -3.01,-7.511 -4.698,-11.186c-1.044,-2.272 -2.374,-4.41 -3.355,-6.711c-1.306,-3.059 -1.32,-6.766 -3.356,-9.395c-1.545,-1.996 -4.564,-4.589 -6.264,-5.133c-1.149,-0.368 -6.823,0.13 -8.836,0.659c-1.3,0.341 -3.484,-0.448 -4.81,-0.224c-1.351,0.228 -2.636,1.125 -4.04,1.249c-3.364,0.298 -6.597,-0.944 -10.053,-1.249c-2.972,-0.262 -6.225,-0.724 -8.896,0.224c-1.153,0.409 -1.599,1.587 -2.513,2.237c-0.626,0.444 -1.55,0.506 -2.013,1.118c-0.786,1.039 -1.022,2.507 -0.895,3.803c0.264,2.69 1.587,5.338 3.355,7.382c0.812,0.939 1.251,-1.041 3.132,2.014c2.191,3.557 5.2,5.423 7.83,7.382c0.23,0.172 3.924,1.553 6.711,1.79c2.124,0.18 3.796,0.414 5.816,0.447c2.456,0.04 4.561,0.424 6.711,-1.342c2.251,-1.848 5.593,-6.711 5.593,-6.711" style="fill:none;fill-rule:nonzero;stroke:#000;stroke-width:1.8px;"/><path d="M105.667,262.882l74.87,-11.18" style="fill:none;"/></svg>