<?xml version="1.0" encoding="UTF-8" standalone="yes"?>
<!DOCTYPE svg PUBLIC "-//W3C//DTD SVG 1.0//EN" "http://www.w3.org/TR/2001/REC-SVG-20010904/DTD/svg10.dtd">
<svg height="285" style="background-color:white" width="285" xmlns="http://www.w3.org/2000/svg" xmlns:svg="http://www.w3.org/2000/svg" xmlns:xlink="http://www.w3.org/1999/xlink">
	<path d="m 142.16792,189.96477 c -3.41829,0.32046 -4.56843,0.84336 -13.60731,-0.80677 M 83.094691,124.65777 c 4.820567,7.52645 8.295143,12.66278 11.014377,17.49698 2.719234,4.83419 4.380988,9.81945 7.100222,14.04937 2.71923,4.22992 7.55343,10.72587 9.66839,13.74724 2.11496,3.02137 2.41709,4.98526 4.22992,6.94915 1.81282,1.96389 6.64701,7.7045 9.66838,10.27266 3.02137,2.56817 13.74724,4.68313 15.56006,6.94915 1.81282,2.26603 10.87694,13.74724 11.48121,17.67502 0.60427,3.92779 4.98526,10.5748 6.34488,13.4451 1.35962,2.87031 4.98526,10.27266 7.55343,15.71113 2.56816,5.43847 6.49594,12.84083 7.85556,16.16434 M 78.387394,99.424132 c 0.916957,4.208138 4.995808,9.495538 6.657562,11.912628 1.661754,2.4171 9.407847,9.32723 15.731924,6.77858 M 80.966105,114.5092 c -2.11496,1.66176 -3.474576,2.56817 -5.13633,5.89168 M 58.15437,89.583527 c 0.302522,5.588903 3.777099,11.178443 5.438853,14.653013 1.661754,3.47458 9.517318,16.3154 12.085483,18.2793 2.568165,1.96389 9.819455,2.71923 15.408991,2.26602 5.589536,-0.4532 9.571853,1.63534 10.375463,-4.6208 M 45.28561,44.873459 c -6.414171,1.202628 -18.805475,0.241233 -22.544231,4.086811 -3.738755,3.845577 -3.525112,7.691154 -1.068216,12.391304 2.456897,4.70015 15.783896,6.066768 21.725344,5.009583 m 81.172503,0.693625 c -6.64108,1.463616 -12.0995,4.338021 -13.27453,5.940345 m 27.87961,-6.308048 c -1.92197,3.957973 0.21446,5.880762 0.21446,5.880762 m -26.36178,-11.3303 c 1.25871,2.998216 7.66801,6.096042 14.82505,5.98922 7.15705,-0.106821 13.77999,0.427287 24.46215,-4.806971 M 124.756,56.437781 c -5.02062,2.350075 -9.50712,5.661544 -21.2575,5.875187 -11.750374,0.213643 -16.318133,-0.448914 -23.327732,0.20283 M 257.34503,223.24254 c -3.94938,-4.16286 -8.53921,-10.67401 -12.70208,-15.26384 -4.16286,-4.58983 -4.58982,-4.80331 -8.00551,-8.75269 -3.41568,-3.94939 -10.78076,-12.16838 -15.47732,-19.53346 -4.69657,-7.36507 -4.05613,-5.97745 -8.32574,-12.27512 -4.2696,-6.29767 -5.12353,-6.08418 -8.00551,-14.40992 -5.23858,-15.1337 -9.17965,-18.46605 -10.8875,-27.6457 -1.70784,-9.17966 -1.28088,-22.52218 -1.49436,-25.29742 -0.21348,-2.775246 -2.6685,-35.224258 -2.98872,-38.212982 -0.32022,-2.988725 -1.28088,-15.263845 -2.98873,-18.46605 -1.70784,-3.202205 -5.97745,-4.910047 -5.97745,-4.910047 0,0 -6.29767,-3.735906 -10.35379,-4.910048 -4.05613,-1.174142 -16.43799,-3.415686 -20.81434,-4.269607 -4.37634,-0.853921 -7.35399,-1.744412 -14.83688,-2.134803 -5.13431,-0.267862 -14.40992,-1.387622 -17.82561,-1.174142 -3.41568,0.21348 -11.9549,0.640441 -19.853669,3.202205 -7.898773,2.561764 -9.393135,1.921323 -15.477325,4.269607 -6.084189,2.348284 -20.387372,3.735906 -24.016538,4.056126 -3.629166,0.320221 -9.606615,1.174142 -11.207718,5.016788 -1.601103,3.842646 -1.494362,6.08419 -0.10674,7.792032 1.387622,1.707843 4.841479,4.438624 8.358331,5.567814 m 118.785179,7.583816 c -4.67955,3.773834 -19.48859,8.354798 -27.62447,8.604343 -8.13588,0.249545 -16.15201,6.038136 -16.15201,6.038136 m 48.30509,-6.038136 c -3.77384,3.622881 -14.34058,8.755297 -16.45392,9.35911 m -28.5302,91.930618 c 5.43433,2.11335 7.5221,2.15295 12.50357,2.002 4.98146,-0.15096 11.49802,-0.79437 15.27186,-4.71916 M 44.932098,69.75018 c 1.067402,3.629166 3.202206,5.97745 5.97745,8.325733 2.775244,2.348284 7.578552,6.938111 11.207718,6.724631 3.629165,-0.21348 4.696566,-6.19093 5.763968,-8.432473 C 68.948636,74.126527 72.044102,69.32322 71.08344,66.227755 69.864379,62.29967 59.342021,59.716604 56.993738,59.503124 m 96.374382,22.237335 c -2.41526,1.811441 -4.37765,2.868115 -9.35911,2.868115 -4.98146,0 -14.34057,-1.056674 -17.05774,-1.660488 C 124.23411,82.344273 114.875,79.627112 112.00689,78.268531 109.13877,76.909951 99.477757,71.777535 96.760596,70.268001 94.043435,68.758467 84.382418,64.078912 81.061443,62.871285 77.740468,61.663658 67.324684,55.927428 58.720341,55.776475 51.181198,55.64421 48.45551,56.833149 46.040255,60.00317 c -2.415254,3.170022 -3.18028,7.457082 -2.761374,10.986113 0.462694,3.897916 1.749044,9.46004 6.535209,13.015477 5.283369,3.924788 12.227225,8.088957 16.604874,10.051351 4.377648,1.962394 12.076271,5.194942 14.793432,6.855429 2.717161,1.66049 10.850997,6.1235 14.793433,9.0572 4.171751,3.10435 7.245761,15.5482 7.396721,19.32204 0.15095,3.77383 0.75476,14.18962 2.2643,19.32203 1.50953,5.13242 6.7929,12.982 9.20815,14.94439" style="fill:none;stroke:#000000;stroke-width:1.79999995;stroke-linecap:round;stroke-miterlimit:4;stroke-opacity:1;stroke-dasharray:none;display:inline" />
	<!-- 
	Generated using the Perl SVG Module V2.50
	by Ronan Oger
	Info: http://www.roitsystems.com/
 -->
</svg>