<?xml version="1.0" encoding="UTF-8" standalone="yes"?>
<!DOCTYPE svg PUBLIC "-//W3C//DTD SVG 1.0//EN" "http://www.w3.org/TR/2001/REC-SVG-20010904/DTD/svg10.dtd">
<svg height="285" style="background-color:white" width="285" xmlns="http://www.w3.org/2000/svg" xmlns:svg="http://www.w3.org/2000/svg" xmlns:xlink="http://www.w3.org/1999/xlink">
	<path d="m 62.374842,85.842615 c 4.287695,0.581653 4.033356,-3.904507 4.033356,-3.904507 M 139.43626,235.60059 c 5.89168,2.8703 26.87985,8.76453 28.09875,9.21517 4.28285,1.58341 17.67502,16.31541 31.57333,25.07739 m -85.59113,-42.76166 c 7.03549,3.03063 15.04212,7.86482 18.66776,10.88619 3.62565,3.02137 11.48121,12.08549 13.59617,13.59617 2.11496,1.51069 15.10686,14.95579 18.88357,19.18571 M 36.981912,142.60499 c 4.410868,12.92927 8.33865,14.89316 10.302541,18.36774 1.963891,3.47457 5.13633,6.19381 9.36625,12.08548 4.229919,5.89167 6.495947,8.30877 10.121592,14.04938 3.625645,5.7406 7.855564,9.81945 11.028003,13.59617 3.17244,3.77671 6.19381,7.25128 8.459839,9.36624 2.266028,2.11496 8.157701,7.10023 11.028003,9.81946 2.8703,2.71923 11.33014,10.27266 20.69639,6.04274 m -10.59989,-83.06592 c -2.84521,12.81905 -2.84521,16.14256 -2.54307,22.03423 0.30213,5.89167 2.41709,24.77524 10.27266,35.0479 M 74.023585,156.89388 c -2.054073,1.04932 -2.11496,5.43846 -1.510686,5.89167 M 38.979255,113.23408 c -4.384559,2.26702 -7.254862,3.92877 -7.40593,14.20143 -0.151069,10.27266 7.553427,17.67502 8.913044,19.48784 1.359617,1.81283 6.344879,5.2874 8.006632,7.10023 1.661754,1.81282 10.272661,13.4451 17.523951,13.14296 7.25129,-0.30214 13.898306,-4.83419 18.279294,-6.94915 4.380987,-2.11496 14.372767,-4.21777 9.754549,-12.98582 m -7.941727,-7.25737 c -1.05748,1.96389 -2.417097,3.17244 -2.417097,5.58954 M 44.081118,87.72358 c -5.256503,4.512963 -6.162914,9.649293 -6.61612,11.613184 -0.453206,1.963886 0.755343,12.236556 1.812822,14.804716 1.05748,2.56817 6.042742,9.06411 8.006633,11.93442 1.963891,2.8703 3.625645,5.43846 6.647016,7.70449 3.021371,2.26603 3.927782,4.07885 6.495947,5.58954 2.568165,1.51068 12.689758,11.48121 19.487842,11.33014 6.798084,-0.15107 19.941047,-5.58954 21.451732,-6.49595 1.51069,-0.90641 3.35173,-1.1272 3.48869,-4.26478 M 57.708182,50.08842 c 1.963891,1.661754 3.676311,2.583496 5.182403,5.275433 M 75.979376,32.420703 C 70.700077,28.485619 65.412678,23.953562 61.03169,23.953562 c -4.380987,0 -9.970523,5.287399 -12.236551,7.553427 -2.266029,2.266028 -6.949153,5.589536 -9.970524,12.085484 -3.021371,6.495947 -5.740604,6.949152 -6.19381,13.747237 -0.204544,3.068162 -0.06043,9.094326 2.114959,13.4451 0.604274,1.208548 1.963891,4.229919 4.683125,8.610907 2.719234,4.380987 6.318131,13.578333 10.863561,13.964922 M 98.34562,60.361081 c -0.453206,0.604274 -2.216281,0.602528 -2.216281,0.602528 m 5.403251,11.295036 c -2.733765,1.09433 -6.008651,4.214424 -6.008651,4.214424 m 0.46461,-12.493198 c 1.752797,3.934637 3.867756,6.049596 6.889131,6.502802 3.02137,0.453205 13.59616,0.302137 16.01326,-0.604274 2.4171,-0.906412 8.00663,-4.22992 9.36625,-6.042742 M 111.33751,43.743541 c -1.66175,4.532056 -4.38098,8.761975 -6.04274,10.574798 -1.66175,1.812822 -3.32351,3.776713 -4.38099,4.532056 m 3.17244,21.904938 c 0.75535,4.532057 2.97174,8.446553 3.37204,14.510524 m 33.63976,-15.719072 c -1.96389,4.229919 -3.02137,7.402359 -4.68313,9.36625 -1.66175,1.963891 -4.68312,4.229919 -7.10022,5.438467 -2.4171,1.208548 -6.45896,5.700818 -10.40523,7.306928 M 96.459895,21.043853 c -3.85488,0.03941 -6.574114,0.945818 -9.595484,2.909709 -3.021371,1.963891 -7.855564,5.740605 -10.876935,8.459839 -3.021371,2.719233 -11.934415,15.408991 -12.840826,19.941047 -0.906411,4.532056 0.755343,6.949153 1.510685,13.596169 0.755343,6.647015 1.963891,17.977156 1.963891,17.977156 0,0 4.078851,3.927782 11.028004,4.380987 6.949153,0.453206 14.200443,-7.704495 16.466471,-14.200442 2.266028,-6.495948 3.474576,-21.451733 -1.05748,-26.588063 M 266.1994,237.03711 c -5.76837,-4.9138 -6.62294,-5.98201 -12.07084,-9.07984 -5.4479,-3.09782 -8.97301,-6.51612 -13.3527,-9.18666 -4.37968,-2.67054 -15.16866,-9.61394 -18.90742,-12.49812 -3.73875,-2.88418 -15.80959,-12.49813 -19.54835,-14.31409 -3.73876,-1.81597 -9.93441,-5.55473 -15.16867,-14.95503 -5.23425,-9.4003 -4.80697,-9.07983 -5.87518,-13.45952 -1.06822,-4.37968 -4.37969,-13.45952 -6.94341,-19.76199 -2.56372,-6.30247 -7.47751,-20.2961 -8.11844,-28.30772 -0.64093,-8.01162 -3.73875,-34.930662 -5.87518,-40.485385 -2.13644,-5.554722 -5.87519,-10.361694 -9.4003,-14.10045 -3.52511,-3.738755 -11.75038,-9.293473 -13.24588,-11.323088 -2.16673,-2.940566 -12.71177,-10.468516 -15.27549,-12.177661 -2.56372,-1.709145 -11.19465,-9.918208 -13.24588,-11.42991 -2.0867,-1.537851 -8.05165,-5.007337 -12.711765,-4.913793 M 157.54849,125.31671 c 1.6011,2.98872 2.02806,6.08419 2.02806,8.53921 0,1.72113 -0.42696,4.80331 -0.85392,7.04485 m -51.5555,-32.66249 c -1.17414,1.17414 -2.1348,2.77524 -2.56176,4.16287 -0.42697,1.38762 -2.34829,5.23026 -2.66851,5.97745 m -27.325482,-7.36508 c -0.533701,0.74719 -3.308945,2.77525 -6.61789,2.66851 -3.308945,-0.10674 -15.29598,-6.22306 -17.361345,-10.90356 m 27.715141,2.25761 c 3.842646,-4.48309 3.949387,-5.230274 3.735906,-7.151596 -0.308506,-2.776547 -5.870709,-6.297671 -11.634678,-8.432474 -6.99116,-2.589318 -12.581098,-6.111606 -19.41959,2.334576 m 97.980358,25.844834 c -6.19093,-4.05613 -10.8875,-6.6179 -16.01103,-9.17966 -5.12353,-2.56176 -8.75269,-2.98872 -11.31446,-4.91005 -2.56176,-1.92132 -10.03357,-6.404407 -13.23578,-7.89877 -3.2022,-1.494362 -14.089701,-2.561764 -18.145827,-3.629165 -4.056126,-1.067402 -7.553146,-2.357481 -13.982962,-2.988725 -2.782156,-0.273137 -7.814517,-3.04807 -13.129041,-3.202205 -1.494363,0 -9.179655,0.21348 -12.168379,5.977449 -2.988725,5.763969 -1.707843,9.179656 1.280882,13.876226 2.988725,4.69656 14.943623,11.10097 14.943623,11.10097 0,0 6.617891,6.19093 11.527939,8.32574 4.910047,2.1348 8.966174,4.69656 13.235781,6.19093 4.269606,1.49436 8.539214,2.77524 10.247054,5.33701 1.70784,2.56176 6.19093,7.25833 8.11225,9.82009 1.92133,2.56176 11.9549,13.23578 14.30319,13.87622 2.34828,0.64044 6.40441,4.05613 9.39313,5.97745" style="fill:none;stroke:#000000;stroke-width:1.79999995;stroke-linecap:round;stroke-miterlimit:4;stroke-opacity:1;stroke-dasharray:none;display:inline" />
	<!-- 
	Generated using the Perl SVG Module V2.50
	by Ronan Oger
	Info: http://www.roitsystems.com/
 -->
</svg>