<?xml version="1.0" encoding="UTF-8" standalone="no"?><!DOCTYPE svg PUBLIC "-//W3C//DTD SVG 1.1//EN" "http://www.w3.org/Graphics/SVG/1.1/DTD/svg11.dtd"><svg width="100%" height="100%" viewBox="0 0 285 285" version="1.1" xmlns="http://www.w3.org/2000/svg" xmlns:xlink="http://www.w3.org/1999/xlink" xml:space="preserve" xmlns:serif="http://www.serif.com/" style="fill-rule:evenodd;clip-rule:evenodd;stroke-linecap:round;"><path d="M257.579,223.61l-83.516,34.162c-7.607,-16.495 -13.536,-26.471 -16.419,-32.88c-3.726,-8.283 -3.544,-10.905 -7.609,-17.036c-11.197,-16.89 -9.254,-13.648 -18.942,-17.537c-12.726,-5.108 -20.42,-19.841 -21.758,-21.996c-16.309,-26.266 -25.821,-43.887 -25.821,-43.887c-8.138,-0.82 -11.322,-5.686 -17.036,-15.251c-9.885,-16.546 -7.425,-17.839 -8.723,-18.88c-17.221,-13.809 -14.283,-17.239 -14.576,-23.658c-18.456,-1.947 -23.198,-1.936 -23.076,-12.109c0.062,-5.078 6.31,-7.477 6.31,-7.477l18.242,-2.013c-0,-0 1.369,-3.277 2.788,-4.153c5.733,-3.539 16.697,-3.453 51.637,-12.237c24.505,-6.161 56.713,1.552 61.862,2.919c16.973,4.505 26.44,4.812 27.634,22.29c2.04,29.879 0.579,13.52 3.868,44.16c1.748,16.289 0.403,23.561 5.406,38.837c8.042,24.549 20.757,40.263 35.488,58.195c7.489,9.116 22.449,25.576 24.241,28.551Z" style="fill:#fff;"/><path d="M142.168,189.965c-3.418,0.32 -4.569,0.843 -13.607,-0.807m-45.466,-64.5c4.82,7.526 8.295,12.663 11.014,17.497c2.719,4.834 4.381,9.819 7.1,14.049c2.72,4.23 7.554,10.726 9.669,13.747c2.115,3.022 2.417,4.986 4.23,6.95c1.812,1.963 6.647,7.704 9.668,10.272c3.021,2.568 13.747,4.683 15.56,6.949c1.813,2.266 10.877,13.748 11.481,17.675c0.605,3.928 4.986,10.575 6.345,13.445c1.36,2.871 4.985,10.273 7.554,15.712c2.568,5.438 6.495,12.84 7.855,16.164m-95.184,-157.694c0.917,4.208 4.996,9.496 6.658,11.913c1.662,2.417 9.408,9.327 15.732,6.778m-19.811,-3.606c-2.115,1.662 -3.474,2.568 -5.136,5.892m-17.676,-30.817c0.303,5.588 3.777,11.178 5.439,14.653c1.662,3.474 9.518,16.315 12.086,18.279c2.568,1.964 9.819,2.719 15.409,2.266c5.589,-0.453 9.572,1.635 10.375,-4.621m-56.177,-75.288c-6.415,1.203 -18.806,0.242 -22.545,4.087c-3.738,3.846 -3.525,7.691 -1.068,12.392c2.457,4.7 15.784,6.066 21.726,5.009m81.172,0.694c-6.641,1.463 -12.099,4.338 -13.275,5.94m27.88,-6.308c-1.922,3.958 0.215,5.881 0.215,5.881m-26.362,-11.33c1.258,2.998 7.668,6.096 14.825,5.989c7.157,-0.107 13.78,0.427 24.462,-4.807m-27.56,-5.982c-5.021,2.35 -9.507,5.661 -21.257,5.875c-11.751,0.214 -16.319,-0.449 -23.328,0.203m177.174,160.727c-3.949,-4.163 -8.539,-10.674 -12.702,-15.264c-4.163,-4.59 -4.59,-4.804 -8.006,-8.753c-3.415,-3.949 -10.78,-12.168 -15.477,-19.533c-4.696,-7.366 -4.056,-5.978 -8.326,-12.276c-4.269,-6.297 -5.123,-6.084 -8.005,-14.409c-5.239,-15.134 -9.18,-18.467 -10.888,-27.646c-1.707,-9.18 -1.281,-22.522 -1.494,-25.298c-0.213,-2.775 -2.668,-35.224 -2.989,-38.213c-0.32,-2.988 -1.281,-15.263 -2.988,-18.466c-1.708,-3.202 -5.978,-4.91 -5.978,-4.91c0,0 -6.298,-3.736 -10.354,-4.91c-4.056,-1.174 -16.438,-3.415 -20.814,-4.269c-4.376,-0.854 -7.354,-1.745 -14.837,-2.135c-5.134,-0.268 -14.41,-1.388 -17.826,-1.174c-3.415,0.213 -11.954,0.64 -19.853,3.202c-7.899,2.562 -9.393,1.921 -15.478,4.27c-6.084,2.348 -20.387,3.735 -24.016,4.056c-3.629,0.32 -9.607,1.174 -11.208,5.016c-1.601,3.843 -1.494,6.085 -0.106,7.792c1.387,1.708 4.841,4.439 8.358,5.568m118.785,7.584c-4.68,3.774 -19.489,8.355 -27.624,8.604c-8.136,0.25 -16.152,6.039 -16.152,6.039m48.305,-6.039c-3.774,3.623 -14.341,8.756 -16.454,9.36m-28.53,91.93c5.434,2.114 7.522,2.153 12.503,2.002c4.982,-0.151 11.498,-0.794 15.272,-4.719m-115.531,-100.902c1.067,3.629 3.202,5.978 5.978,8.326c2.775,2.348 7.578,6.938 11.207,6.725c3.629,-0.214 4.697,-6.191 5.764,-8.433c1.068,-2.241 4.163,-7.045 3.202,-10.14c-1.219,-3.928 -11.741,-6.511 -14.089,-6.725m96.374,22.237c-2.415,1.812 -4.378,2.869 -9.359,2.869c-4.981,-0 -14.341,-1.057 -17.058,-1.661c-2.717,-0.604 -12.076,-3.321 -14.944,-4.679c-2.868,-1.359 -12.529,-6.491 -15.246,-8.001c-2.718,-1.51 -12.379,-6.189 -15.7,-7.397c-3.321,-1.207 -13.736,-6.944 -22.341,-7.095c-7.539,-0.132 -10.264,1.057 -12.68,4.227c-2.415,3.17 -3.18,7.457 -2.761,10.986c0.463,3.898 1.749,9.46 6.535,13.016c5.283,3.925 12.227,8.089 16.605,10.051c4.378,1.963 12.076,5.195 14.793,6.856c2.718,1.66 10.851,6.123 14.794,9.057c4.172,3.104 7.246,15.548 7.397,19.322c0.15,3.774 0.754,14.189 2.264,19.322c1.509,5.132 6.793,12.982 9.208,14.944" style="fill:none;fill-rule:nonzero;stroke:#000;stroke-width:1.8px;"/></svg>