<?xml version="1.0" encoding="UTF-8" standalone="yes"?>
<!DOCTYPE svg PUBLIC "-//W3C//DTD SVG 1.0//EN" "http://www.w3.org/TR/2001/REC-SVG-20010904/DTD/svg10.dtd">
<svg height="285" style="background-color:white" width="285" xmlns="http://www.w3.org/2000/svg" xmlns:svg="http://www.w3.org/2000/svg" xmlns:xlink="http://www.w3.org/1999/xlink">
	<path d="m 153.07534,174.11919 c -4.70015,4.16604 -8.75937,6.19565 -13.56634,7.47751 m 11.53673,41.23314 c 5.55472,5.76836 10.46851,10.46851 13.03223,12.92541 2.56372,2.45689 7.05023,7.37069 9.07984,9.50712 2.02961,2.13643 6.51611,8.01162 8.4389,9.72076 m -50.84707,-52.4494 c -2.88419,3.20465 -5.87519,4.48651 -7.69116,5.23426 -1.81597,0.74775 -1.58222,2.55129 -10.24482,1.00859 M 65.80007,150.94192 c 4.381714,7.36768 7.372719,15.05883 11.004653,20.93402 3.631934,5.87518 3.631934,4.37968 5.768366,7.47751 2.136431,3.09782 5.234257,6.72976 8.652548,10.78898 3.418291,4.05922 12.711773,14.42091 17.732383,16.87781 5.02062,2.4569 10.3617,4.27286 13.13906,5.55472 2.77736,1.28186 7.26386,5.23426 11.64355,10.57534 4.37968,5.34108 10.25487,13.88681 11.64355,16.13006 1.38868,2.24325 4.9138,7.37069 6.30248,10.8958 1.38868,3.52511 3.84557,6.30248 5.87518,9.07984 2.02961,2.77736 8.75937,12.07084 10.46852,14.31409 M 76.804723,140.89768 c -1.068216,1.92278 -2.67054,4.37968 -3.952399,6.19565 M 55.308548,111.72387 c -2.645504,0.11833 -5.316044,0.86608 -6.704725,2.68205 -1.388681,1.81597 -2.456896,4.48651 -2.02961,9.18666 0.427286,4.70015 3.204648,9.50712 4.593328,11.64355 1.388681,2.13643 2.67054,4.48651 6.409296,7.9048 3.738755,3.41829 5.875187,6.51612 9.079835,8.33208 3.204647,1.81597 10.160574,2.19827 14.527736,3.31147 5.447901,1.38869 8.866192,-0.53411 11.964018,-2.88418 3.097826,-2.35008 3.314018,-5.72561 2.832046,-8.41753 m -2.579261,-15.43874 c -2.282395,2.27831 -3.671076,3.77381 -4.525649,4.84203 M 54.13822,102.46903 c -1.04789,2.00248 0.340791,8.30496 1.088542,9.15953 0.747751,0.85457 6.409295,8.01162 9.293478,10.14805 2.884183,2.13643 12.284483,10.04123 14.314093,11.75038 2.02961,1.70914 4.166042,2.88418 7.691154,5.23425 3.525113,2.35008 9.788882,6.59387 13.653813,4.0981 M 80.757122,26.91904 92.42815,29.466862 c -4.513982,-1.265963 -8.359559,-2.013714 -11.671028,-2.013714 -3.31147,0 -7.157047,0.854573 -10.254873,4.593328 -3.097826,3.738756 -4.70015,6.195653 -6.195652,8.545728 -1.495502,2.350075 -12.498126,14.955022 -13.032234,19.868815 -0.534108,4.913793 -0.213643,6.622939 0.213643,7.263868 0.427286,0.64093 0.844345,1.491108 1.704032,2.080824 m 46.990612,12.172997 c 2.4729,-5.173986 4.82297,-11.155995 5.14344,-14.253821 0.32046,-3.097826 0.57903,-3.179236 -0.67188,-7.998913 m -4.989667,-8.665255 c 1.815967,3.738756 5.234257,10.04123 6.622937,10.04123 1.38868,0 2.02353,-0.998148 3.04137,-1.620701 m 10.73862,-16.645791 c -1.28186,4.913793 -1.92279,6.088831 -4.59333,9.4003 -2.67054,3.311469 -6.72976,5.768366 -6.08883,7.904797 0.64093,2.136432 2.54551,6.947181 5.27856,6.998703 m 25.48606,-6.357773 c -10.3617,0.213643 -27.98726,6.302474 -29.80323,9.079835 M 255.08996,233.08471 c -8.11845,-6.51612 -17.94603,-16.66417 -21.2575,-19.65517 -3.31147,-2.99101 -13.24588,-10.14806 -17.19828,-13.24588 -3.9524,-3.09783 -10.78898,-8.43891 -16.45052,-14.8482 -5.66155,-6.4093 -8.97302,-9.82759 -10.8958,-14.20727 -1.92279,-4.37969 -4.9138,-8.97302 -7.37069,-20.08246 -2.4569,-11.10945 -3.84558,-19.97564 -5.34108,-29.6964 -1.49551,-9.72077 -2.77736,-14.63456 -4.48651,-30.550979 -1.70915,-15.916417 -2.56372,-19.975638 -3.84558,-22.112069 -1.28186,-2.136432 -4.80697,-8.118441 -11.21626,-12.07084 -6.4093,-3.952399 -4.59333,-3.311469 -7.05023,-5.875187 -2.4569,-2.563719 -11.10944,-10.148051 -13.88681,-12.284483 -2.77736,-2.136432 -8.01161,-5.768366 -11.10944,-8.438906 -3.09783,-2.670539 -7.69115,-7.050225 -12.49813,-8.652548 -4.80697,-1.602324 -11.96401,-0.747752 -14.420911,1.815967 -2.456897,2.563718 -7.797976,8.332084 -9.079835,11.323088 -1.281859,2.991005 -5.875188,10.682159 -8.75937,14.955023 -2.884183,4.272863 -5.020615,7.797976 -5.234258,11.42991 -0.213643,3.631934 0.999038,8.100277 1.354092,11.741293 M 153.3958,71.784108 c -7.15704,0.640929 -10.14805,1.495502 -14.42091,4.379685 -4.27287,2.884183 -9.82759,7.584333 -13.24588,9.507121 -3.41829,1.922789 -3.67989,2.117707 -7.05022,3.525113 m -35.464772,0 c -1.388681,1.495502 -3.418291,3.952399 -3.845577,5.234258 M 39.623537,78.26886 c -1.130421,2.944057 -0.224701,9.133146 1.662216,11.548401 1.886918,2.415254 9.585541,10.642209 14.18962,13.585809 4.604078,2.94359 12.529131,6.86838 14.944386,8.00053 2.415254,1.13215 20.529661,10.71769 21.737288,11.77436 1.207628,1.05667 3.924789,5.88718 5.434323,9.81197 1.509534,3.92479 2.113347,8.30244 3.32097,12.90652 1.20763,4.60408 3.17003,14.41605 4.67956,17.43511 1.50953,3.01907 3.39645,7.69863 8.00053,13.20843 4.60408,5.50979 8.37791,7.17028 9.43459,7.7741 M 47.021982,71.400947 c -2.49073,1.13215 -9.738244,4.088821 -6.641948,9.35911 3.547404,6.038135 14.567002,12.906516 20.756091,10.340308 6.189089,-2.566208 6.792903,-7.32124 7.698623,-10.340308 0.90572,-3.019068 1.358581,-6.038136 -0.90572,-7.54767 -4.110577,-2.740385 -13.249947,-5.291939 -20.907046,-1.81144 z m 87.175588,17.8125 c -4.67956,2.415254 -6.64195,3.019068 -9.96293,3.019068 -3.32097,0 -5.73623,0.45286 -12.07627,-3.320975 -6.34004,-3.773834 -8.30243,-5.585275 -9.35911,-6.038135 C 101.74259,82.420544 97.8178,81.363871 95.704452,80.156243 93.591105,78.948616 82.72246,73.816201 76.231464,72.608574 69.740468,71.400947 63.112652,70.621888 60.697398,70.319981" style="fill:none;stroke:#000000;stroke-width:1.79999995;stroke-linecap:round;stroke-miterlimit:4;stroke-opacity:1;stroke-dasharray:none;display:inline" />
	<!-- 
	Generated using the Perl SVG Module V2.50
	by Ronan Oger
	Info: http://www.roitsystems.com/
 -->
</svg>