<?xml version="1.0" encoding="UTF-8" standalone="yes"?>
<!DOCTYPE svg PUBLIC "-//W3C//DTD SVG 1.0//EN" "http://www.w3.org/TR/2001/REC-SVG-20010904/DTD/svg10.dtd">
<svg height="285" style="background-color:white" width="285" xmlns="http://www.w3.org/2000/svg" xmlns:svg="http://www.w3.org/2000/svg" xmlns:xlink="http://www.w3.org/1999/xlink">
	<path d="m 88.761793,67.065705 c -1.750055,2.26321 -1.750055,4.161409 -1.117322,7.957806 0.632733,3.796398 3.334041,8.651465 5.061863,12.971025 2.214566,5.536414 4.485846,12.911514 4.485846,12.911514 m 168.56661,102.87861 c -4.90368,-5.06186 -12.97103,-14.86922 -15.34378,-19.7729 -2.37275,-4.90368 -2.8473,-7.43462 -8.38371,-13.76195 -5.53641,-6.32732 -15.4064,-14.23671 -17.40015,-18.66562 -2.62648,-6.64347 -12.18011,-23.72748 -12.18011,-23.72748 0,0 -7.43461,-15.97651 -9.33281,-20.40564 -1.8982,-4.42913 -5.36728,-13.607682 -9.17463,-24.202031 -3.63822,-10.123726 -10.12373,-24.202034 -12.02193,-26.574782 -1.8982,-2.372749 -3.08088,-7.883493 -7.75097,-11.072826 -6.48552,-4.429135 -20.24746,0.316366 -23.5693,0.158183 -3.32185,-0.158183 -10.84012,1.059528 -10.84012,1.059528 M 124.81753,81.82539 c -1.88928,2.178654 -4.27094,3.796398 -4.27094,3.796398 m 5.69459,-16.925606 c -0.63273,2.056382 -2.8473,4.587314 -3.7964,5.694597 -0.9491,1.107282 -3.48003,2.372748 -3.48003,2.372748 m 21.19655,-7.276429 c -2.37275,5.37823 -2.53093,7.750979 -4.74549,10.123727 -2.21457,2.372749 -9.80736,9.332811 -9.80736,9.332811 m -2.37275,2.214565 c -4.90368,7.118245 -4.11599,8.747944 -11.39081,12.204039 M 88.273005,66.351814 c 1.111482,2.028002 4.711914,4.053739 7.280625,5.824399 2.48866,1.715476 10.21306,4.810179 17.40016,5.85278 0.77046,3.260374 4.79392,7.758876 6.80188,10.123726 0.50768,3.179037 0.46248,7.747246 0.46248,7.747246 M 54.817836,57.990231 c 0.24089,2.32224 3.879104,3.745889 6.410036,4.536805 2.530932,0.790917 7.369054,2.150117 11.863742,2.530932 4.205908,0.829262 18.738366,7.577422 19.298354,-7.276428 M 174.1707,56.041524 c -4.27095,-4.90368 -8.5419,-7.276428 -10.91465,-7.118245 -2.37274,0.158183 -5.22004,0.632733 -10.12372,-0.158183 -4.90368,-0.790917 -16.76742,-2.372749 -21.51292,-3.163665 -4.7455,-0.790916 -15.97651,-2.530932 -18.66562,-2.689115 -2.68912,-0.158183 -10.28191,-1.107282 -12.97103,-1.265466 -2.68911,-0.158183 -9.649174,-0.632733 -11.072823,-0.632733 -1.423649,0 -9.33281,-1.581832 -13.445574,-1.581832 -4.112764,0 -15.976507,-0.316366 -15.976507,-0.316366 0,0 -23.094751,-6.485513 -28.472981,-6.643696 -5.378229,-0.158183 -8.541894,3.163665 -8.541894,6.960062 0,3.796398 3.954581,9.174627 10.914643,12.812842 6.960062,3.638214 13.129208,8.225527 18.349254,7.118245 5.220047,-1.107283 5.694597,-5.85278 5.694597,-5.85278 M 186.03444,78.661726 C 184.92716,74.232595 185.24352,73.125313 181.60531,66.6398 M 36.417904,106.27065 c 3.471928,0.30191 11.019598,2.56621 12.831038,4.2267 1.811441,1.66048 7.091377,16.49427 -17.199145,10.91117 m -5.443864,-11.36403 c 0.603814,-1.20763 2.113348,-3.01907 2.717161,-3.17003 M 129.7071,99.024888 c -3.77383,2.415252 -6.18909,4.830512 -14.18962,4.528602 -8.00053,-0.30191 -13.43485,-1.20763 -16.90678,-2.2643 -3.47193,-1.05667 -10.868642,-2.113349 -10.868642,-2.113349 -3.924939,-1.861533 -7.960109,-3.557719 -12.680085,-4.226695 0,0 -11.925318,-3.622881 -20.076802,-3.471928 -8.151483,0.150954 -21.133475,3.622882 -26.114937,7.09481 -4.981462,3.471932 -8.151483,7.849572 -8.302437,12.529132 -0.150953,4.67955 9.359111,10.86864 16.906781,11.62341 7.547669,0.75477 8.302436,0 13.434852,1.66049 5.132415,1.66049 9.510064,2.2643 16.755827,2.71716 7.245763,0.45286 15.548199,2.11335 17.8125,3.62288 2.264301,1.50953 8.906253,8.7553 10.264833,10.56674 1.35858,1.81144 9.96292,9.66102 14.34057,13.43485 4.37765,3.77384 13.13295,11.0196 16.30297,13.2839 3.17002,2.2643 8.45339,6.18909 10.11387,7.24576 1.66049,1.05668 8.90625,6.34004 14.03867,8.00053 5.13242,1.66049 8.45339,3.77384 11.77437,5.13242 3.32097,1.35858 5.28336,1.20762 7.54766,3.17002 2.26431,1.96239 7.84958,7.54767 11.17056,11.62341 3.32097,4.07574 7.54767,8.90625 9.35911,11.47246 1.81144,2.56621 6.34004,9.0572 8.15148,11.92532 1.81144,2.86811 6.491,8.00053 7.84958,10.26483 1.35858,2.2643 6.34004,11.0196 8.30243,14.18962" style="fill:none;stroke:#000000;stroke-width:1.79999995;stroke-linecap:round;stroke-miterlimit:4;stroke-opacity:1;stroke-dasharray:none;display:inline" />
	<!-- 
	Generated using the Perl SVG Module V2.50
	by Ronan Oger
	Info: http://www.roitsystems.com/
 -->
</svg>