<?xml version="1.0" encoding="UTF-8" standalone="yes"?>
<!DOCTYPE svg PUBLIC "-//W3C//DTD SVG 1.0//EN" "http://www.w3.org/TR/2001/REC-SVG-20010904/DTD/svg10.dtd">
<svg height="285" style="background-color:white" width="285" xmlns="http://www.w3.org/2000/svg" xmlns:svg="http://www.w3.org/2000/svg" xmlns:xlink="http://www.w3.org/1999/xlink">
	<path d="m 106.49873,107.50156 c -8.970619,-1.90261 -12.175267,-3.18447 -15.700379,-3.93222 -3.525113,-0.74775 -13.993629,-2.24325 -16.984633,-3.31147 -2.991005,-1.06821 -7.263868,-1.38868 -9.4003,-0.53411 -2.136432,0.85458 -3.56199,4.00344 -2.902621,5.95412 M 108.74438,91.818965 c 0.53411,-0.320464 1.4955,-1.495502 2.24325,-2.02961 M 84.602699,76.116192 c 0.961394,-0.427287 2.350075,-1.388681 2.456896,-2.029611 M 98.054822,68.216776 C 94.537107,65.968141 88.234633,63.083958 85.564093,61.481634 82.893553,59.87931 80.6503,58.597451 76.484258,56.674662 72.318216,54.751874 67.404423,51.654048 65.374813,51.654048 c -2.029611,0 -5.127437,4.272863 -4.593329,7.263868 0.534108,2.991004 1.709146,7.157046 4.272864,9.934408 2.563718,2.777361 7.691154,7.157046 10.361694,8.438905 2.67054,1.281859 6.195652,2.350075 8.118441,3.738756 1.922788,1.38868 7.904797,4.806971 10.361694,6.836582 2.456897,2.02961 6.836573,4.593328 8.759363,5.661544 1.92279,1.068216 3.4183,2.243253 4.9138,5.127439 1.4955,2.88418 2.22608,5.65981 5.65296,8.97214 m 6.73834,-23.072593 c 1.38869,-0.854572 2.77737,-1.495502 3.9524,-2.777361 M 94.002999,54.538231 c 1.068215,-0.961395 3.097826,-2.563718 3.097826,-2.563718 M 166.84509,106.8203 c -5.97178,-4.63964 -8.53549,-8.3784 -11.74014,-10.942114 -3.20465,-2.563718 -9.29348,-8.652549 -11.21627,-10.682159 -1.92279,-2.02961 -4.91379,-7.157047 -9.07983,-10.254873 -4.16605,-3.097826 -7.15705,-6.516117 -9.29348,-9.827586 -2.13643,-3.311469 -4.48651,-7.263868 -7.05023,-8.973014 -2.56372,-1.709145 -7.37069,-8.438905 -10.14805,-10.895802 -2.77736,-2.456896 -8.332082,-6.836581 -10.788979,-10.148051 -2.456897,-3.311469 -5.234258,-6.622938 -7.477511,-10.895802 -2.243254,-4.272863 -3.952399,-7.263868 -8.545727,-7.477511 -4.593329,-0.213643 -8.332084,4.486507 -7.157047,11.109445 1.175038,6.622939 4.913793,12.498126 6.302474,15.061844 1.388681,2.563719 10.468516,12.07084 10.78898,13.139056 0.320465,1.068216 4.379686,8.866192 6.088831,11.42991 1.709145,2.563718 5.554719,6.836582 8.225259,9.720765 2.67054,2.884182 6.62294,7.263868 8.01162,9.400299 1.38868,2.136432 4.59333,7.263869 6.4093,9.934413 1.81597,2.67053 5.39295,9.64893 6.38182,11.07353 m -3.60437,29.54737 c -0.79779,4.45285 1.48622,13.63825 3.14706,16.69877 m -17.2614,-23.79218 c 0.3756,-1.31645 0.66634,-2.22768 2.11335,-3.47193 M 82.873414,125.2161 c 1.962394,-0.90572 2.717161,-1.35858 3.622881,-2.11335 M 254.20552,254.4322 c -5.30329,-4.99882 -10.19979,-11.28956 -12.68009,-16.30296 -1.96239,-3.92479 -7.09481,-13.58581 -10.26483,-17.35964 -3.17002,-3.77384 -8.30244,-10.86865 -10.86864,-14.49153 -2.56621,-3.62288 -7.84958,-7.69862 -9.66102,-10.86864 -1.81144,-3.17003 -4.67956,-8.45339 -6.64195,-13.13295 -1.96239,-4.67956 -8.45339,-21.43538 -11.77437,-29.73782 -3.32097,-8.30244 -9.35911,-28.22828 -11.47245,-31.54926 -2.11335,-3.32097 -3.62288,-10.56674 -6.18909,-12.52913 -2.56621,-1.96239 -12.07627,-1.96239 -15.39725,-1.20763 -3.32097,0.75477 -12.37818,1.35858 -17.35964,1.20763 -4.98146,-0.15095 -17.35964,-1.20763 -19.92585,-0.90572 -2.5662,0.30191 -10.41578,0 -12.98199,0 -2.56621,0 -22.492055,-0.75477 -25.209216,-0.60381 -2.717161,0.15095 -16.754285,-0.93666 -19.472988,-1.05668 -5.851393,-0.25832 -18.190414,-2.64009 -21.284429,-0.90572 -2.113347,1.50954 -2.605851,5.00241 -0.150953,9.05721 2.302792,3.80357 5.998648,7.67409 13.585806,10.26483 12.378175,4.2267 24.605403,3.92478 24.605403,3.92478 0,0 5.887182,2.11335 8.604343,3.01907 6.61176,2.20392 18.869174,3.62288 18.869174,3.62288 0,0 8.30244,2.26431 13.88772,2.26431 8.60433,0 10.11182,-1.06954 13.66932,-4.59157 m 5.04889,-4.9185 c -2.41525,2.2643 -7.54767,6.94386 -7.69862,8.7553 -0.15095,1.81144 0.57174,3.50542 1.66049,4.67956 1.67085,1.80187 4.18368,6.98583 6.45235,5.53667 m 21.88243,83.42321 c 4.87497,0.40452 8.79975,1.15929 11.81882,2.06501 3.01907,0.90572 9.51007,2.86811 12.37818,5.73623 M 152.76484,137.59428 c -3.32098,2.86811 -7.84958,6.7929 -10.56674,8.60434 -2.71716,1.81144 -9.96293,4.98146 -11.47246,5.43432 -1.50953,0.45286 -8.28203,3.80354 -9.047,5.67561 m 18.55706,-1.75082 c -2.41525,0.60381 -3.17002,1.05667 -8.30243,1.20763 -5.13242,0.15095 -11.47246,0.3019 -14.34058,1.35858 -2.86811,1.05667 -5.22792,2.9925 -7.89733,4.21341 m -45.691121,17.67483 c 0.150954,-3.17002 -1.021453,-5.26274 -1.207627,-6.64195 -0.304853,-2.2584 -9.66837,-1.64578 -10.415784,-1.35858 m -3.924788,0.75477 c -1.509535,0.60381 -3.471928,1.66048 -4.377649,3.47192 m 80.760069,-8.45339 c -8.30244,-2.2643 -11.42416,-4.21317 -15.5482,-5.58527 -4.30498,-1.4323 -7.99929,-1.21315 -12.680087,-2.2643 -3.930126,-0.88258 -8.90625,-2.71716 -14.038666,-3.77384 -2.971795,-0.61184 -14.793433,-0.90572 -19.623941,-0.15095 -3.160298,0.4938 -9.46033,1.54702 -13.283899,4.2267 -3.645256,2.5547 -8.45339,10.26483 -7.698623,14.64247 0.754767,4.37765 2.717161,5.13242 6.490996,6.18909 3.773835,1.05668 14.340572,0.60382 15.850106,1.20763 1.509534,0.60381 6.792903,1.66049 10.717691,2.11335 3.924788,0.45286 13.132945,0.60381 14.944386,1.35858 1.811441,0.75476 9.510064,6.18909 12.378177,8.00053 2.86812,1.81144 8.45339,5.13241 11.17055,6.7929 2.71716,1.66049 8.7553,6.491 10.56674,9.20816 1.81144,2.71716 5.28337,4.83051 7.09481,5.88718 1.81144,1.05667 6.03814,2.56621 8.60434,3.47193 2.56621,0.90572 10.0174,2.58914 14.64248,4.83051 3.03922,1.47284 5.90831,3.3652 8.45339,5.58527 2.87508,2.50793 5.2059,5.59239 7.54767,8.60435 2.51006,3.22842 4.37489,6.93213 6.94386,10.11387 1.56525,1.9386 3.71368,3.38607 5.13241,5.43433 1.43513,2.07193 2.00917,4.64077 3.32098,6.7929 1.53469,2.51778 4.37765,5.73623 5.28337,7.09481" style="fill:none;stroke:#000000;stroke-width:1.79999995;stroke-linecap:round;stroke-miterlimit:4;stroke-opacity:1;stroke-dasharray:none;display:inline" />
	<!-- 
	Generated using the Perl SVG Module V2.50
	by Ronan Oger
	Info: http://www.roitsystems.com/
 -->
</svg>