<?xml version="1.0" encoding="UTF-8" standalone="yes"?>
<!DOCTYPE svg PUBLIC "-//W3C//DTD SVG 1.0//EN" "http://www.w3.org/TR/2001/REC-SVG-20010904/DTD/svg10.dtd">
<svg height="285" style="background-color:white" width="285" xmlns="http://www.w3.org/2000/svg" xmlns:svg="http://www.w3.org/2000/svg" xmlns:xlink="http://www.w3.org/1999/xlink">
	<path d="m 102.61757,183.16249 c 0.0441,-0.35262 2.48858,5.79871 2.96974,7.6394 0.64811,2.47939 1.45135,8.00577 2.7682,12.10101 0.74406,2.31394 1.39242,4.82546 3.00548,6.6437 3.1086,3.50401 8.22723,4.53022 12.02193,7.27643 2.3629,1.71002 4.49212,3.72528 6.64369,5.69459 4.73084,4.33009 9.20076,8.93713 13.76194,13.44558 1.7501,1.72987 3.54553,3.41691 5.22005,5.22005 2.74762,2.95867 5.01757,6.35649 7.90916,9.17462 2.6834,2.61523 5.63955,4.8802 8.25267,7.56566 2.46398,2.53219 4.5456,5.33171 6.93292,7.9363 1.26064,1.37537 4.11277,3.7964 4.11277,3.7964 m -40.96946,-77.19342 c -3.47733,2.73105 -6.26536,2.70487 -9.17463,3.16367 M 67.440633,87.517043 c -2.181098,1.091645 -3.371892,2.56751 -3.692792,3.233953 -1.39764,2.902609 -3.218794,5.805479 -3.480031,9.016444 -0.292658,3.59717 1.181984,7.14009 2.214565,10.59828 0.90766,3.03982 2.221396,5.94618 3.480031,8.85826 2.545277,5.88896 4.450474,12.21293 8.225528,17.40015 1.404788,1.93029 3.114147,3.77912 5.220047,4.90368 1.241083,0.66274 2.705858,0.96033 4.112764,0.9491 1.314166,-0.0105 2.491929,-0.33323 2.491929,-0.33323 M 64.105319,68.273421 c 0,0 0.453488,5.454271 0.591621,6.501069 0.359877,2.727312 1.154475,5.379429 1.740016,8.067344 1.149151,5.275152 2.217432,10.569169 3.480031,15.818323 1.414696,5.881483 2.016586,12.082523 4.587314,17.558343 1.268553,2.7021 2.881065,5.42177 5.220046,7.27642 1.296675,1.02818 2.93975,1.74312 4.587314,1.8982 1.402836,0.13204 2.46155,0.1352 2.46155,0.1352 m -4.517932,-24.96996 c 2.93298,-0.955576 5.64633,-2.060952 7.79869,-4.433039 M 133.50664,69.87081 c -4.95222,3.082645 -8.9681,4.719259 -13.01732,5.18298 m -8.81196,-42.356039 c -2.71441,0.94214 -3.65058,3.010477 -4.15007,5.590915 m 3.35915,152.434134 c 0,0 -7.53115,-6.32098 -10.59827,-10.12373 -2.60018,-3.22382 -4.676132,-6.87268 -6.485516,-10.59828 -2.186504,-4.5021 -3.760305,-9.29093 -5.220046,-14.0783 -0.917569,-3.00926 -1.842867,-6.05062 -2.214565,-9.17463 -0.679033,-5.70707 -0.398788,-11.5085 0,-17.24197 0.343558,-4.93942 1.363537,-9.8084 2.056382,-14.71104 0.521718,-3.69173 1.369192,-7.35048 1.581832,-11.07283 0.2166,-3.79168 0.208629,-7.627792 -0.316367,-11.389192 -0.767231,-5.496921 -2.175152,-10.933685 -4.112764,-16.134689 -1.646425,-4.41939 -4.647298,-8.247935 -6.327329,-12.654659 -1.148243,-3.011843 -2.085172,-6.140482 -2.530931,-9.33281 -0.576104,-4.125798 -1.065982,-8.471896 0.0096,-12.496475 0.427265,-1.598736 1.32541,-2.981916 2.363153,-4.270947 1.988593,-2.470129 4.027879,-5.277896 6.960062,-6.485513 3.121827,-1.285722 6.823281,-1.027657 10.123727,-0.316366 2.927609,0.630939 5.760532,2.044721 8.067352,3.954581 2.2338,1.849404 3.87851,4.388987 5.22004,6.960062 2.26001,4.331342 3.19828,9.236244 4.58732,13.920124 0.8218,2.771135 1.3219,5.634585 2.21456,8.383711 1.39712,4.302698 2.95031,8.574278 4.90368,12.654658 0.68341,1.427561 1.43287,2.839346 2.37275,4.112764 0.59822,0.810503 1.48929,1.381989 2.05638,2.214565 0.82313,1.208485 1.07218,2.748065 1.8982,3.954581 2.61312,3.816828 6.92063,6.27798 9.491,10.123727 1.70467,2.55051 3.79639,8.383708 3.79639,8.383708 m 99.06108,120.77522 c 0,0 -8.77406,-5.0072 -12.85122,-8.14876 -2.20537,-1.69929 -4.27628,-3.59674 -6.64369,-5.06186 -3.14813,-1.94827 -6.8407,-2.91829 -9.96555,-4.90368 -3.41964,-2.17267 -6.45734,-4.90742 -9.491,-7.5928 -2.54066,-2.24898 -4.72936,-4.87651 -7.27643,-7.11824 -2.16974,-1.90965 -4.89143,-3.20919 -6.80188,-5.37823 -2.9705,-3.37259 -5.18391,-7.419 -6.96006,-11.54738 -1.40547,-3.26678 -2.20499,-6.78411 -2.8473,-10.28191 -1.4347,-7.8129 -1.60614,-15.80728 -2.21456,-23.72748 -0.46933,-6.10955 -0.58987,-12.2436 -1.10729,-18.34926 -0.53299,-6.28939 -1.5384,-12.53316 -2.05638,-18.8238 -0.46804,-5.684141 0.14649,-11.48663 -0.94909,-17.083789 -0.34274,-1.750964 -1.09817,-3.39712 -1.74002,-5.061863 -0.7223,-1.873392 -1.41135,-3.773738 -2.37275,-5.536413 -1.21843,-2.233948 -2.71826,-4.31132 -4.27095,-6.32733 -1.71003,-2.220327 -3.60835,-4.293441 -5.5364,-6.327329 -3.89922,-4.113241 -8.36169,-7.675404 -12.18012,-11.863742 -2.14706,-2.355051 -4.1909,-4.818602 -6.01096,-7.434612 -1.12069,-1.610792 -1.83441,-3.487319 -3.00548,-5.061863 -1.58121,-2.125988 -3.55969,-3.925872 -5.37823,-5.852779 -3.27597,-3.471188 -6.37618,-7.135879 -9.96555,-10.28191 -1.53061,-1.341554 -2.98592,-2.956521 -4.90368,-3.638214 -3.33205,-1.184419 -7.08125,-0.843293 -10.59827,-0.47455 -1.4627,0.153357 -2.83989,0.768054 -4.27095,1.107282 -4.880539,1.156917 -9.740697,2.48994 -14.711035,3.163665 -2.721514,0.368899 -5.602384,-0.338984 -8.225528,0.47455 -2.530626,0.78484 -4.741276,2.447244 -6.801879,4.112764 -1.914661,1.547559 -3.82232,3.251165 -5.061863,5.378229 -1.167211,2.002942 -1.21454,4.483729 -2.056382,6.643696 -1.250472,3.208416 -2.565182,6.437415 -4.429131,9.33281 -1.194993,1.856262 -3.344623,3.057957 -4.270947,5.061864 -0.942043,2.037912 -1.835037,4.519807 -1.107282,6.643695 0.907152,2.647441 3.577137,4.639441 6.169146,5.694597 1.758786,0.715967 3.861387,0.653444 5.694596,0.158183 3.474841,-0.938765 7.531716,-4.980495 8.897806,-5.931871 1.396829,-0.972783 3.353412,-2.479693 3.353412,-2.479693 M 64.196145,115.10011 c 0,0 2.308959,8.83549 2.758219,9.97665 2.181322,5.54076 2.537949,13.71075 5.809921,19.7729 0.978004,1.812 2.275648,3.55344 3.954581,4.7455 1.836664,1.30406 4.075878,2.30302 6.327329,2.37275 1.373273,0.0425 4.274495,-0.39639 4.274495,-0.39639 M 103.61001,37.759614 c -1.25067,-1.63006 -2.85226,-3.009464 -6.169141,-3.163664 M 85.26076,36.810515 c 0,0 -1.861361,1.812239 -2.214565,3.005481 -1.259347,4.254497 -0.250744,8.974429 0.790916,13.287391 0.676205,2.799805 3.480031,7.909162 3.480031,7.909162 1.054555,1.918429 2.10911,1.866496 3.163665,1.740015 l 17.716523,-6.010962 c 2.03626,-0.692167 2.58056,-1.881658 2.8473,-3.163665 -0.34769,-1.817454 -0.53709,-3.687671 -1.74002,-5.220046" style="fill:none;stroke:#000000;stroke-width:1.79999995;stroke-linecap:round;stroke-miterlimit:4;stroke-opacity:1;stroke-dasharray:none;display:inline" />
	<!-- 
	Generated using the Perl SVG Module V2.50
	by Ronan Oger
	Info: http://www.roitsystems.com/
 -->
</svg>