<?xml version="1.0" encoding="UTF-8" standalone="yes"?>
<!DOCTYPE svg PUBLIC "-//W3C//DTD SVG 1.0//EN" "http://www.w3.org/TR/2001/REC-SVG-20010904/DTD/svg10.dtd">
<svg height="285" style="background-color:white" width="285" xmlns="http://www.w3.org/2000/svg" xmlns:svg="http://www.w3.org/2000/svg" xmlns:xlink="http://www.w3.org/1999/xlink">
	<path d="m 82.572409,157.45882 c 1.421699,6.83742 4.292002,17.11008 4.896276,20.88679 0.604274,3.77671 2.870302,13.29403 6.042741,18.88357 3.17244,5.58953 5.589536,8.45984 9.970524,12.53869 4.38099,4.07885 4.83419,5.2874 6.79808,6.49594 1.9639,1.20855 4.98527,4.38099 6.64702,5.43847 1.66175,1.05748 5.58954,2.8703 9.21518,6.04274 3.62565,3.17244 10.72587,8.61091 11.93442,9.21518 1.20855,0.60428 6.34487,4.98526 8.76197,7.10022 2.4171,2.11496 9.36625,9.36625 10.5748,10.1216 1.20855,0.75534 17.97716,15.71112 20.54532,16.91967 M 64.20413,150.39793 c -1.359617,1.81282 -1.202976,1.81778 -3.474577,2.8703 M 49.166389,109.89498 c -3.694758,2.43368 -5.960786,8.32535 -6.262924,10.89352 -0.302137,2.56816 0.302138,6.79808 2.417097,11.17907 2.11496,4.38099 5.438468,9.97052 8.459838,16.16433 3.021371,6.19381 9.064113,9.66839 10.876935,10.42373 1.812823,0.75534 6.495947,1.66176 10.272661,1.05748 3.776714,-0.60427 11.472016,-3.64529 15.102257,-4.39081 M 72.361831,144.80839 c 2.870302,-1.51068 4.834193,-3.62564 6.042741,-4.83419 M 60.841937,91.039163 c -6.306194,2.708065 -10.687182,6.33371 -11.744661,10.714697 -1.05748,4.38099 -0.151069,7.25129 0.453205,9.66839 0.604274,2.41709 3.776714,7.70449 6.647016,13.74723 2.870302,6.04275 4.078851,9.21519 6.344879,12.9919 2.266028,3.77671 4.380987,9.06411 7.100221,11.63228 2.719234,2.56816 7.25129,3.17244 10.423729,3.3235 3.17244,0.15107 6.882558,0.29322 10.012761,-0.3066 m 5.899752,-63.497341 c 2.971055,0.657295 3.371181,2.000583 6.721231,-3.052049 M 107.61,100.4018 c -2.16416,-1.971447 -5.3366,-2.877859 -7.60262,-1.367173 -2.266035,1.510683 -3.927788,3.776713 -5.589542,5.136333 -1.661754,1.35961 -3.17244,3.02137 -4.985262,5.43846 M 85.720779,77.235025 c 5.675688,3.671377 6.279962,5.030994 8.092785,7.901296 1.812822,2.870302 5.271316,10.620254 5.120248,14.699105 M 66.319089,69.72733 71.757557,67.159165 c -1.661754,0.453205 -2.719234,0.453205 -5.740605,3.323508 -3.021371,2.870302 -4.985262,5.287399 -5.589536,7.553427 -0.604274,2.266028 -1.05748,6.798084 0.302137,12.538689 1.359617,5.740604 2.568165,6.344878 3.323508,8.761975 0.755343,2.417096 1.963891,9.064116 4.532056,14.804716 2.568165,5.74061 2.417097,6.04274 4.078851,9.06411 1.661754,3.02137 3.625645,5.74061 6.042742,6.94916 2.417096,1.20854 8.498848,3.30659 14.144413,2.63524 M 91.982326,71.129058 c 1.5291,3.885671 1.982306,3.432465 1.982306,3.432465 l 4.834193,8.913044 7.402355,5.287399 c 0,0 1.66176,2.568165 1.81283,6.042742 0.15106,3.474576 -0.90641,10.121592 -2.26603,11.783342 -1.35962,1.66176 -1.35962,7.25129 -3.02137,9.51732 -1.66176,2.26603 -4.229922,7.10022 -5.287401,8.61091 -1.05748,1.51068 -4.834194,7.25129 -5.287399,10.42373 -0.453206,3.17244 -1.963891,11.63228 -2.11496,19.03463 -0.151069,7.40236 2.266028,18.2793 6.19381,26.13486 3.92778,7.85557 5.65302,11.12961 9.21519,14.20044 4.38098,3.77671 10.27265,5.89168 15.40898,7.10023 M 120.25056,29.694167 c -2.02376,2.023763 -7.06989,8.510267 -8.06877,10.076864 -0.83641,1.311782 -1.80049,4.005855 -1.86757,5.402533 m -5.77479,20.172778 -6.764402,-5.729528 c 4.347302,4.067774 6.009062,6.484871 7.821882,5.729528 1.81282,-0.755342 2.71923,-2.114959 8.76198,-4.229919 6.04274,-2.114959 6.04274,-1.05748 7.10022,-2.417096 1.05748,-1.359617 -3.32351,-7.402359 -3.32351,-7.402359 m 11.6796,11.658781 c -2.65382,-3.148013 -8.61129,-11.935019 -11.6796,-11.658781 0,0 -5.22387,-12.351599 -19.374651,-2.243705 M 162.85189,147.6787 c -3.17244,-13.14297 -7.55343,-27.94768 -9.66839,-37.31393 -2.11496,-9.36625 -3.62565,-13.596171 -6.34488,-21.149598 -2.71923,-7.553427 -6.49595,-17.070745 -8.61091,-19.789979 -2.11496,-2.719234 -4.38098,-6.647016 -7.10022,-6.647016 -2.71923,0 -7.10022,2.870302 -8.45984,4.380988 M 248.8943,218.98426 c -11.00262,-4.9138 -22.00524,-10.68216 -26.70539,-12.92541 -4.70015,-2.24326 -14.95503,-7.79798 -18.37332,-10.04123 -3.41829,-2.24326 -12.71177,-7.37069 -14.20727,-9.4003 -1.4955,-2.02961 -6.08883,-8.11844 -7.69115,-13.99363 -1.60233,-5.87519 -3.41829,-8.86619 -4.37969,-16.66417 -0.96139,-7.79798 -1.4955,-69.113568 -3.84558,-74.561469 -2.35007,-5.447901 -4.05922,-9.186657 -7.15704,-12.391305 -3.09783,-3.204647 -19.22789,-19.54835 -20.2961,-21.684782 -1.06822,-2.136432 -20.50975,-25.209895 -24.56897,-27.239506 -4.05922,-2.02961 -8.65255,-2.456896 -10.04123,-2.350074 -1.38868,0.106821 -12.391304,2.350074 -17.732383,5.234257 -5.341079,2.884183 -8.866192,2.67054 -12.284483,4.379686 -3.418291,1.709145 -6.195652,2.991004 -7.157046,6.195652 -0.961395,3.204647 -2.02961,9.293478 -1.815967,13.45952 0.213643,4.166042 0.106821,14.10045 -0.320465,18.586957 -0.427286,4.486506 -0.427286,9.507121 3.311469,11.109445 3.738756,1.602324 9.563611,1.877713 12.604948,-0.961394 4.819473,-4.499009 8.746939,-13.928393 9.507121,-16.023239 0.769743,-2.121193 1.558308,-11.986026 0.534108,-15.168666 0,0 -1.709145,-7.904797 -3.311469,-10.682158" style="fill:none;stroke:#000000;stroke-width:1.79999995;stroke-linecap:round;stroke-miterlimit:4;stroke-opacity:1;stroke-dasharray:none;display:inline" />
	<!-- 
	Generated using the Perl SVG Module V2.50
	by Ronan Oger
	Info: http://www.roitsystems.com/
 -->
</svg>