<?xml version="1.0" encoding="UTF-8" standalone="yes"?>
<!DOCTYPE svg PUBLIC "-//W3C//DTD SVG 1.0//EN" "http://www.w3.org/TR/2001/REC-SVG-20010904/DTD/svg10.dtd">
<svg height="285" style="background-color:white" width="285" xmlns="http://www.w3.org/2000/svg" xmlns:svg="http://www.w3.org/2000/svg" xmlns:xlink="http://www.w3.org/1999/xlink">
	<path d="m 50.637663,114.82584 c -2.496351,3.62606 -3.740461,6.32163 -3.947812,9.43191 -0.207352,3.11027 3.21395,12.54477 4.561735,15.44769 1.347785,2.90293 5.287467,10.47126 6.531576,12.95948 1.24411,2.48822 5.287467,10.67861 6.738928,13.16682 1.451461,2.48823 3.836005,4.7691 5.805845,5.80586 1.969841,1.03675 6.945954,0.18509 6.945954,0.18509 M 48.37799,87.329105 c -2.828574,0.953135 -2.517546,3.959734 -2.310195,6.551629 0.207352,2.591896 2.695571,10.263906 3.110275,13.581536 0.414703,3.31762 0.518379,4.56173 1.762489,8.29406 1.244109,3.73233 5.18379,11.40434 6.4279,14.30727 1.244109,2.90292 6.116873,13.16682 8.086713,13.58152 1.969841,0.41471 6.266538,0.0716 6.266538,0.0716 m 28.4488,-70.168108 C 92.514559,72.730869 86.845678,72.645217 83.483995,72.970319 M 97.038982,50.906518 c -2.658258,3.992112 3.796098,21.26192 3.796098,21.26192 m 9.40804,-13.641155 c -3.52497,4.354384 -7.77568,10.471257 -8.70877,12.233746 -0.93308,1.762489 -4.147028,8.916119 -5.287461,10.056553 -1.140435,1.140434 -4.044397,3.525557 -4.044397,3.525557 M 71.053667,100.93069 c 2.177192,-1.347786 6.586664,-5.413178 7.568334,-5.805846 1.036758,-0.414704 2.177192,-0.103675 2.177192,-0.103675 M 45.96412,69.827946 c 1.96984,5.391142 4.354383,11.715367 6.635251,13.788883 2.280868,2.073517 3.213951,3.628653 4.769088,2.280868 M 71.675721,66.199293 c 2.48822,2.799247 3.421302,4.561736 3.421302,6.013197 0,1.451461 -2.177192,3.524978 -3.317627,4.354384 -1.140433,0.829406 -4.976438,3.939681 -10.678607,6.531576 m 76.575021,151.84121 c 3.3901,4.20839 6.42949,6.89709 9.11818,10.75477 2.6887,3.85769 5.26048,6.54638 6.89707,8.18297 1.6366,1.6366 2.45491,5.37739 4.9098,6.31258 2.45489,0.9352 4.44218,2.5718 5.26048,4.09149 0.81829,1.5197 1.63659,2.92249 2.45489,3.85769 m -44.69372,-44.43747 c 0.27185,2.35359 1.67465,4.10709 3.19435,6.67888 1.5197,2.5718 3.50699,5.72809 7.94917,7.59848 4.44219,1.8704 7.41353,-0.0958 7.41353,-0.0958 M 50.148929,56.622793 c -4.489593,1.927966 -7.980121,7.877183 -7.395623,14.774263 0.584498,6.897079 3.623889,10.520968 4.208387,11.806864 0.584498,1.285896 1.753495,6.429481 4.559086,10.520968 2.805592,4.091487 4.909786,6.663282 6.429481,10.287162 1.519696,3.6239 4.909785,10.63788 6.078782,13.79417 1.168996,3.15629 5.260484,11.68996 6.42948,17.76874 1.168997,6.07878 0.790373,5.18471 1.987294,13.44346 1.168997,8.06608 4.675986,22.44473 5.260485,24.43202 0.584498,1.9873 0.701398,4.32529 2.571792,6.54638 1.870394,2.2211 1.285896,4.44219 2.454892,5.26049 1.168997,0.81831 1.636595,4.55909 2.805591,5.72808 1.168997,1.169 4.208387,5.02669 6.078782,8.06608 1.870395,3.03939 7.331069,9.05333 9.118172,10.17027 1.87039,1.16899 11.57307,9.00127 14.61246,10.75477 3.03938,1.75349 9.11817,5.49428 10.98857,6.42947 1.87038,0.93521 5.72807,3.0394 7.48157,4.55909 m -9.46887,-95.03941 C 120.84227,131.83417 113.82829,122.9498 112.3086,120.37801 110.7889,117.80622 100.03413,101.55716 99.215835,98.868472 98.397538,96.179781 94.30605,88.581304 93.487753,86.827809 92.669455,85.074315 91.25562,82.599923 90.214562,81.099726 88.932129,79.2517 82.603021,72.073765 80.170414,68.935017 78.41512,66.670191 69.413633,53.646657 65.179415,53.468779 M 79.805943,30.209507 c 1.983853,0.247982 4.23783,5.979205 4.061437,10.718363 m 0.236911,-5.262768 c -0.165321,6.282201 -0.837695,11.10925 -0.129536,13.118064 0.70816,2.008814 1.617426,3.744685 5.585131,3.744685 3.967706,0 6.199541,0 7.439448,-1.570551 1.239908,-1.570549 1.901192,-4.050366 2.975779,-5.290274 1.074587,-1.239908 4.298347,-5.538256 5.455597,-7.108805 1.15725,-1.570551 7.52211,-7.935411 9.75394,-8.266054 M 249.70489,238.61672 c -2.68668,-3.0705 -13.62832,-12.53006 -16.12011,-14.35458 -1.80038,-1.31826 -6.06424,-3.91488 -6.67834,-5.06632 -0.99622,-1.86794 -2.37964,-2.4564 -3.68459,-2.99374 -1.30497,-0.53734 -2.53906,-3.37165 -5.07223,-4.59984 -2.53316,-1.22821 -8.18349,-7.95099 -11.35494,-9.98502 -2.67549,-2.77798 -2.84021,-3.99165 -5.06632,-6.21776 -2.22611,-2.22612 -9.44178,-10.28618 -10.51646,-13.35667 -1.07467,-3.0705 -5.95789,-7.88875 -6.06423,-11.41393 -0.11121,-3.68691 -1.49044,-4.21108 -2.14935,-5.93439 -0.99791,-2.60992 -5.10547,-13.03063 -5.52689,-15.96658 -0.53735,-3.74358 -4.52899,-14.27782 -5.14309,-16.65746 -0.6141,-2.37963 -1.99583,-7.52272 -2.53317,-10.28617 -0.53733,-2.76345 -5.06631,-12.51227 -5.83394,-15.81306 -0.76763,-3.30079 -0.30705,-4.45223 -2.30287,-7.522723 -1.99583,-3.070499 -5.06632,-5.680422 -6.29452,-8.367108 -1.22821,-2.686686 -4.60575,-5.833946 -6.21776,-8.827682 -1.61201,-2.993736 -6.29452,-10.286169 -7.06215,-13.970767 -0.76763,-3.684597 -4.14517,-9.902356 -4.91279,-11.821417 -0.76763,-1.919062 -1.99582,-3.147262 -2.60993,-6.524809 -0.6141,-3.377548 -5.21985,-11.898181 -6.21776,-13.74048 -0.99791,-1.842298 -1.8423,-4.682509 -3.14725,-5.98747 -1.30497,-1.304962 -6.3994,-4.992464 -8.72725,-5.751286 -1.5715,-0.512275 -11.37036,-1.541116 -14.10677,-1.257691 -3.052095,0.316124 -27.80744,-3.359221 -31.053229,-2.279281 -3.431848,1.141846 -6.985383,3.684599 -8.981207,5.450135 -1.995824,1.765536 -6.217759,7.753008 -6.217759,7.753008 -2.292229,1.652707 -4.292003,3.217912 -6.35359,5.290711 -2.709578,2.305032 -5.564051,4.175377 -8.077751,7.068044 -0.863132,1.585159 -1.473337,3.360013 -1.458487,5.603659 0.893605,5.037892 4.073674,6.026807 7.445958,6.524808 0,0 6.821796,-2.747367 9.760627,-3.731782 4.369894,-0.98665 6.856132,-0.998331 11.390691,0.633185 3.296346,1.449296 7.073896,-0.03195 9.378885,-1.736525 2.304989,-0.877971 4.658382,-2.380628 5.778437,-3.992563" style="fill:none;stroke:#000000;stroke-width:1.79999995;stroke-linecap:round;stroke-miterlimit:4;stroke-opacity:1;stroke-dasharray:none;display:inline" />
	<!-- 
	Generated using the Perl SVG Module V2.50
	by Ronan Oger
	Info: http://www.roitsystems.com/
 -->
</svg>