<?xml version="1.0" encoding="UTF-8" standalone="yes"?>
<!DOCTYPE svg PUBLIC "-//W3C//DTD SVG 1.0//EN" "http://www.w3.org/TR/2001/REC-SVG-20010904/DTD/svg10.dtd">
<svg height="285" style="background-color:white" width="285" xmlns="http://www.w3.org/2000/svg" xmlns:svg="http://www.w3.org/2000/svg" xmlns:xlink="http://www.w3.org/1999/xlink">
	<path d="m 134.61708,182.20272 c 3.15665,7.2894 9.40671,8.93936 16.74375,7.47131 M 140.6583,123.33549 c 1.59323,4.1487 1.33071,8.94712 1.74778,13.22358 m -17.70266,2.8599 c 1.87286,4.86501 10.53159,5.51873 14.14068,2.59644 m -18.01523,20.76381 c 4.1579,-4.40773 7.21977,-9.91148 12.47369,-13.22319 0.59913,-0.42175 1.14737,-0.25283 1.7974,-0.19702 m -4.12425,16.37084 1.34456,-6.40642 c 0.77247,-4.06622 1.85865,-7.61613 3.20344,-11.0836 1.04678,-1.57902 1.20299,-2.90937 1.83045,-4.36482 1.36719,-1.70514 2.75269,-3.41027 3.98255,-5.1154 1.02456,-2.53122 2.29973,-4.22708 3.75228,-5.33166 M 131.1221,95.827616 c 0,0 -4.69144,-1.03164 -7.07775,-1.088605 -1.42422,-0.034 -3.0383,-0.0072 -4.30614,0.642541 -2.89056,1.481283 -5.17691,4.079438 -6.43169,7.075278 -1.05744,2.5247 -0.25162,8.24593 -0.25162,8.24593 m -12.07468,23.15317 c 1.17334,1.19181 2.16465,1.71615 3.18724,2.35522 m 26.01734,-7.2589 c 1.69673,-0.56348 3.4137,-1.09155 5.69459,-0.63274 m -22.77838,9.25372 c 2.84167,-0.28898 5.52392,-1.29533 8.06734,-2.92639 m -22.778382,7.67189 c 2.745112,0.9898 5.999992,2.97039 10.214792,0.0823 m 6.49617,55.74052 c 0,0 2.83622,6.55462 3.63043,10.01583 0.79431,3.46166 1.8762,14.0917 2.59518,21.16212 1.15864,11.39403 2.7682,34.24667 2.7682,34.24667 M 100.76272,127.21223 c 0,0 1.79732,5.96343 3.24275,8.70008 1.38698,2.62599 3.50428,4.79836 5.14096,7.27643 1.46776,2.22231 1.85892,5.51718 4.19185,6.80187 1.96311,1.08104 4.65738,0.79069 6.72279,-0.0791 1.30574,-0.54988 2.36329,-1.74258 3.00548,-3.00548 1.62082,-3.18745 1.7109,-7.02274 1.66093,-10.59827 -0.0465,-3.32456 -0.4466,-6.74236 -1.81911,-9.80736 -2.10817,-4.70783 -4.89767,-12.80683 -6.24824,-14.1574 -1.47378,-1.47378 -3.86378,-1.71831 -5.93187,-1.97729 -1.44258,-0.18065 -3.03856,-0.31108 -4.35004,0.31636 -1.80665,0.86433 -4.57367,4.11075 -5.53641,5.93187 -0.72356,1.36867 -3.233173,6.10327 -3.084575,8.85826 0.09389,1.74068 0.38248,3.47809 0.316367,5.22005 -0.05147,1.35619 -0.10865,2.75153 -0.553642,4.03367 -0.511477,1.4737 -1.980622,2.52384 -2.372748,4.03368 -0.563465,2.16957 0.06359,4.48323 0.158183,6.72278 0.0914,2.16392 0.166758,4.33177 0.395458,6.48551 0.537811,5.06474 0.508589,9.17053 2.293657,15.1065 1.321365,4.394 2.82482,8.76228 4.82459,12.89194 1.15476,2.38465 2.78819,4.5072 4.11276,6.80188 1.63989,2.84093 2.93177,6.29906 4.7455,8.62098 1.74342,2.23191 4.64911,3.60101 7.43461,4.11277 m 4.92684,-1.04739 c 2.50354,-1.01131 6.62054,-4.40994 6.62054,-4.40994 M 149.26707,53.073979 c 2.1211,0.202138 3.32576,-0.250327 4.41817,-0.782967 m -23.65679,-5.984105 c 1.38024,0.05556 2.77805,0.102342 5.03336,-0.279631 m -1.67778,27.012363 c 1.37998,-0.539079 2.56495,-1.123158 5.81632,-1.230377 m 15.04416,3.020016 c 1.75911,-0.497934 3.60181,-0.928989 6.09595,-0.838894 m 1.73372,21.475668 c -2.51706,0.820645 -8.26563,0.975774 -11.28167,-0.485978 m -7.50954,3.058584 c 1.97048,-0.314598 4.75954,-1.624469 7.55004,-3.075942 m 0,0 c 0,0 -1.1973,-3.963204 -1.73372,-6.151884 -0.59093,-2.411093 -1.64952,-9.016454 -2.3489,-11.856358 -0.56563,-3.85415 -0.55427,-7.778301 -1.11852,-11.632653 -0.41836,-2.857798 -1.01412,-5.689809 -1.67779,-8.500785 -0.87086,-3.688573 -1.79803,-5.68713 -3.02001,-10.961539 -0.49494,-5.777744 -1.24646,-15.464162 -3.91484,-20.748626 -2.29654,-4.548055 -6.92186,-9.035337 -11.96821,-8.333007 -4.08934,0.569138 -5.35762,4.577275 -5.14521,7.829671 0.3311,5.069841 3.12121,17.238642 3.80298,22.706044 0.39348,3.155443 0.29368,6.365445 0.78297,9.507457 0.61232,3.93207 1.94322,7.694729 2.51668,11.632653 0.43067,2.957358 0.38728,5.979019 0.72704,8.948195 0.31522,2.754739 0.88035,8.49285 1.17072,10.169532 0.38697,2.234488 2.58579,9.493792 2.58579,9.493792 m 40.84864,3.176782 c -1.86683,-1.433666 -3.85423,-2.62617 -5.93187,-3.638215 m 6.72278,17.637435 c -6.05072,0.42748 -7.81591,0.85497 -9.53957,1.28245 m -12.84335,-3.6552 c 0.76866,-1.65476 1.89962,-2.76607 3.08457,-3.7964 m -13.52467,-4.42913 c -2.87366,2.38057 -4.32367,5.73914 -6.72278,7.90916 -0.85723,0.56803 -1.38644,0.15199 -2.05639,0.15818 -2.53094,-1.44998 -5.17331,-2.2313 -7.5137,-4.82459 -0.61969,-1.71365 -0.88282,-3.4273 -0.87001,-5.14095 m 19.76151,21.58393 c -0.0922,4.64459 1.34801,8.67167 4.20325,14.56094 1.47198,3.03614 6.79392,8.22553 7.11825,8.22553 m 22.83375,-11.2211 c -1.18953,-1.88018 -4.18863,-5.60851 -5.97206,-7.95496 -3.72456,-4.90041 -8.50513,-13.19417 -11.14136,-17.32368 -1.5177,-1.78061 -3.00179,-3.49779 -4.58595,-4.28316 -0.58593,-0.29048 -5.45488,-0.69856 -8.61264,-1.64502 -7.41,-2.22095 -13.58386,-6.330602 -17.33712,-7.382265 -2.80426,0 -3.98003,0.111634 -5.59263,1.118524 -1.51175,0.943925 -3.06021,3.505811 -3.24372,5.278581 -0.61057,5.89851 3.40459,10.04216 7.31674,13.96004 1.9986,2.00153 5.84539,5.59262 6.10556,5.59262 3.34028,1.15771 6.98344,1.19643 10.51412,1.00667 m 48.2084,137.8022 c 0,0 -1.84952,-4.10536 -2.46075,-6.26374 -0.40253,-1.42142 -0.41331,-2.93192 -0.78297,-4.36224 -1.82326,-7.05475 -4.95031,-13.71424 -7.0467,-20.6927 -1.74061,-5.79412 -2.89531,-11.75194 -4.58595,-17.56083 -1.53216,-5.26437 -3.30203,-10.45707 -5.03336,-15.65934 -1.4835,-4.4576 -1.477,-9.77958 -1.00667,-14.65267 0.54128,-5.60829 3.07884,-10.84422 4.36224,-16.33046 1.42071,-6.0732 3.00606,-12.14438 3.69113,-18.3438 0.26483,-2.39652 -0.0428,-7.64504 0.0308,-12.91389 0.0736,-5.26885 0.52842,-10.55803 0.52842,-13.03587 0,-7.45816 -1.26172,-11.16473 -1.9015,-15.54749 -0.37203,-2.54856 -3.15273,-7.624906 -4.25039,-9.954867 -2.48324,-5.271061 -3.86696,-10.189166 -4.25039,-13.869702 -0.32551,-3.124519 -1.83819,-5.278165 -3.24372,-8.612637 l -2.46076,-8.612638 c 0,0 -1.98269,-8.887792 -4.36224,-12.751177 -0.65728,-1.067147 -1.45408,-3.467426 -1.45408,-3.467426 l -0.55926,-3.467425 c 0,0 -4.08056,-9.221856 -5.81633,-11.96821 -2.4344,-3.851734 -5.36605,-4.389959 -8.61264,-4.58595 -1.38776,-0.08378 -3.65716,1.849724 -4.38695,3.188542" style="fill:none;stroke:#000000;stroke-width:1.79999995;stroke-linecap:round;stroke-miterlimit:4;stroke-opacity:1;stroke-dasharray:none;display:inline" />
	<!-- 
	Generated using the Perl SVG Module V2.50
	by Ronan Oger
	Info: http://www.roitsystems.com/
 -->
</svg>