<?xml version="1.0" encoding="UTF-8" standalone="yes"?>
<!DOCTYPE svg PUBLIC "-//W3C//DTD SVG 1.0//EN" "http://www.w3.org/TR/2001/REC-SVG-20010904/DTD/svg10.dtd">
<svg height="285" style="background-color:white" width="285" xmlns="http://www.w3.org/2000/svg" xmlns:svg="http://www.w3.org/2000/svg" xmlns:xlink="http://www.w3.org/1999/xlink">
	<path d="m 148.01797,205.66461 7.5691,9.25112 c 0,0 3.08213,4.62693 4.29869,7.11721 0.70761,1.44848 1.64997,5.00629 2.91108,6.01049 1.66788,1.3281 4.73,7.69816 5.7783,8.75322 1.57475,1.5849 4.39283,6.71346 4.39283,6.71346 m -41.36183,-41.12206 c 0,0 5.58033,1.64529 7.72138,3.48681 2.77021,3.62266 9.39834,14.20406 13.87669,21.44579 4.49486,7.26841 8.92732,14.58287 13.03567,22.07654 2.53139,4.61727 4.66027,9.44632 7.1486,14.08694 1.25566,2.34174 3.92472,6.93834 3.92472,6.93834 M 94.423004,146.92731 c 0,0 -0.237575,3.53307 0.330097,5.16065 0.78172,2.24127 4.063679,5.84774 4.063679,5.84774 3.31305,5.77549 7.56808,12.95526 9.91141,17.34497 l 8.12736,13.77686 c 1.17664,2.44239 2.52416,4.03036 3.96456,5.15393 7.2906,11.29879 15.39155,9.11498 23.58917,4.75748 m -14.37155,-25.17498 c 1.7951,2.70174 2.80966,6.3141 6.04596,7.33444 m -6.04596,-41.62793 c -2.51104,13.51237 -5.08465,13.1314 -5.15394,22.99448 m -23.1927,-27.05816 c -1.10688,2.65125 -4.759021,5.06366 -7.136218,6.04596 M 81.443429,102.5458 c 0,0 -4.631484,3.6862 -5.621126,6.32841 -0.773348,2.06473 -0.466109,7.98418 0.09911,10.40698 1.816206,7.78514 5.177012,15.56086 10.406983,21.60688 1.121026,1.29594 2.921702,1.80659 4.261908,2.87431 1.096914,0.87389 1.797929,2.28927 3.072537,2.87431 2.767155,1.27012 10.480549,1.71342 15.660039,1.48671 4.74478,-0.20768 9.82516,0.0574 13.77686,-2.57697 2.82645,-1.88427 2.75271,-5.00438 2.95898,-7.43935 m -18.12895,-9.25483 c 2.15095,-0.94083 5.43255,-4.04651 6.72809,-6.30758 M 97.392131,80.569174 c 0,0 -8.095692,-0.483116 -11.608987,1.18645 -1.909763,0.907546 -3.64868,2.543553 -4.485393,4.485393 -1.319525,3.062346 -1.435079,11.296608 -0.420506,14.857863 0.766921,2.69197 2.964992,4.75512 4.625562,7.00843 1.792297,2.43205 3.889521,5.05674 5.74691,7.00842 2.620334,5.69552 12.475003,14.57753 12.475003,14.57753 0.84101,0.51203 1.68202,0.92671 2.52303,0.70085 0.21783,0.71647 0.45259,1.4287 1.40169,1.96235 4.05105,2.49707 9.38387,3.33209 15.27836,5.32641 4.04181,1.36748 9.54055,-0.72758 10.51921,-3.4202 m 42.60467,-2.32671 c -1.55233,2.00908 -2.40422,4.01817 -3.22388,6.02725 m 7.56911,-33.78062 c -0.0651,2.07457 -0.54903,4.04444 -2.10253,5.74691 M 156.70842,95.211803 c -2.1505,4.540888 -3.65276,4.544059 -5.46657,6.728087 M 96.834497,92.223032 c 2.15637,4.186934 4.169343,7.526121 7.830013,10.208758 1.6519,0.82926 3.30381,0.85566 4.95571,0.0991 3.8074,-2.734135 6.47343,-8.393684 9.51495,-11.299009 0.78343,-1.597604 0.54711,-2.685327 0.29735,-3.766336 -1.50209,-2.159247 -4.1178,-3.774311 -6.64065,-5.05482 m 7.53962,-9.857655 c -0.54216,3.223607 -0.58009,5.603761 -0.045,9.780901 M 109.42604,56.252689 c 2.01723,10.197508 5.63377,11.169517 10.30382,15.751063 l 2.27962,2.081396 M 93.383811,52.614942 c 3.892185,2.917579 13.327769,5.299523 16.236409,3.53055 1.84397,-1.596087 3.59619,-3.345093 4.65836,-6.244189 m 12.38927,67.694947 c 0,0 1.02479,-1.41991 1.68494,-1.98228 1.94093,-1.65343 4.66494,-2.14427 6.3433,-4.06368 0.92523,-1.05811 1.18486,-2.54651 1.88317,-3.76634 0.22325,-0.38998 0.79291,-1.09026 0.79291,-1.09026 m 35.03513,16.55182 c 0,0 -5.32278,-4.48981 -8.41011,-6.02725 -3.28672,-1.63673 -6.88388,-5.21502 -8.12978,-6.02724 -2.92741,-1.90844 -6.26921,-3.15244 -9.11095,-5.18624 -1.77643,-1.27137 -3.29999,-2.8643 -4.9059,-4.34522 -1.68752,-2.789312 -6.2142,-7.817207 -10.51264,-10.092139 -3.58253,-3.209211 -8.29822,-7.01269 -11.07332,-9.251123 -2.95406,-2.382783 -14.34163,-8.071641 -23.057721,-1.611939 -6.501078,4.818105 -4.755067,12.606072 -3.013623,17.030478 1.013099,2.573933 3.295069,4.288923 5.186236,6.307583 2.716528,2.89967 6.050608,5.5133 9.040868,8.12978 2.61648,3.0388 4.71486,5.06324 7.63919,6.86825 3.78183,2.99334 7.97756,5.43553 11.77415,8.41012 4.61548,3.61618 7.61314,9.4109 8.97079,16.82022 M 96.025474,23.114483 c 0.150959,0.226439 -7.468977,0.804456 -11.481128,1.512719 -1.618268,0.285672 -3.242229,1.189188 -4.261907,2.477853 -2.915598,3.684721 -3.131633,9.518629 -4.361022,14.371547 -0.392447,1.549154 -1.112518,5.392304 -1.577946,7.793114 -0.304059,1.56842 -1.91045,4.568858 -0.899907,7.767803 0.999661,3.164497 3.619351,4.856592 6.937989,4.856592 10.192983,0 14.928138,-10.827167 14.693226,-17.038112 m 40.434941,23.003778 c -1.29716,0.93059 -2.82839,2.449806 -3.89147,4.154133 m -2.89366,-21.61434 c -0.15058,10.70061 5.36145,13.273096 8.991,16.428105 4.47282,0.67661 10.18968,0.05249 14.50744,-3.223877 M 114.25306,42.250941 c 1.33437,4.647431 5.79219,5.824352 9.67944,7.635244 2.01334,1.04396 4.02669,1.043952 6.04003,0 2.75878,-1.864953 5.12242,-4.915293 7.60596,-7.605965 m 78.74412,163.52826 c -2.42481,-3.11256 -4.31284,-6.4935 -7.82967,-9.06005 -1.37804,-2.38619 -2.94866,-4.77237 -4.92151,-7.15856 -1.77958,-3.59661 -1.75366,-6.04425 -6.48744,-11.5208 -2.49804,-4.71305 -4.99608,-8.92583 -7.49412,-15.32378 -1.7848,-5.43473 -0.92504,-11.39838 -1.35183,-17.10471 1.28131,-17.80613 3.10891,-43.54577 2.53093,-54.731401 -0.40946,-7.924236 0.178,-6.075134 -1.58183,-10.28191 -1.75983,-4.206776 -6.17622,-10.046432 -10.12373,-13.603758 -1.84967,-1.997354 -4.20858,-3.942669 -6.64369,-5.061863 -3.1853,-4.238264 -11.84236,-12.918142 -16.92561,-19.772903 l -7.73705,-8.521163 c -1.67972,-1.310748 -2.93673,-1.353364 -5.14521,-4.250392 -5.57315,-3.826148 -15.20181,-7.173765 -20.80455,-8.72449 -5.60274,-1.550725 -9.15886,-2.38843 -13.42229,-2.237049 -3.38417,0.120161 -5.09712,2.784922 -8.388935,3.579278 -3.171224,0.765257 -8.605617,2.313498 -9.619308,3.69113 0,0 -3.35503,5.970613 -3.020017,9.1719 0.386034,3.688832 2.362242,7.796907 5.592622,9.619309 1.576514,0.889382 15.463448,0.264739 22.370488,-2.684458 m 3.13187,-2.572606 c 1.57863,-2.139307 3.02001,-7.382261 3.02001,-7.382261" style="fill:none;stroke:#000000;stroke-width:1.79999995;stroke-linecap:round;stroke-miterlimit:4;stroke-opacity:1;stroke-dasharray:none;display:inline" />
	<!-- 
	Generated using the Perl SVG Module V2.50
	by Ronan Oger
	Info: http://www.roitsystems.com/
 -->
</svg>