<?xml version="1.0" encoding="UTF-8" standalone="yes"?>
<!DOCTYPE svg PUBLIC "-//W3C//DTD SVG 1.0//EN" "http://www.w3.org/TR/2001/REC-SVG-20010904/DTD/svg10.dtd">
<svg height="285" style="background-color:white" width="285" xmlns="http://www.w3.org/2000/svg" xmlns:svg="http://www.w3.org/2000/svg" xmlns:xlink="http://www.w3.org/1999/xlink">
	<path d="m 216.09392,152.83998 c 1.64665,-2.67368 3.12692,-5.50025 7.16354,-5.97774 1.18443,1.76099 4.66731,1.9211 6.04297,1.64223 m -85.79376,-17.63712 c -4.99781,0.3857 -13.93382,3.73356 -15.43564,4.25039 -5.96692,3.24678 -11.42233,6.49988 -17.31958,10.23842 m 6.58175,-19.96958 c -0.98121,4.49202 -4.00429,7.45264 -7.34098,10.17805 m 2.53133,-27.96259 c 3.3399,-0.85789 10.6629,-2.54235 10.03973,-5.74879 m -0.009,-0.0874 c 0.64725,3.27086 2.49523,4.31536 4.51032,4.94138 m 16.88948,1.45407 c -2.2209,-0.36554 -11.18257,-2.69877 -10.40227,-2.79631 M 105.5887,70.578885 c 1.71435,0.334836 3.13259,0.373562 4.25039,0.111853 m -7.82967,-28.186814 c 2.53693,0.635438 4.35955,0.556567 5.70447,0 m 15.10008,61.966246 c -0.61138,-7.135236 -2.01533,-16.252892 -4.25039,-26.061614 -1.20426,-5.284985 -1.53192,-10.732357 -2.23705,-16.106751 -0.8308,-6.332213 -1.37169,-12.703638 -2.3489,-19.014914 -1.02717,-6.633959 -2.47438,-16.43499 -3.69113,-19.79788 -1.58884,-4.391309 -5.51765,-8.432028 -10.961539,-8.72449 -3.129574,-0.16813 -6.450712,2.276553 -7.941523,5.033359 -2.005982,3.709459 0.299676,9.888089 1.006672,14.876374 0.440394,3.107244 1.787823,6.051789 2.125196,9.1719 0.653372,6.042551 -0.101351,11.63092 0.559262,17.672684 0.462007,4.225373 1.438161,8.780218 2.125197,12.974882 0.829326,5.063405 0.716115,10.246258 1.454081,15.323784 0.568429,3.911043 0.661684,12.662906 0.365995,13.106436 m -19.860304,11.95673 c 0,0 2.295371,-6.78962 4.617935,-9.29198 1.860574,-2.0046 3.996851,-3.57903 6.711147,-3.91483 4.032992,-0.49895 6.965869,-0.17378 9.395604,1.90149 2.842067,2.42744 4.910057,11.8606 6.711147,18.00824 1.68392,5.74771 3.35891,11.58802 3.80298,17.56084 0.42661,5.73801 1.08286,13.11986 -2.12519,17.89638 -1.71067,2.54704 -4.20388,3.2545 -7.27041,3.35558 -3.259261,0.10744 -5.77859,-0.68594 -8.165231,-2.90816 -1.880952,-1.75137 -6.22361,-13.43542 -6.22361,-13.43542 m 7.230283,-4.23727 c 3.243719,0.13966 6.487438,0.46821 9.731158,-1.11852 m -32.101645,3.57927 c 2.982732,0.26124 5.965463,0.42068 8.948195,-0.78296 m -22.817897,7.60596 c 2.417261,1.61101 5.410336,2.07039 9.020657,1.29528 m -10.092929,-14.6591 c 2.992321,2.68222 5.429334,4.71658 6.637998,5.31786 m -0.314928,69.79327 c 3.71092,5.69566 4.705611,18.2055 5.934446,27.51094 0.356329,2.69832 0.871315,5.40375 0.811373,8.12484 -0.04869,2.21042 -0.970468,4.35376 -0.949099,6.56461 0.03369,3.48561 1.458379,12.87292 1.186374,16.45105 m 46.376785,-58.4325 c 4.35509,2.05553 9.3381,3.19028 13.75785,1.11853 M 60.959576,130.86735 c 0,0 2.534341,16.7663 7.829671,22.81789 1.86662,2.1332 4.771396,4.59246 7.605965,4.58596 3.634956,-0.008 6.204264,-0.67408 8.388933,-3.57928 0.843815,-1.12212 2.056663,-4.86143 2.125196,-6.26374 0.122425,-2.50504 -0.468059,-4.99431 -0.671115,-7.49411 -0.290556,-3.577 -0.04806,-7.22511 -0.782967,-10.73784 -1.076991,-5.14786 -3.018407,-9.56557 -5.257064,-13.8697 -1.192068,-2.29191 -3.790825,-3.79764 -7.270408,-3.69113 -4.426357,0.13549 -7.04911,2.31855 -9.395605,4.80965 -2.543537,2.7003 -5.420541,5.8856 -6.263736,16.21861 -1.526805,4.62497 -4.517205,10.74816 -5.145212,14.0934 -0.157187,1.76449 0.55825,8.53435 0.687928,16.09708 0.104041,6.06762 1.388624,17.3966 2.108382,22.15645 1.355024,8.96094 3.60135,17.14734 5.704475,21.25197 1.541827,3.00915 3.745633,5.98178 6.711146,7.60596 m 5.033359,0.78297 c 7.418539,0.46811 13.858504,-1.40833 15.771194,-4.92151 M 129.99146,80.081431 c 1.39668,0.07721 2.78877,0.149827 3.81704,-0.141372 M 122.71081,55.906836 c 1.6347,0.199919 3.27059,0.395094 5.08939,-0.141372 m 36.12304,98.691336 c 0,0 -4.22321,-6.0194 -5.10728,-9.60714 -0.80796,-3.27888 -0.19077,-7.04873 -1.98914,-12.07924 -1.79545,-5.02235 -4.96902,-11.07763 -6.86912,-18.45012 -1.4479,-5.61791 -0.98172,-11.60972 -2.37275,-17.241975 -1.70769,-6.914392 -6.54549,-17.776909 -7.27643,-20.08927 -1.94301,-6.146817 -4.44912,-13.763636 -5.06186,-18.665621 -0.15818,-1.265466 -1.28328,-6.978477 -2.05638,-10.440093 -0.75818,-3.394799 -1.19138,-6.91357 -2.53093,-10.123727 -1.33028,-3.187952 -2.95873,-6.798272 -5.73166,-8.858261 -3.34549,-2.485337 -12.40271,-1.452134 -12.40271,3.650427 m 49.9784,122.12635 c -3.70734,-0.98109 -7.41469,-4.1098 -11.12203,-7.13936 m -3.00548,126.3884 c 0,0 -0.47144,-5.21972 -1.10728,-7.75097 -1.42237,-5.66236 -3.77514,-11.05787 -6.01097,-16.45106 -1.29185,-3.11617 -3.35139,-5.92904 -4.27094,-9.17463 -1.3603,-4.80125 -1.63615,-9.88007 -1.74002,-14.86922 -0.088,-4.22915 1.34058,-11.98355 1.34058,-11.98355 0,0 5.15573,-3.00769 7.67586,-4.62569 1.89186,-1.21463 4.05839,-3.12951 5.22005,-4.27095 1.24908,-1.22734 12.11809,-7.80394 18.53623,-10.28191 4.08539,-1.57732 10.81238,-6.2714 10.81238,-6.2714 0,0 5.40006,-8.03914 8.45718,-10.97057 3.06977,-2.94356 8.58823,-9.61244 8.58823,-9.61244 l 4.54098,-5.41497 c 2.90467,-1.69945 5.76838,-3.29649 8.95964,-5.7124 2.22989,-1.67537 4.82385,-2.98666 7.6496,-4.06616 0,0 8.17466,-0.31612 11.07283,-2.71791 2.05815,-1.70563 4.01675,-5.45852 3.28511,-9.05647 -0.72811,-3.58057 -4.55816,-5.29738 -7.91876,-6.40875 -4.17433,-1.38048 -11.19088,-1.50225 -13.24106,-1.5451 -2.28501,-0.0478 -10.41651,0.68923 -15.1664,3.01508 -5.32763,2.60875 -11.36215,6.05566 -12.51566,9.40793 -6.68327,1.70457 -9.67332,5.48658 -14.2365,8.38371 0.0392,0.11766 -7.19898,1.62711 -10.96426,1.58183 -4.42629,-0.0532 -11.18139,-2.8473 -11.18139,-2.8473" style="fill:none;stroke:#000000;stroke-width:1.79999995;stroke-linecap:round;stroke-miterlimit:4;stroke-opacity:1;stroke-dasharray:none;display:inline" />
	<!-- 
	Generated using the Perl SVG Module V2.50
	by Ronan Oger
	Info: http://www.roitsystems.com/
 -->
</svg>