<?xml version="1.0" encoding="UTF-8" standalone="yes"?>
<!DOCTYPE svg PUBLIC "-//W3C//DTD SVG 1.0//EN" "http://www.w3.org/TR/2001/REC-SVG-20010904/DTD/svg10.dtd">
<svg height="285" style="background-color:white" width="285" xmlns="http://www.w3.org/2000/svg" xmlns:svg="http://www.w3.org/2000/svg" xmlns:xlink="http://www.w3.org/1999/xlink">
	<path d="m 157.68964,82.800127 c -1.21929,0.486716 -1.21929,0.486716 -1.21929,0.486716 m 21.89919,16.135763 c 0.34454,-4.617898 -1.61935,-10.056366 -2.07255,-11.71812 -0.45321,-1.661754 -3.47458,-13.294031 -3.92779,-14.653648 -0.4532,-1.359617 -1.20854,-6.798084 -1.05748,-10.876935 0.15107,-4.078851 -0.4532,-8.30877 -0.4532,-8.30877 0,0 -3.17244,-3.021371 -7.10022,-3.021371 -3.92778,0 -7.55343,4.380988 -8.1577,11.179072 -0.60428,6.798085 0.39217,22.200608 0.39217,22.200608 m 95.08314,137.780978 c -7.25129,-6.04274 -9.66838,-10.12159 -12.53868,-13.4451 -2.87031,-3.32351 -9.97053,-13.29403 -12.23656,-16.46647 -2.26602,-3.17244 -7.25129,-7.85557 -9.51731,-11.63228 -2.26603,-3.77671 -3.32351,-6.94915 -5.13634,-8.91304 -1.81282,-1.96389 -4.22991,-10.27266 -5.28739,-12.9919 -1.05748,-2.71923 -5.2874,-11.78334 -8.91305,-24.4731 -3.62564,-12.68976 -3.17244,-17.22182 -7.25129,-23.71776 -4.07885,-6.49595 -5.2874,-8.91305 -7.55342,-9.81946 -2.26603,-0.906409 -7.7045,-1.81282 -9.51732,-1.81282 -1.81283,0 -3.32393,0.812655 -6.34509,0.859533 M 97.741346,81.208539 c -0.604274,1.057479 -0.890776,2.507695 -3.164622,3.444342 m 19.439986,-8.795425 c -3.43454,-1.900207 -6.0027,-3.259824 -7.66446,-4.317303 -1.66175,-1.05748 -3.77671,-2.11496 -4.83419,-2.870303 -1.05748,-0.755342 -3.776714,-4.834193 -4.985263,-5.287399 -1.208548,-0.453205 -4.532056,-3.323508 -6.19381,-4.683124 -1.661754,-1.359617 -6.798084,-3.927782 -9.819455,-3.927782 -3.021371,0 -5.589536,5.589536 -5.13633,8.308769 0.453205,2.719234 1.193951,5.648531 4.985261,10.42373 3.683805,4.639796 10.321513,10.028639 15.56006,11.632277 0,0 1.558439,7.550404 8.936917,11.932903 M 78.389475,130.95203 c 6.511045,0.2602 13.611266,-1.40156 16.934774,-3.21438 3.323508,-1.81282 5.055191,-4.21604 6.193811,-4.38099 4.42315,-0.64078 7.70449,-3.32351 7.70449,-3.32351 0,0 9.6877,4.74575 19.74278,1.69064 m -4.14431,-27.187973 c -4.72153,0.268891 -13.18137,2.081713 -14.99419,2.081713 -1.81282,0 -6.79809,0.453206 -8.91305,1.510686 -2.114955,1.057479 -3.62564,0.755342 -6.344874,2.417094 -2.719233,1.66176 -5.891673,4.98526 -8.157701,5.89168 -2.266028,0.90641 -6.344879,2.8703 -9.668387,5.28739 -3.323507,2.4171 -14.502579,5.2874 -18.128224,7.25129 -3.625645,1.9639 -13.294032,3.17244 -14.351512,7.55343 -1.057479,4.38099 1.436983,6.99016 3.815397,8.48034 M 114.21564,69.369536 c -0.76317,2.623822 -0.67342,5.41912 0.14325,7.609084 1.75774,4.713525 4.59399,9.270926 7.85556,14.351511 1.46396,2.280426 4.49547,4.859023 4.98526,6.495948 0.45229,1.5116 0,6.344881 0,10.423731 0,4.07885 0.46495,7.83236 1.35962,11.63228 0.55047,2.33801 1.11232,6.00357 2.44451,6.7785 M 96.859836,44.493685 c 0.277235,3.328707 1.183647,7.256489 3.298604,10.126791 2.11496,2.870302 4.07885,5.891673 5.2874,7.704496 0.74599,1.118979 2.01849,2.315307 3.98331,4.625765 1.36657,1.606978 4.02501,2.705737 6.74256,2.474456 m 56.19749,37.162857 c -3.17243,-3.92778 -6.34487,-8.308766 -8.6109,-10.121588 -2.26603,-1.812823 -4.8342,-4.380988 -5.74061,-6.495948 -0.90641,-2.114959 -1.35961,-5.287398 -3.17244,-7.704495 -1.81282,-2.417097 -4.68312,-4.078851 -5.7406,-6.344879 -1.05748,-2.266028 -2.26603,-4.683125 -3.77671,-5.438467 -1.51069,-0.755343 -5.2874,-3.927782 -7.7045,-6.949153 -2.4171,-3.021371 -6.49595,-8.006633 -9.06411,-10.725866 -2.56817,-2.719234 -4.53206,-4.380988 -8.00663,-8.006633 -3.47458,-3.625645 -6.94916,-7.25129 -7.85557,-9.064113 -0.90641,-1.812822 -1.81282,-2.870302 -4.07885,-5.287398 -2.26603,-2.417097 -5.13633,-8.610907 -6.94915,-10.574798 -1.812825,-1.963891 -5.287401,-5.2874 -8.459841,-4.229919 -3.308401,1.1028 -5.413371,5.582121 -4.985261,9.970523 0.358878,3.678727 2.423256,6.704496 3.272761,11.438729 0.760653,4.239066 3.711955,7.444839 5.489214,7.444839 1.510685,0 2.719234,-0.755343 2.719234,-0.755343 M 177.6566,126.68017 c 0.75535,-2.8703 1.51069,-4.22992 1.20855,-7.25129 -0.30214,-3.02137 -0.75534,-5.43847 -2.26603,-7.55343 m -34.89683,5.2874 c -4.68312,1.96389 -6.19381,5.58954 -6.19381,5.58954 -5.67032,1.59852 -9.52791,14.92949 -12.87509,22.02122 m -63.602869,6.83102 c 2.909989,2.9606 12.747818,5.00951 15.012119,5.9907 2.264301,0.9812 7.623147,3.17003 8.90625,4.45313 1.283104,1.2831 2.490731,2.03787 4.679556,2.64168 2.188824,0.60382 4.981462,1.9624 6.189089,3.17003 1.207627,1.20762 4.981462,4.60407 6.490995,6.11361 1.50953,1.50953 7.39672,8.7553 8.90625,10.41578 1.50954,1.66049 5.88718,7.09481 7.62315,9.13268 1.73596,2.03787 7.02827,7.67182 8.76423,9.70969 1.73597,2.03787 7.68969,6.97066 11.99186,9.15949 4.30217,2.18882 11.17055,5.58527 17.88798,7.47219 6.71742,1.88692 8.00053,3.09454 9.81197,4.45313 1.81144,1.35858 4.86876,3.18434 7.23682,6.55354 2.3733,3.37665 6.72637,9.37204 8.38685,11.63634 1.66049,2.2643 4.98147,8.07601 6.491,9.96292 1.50953,1.88692 8.15148,10.94412 9.88745,13.35938 M 60.834218,138.19782 c -1.283104,-0.15095 -5.509799,-0.22643 -7.396716,0.75477 -1.886918,0.9812 -5.887183,3.39645 -5.585276,6.64195 0.301907,3.2455 4.075742,3.84931 7.472193,4.83051 3.396452,0.9812 12.831039,4.45312 14.265096,3.77383 m 2.264301,-1.73596 c 0.603813,-0.67929 3.396451,-2.03787 3.170021,-4.98146 -0.22643,-2.94359 -3.547405,-4.83051 -7.094809,-6.34005 m 66.193062,-3.39645 c -2.33978,2.2643 -6.11361,4.83051 -7.47219,5.58528 -1.35858,0.75477 -9.35911,3.17002 -11.39698,3.17002 -2.03787,0 -9.56126,-2.88775 -11.24603,-4.07574 -1.81231,-1.27792 -9.386083,-4.81963 -13.132946,-5.58528 -3.099525,-2.10756 -5.790004,-3.3582 -10.297102,-5.06323 -1.379159,-0.52173 -7.08752,-2.85442 -11.440188,-2.9373 -4.518439,-0.086 -6.909674,0.68054 -11.170551,1.43406 -4.680014,0.82765 -8.528866,3.69836 -9.434587,4.37765 -2.667147,1.93992 -4.550725,6.25044 -0.631426,9.90478" style="fill:none;stroke:#000000;stroke-width:1.79999995;stroke-linecap:round;stroke-miterlimit:4;stroke-opacity:1;stroke-dasharray:none;display:inline" />
	<!-- 
	Generated using the Perl SVG Module V2.50
	by Ronan Oger
	Info: http://www.roitsystems.com/
 -->
</svg>