<?xml version="1.0" encoding="UTF-8" standalone="yes"?>
<!DOCTYPE svg PUBLIC "-//W3C//DTD SVG 1.0//EN" "http://www.w3.org/TR/2001/REC-SVG-20010904/DTD/svg10.dtd">
<svg height="285" style="background-color:white" width="285" xmlns="http://www.w3.org/2000/svg" xmlns:svg="http://www.w3.org/2000/svg" xmlns:xlink="http://www.w3.org/1999/xlink">
	<path d="m 53.731259,166.53486 c 3.418291,-1.06822 8.01162,-1.17504 10.788981,0.53411 2.777361,1.70914 7.314851,5.22104 7.37069,6.83658 0.07725,2.23513 -1.388681,4.80697 -1.922789,5.4479 M 149.59221,59.591099 c -2.41265,-8.266954 -3.92218,-15.512717 -5.88458,-20.192272 -1.96239,-4.679555 -4.67955,-18.869174 -9.66102,-19.472988 -4.98146,-0.603814 -7.84957,4.075742 -8.75529,9.811971 -0.90572,5.736229 -0.15096,16.45392 2.11335,19.171081 2.2643,2.717161 3.30301,6.342219 3.30301,6.342219 m -28.52524,-0.115673 c -6.628941,-0.792224 -11.00659,-0.18841 -13.270891,-0.03746 -2.2643,0.150953 -13.434852,0.301907 -14.491525,0.90572 -1.056674,0.603814 -1.207628,5.887183 0,8.45339 1.207627,2.566208 3.622881,7.396717 13.736758,9.811971 10.113878,2.415254 16.755828,0 18.718218,-0.301907 1.9624,-0.301906 12.09572,1.083205 12.09572,1.083205 m 45.37915,22.640103 c -1.62211,-7.269385 -4.03736,-15.269915 -5.69785,-19.345656 -1.66049,-4.075742 -6.79291,-16.755827 -8.45339,-18.265361 -1.66049,-1.509534 -6.18909,-3.622881 -9.20816,-4.226695 -3.01907,-0.603814 -7.41704,-0.950451 -10.26483,-0.603814 -2.84779,0.346638 -3.26971,-0.277731 -3.26971,-0.277731 m -1.52862,67.697738 c -0.33409,3.67904 -0.78695,13.18911 -0.0322,15.75531 0.75477,2.56621 1.81144,5.13242 1.50954,7.39672 -0.30191,2.2643 -1.50954,10.86864 -1.05668,16.90678 0.45286,6.03814 0.51625,9.52655 1.08837,12.00904 m 17.62987,-28.76487 c 3.32098,3.92479 4.5286,7.24577 4.5286,7.24577 M 135.4052,128.61228 c 2.71716,-0.15095 5.13241,-2.86811 5.13241,-2.86811 m -16.00106,-13.2839 c -1.35858,2.11335 -2.74797,2.23762 -3.48733,4.74169 m -33.949111,0.54168 c 1.207627,2.2643 3.851152,3.40185 3.807444,3.39537 M 130.27278,93.138235 c -3.47193,-3.019067 -5.43432,-3.622881 -7.84958,-3.622881 -2.41525,0 -10.26483,2.264301 -13.43485,2.868114 -3.17002,0.603814 -25.511123,4.528602 -31.700212,9.661022 -6.189089,5.13241 -7.54767,7.24576 -9.35911,9.0572 -1.811441,1.81144 -4.981462,5.73623 -6.792903,6.491 -1.811441,0.75476 -9.811971,5.43432 -8.90625,9.96292 0.90572,4.5286 3.320974,7.54767 12.076271,7.84958 8.755297,0.3019 14.374953,-4.4043 17.057734,-6.03814 2.566207,-1.56284 9.057203,-7.42104 9.057203,-8.30244 11.651817,1.84305 22.526737,-0.8275 30.794497,-3.92478 3.25668,5.59925 10.47449,10.10549 14.18962,11.47245 -1.12415,3.06939 2.92722,7.64831 4.8305,9.20816 M 122.4232,75.174781 c 1.66049,-0.754767 3.47193,-1.962394 4.83051,-3.019067 m 13.58581,26.869704 c 2.11334,-0.301907 2.2643,-0.45286 3.01907,-0.905721 M 244.22151,216.89977 c -10.03358,-6.40441 -16.65147,-8.75269 -19.64019,-10.8875 -2.98873,-2.1348 -8.7527,-6.19092 -10.8875,-8.32573 -2.13481,-2.1348 -6.19093,-7.04485 -9.60662,-10.24705 -3.41568,-3.20221 -5.76397,-1.49437 -7.89877,-11.10098 -2.1348,-9.60662 -2.77524,-33.30293 -4.69657,-37.35906 -1.92132,-4.05613 -5.33701,-11.52794 -6.61789,-14.94362 -1.28088,-3.41569 -4.48466,-9.91507 -7.05087,-10.82079 -2.56621,-0.90572 -4.5286,-3.47193 -6.03814,-5.73623 -1.50953,-2.2643 -5.58527,-6.491 -7.09481,-9.208159 -1.50953,-2.717161 -4.5286,-5.887183 -6.03813,-8.00053 -1.50954,-2.113348 -5.13242,-6.792903 -7.54767,-8.90625 -2.41526,-2.113348 -6.491,-9.208157 -8.15149,-9.962924 -1.66048,-0.754767 -2.41525,-0.603814 -4.07574,-3.170022 -1.66048,-2.566207 -8.45339,-8.604343 -9.0572,-9.661017 -0.60381,-1.056674 -6.18909,-9.35911 -7.54767,-10.717691 -1.35858,-1.358581 -9.96292,-12.831039 -14.49153,-11.925318 -4.5286,0.90572 -7.849573,4.679555 -7.24576,11.925318 0.60381,7.245763 4.83051,15.246293 8.00053,17.510594 3.17002,2.264301 3.92479,8.151483 10.26483,8.755297 0.60382,3.622881 1.20763,3.773835 2.41526,5.887182 1.20762,2.113348 4.8305,8.00053 6.7929,10.113878 1.96239,2.113347 7.39671,8.90625 7.39671,8.90625 0,0 -0.90572,19.472992 9.05721,28.077332 m 9.6704,41.55047 c -3.2022,1.70784 -5.55048,4.2696 -8.32573,5.12352 m 11.31446,-20.49411 c -5.33701,5.33701 -9.17966,8.53922 -11.52794,10.24706 -2.34828,1.70784 -15.58406,9.82009 -19.85367,12.16838 -4.26961,2.34828 -8.14638,4.92942 -11.86522,7.26802 m 22.11228,-2.14449 c -5.12353,2.56176 -8.11226,3.41568 -11.10098,3.62916 -2.98873,0.21348 -6.83137,1.49436 -8.96618,0 -2.1348,-1.49436 -5.76397,-4.48309 -11.9549,-7.47181 -6.190925,-2.98873 -10.033571,-8.32573 -14.089698,-10.03358 -4.056126,-1.70784 -12.381859,-6.19093 -16.011025,-7.04485 -3.629166,-0.85392 -13.449261,-4.69657 -20.067152,-2.1348 -6.736607,2.60772 -7.471812,5.12353 -7.258331,7.47181 0.21348,2.34828 3.707456,6.56986 5.763969,8.11225 3.415689,2.56177 7.258331,4.26961 9.820095,5.97745 2.561764,1.70785 11.954899,12.80882 13.662742,14.30319 1.707843,1.49436 2.988725,3.41568 5.550489,4.2696 2.561764,0.85392 5.550489,2.98873 7.685292,4.91005 2.134803,1.92132 8.325733,6.19093 10.674017,8.32573 2.348282,2.13481 4.696572,2.77525 7.258332,3.62917 2.56176,0.85392 6.19093,4.05613 7.89877,5.12353 1.70784,1.0674 5.16858,5.3838 11.31446,7.04485 7.89877,2.13481 14.73014,2.98872 17.93235,4.05612 3.2022,1.06741 16.2245,5.97745 21.56151,8.53922 5.33701,2.56176 14.51666,7.47181 17.71887,10.03357 3.2022,2.56177 9.17965,7.25834 11.9549,9.17966 2.77524,1.92132 7.89877,5.12353 10.46054,6.83137" style="fill:none;stroke:#000000;stroke-width:1.79999995;stroke-linecap:round;stroke-miterlimit:4;stroke-opacity:1;stroke-dasharray:none;display:inline" />
	<!-- 
	Generated using the Perl SVG Module V2.50
	by Ronan Oger
	Info: http://www.roitsystems.com/
 -->
</svg>