<?xml version="1.0" encoding="UTF-8" standalone="yes"?>
<!DOCTYPE svg PUBLIC "-//W3C//DTD SVG 1.0//EN" "http://www.w3.org/TR/2001/REC-SVG-20010904/DTD/svg10.dtd">
<svg height="285" style="background-color:white" width="285" xmlns="http://www.w3.org/2000/svg" xmlns:svg="http://www.w3.org/2000/svg" xmlns:xlink="http://www.w3.org/1999/xlink">
	<path d="m 102.84584,30.784858 c -2.38526,-2.752445 -8.428002,-13.025106 -11.75151,-13.327243 -3.323508,-0.302137 -4.834193,1.05748 -6.344879,4.380988 -1.510685,3.323508 -2.280599,10.529182 -1.215834,13.951032 m -8.727104,19.049946 c 4.051265,2.802266 15.12206,12.45609 23.711571,12.236768 M 109.59413,45.946915 C 100.46058,41.930719 94.115701,40.268965 92.605015,39.664691 91.09433,39.060416 88.526165,37.096525 85.504794,36.190114 81.430101,34.967707 70.851145,35.58584 67.829775,35.58584 c -3.021371,0 -19.789979,-1.661754 -20.998527,-0.604274 -1.208549,1.05748 -1.963892,6.647016 -0.906412,8.610907 1.05748,1.963891 6.798085,9.064112 13.142963,10.423729 6.344879,1.359617 14.804717,1.05748 17.826088,0.604274 m 5.589536,-2.266028 c 0,0 2.266028,-1.661754 2.870302,-2.417097 m 16.091215,58.105009 c -1.13543,1.11386 -1.13543,12.444 -0.98436,15.76751 0.15107,3.32351 0.4532,7.70449 0.4532,9.51732 0,1.81282 -1.972351,11.47095 -1.994891,15.0125 m 0.664848,-48.609973 c 1.041923,4.318063 0.725773,8.520093 2.840733,8.973293 m -29.919197,14.70595 c 4.086477,0.0988 5.446094,-2.9226 5.446094,-2.9226 2.488762,-1.00867 3.597702,-2.56927 4.07885,-4.38099 2.561218,-0.28458 12.51199,-13.98095 7.454885,-19.522861 m 22.215438,-3.179691 c 0.53096,3.441071 4.6545,6.649022 6.7372,8.351042 2.19586,1.7945 5.43846,2.56817 6.79808,2.56817 m 6.94915,-1.66176 c 1.05748,-0.4532 5.89168,-4.532054 7.25129,-5.136329 1.35962,-0.604274 3.02137,-2.114959 3.02137,-2.114959 m -51.605953,6.182708 c 2.834682,0.81057 20.339033,-4.608678 27.046203,-14.290413 m 26.21839,-2.326367 c -4.68001,-4.370645 -7.55031,-8.298427 -10.42061,-11.470866 -2.8703,-3.17244 -7.10022,-12.991895 -9.81946,-14.049375 -2.71923,-1.057479 -11.028,-0.604274 -12.68975,0.151069 -1.66176,0.755343 -6.94916,2.870302 -11.632282,6.647016 -4.683125,3.776713 -19.789979,14.955785 -21.300664,16.768608 -1.510686,1.812822 -1.510686,1.963891 -2.719234,2.719233 -1.208548,0.755343 -2.870302,2.11496 -3.625645,3.17244 -0.755343,1.057479 -5.589536,8.610906 -6.495947,12.236555 -0.906411,3.62564 -0.755343,4.53205 -2.266028,6.34488 -1.510686,1.81282 -8.796462,9.63133 -4.048365,13.91679 m 123.694645,20.2247 c 0.40897,-3.17474 3.09501,-12.46522 2.80026,-14.68853 M 150.16213,75.467935 c 4.83419,0.453205 5.7406,0.453205 7.25129,0.151068 M 132.78925,55.22475 c 3.3287,-1.357538 3.51056,-2.432915 3.92778,-3.021371 m 92.75608,174.786301 c -5.58953,-2.4171 -5.58953,-2.71923 -10.87693,-6.64702 -5.2874,-3.92778 -11.48121,-6.64701 -14.20044,-8.76197 -2.71924,-2.11496 -9.36625,-7.10022 -11.02801,-9.66839 -1.66175,-2.56816 -3.92778,-10.72586 -4.07885,-15.71113 -0.15107,-4.98526 -1.05748,-36.25645 -1.35962,-40.3353 -0.30213,-4.07885 -4.38098,-34.89683 -5.28739,-39.27782 -0.90642,-4.38098 -6.19381,-19.941043 -7.40236,-24.775237 -1.20855,-4.834193 -3.92779,-15.106854 -6.04274,-18.58143 -2.11496,-3.474577 -5.43847,-7.100222 -11.48121,-12.387621 -6.04275,-5.287398 -9.21518,-7.100221 -10.5748,-8.761975 -1.35962,-1.661754 -10.72587,-7.25129 -15.25792,-8.913044 -4.53206,-1.661754 -8.61091,-3.927782 -11.63228,-4.834193 -3.02137,-0.906411 -12.08549,-3.474576 -13.74724,-2.417097 -1.66175,1.05748 -4.38099,3.625645 -3.92778,8.30877 0.4532,4.683125 6.34488,11.179072 7.25129,11.934415 0.90641,0.755342 5.89167,4.985262 10.5748,7.402358 4.68312,2.417097 6.49594,4.229919 7.70449,5.438468 1.20855,1.208548 3.32351,3.625645 5.13633,5.287399 1.81283,1.661754 6.49595,6.19381 7.7045,7.25129 1.20855,1.057479 3.17244,1.963891 3.32351,3.02137 0.15106,1.05748 -0.30214,2.417097 -0.45321,3.776714 -0.15107,1.359617 0.90641,17.372882 1.81282,19.185704 0.90641,1.812823 3.32351,7.402359 5.2874,8.761979 1.96389,1.35961 3.77672,2.11496 4.98526,2.56816 m 7.7045,116.02064 c 3.77671,-0.15107 8.30877,-2.4171 9.97052,-3.62564 m -60.88062,-120.5527 c -0.15107,2.71923 -0.12528,6.03761 1.20855,8.61091 1.47115,2.83822 4.21349,7.40797 5.43847,8.45984 1.04811,0.9 1.98974,3.61028 7.04346,5.20075 m 2.1458,-1.93982 c 0.86976,4.26343 1.68767,9.42882 2.74515,11.39271 2.38293,3.58981 4.32592,5.88311 5.92608,9.34444 m -20.42866,-10.40192 c -3.32351,0.75535 -6.79808,2.4171 -10.27266,2.4171 m 43.50774,0.45321 c -3.17244,1.66175 -7.10022,4.83419 -8.45984,5.89167 -1.35961,1.05748 -5.7406,4.98526 -7.10022,5.89167 -1.35962,0.90641 -3.47458,2.4171 -4.53206,3.62565 -1.05748,1.20855 -4.98526,3.62564 -7.70449,4.83419 -2.71923,1.20855 -8.26782,4.81309 -9.67549,4.00387 m -35.026577,-1.58094 c -0.91978,0.75255 -1.672327,1.42148 -2.341259,2.42487 M 62.377819,124.03847 c 2.424875,1.17063 11.04857,10.36972 10.870129,12.70969 -0.162315,2.12851 -2.341259,5.76953 -5.184216,7.85994 -0.957446,0.70401 -2.257642,1.33786 -2.842957,1.75594 m 62.013505,11.08146 c -3.84264,2.1348 -5.12353,3.52242 -7.79203,3.7359 -2.66851,0.21348 -7.15159,-2.98872 -8.75269,-3.7359 -1.60111,-0.74718 -6.51116,-4.80331 -8.00552,-5.01679 -1.49436,-0.21348 -3.202202,0.42696 -3.202202,0.42696 0,0 0.960662,-0.96066 10e-7,-3.62916 -0.255654,-0.71015 -2.455025,-3.20221 -3.415687,-3.94939 -0.960661,-0.74718 -3.735906,-3.41569 -5.550489,-5.55049 -1.814583,-2.1348 -3.522425,-4.26961 -5.443748,-5.55049 -1.921323,-1.28088 -6.29767,-4.69657 -7.471812,-6.19093 -1.174142,-1.49436 -2.561764,-3.73591 -6.40441,-5.12353 m 0,0 c -3.308946,-0.85392 -9.393135,-1.0674 -11.527939,-1.49436 m 0,0 c -4.376346,0.32022 -5.337008,0.74718 -6.938111,2.77525 -1.601102,2.02806 -2.881984,5.12352 -2.348283,8.96617 0.533701,3.84265 2.668504,7.36507 3.629166,9.39313 0.960661,2.02807 3.735905,2.88199 4.910047,4.26961 1.174142,1.38762 3.415686,5.87071 4.589828,7.47181 1.174141,1.60111 2.134803,4.80331 2.881984,5.97745 0.747181,1.17414 3.582919,6.53778 5.504242,8.08377 1.673587,1.34664 2.394531,1.62959 3.248452,2.27003 0.853921,0.64044 2.241544,3.09546 2.668504,4.05613 0.426961,0.96066 3.522426,3.7359 4.589827,4.91004 1.067402,1.17414 3.415686,2.77525 4.376347,3.73591 0.960662,0.96066 1.921323,3.62916 2.988725,5.01679 1.067402,1.38762 5.97745,6.83137 7.151591,7.89877 1.174142,1.0674 3.202207,4.37635 5.337007,6.83137 2.13481,2.45502 9.60662,9.8201 10.8875,11.10098 1.28088,1.28088 9.92683,8.00551 12.06164,9.92683 2.1348,1.92133 6.83137,5.01679 9.39313,7.47182 2.56177,2.45502 7.25833,6.40441 10.8875,9.28639 3.62917,2.88198 7.89877,6.93811 11.20772,9.92684 3.30894,2.98872 8.53921,7.79203 11.20772,9.49987" style="fill:none;stroke:#000000;stroke-width:1.79999995;stroke-linecap:round;stroke-miterlimit:4;stroke-opacity:1;stroke-dasharray:none;display:inline" />
	<!-- 
	Generated using the Perl SVG Module V2.50
	by Ronan Oger
	Info: http://www.roitsystems.com/
 -->
</svg>