<?xml version="1.0" encoding="UTF-8" standalone="yes"?>
<!DOCTYPE svg PUBLIC "-//W3C//DTD SVG 1.0//EN" "http://www.w3.org/TR/2001/REC-SVG-20010904/DTD/svg10.dtd">
<svg height="285" style="background-color:white" width="285" xmlns="http://www.w3.org/2000/svg" xmlns:svg="http://www.w3.org/2000/svg" xmlns:xlink="http://www.w3.org/1999/xlink">
	<path d="m 40.376283,61.365623 c -1.493224,2.834152 -0.312221,7.135423 1.177315,8.816161 1.758455,1.984177 7.570489,8.404887 16.443603,12.374295 M 184.80135,66.977136 c -4.70015,0.854573 -8.86619,2.884183 -12.81859,4.806972 -3.9524,1.922788 -10.78898,4.486506 -14.42092,7.263868 -3.63193,2.777361 -8.75937,6.72976 -12.60494,8.652549 -3.84558,1.922788 -5.92806,5.605852 -7.07666,7.823541 m -15.24906,-8.250828 c -0.74775,1.068216 -1.81596,2.563718 -2.45689,2.777362 M 97.100825,74.988755 c -0.64093,0.961395 -2.029611,2.456897 -2.884183,2.884183 M 65.267991,61.422414 c -1.281859,1.175037 -1.815967,2.243253 -2.02961,2.884182 M 30.287854,30.335172 c -4.116565,-0.959235 -6.680283,0.108981 -7.428034,1.177197 -0.747751,1.068215 -3.738756,4.05922 -0.854573,10.468515 2.884183,6.409296 5.996823,9.532363 13.779985,16.023239 8.355674,6.968331 16.791674,8.914364 20.189281,9.613943 1.785707,1.522203 6.667665,3.365996 8.225262,3.204647 2.179968,2.125548 10.455711,6.937853 15.966006,9.076415 M 78.300225,54.265367 c -1.068216,1.388681 -1.922789,2.136432 -2.243253,3.311469 m 51.154628,22.65828 c 0.22656,2.337972 4.07213,6.824479 4.92671,7.57223 m -23.7144,-15.061844 c 5.98201,3.631934 17.09146,10.895802 24.46215,5.661544 M 111.3081,64.199775 c -0.64093,1.281859 -1.38868,2.67054 -1.81597,3.204648 M 74.668291,60.140554 c 7.907601,4.294697 17.751023,9.243395 27.666789,12.07084 M 48.103794,23.688616 c -6.229731,-1.79019 -12.532205,-2.43112 -15.523209,0.132598 -2.991005,2.563718 -2.777362,10.254873 -1.068216,14.420915 1.709145,4.166042 4.166042,6.836581 13.45952,12.284482 9.293478,5.447902 23.287107,8.118441 24.355322,8.332084 m 56.508619,-4.166042 c 1.17504,-1.175037 2.24326,-3.204647 2.67054,-4.272863 M 90.371065,42.942279 c 0.320464,-1.068216 1.068215,-1.815967 1.602323,-2.67054 M 270.26162,221.85335 c -3.17244,-5.2874 -6.64702,-11.33014 -8.00663,-13.89831 m -3.02137,-5.43846 c -1.81283,-2.87031 -5.58954,-11.33014 -7.40236,-13.59617 -1.81283,-2.26603 -10.1216,-15.10686 -13.29403,-24.32204 -3.17244,-9.21518 -6.19381,-10.12159 -7.40236,-14.35151 -1.20855,-4.22992 -8.00664,-19.03463 -9.21519,-24.17096 -1.20855,-5.13633 -4.22991,-16.61754 -4.98526,-22.05601 -0.75534,-5.438469 -3.62564,-17.675021 -5.2874,-24.019899 -1.66175,-6.344879 -6.49594,-22.81135 -8.76197,-26.436995 -2.26603,-3.625645 -4.53206,-8.45984 -10.12159,-9.970523 -3.33698,-0.901887 -10.11672,-0.489294 -17.67502,-1.510685 C 169.4989,41.326444 153.6367,36.492252 145.479,35.132635 137.3213,33.773018 132.48711,31.355921 127.65292,30.44951 122.81872,29.543098 116.47384,28.032413 109.22255,27.730276 97.145445,27.227063 92.86023,26.229733 88.828301,25.464248 85.424824,24.818078 75.63785,22.912874 68.736186,21.989671 c 0,0 -5.589536,-2.568165 -11.330141,-2.719233 -5.740604,-0.151069 -8.913043,1.812822 -9.517318,5.287398 -0.508546,2.924135 2.417097,10.42373 7.553427,12.991895 5.136331,2.568165 11.248433,9.164243 30.666914,11.934415 6.577655,3.374446 16.164332,7.100221 16.164332,7.100221 5.15721,2.292639 11.70984,4.623701 18.88357,5.740605 3.02409,1.71211 5.50096,3.073633 9.66838,4.683124 5.67811,3.573383 12.84083,4.834194 15.409,4.532057 2.56816,-0.302138 10.12159,-3.776714 12.38762,-6.647016 M 193.5968,222.33736 c 4.15192,5.55873 7.47543,12.20575 10.19466,19.00383 m -60.38311,-72.55754 c 5.09202,4.12349 10.53049,6.23845 13.09866,8.35341 m -19.33678,-20.69639 c 2.87031,1.20855 6.49595,1.66176 8.61091,1.66176 M 50.985632,96.390927 c -0.407369,0.692266 -0.377671,2.11496 -0.52874,2.719234 M 75.00553,110.2137 c 0.830877,-4.00332 2.794768,-5.514 2.794768,-9.21518 0,-3.701181 -5.362933,-8.45984 -6.495947,-8.837512 -1.133014,-0.377671 -8.913044,-1.284082 -11.783346,-0.07553 M 180.60437,90.305932 c -4.69657,2.561764 -16.22451,5.763969 -22.20196,5.977449 -5.97745,0.213481 -8.96617,0.213481 -10.46054,0.213481 -1.49436,0 -15.1571,-1.494363 -17.93234,-1.921323 -2.77525,-0.426961 -17.71887,-4.269607 -19.85368,-5.123529 -2.1348,-0.853921 -17.718864,-7.258331 -21.77499,-8.112252 -4.056127,-0.853922 -13.235781,-3.202205 -25.19068,-0.426961 -11.954899,2.775244 -19.075227,10.960752 -19.075227,15.573337 0,2.348284 0.07548,9.403866 4.985525,11.752146 4.910047,2.34828 18.359309,4.5455 23.696317,6.03986 5.337009,1.49436 16.864947,5.12353 19.426711,6.40441 2.561764,1.28088 8.112254,6.19093 10.887494,7.25833 2.77525,1.0674 11.679,10.61161 12.95989,12.31945 0.67728,0.90303 4.32273,4.15262 7.54101,7.96984 2.86824,3.40202 5.11437,7.37381 6.82459,8.68163 2.07392,1.58594 8.24078,7.13875 13.49845,12.39643 1.6864,1.68639 6.64017,5.54427 8.7035,8.52464 1.92132,2.77524 5.76397,6.19093 10.03358,8.96617 4.2696,2.77525 13.87622,11.9549 17.50539,15.58407 3.62916,3.62916 10.24705,13.44926 12.59534,18.14583 2.34828,4.69657 4.91004,14.0897 6.61789,18.35931 1.70784,4.2696 7.04485,21.56151 9.60661,30.52769" style="fill:none;stroke:#000000;stroke-width:1.79999995;stroke-linecap:round;stroke-miterlimit:4;stroke-opacity:1;stroke-dasharray:none;display:inline" />
	<!-- 
	Generated using the Perl SVG Module V2.50
	by Ronan Oger
	Info: http://www.roitsystems.com/
 -->
</svg>