<?xml version="1.0" encoding="UTF-8" standalone="yes"?>
<!DOCTYPE svg PUBLIC "-//W3C//DTD SVG 1.0//EN" "http://www.w3.org/TR/2001/REC-SVG-20010904/DTD/svg10.dtd">
<svg height="285" style="background-color:white" width="285" xmlns="http://www.w3.org/2000/svg" xmlns:svg="http://www.w3.org/2000/svg" xmlns:xlink="http://www.w3.org/1999/xlink">
	<path d="m 154.39205,112.47973 c -4.15439,1.35961 -7.40236,4.83419 -9.06411,6.42041 -1.66176,1.58622 -4.45652,3.09691 -5.74061,4.53206 -1.96389,1.88835 -4.45652,4.53205 -5.43847,5.28739 m -28.62748,-17.37288 1.96389,-2.79477 M 90.112385,90.499254 c -0.81247,0.363074 -2.68747,1.602481 -3.323508,2.794768 M 70.202433,62.153259 c -2.599261,1.455795 -3.807809,4.250563 -2.75033,8.707085 1.05748,4.456522 5.481496,10.271012 7.25129,12.765292 1.601905,2.257664 5.600378,7.614565 9.064113,9.74392 l 2.114959,2.870303 c 0,0 0.981946,1.586219 2.492631,3.399042 1.510686,1.812819 4.305454,5.136329 5.136331,6.269349 0.830876,1.13301 7.402353,5.81613 7.402353,5.81613 l 2.87031,3.92779 c 1.51224,3.17037 8.96995,7.978 11.04082,12.19273 m 10.23671,-11.30763 c 1.59255,1.22358 2.16236,3.13867 2.07469,4.63913 M 107.18313,87.175746 c -1.43515,1.661754 -3.24797,2.6437 -3.92778,2.794768 M 82.78556,64.06226 c -1.58622,1.208548 -2.794768,2.719233 -3.096905,3.474576 M 61.647027,34.969674 c -4.39205,0.993837 -3.072407,6.670068 -2.126022,9.982415 2.266028,7.931098 10.637547,18.150377 16.617539,22.886884 1.139156,1.573948 2.014328,2.744788 3.701179,3.852248 3.467358,4.465287 12.452457,16.876393 18.959102,20.318719 l 3.625645,2.341562 c 7.53574,10.740518 9.04313,15.365308 23.71776,22.735818 1.00344,0.50399 1.5916,0.62753 2.56817,0.98194 -0.43521,0.61512 -1.66176,2.1905 -1.66176,3.70118 0,1.51069 -0.37767,3.32351 -0.60427,3.85225 m -8.91305,-47.284453 c -0.60427,1.05748 -1.88835,2.039425 -2.49263,2.568165 M 90.792193,57.264175 c -0.906411,0.604274 -1.737288,1.510686 -2.039426,2.341563 M 132.2288,103.75456 c 3.35522,2.22922 2.81221,2.84711 2.66827,6.61702 M 74.397015,20.44512 c -2.186253,-2.081094 -6.642775,-6.386547 -9.513077,-6.159944 -2.870302,0.226602 -5.514002,1.963891 -6.495947,5.967207 -0.981946,4.003316 -0.226603,7.477893 1.284082,10.725866 1.510686,3.247974 3.625645,7.175756 5.136331,9.668387 1.510685,2.492631 3.927782,5.891673 7.25129,9.064112 3.323508,3.17244 10.272661,8.761976 10.272661,8.761976 0.71652,1.514624 2.281099,2.393204 3.776713,3.323508 6.824196,7.405777 14.640022,13.985198 22.660282,20.394253 1.4693,1.352378 2.81063,2.448815 4.07885,3.399042 1.4381,4.000366 16.84612,16.420003 18.20376,17.372883 4.52641,3.17693 4.55228,2.18925 5.89167,2.6437 -0.15539,1.11496 -2.25143,0.70659 -2.03942,4.53205 0.11416,2.05991 -3.77672,4.15439 -5.0608,6.64702 M 126.2933,71.691221 c -0.98195,1.435151 -2.71923,2.719234 -3.47458,3.096905 M 97.665811,49.182008 c -1.586219,1.661754 -1.661754,1.963891 -2.039425,2.945837 M 142.1555,100.92298 c 0.30213,-0.6798 1.08083,-2.171374 2.76867,-3.12511 m 92.96751,176.84044 c -1.92279,-14.84821 -4.48651,-29.69641 -5.02062,-35.99888 -0.5341,-6.30247 -1.70914,-13.77998 -5.87518,-30.33733 -4.16604,-16.55735 -6.08883,-32.79423 -8.97302,-41.87406 -2.88418,-9.07984 -3.2911,-16.99806 -8.46483,-31.72602 -4.87251,-13.8705 -7.17537,-27.88043 -8.56405,-32.6874 -1.38868,-4.806974 -2.24325,-8.368742 -6.62294,-12.641606 -4.37968,-4.272863 -7.00263,-6.500771 -10.78898,-8.225262 -7.05009,-3.210961 -14.37785,-8.854375 -20.31128,-11.757967 -9.33313,-4.567271 -13.12387,-8.608301 -13.12387,-8.608301 -2.31625,-2.02961 -4.73202,-4.059221 -9.03559,-6.088831 0,0 -9.82759,-4.184369 -12.17766,-5.57305 -2.35008,-1.388681 -6.06291,-3.793739 -10.9767,-5.609706 -4.91379,-1.815967 -7.39662,-4.840482 -10.38762,-8.365594 -2.991,-3.525113 -11.372998,-8.766567 -15.014452,-10.53109 -6.05855,-4.332689 -8.460378,-8.287838 -12.62642,-7.860552 -4.166042,0.427287 -7.177175,4.40606 -6.862501,9.845914 0.342393,5.919043 3.100172,9.842644 6.516117,14.207272 3.163843,4.902109 11.028649,10.716035 15.168666,12.711769 0.857463,1.232991 2.036931,2.094625 2.991004,2.563718 2.012577,4.903989 7.366796,8.985384 9.332356,10.746957 1.85948,1.666508 6.03446,5.716902 14.59568,10.724183 1.2344,2.288047 4.16604,4.593328 4.16604,4.593328 1.03048,3.261472 11.09085,16.13936 16.45053,16.023238 5.12623,-0.111064 10.04123,-4.05922 11.10944,-5.127436 M 89.128041,141.86143 c -1.814583,1.38763 -2.775244,3.73591 -3.095465,4.69657 m -13.449261,-2.34828 c -0.640441,0.42696 -0.853921,0.74718 -1.387622,1.38762 m -8.432474,-15.47733 c 3.308946,0.10674 10.349344,0.15233 12.59534,4.16287 0.840977,1.50168 1.494363,4.91005 -0.32022,7.04485 m -23.696317,-3.62916 c 1.067401,-2.98873 4.056126,-5.76397 6.831371,-6.72463 m -7.000192,12.88464 c 2.566207,1.81144 17.963454,4.5286 17.963454,4.5286 0,0 8.90625,3.62288 11.774365,4.67955 2.868114,1.05668 17.963453,3.92479 20.37871,5.28337 2.41525,1.35858 8.00053,5.43432 10.71769,8.7553 2.71716,3.32097 5.73623,6.03813 7.24576,8.7553 1.50954,2.71716 5.53396,7.29936 6.7929,8.45339 3.62288,3.32097 3.47193,6.64194 5.13242,8.60434 1.66049,1.96239 6.34004,8.60434 9.20816,10.86864 2.86811,2.2643 6.7929,4.07575 9.20815,7.09481 2.41526,3.01907 8.60435,6.79291 9.81197,8.45339 1.20763,1.66049 5.58528,4.37765 6.18909,6.491 0.60382,2.11335 4.52861,5.43432 4.83051,9.20816 0.30191,3.77383 1.05668,17.96345 -0.15095,28.83209 M 151.78452,127.45151 c -3.62917,2.77525 -5.97745,3.02536 -8.96617,3.6658 -2.98873,0.64044 -16.19676,0.98002 -22.74325,-1.43184 -4.05613,-1.49436 -18.65928,-6.37804 -20.02608,-6.80548 -1.406905,-0.43998 -14.186131,-5.51228 -24.05002,-5.24857 -10.280695,0.27485 -20.656285,3.64038 -26.424206,9.4083 -4.406277,4.40628 -5.597844,8.73752 -2.395639,13.00713" style="fill:none;stroke:#000000;stroke-width:1.79999995;stroke-linecap:round;stroke-miterlimit:4;stroke-opacity:1;stroke-dasharray:none;display:inline" />
	<!-- 
	Generated using the Perl SVG Module V2.50
	by Ronan Oger
	Info: http://www.roitsystems.com/
 -->
</svg>