<?xml version="1.0" encoding="UTF-8" standalone="no"?><!DOCTYPE svg PUBLIC "-//W3C//DTD SVG 1.1//EN" "http://www.w3.org/Graphics/SVG/1.1/DTD/svg11.dtd"><svg width="100%" height="100%" viewBox="0 0 285 285" version="1.1" xmlns="http://www.w3.org/2000/svg" xmlns:xlink="http://www.w3.org/1999/xlink" xml:space="preserve" xmlns:serif="http://www.serif.com/" style="fill-rule:evenodd;clip-rule:evenodd;stroke-linecap:round;"><path d="M217.881,266.193l-70.865,3.163c-1.053,-3.988 -2.31,-8.456 -3.771,-12.108c-1.494,-3.736 -2.775,-7.259 -3.842,-9.714c-1.068,-2.455 -6.405,-10.887 -8.753,-13.236c-0.534,-0.533 -1.128,-1.166 -1.737,-1.839c-2.069,-2.29 -4.304,-5.045 -4.881,-5.953c-0.747,-1.174 -1.494,-1.387 -2.668,-1.921c-1.175,-0.534 -7.366,-11.955 -10.461,-18.679c-3.095,-6.725 -6.938,-14.944 -8.859,-21.242c-1.922,-6.297 -5.658,-18.252 -7.472,-25.404c-1.815,-7.152 -1.922,-12.275 -1.922,-13.769c0,-1.495 -2.455,-5.017 -2.882,-7.792c-0.426,-2.776 -2.455,-7.045 -2.775,-8.433c-0.32,-1.388 0.534,-4.803 1.495,-11.208c0.704,-4.693 2.783,-6.52 4.726,-7.245c-0.755,-2.265 -1.913,-4.089 -2.819,-7.561c-0.906,-3.472 -4.201,-10.265 -5.71,-13.586c-1.51,-3.321 -4.013,-5.685 -5.523,-9.308c0,0 -3.232,-7.9 -3.987,-9.863c-0.755,-1.962 -1.359,-3.17 -3.019,-5.434c-1.661,-2.264 -4.227,-7.246 -4.831,-15.095c-0.604,-7.85 3.472,-10.718 9.208,-9.812c5.737,0.905 9.51,8.755 10.869,12.227c1.359,3.472 4.282,7.927 5.887,9.812c2.021,2.373 3.472,4.076 5.887,9.208c2.416,5.132 3.019,4.68 4.68,7.699c1.66,3.019 4.076,8.453 6.189,11.925c2.113,3.472 5.283,9.963 7.095,13.284c1.811,3.321 3.019,6.34 4.227,8.755c1.207,2.415 3.17,0.453 4.83,0.302c1.661,-0.151 -0.39,-6.776 -1.296,-10.852c-0.906,-4.076 -2.78,-12.999 -4.44,-16.772c-1.661,-3.774 -4.529,-20.53 -4.831,-22.342c-0.302,-1.811 -1.962,-11.17 -1.962,-12.227c-0,-1.056 -1.208,-4.83 -1.661,-6.491c-0.452,-1.66 -4.377,-13.435 -3.622,-19.171c0.597,-4.538 5.304,-7.196 11.088,-6.084c7.993,1.537 8.853,11.006 10.211,14.78c1.359,3.774 2.951,9.536 4.007,14.216c1.057,4.679 2.922,8.788 3.978,12.411c1.057,3.623 2.869,11.322 4.68,16.756c1.811,5.434 3.472,9.208 3.774,11.774c0.302,2.567 3.472,14.039 4.528,14.643c1.057,0.604 3.623,0.178 4.529,-0.302c0.8,-0.424 1.661,-2.566 1.51,-5.132c-0.151,-2.567 0.452,-13.284 0.452,-14.945c0,-1.66 -0.15,-7.246 0,-12.68c0.151,-5.434 0.755,-15.699 0.755,-16.605c0,-0.906 -0.302,-13.435 -0.453,-14.793c-0.151,-1.359 -0.754,-8.152 -0.151,-11.624c0.604,-3.472 1.963,-7.849 3.02,-8.755c1.056,-0.906 3.773,-3.472 10.264,-0.453c6.491,3.019 6.944,16.454 7.246,19.473c0.302,3.019 1.208,17.813 1.661,19.775c0.452,1.962 2.717,9.057 2.264,16.303c-0.453,7.246 0.755,9.208 1.057,15.095c0.301,5.888 -0,16.756 0.151,21.285c0.15,4.528 1.509,6.793 1.962,10.416c0.453,3.622 5.585,23.85 6.189,40.908c0.604,17.058 2.717,13.888 3.774,24.303c1.057,10.416 -0.453,13.888 -0.453,21.889c-0,8 4.981,21.435 8.453,27.02c3.472,5.586 5.737,12.68 8.001,17.058c2.246,4.343 3.007,3.932 6.999,13.95Z" style="fill:#fff;"/><path d="M89.837,127.759c3.525,4.7 4.273,4.486 5.662,5.661c1.388,1.175 2.777,4.166 4.379,5.875c1.603,1.709 3.098,2.564 4.273,3.846c1.175,1.282 4.914,9.187 9.294,9.614c4.379,0.427 9.317,-2.265 9.679,-5.566m25.352,85.508c2.882,-1.067 5.337,-1.174 7.685,-8.112m-27.248,7.874c6.22,2.053 14.759,2.266 15.827,2.266m-43.595,-121.021c-2.304,-2.69 -3.691,-3.544 -5.933,-3.331c-2.241,0.214 -5.764,1.281 -6.724,7.685c-0.961,6.405 -1.815,9.82 -1.495,11.208c0.32,1.388 2.349,5.657 2.775,8.433c0.427,2.775 2.882,6.297 2.882,7.792c0,1.494 0.107,6.617 1.922,13.769c1.814,7.152 5.55,19.107 7.472,25.404c1.921,6.298 5.764,14.517 8.859,21.242c3.096,6.724 9.286,18.145 10.461,18.679c1.174,0.534 1.921,0.747 2.668,1.921c0.747,1.175 4.27,5.444 6.618,7.792c2.348,2.349 7.685,10.781 8.753,13.236c1.067,2.455 2.348,5.978 3.842,9.714c1.495,3.735 2.776,8.325 3.843,12.381m-53.797,-178.149c1.281,-0.64 3.843,-1.708 4.696,-2.028m-19.426,-19.106c1.601,-1.281 3.842,-2.989 5.977,-3.523m33.517,-21.241c1.601,-0.534 4.162,-1.174 6.191,-1.281m0.853,30.955c2.029,-0.427 3.736,-1.068 4.804,-1.388m3.309,37.786c-1.388,0.534 -2.066,1.004 -3.202,1.708m13.235,-5.764c3.523,-1.388 4.483,-1.388 6.511,-1.495m10.781,-0.213c-1.387,-0.854 -1.921,-1.281 -2.668,-1.815m18.466,8.967c-3.096,-2.242 -6.938,-3.736 -7.792,-4.163m-3.096,-28.5c3.482,0.355 5.337,0.427 7.579,1.174m-8.112,-30.741c2.134,0.107 4.162,0.854 4.91,1.067m48.153,214.554c-4.076,-10.265 -4.831,-9.812 -7.095,-14.19c-2.264,-4.378 -4.529,-11.472 -8.001,-17.058c-3.472,-5.585 -8.453,-19.02 -8.453,-27.02c-0,-8.001 1.51,-11.473 0.453,-21.889c-1.057,-10.415 -3.17,-7.245 -3.774,-24.303c-0.604,-17.058 -5.736,-37.286 -6.189,-40.908c-0.453,-3.623 -1.812,-5.888 -1.962,-10.416c-0.151,-4.529 0.15,-15.397 -0.151,-21.285c-0.302,-5.887 -1.51,-7.849 -1.057,-15.095c0.453,-7.246 -1.812,-14.341 -2.264,-16.303c-0.453,-1.962 -1.359,-16.756 -1.661,-19.775c-0.302,-3.019 -0.755,-16.454 -7.246,-19.473c-6.491,-3.019 -9.208,-0.453 -10.264,0.453c-1.057,0.906 -2.416,5.283 -3.02,8.755c-0.603,3.472 0,10.265 0.151,11.624c0.151,1.358 0.453,13.887 0.453,14.793c0,0.906 -0.604,11.171 -0.755,16.605c-0.15,5.434 0,11.02 0,12.68c0,1.661 -0.603,12.378 -0.452,14.945c0.151,2.566 -0.71,4.708 -1.51,5.132c-0.906,0.48 -3.472,0.906 -4.529,0.302c-1.056,-0.604 -4.226,-12.076 -4.528,-14.643c-0.302,-2.566 -1.963,-6.34 -3.774,-11.774c-1.811,-5.434 -3.623,-13.133 -4.68,-16.756c-1.056,-3.623 -2.921,-7.732 -3.978,-12.411c-1.056,-4.68 -2.648,-10.442 -4.007,-14.216c-1.358,-3.774 -2.218,-13.243 -10.211,-14.78c-5.784,-1.112 -10.491,1.546 -11.088,6.084c-0.755,5.736 3.17,17.511 3.622,19.171c0.453,1.661 1.661,5.435 1.661,6.491c-0,1.057 1.66,10.416 1.962,12.227c0.302,1.812 3.17,18.568 4.831,22.342c1.66,3.773 3.534,12.696 4.44,16.772c0.906,4.076 2.957,10.701 1.296,10.852c-1.66,0.151 -3.623,2.113 -4.83,-0.302c-1.208,-2.415 -2.416,-5.434 -4.227,-8.755c-1.812,-3.321 -4.982,-9.812 -7.095,-13.284c-2.113,-3.472 -4.529,-8.906 -6.189,-11.925c-1.661,-3.019 -2.264,-2.567 -4.68,-7.699c-2.415,-5.132 -3.866,-6.835 -5.887,-9.208c-1.605,-1.885 -4.528,-6.34 -5.887,-9.812c-1.359,-3.472 -5.132,-11.322 -10.869,-12.227c-5.736,-0.906 -9.812,1.962 -9.208,9.812c0.604,7.849 3.17,12.831 4.831,15.095c1.66,2.264 2.264,3.472 3.019,5.434c0.755,1.963 3.987,9.863 3.987,9.863c1.51,3.623 4.013,5.987 5.523,9.308c1.509,3.321 4.804,10.114 5.71,13.586c0.906,3.472 2.064,5.296 2.819,7.561m61.966,99.767c11.322,3.623 10.265,5.283 20.983,2.717m-30.342,-9.208c2.868,2.868 6.944,4.378 8.453,4.529m-16.755,-16.756c-1.812,-8.001 -1.661,-15.548 -1.51,-19.171c0.151,-3.623 1.348,-10.71 3.165,-14.035m-33.356,7.242c4.982,-1.812 8.001,-4.076 10.416,-6.491c2.415,-2.415 9.061,-6.924 11.776,-8.368m50.87,-22.729c-6.189,-0.452 -9.359,0.302 -13.435,0.755c-4.076,0.453 -9.822,2.682 -12.987,4.134m-24.299,-5.945c-1.811,2.415 -2.717,5.736 -3.17,7.245m-12.982,-17.057c2.416,0.754 6.19,3.019 6.642,3.623m-0.603,3.924c-3.002,2.727 -3.004,7.055 -5.284,7.246c-2.415,0.151 -6.803,1.538 -11.321,-4.83m84.986,36.53c-1.056,-3.773 -1.66,-6.793 -2.868,-9.057c-1.207,-2.264 -4.83,-6.491 -8.604,-8.453c-3.774,-1.963 -11.925,-5.435 -13.133,-6.491c-1.208,-1.057 -6.189,-4.831 -7.095,-5.585c-0.905,-0.755 -4.981,-2.114 -6.491,-3.171c-1.509,-1.056 -9.208,-4.981 -11.774,-6.641c-2.566,-1.661 -9.661,-6.642 -10.869,-7.095c-1.207,-0.453 -10.416,-4.076 -12.982,-4.378c-2.566,-0.302 -8.021,-1.822 -11.019,0.302c-3.561,2.523 -5.629,7.968 -4.68,12.227c1.246,5.592 11.322,11.02 12.378,11.926c1.057,0.905 7.85,4.981 9.661,6.189c1.812,1.207 6.34,5.585 8.152,6.793c1.811,1.207 9.208,4.528 10.566,6.189c1.359,1.66 3.774,5.434 6.793,7.245c3.019,1.812 3.472,3.925 9.209,4.529" style="fill:none;fill-rule:nonzero;stroke:#000;stroke-width:1.8px;"/><path d="M219.402,266.125l-73.674,3.288" style="fill:none;"/></svg>