<?xml version="1.0" encoding="UTF-8" standalone="yes"?>
<!DOCTYPE svg PUBLIC "-//W3C//DTD SVG 1.0//EN" "http://www.w3.org/TR/2001/REC-SVG-20010904/DTD/svg10.dtd">
<svg height="285" style="background-color:white" width="285" xmlns="http://www.w3.org/2000/svg" xmlns:svg="http://www.w3.org/2000/svg" xmlns:xlink="http://www.w3.org/1999/xlink">
	<path d="m 89.836957,127.75862 c 3.525112,4.70015 4.272863,4.48651 5.661544,5.66154 1.388681,1.17504 2.777361,4.16605 4.379685,5.87519 1.602324,1.70915 3.097824,2.56372 4.272864,3.84558 1.17504,1.28186 4.91379,9.18666 9.29348,9.61394 4.37968,0.42729 9.31746,-2.26475 9.67934,-5.56547 m 25.35171,85.50792 c 2.88198,-1.0674 5.337,-1.17414 7.68529,-8.11226 m -27.2475,7.87352 c 6.21968,2.05332 14.7589,2.2668 15.8263,2.2668 M 101.14498,113.70382 c -2.303583,-2.6903 -3.691206,-3.54422 -5.932749,-3.33074 -2.241544,0.21348 -5.763969,1.28089 -6.724631,7.6853 -0.960661,6.40441 -1.814583,9.82009 -1.494362,11.20771 0.32022,1.38763 2.348283,5.65723 2.775244,8.43248 0.426961,2.77524 2.881985,6.29767 2.881985,7.79203 0,1.49436 0.10674,6.61789 1.921323,13.76948 1.814583,7.15159 5.55049,19.10649 7.47181,25.40416 1.92132,6.29767 5.76397,14.51666 8.85944,21.24129 3.09546,6.72464 9.28639,18.14583 10.46053,18.67953 1.17414,0.53371 1.92133,0.74719 2.66851,1.92133 0.74718,1.17414 4.2696,5.44375 6.61789,7.79203 2.34828,2.34828 7.68529,10.78076 8.75269,13.23578 1.0674,2.45502 2.34828,5.97745 3.84265,9.71336 1.49436,3.7359 2.77524,8.32573 3.84264,12.38186 M 93.290908,91.480074 c 1.280882,-0.640441 3.842646,-1.707843 4.696567,-2.028064 M 78.560764,70.34552 c 1.601103,-1.280882 3.842646,-2.988725 5.97745,-3.522425 M 118.05463,45.581801 c 1.6011,-0.533701 4.16286,-1.174142 6.19093,-1.280882 m 0.85392,30.954649 c 2.02806,-0.426961 3.7359,-1.067402 4.80331,-1.387622 m 3.30894,37.786024 c -1.38762,0.5337 -2.06582,1.00411 -3.2022,1.70784 m 13.23578,-5.76397 c 3.52242,-1.38762 4.48308,-1.38762 6.51115,-1.49436 M 160.53721,105.89 c -1.38762,-0.85392 -1.92132,-1.28089 -2.6685,-1.81459 m 18.46605,8.96618 c -3.09547,-2.24155 -6.93811,-3.73591 -7.79203,-4.16287 m -3.09547,-28.499624 c 3.48156,0.354832 5.33701,0.426961 7.57855,1.174142 m -8.11225,-30.741169 c 2.1348,0.10674 4.16287,0.853922 4.91005,1.067402 M 217.9767,266.43273 c -4.07574,-10.26483 -4.83051,-9.81197 -7.09481,-14.18962 -2.2643,-4.37765 -4.5286,-11.47245 -8.00053,-17.05773 -3.47193,-5.58528 -8.45339,-19.02013 -8.45339,-27.02066 0,-8.00053 1.50954,-11.47246 0.45286,-21.88824 -1.05667,-10.41578 -3.17002,-7.24576 -3.77383,-24.3035 -0.60382,-17.05773 -5.73623,-37.28549 -6.18909,-40.90837 -0.45286,-3.62288 -1.81144,-5.88718 -1.9624,-10.41578 -0.15095,-4.5286 0.15096,-15.397247 -0.15095,-21.284429 -0.30191,-5.887183 -1.50953,-7.849577 -1.05667,-15.09534 0.45286,-7.245763 -1.81144,-14.340572 -2.2643,-16.302967 -0.45286,-1.962394 -1.35858,-16.755826 -1.66049,-19.774894 -0.30191,-3.019068 -0.75477,-16.45392 -7.24576,-19.472988 -6.491,-3.019068 -9.20816,-0.45286 -10.26483,0.45286 -1.05668,0.90572 -2.41526,5.283369 -3.01907,8.755297 -0.60382,3.471928 0,10.264831 0.15095,11.623411 0.15095,1.358581 0.45286,13.887713 0.45286,14.793433 0,0.90572 -0.60381,11.170551 -0.75477,16.604873 -0.15095,5.434323 0,11.019598 0,12.680086 0,1.660487 -0.60381,12.378178 -0.45286,14.944386 0.15096,2.566212 -0.70937,4.708062 -1.50953,5.132412 -0.90572,0.48033 -3.47193,0.90572 -4.5286,0.30191 -1.05668,-0.60381 -4.2267,-12.076272 -4.5286,-14.642479 -0.30191,-2.566208 -1.9624,-6.340043 -3.77384,-11.774365 -1.81144,-5.434322 -3.62288,-13.132946 -4.67955,-16.755827 -1.05668,-3.622881 -2.92149,-7.732108 -3.97816,-12.411664 -1.05668,-4.679555 -2.64862,-10.441953 -4.0072,-14.215788 -1.35858,-3.773835 -2.21836,-13.2424 -10.21146,-14.779562 -5.78356,-1.112243 -10.49098,1.545442 -11.08814,6.08392 -0.75476,5.73623 3.17002,17.510593 3.62288,19.171081 0.45286,1.660487 1.66049,5.434322 1.66049,6.490996 0,1.056673 1.66048,10.415784 1.96239,12.227225 0.30191,1.81144 3.17002,18.567267 4.83051,22.341102 1.66049,3.773835 3.53445,12.696828 4.44017,16.772571 0.90572,4.07574 2.95655,10.70095 1.29606,10.8519 -1.66049,0.15095 -3.62288,2.11335 -4.83051,-0.30191 -1.20763,-2.41525 -2.41526,-5.43432 -4.2267,-8.75529 -1.81144,-3.32098 -4.98146,-9.811974 -7.09481,-13.283902 -2.11334,-3.471928 -4.5286,-8.90625 -6.18908,-11.925318 -1.66049,-3.019068 -2.26431,-2.566208 -4.67956,-7.698623 C 96.761126,66.268531 95.310137,64.56609 93.289198,62.19279 91.684062,60.307791 88.760596,55.852747 87.402015,52.380819 86.043435,48.908891 82.2696,41.059314 76.533371,40.153594 c -5.736229,-0.90572 -9.811971,1.962394 -9.208157,9.811971 0.603814,7.849576 3.170021,12.831038 4.830509,15.095339 1.660487,2.264301 2.264301,3.471928 3.019068,5.434322 0.754766,1.962394 3.987477,9.863118 3.987477,9.863118 1.509534,3.622882 4.013052,5.986989 5.522586,9.307963 1.509534,3.320975 4.80461,10.113878 5.71033,13.585803 0.905721,3.47193 1.992542,5.1523 2.747309,7.41661 m 62.037597,99.91126 c 11.3215,3.62288 10.26483,5.28337 20.98252,2.71716 m -30.34163,-9.20816 c 2.86811,2.86812 6.94386,4.37765 8.45339,4.5286 m -16.75583,-16.75582 c -1.81144,-8.00053 -1.66048,-15.5482 -1.50953,-19.17109 0.15095,-3.62288 1.34834,-10.70988 3.1649,-14.03476 m -33.35558,7.24186 c 4.98146,-1.81144 8.00053,-4.07574 10.41578,-6.49099 2.41526,-2.41526 9.06113,-6.92331 11.77633,-8.36764 m 50.86933,-22.72876 c -6.18909,-0.45286 -9.35911,0.3019 -13.43485,0.75476 -4.07574,0.45286 -9.82151,2.6823 -12.98676,4.13379 m -24.29873,-5.94523 c -1.81144,2.41526 -2.71716,5.73623 -3.17002,7.24577 m -12.98199,-17.05774 c 2.41525,0.75477 6.18909,3.01907 6.64195,3.62288 m -0.60382,3.92479 c -3.00124,2.72626 -3.004,7.05484 -5.28336,7.24576 -2.41526,0.15096 -6.80351,1.53743 -11.32151,-4.8305 m 84.98676,36.53072 c -1.05667,-3.77384 -1.66048,-6.79291 -2.86811,-9.05721 -1.20763,-2.2643 -4.83051,-6.49099 -8.60435,-8.45339 -3.77383,-1.96239 -11.92531,-5.43432 -13.13294,-6.49099 -1.20763,-1.05668 -6.18909,-4.83051 -7.09481,-5.58528 -0.90572,-0.75476 -4.98146,-2.11335 -6.491,-3.17002 -1.50953,-1.05667 -9.20815,-4.98146 -11.77436,-6.64195 -2.56621,-1.66049 -9.66102,-6.64195 -10.86865,-7.09481 -1.20762,-0.45286 -10.41578,-4.07574 -12.98199,-4.37765 -2.56621,-0.3019 -8.02113,-1.82217 -11.01959,0.30191 -3.561069,2.52263 -5.628753,7.96767 -4.679561,12.22723 1.24616,5.59222 11.321501,11.01959 12.378181,11.92531 1.05667,0.90572 7.84957,4.98147 9.66101,6.18909 1.81145,1.20763 6.34005,5.58528 8.15149,6.79291 1.81144,1.20762 9.20816,4.5286 10.56674,6.18908 1.35858,1.66049 3.77383,5.43433 6.7929,7.24577 3.01907,1.81144 3.47193,3.92479 9.20816,4.5286" style="fill:none;stroke:#000000;stroke-width:1.79999995;stroke-linecap:round;stroke-miterlimit:4;stroke-opacity:1;stroke-dasharray:none;display:inline" />
	<!-- 
	Generated using the Perl SVG Module V2.50
	by Ronan Oger
	Info: http://www.roitsystems.com/
 -->
</svg>