<?xml version="1.0" encoding="UTF-8" standalone="yes"?>
<!DOCTYPE svg PUBLIC "-//W3C//DTD SVG 1.0//EN" "http://www.w3.org/TR/2001/REC-SVG-20010904/DTD/svg10.dtd">
<svg height="285" style="background-color:white" width="285" xmlns="http://www.w3.org/2000/svg" xmlns:svg="http://www.w3.org/2000/svg" xmlns:xlink="http://www.w3.org/1999/xlink">
	<path d="m 119.41386,231.26957 c 4.99008,6.61476 6.62957,9.29784 7.31105,11.72089 1.04443,3.71355 6.26662,20.07638 7.54315,25.8788 m -9.86715,-38.27414 c 2.33867,1.02573 6.8519,0.61544 8.65719,0.24617 2.2236,-0.45482 8.57513,-3.20029 9.80601,-4.7594 m 36.59816,-99.29097 c -0.27839,0.11639 -0.58823,0.20041 -0.91068,0.26155 -0.45481,0.0862 -0.93473,0.12695 -1.38696,0.14875 m -44.88609,49.64548 c -3.03617,4.92352 -5.33381,10.17527 -5.33381,10.17527 M 93.546861,170.61024 c 3.774698,-1.47705 8.123809,-0.24617 9.600859,-0.24617 1.47706,0 3.09504,-0.73031 5.89663,-0.93957 M 94.20333,158.05527 c 1.969408,1.96941 2.806591,4.45949 12.48121,3.78886 m 10.90551,-3.37857 c 1.72323,-0.73852 3.85675,-1.80529 5.25175,-3.52852 m -28.474353,-7.5494 c 2.379701,3.52853 3.861104,5.20475 4.595285,6.72881 0.774528,1.60781 1.636368,2.99479 2.904168,3.6696 1.24658,0.66352 3.45778,2.3329 4.72729,3.71568 0,0 2.46176,9.51881 4.18499,11.40615 1.72323,1.88735 5.74474,3.89657 8.04175,3.77471 2.70537,-0.14353 6.15439,-1.72324 7.1391,-4.34912 0.9847,-2.62587 2.1016,-6.10209 2.11756,-9.32853 m -25.06793,-38.24726 c -7.111915,4.82732 -6.438799,6.56731 -8.416089,8.46551 -1.977291,1.8982 -5.24112,5.71026 -5.524545,10.36694 -0.290254,4.76886 0.304498,10.0387 -0.407325,11.62053 -0.711824,1.58183 -0.699956,1.50274 -0.462681,3.08457 0.237275,1.58184 0.937231,3.40094 0.304498,4.7455 -0.632733,1.34456 -0.699956,3.63822 -0.699956,5.37823 0,1.74002 1.186374,8.38371 3.005482,12.57557 1.819107,4.19185 4.179987,9.4119 5.129086,12.18011 0.949099,2.7682 2.293657,4.35003 2.768206,6.64369 0.47455,2.29366 3.796394,10.83555 5.140954,13.05012 1.34456,2.21456 3.68161,6.73455 6.15728,9.55228 2.43997,2.7771 3.96645,4.13057 5.46919,5.07967 m 29.6815,-78.64002 c -0.71588,-3.72524 -2.21551,-7.40217 -4.75704,-10.76831 m -6.89158,7.54851 c 1.10729,-0.55365 2.29366,-1.58184 3.7964,-2.13548 m -9.02109,-32.81306 c -7.27178,-9.89641 -10.51454,-15.116456 -15.5764,-15.037364 -5.06186,0.07909 -7.83007,2.847298 -9.72827,6.010964 -1.8982,3.16366 -3.400938,7.5137 -3.321846,9.01644 0.07909,1.50274 1.028186,10.67737 1.740016,12.49648 0.71182,1.8191 7.67189,4.58731 9.17463,6.5646 1.50274,1.97729 7.11824,10.67737 8.38371,11.86374 1.26546,1.18638 5.82458,6.60271 6.40642,9.57009 0.79092,4.03367 0.94458,11.34972 4.27095,13.52466 2.05638,1.34457 4.27094,3.24276 6.48551,2.9264 2.20486,-0.31498 3.82755,-1.20488 5.9079,-2.69837 M 110.5102,81.316719 c 1.25937,-0.610373 2.43152,-1.366103 3.46743,-2.348901 M 95.633831,53.35361 c 1.11851,-0.782981 2.394681,-1.408301 3.24372,-2.460753 M 141.75161,103.9923 c -6.70838,-7.657892 -10.90132,-15.360204 -12.4502,-17.418517 -1.23463,-1.640698 -5.05316,-6.162578 -5.92818,-8.612637 -1.67778,-4.697802 -4.80965,-8.27708 -5.81632,-10.849686 -1.00667,-2.572606 -7.27041,-12.303768 -8.27708,-13.534145 -1.00667,-1.230376 -4.6978,-6.487441 -5.59262,-8.612637 -0.89482,-2.125196 -2.34891,-4.026688 -3.46743,-5.928179 -1.118524,-1.901491 -5.850944,-10.108875 -12.751177,-13.31044 -4.683125,-2.172873 -7.371298,-2.68665 -11.408948,-0.671114 -3.055202,1.525112 -2.908164,5.928179 -1.565934,10.066719 1.342229,4.13854 4.250392,9.954866 5.816326,12.191915 1.565934,2.237049 6.775145,12.056332 7.494113,14.093407 1.342229,3.802982 5.480769,9.619309 6.263736,12.080062 0.782968,2.460754 2.460754,7.494113 3.802983,10.290424 1.342229,2.796311 5.816331,10.625981 7.158551,12.86303 m 53.63325,3.970758 c 2.62853,2.01334 10.01079,5.14522 12.97488,5.98411 m -6.65522,-33.891289 c 0.8438,0.256081 1.69446,0.50531 2.68446,0.615189 m -0.89483,-27.012363 c 0.78297,0.111853 1.90149,0.05593 2.90817,0.05593 m 12.97857,90.985923 c -1.34592,-6.25771 -1.90518,-13.19256 -2.12888,-16.32443 -0.22371,-3.13187 -2.79631,-36.463891 -2.1252,-41.273545 0.67112,-4.809655 1.00667,-14.093407 0.78297,-18.343799 -0.22371,-4.250393 -1.26992,-17.571492 -1.00667,-20.357143 0.22684,-2.400392 0.11185,-13.981554 -1.45408,-16.889718 -1.18577,-2.202147 -3.46743,-7.941523 -8.9482,-9.171899 -2.76172,-0.619977 -9.1719,2.125196 -9.61931,10.737833 -0.44741,8.612638 0.55926,13.422292 0.11185,18.455652 -0.44741,5.033359 -1.67779,17.337127 -1.34223,25.27865 0.0779,1.843073 -0.44741,6.263736 -0.89482,8.72449 -0.44741,2.460753 -5.03335,18.008241 -7.15855,20.24529 -1.63786,1.724059 -4.25039,4.362249 -5.25707,4.697799 -1.00667,0.33556 -2.12519,1.00668 -3.91483,2.01335 m -16.10675,17.11342 c 1.56593,0.55926 5.81632,-0.55926 7.0467,-1.56594 1.66283,-1.3605 1.89349,-7.28424 1.67379,-9.96178 m -13.53015,10.07364 c -2.53674,-1.84172 -3.11685,-2.92502 -3.41776,-6.75864 m 36.30238,34.16248 c 2.79631,2.1252 6.15188,4.58595 7.60597,5.14522 1.45408,0.55926 4.58594,3.35557 5.92817,3.80298 1.34223,0.44741 3.02002,2.12519 4.02669,3.13187 m -5.36892,42.72763 c 1.45409,0.67111 1.78964,0.89482 2.79632,1.11852 M 146.4558,135.91315 c 0.53597,6.08921 -0.93683,10.99289 -1.72774,14.94747 -0.79092,3.95458 -1.32139,10.12373 -2.27049,12.81284 -0.9491,2.68912 -4.34442,12.87343 -4.83816,18.66562 -0.26904,3.15618 -0.63273,6.6437 0,10.59828 0.63273,3.95458 1.14402,6.6245 1.74001,9.01645 m 69.91699,68.8097 c -3.16366,-8.22553 -5.59313,-13.83847 -6.82351,-16.41108 -1.23037,-2.5726 -2.28887,-5.80143 -3.24371,-7.4941 -1.9637,-3.4811 -5.48078,-12.08007 -6.3756,-14.09342 -0.89481,-2.01334 -4.95053,-13.5938 -5.70447,-17.33712 -0.75605,-3.75383 -1.90149,-13.42229 -1.90149,-17.33713 0,-4.4741 1.34223,-21.81122 1.23038,-29.08163 -0.0639,-4.15163 1.00667,-9.95487 1.00667,-14.65267 0,-4.6978 -1.00667,-7.38226 -1.23038,-9.39561 -0.2237,-2.01334 -1.34223,-4.9215 -2.57261,-6.48744 -1.23037,-1.56593 -2.79631,-2.5726 -3.24372,-3.91483 -0.44741,-1.34223 -1.67778,-2.23705 -2.46075,-3.69113 -0.78297,-1.45408 -2.79631,-2.46076 -3.91483,-4.02669 -1.11853,-1.56593 -2.7956,-2.46656 -3.80299,-4.02669 -1.13997,-1.76546 -4.47409,-6.823 -5.81632,-7.49411 -1.34223,-0.67112 -4.4741,-3.02002 -7.27041,-3.69113 -2.1424,-0.51418 -10.51413,-0.22371 -12.19192,-0.22371 -1.67778,0 -7.38226,-0.78296 -13.08673,-0.67111 -3.80225,0.0746 -10.82074,-0.4818 -12.52747,0.11185 -2.57261,0.89482 -6.37559,5.03336 -5.92818,9.06005 0.49439,4.44951 4.47409,9.73116 5.92818,10.29042 1.45408,0.55926 3.02001,3.57928 6.15188,4.25039 3.13187,0.67112 5.36892,2.68446 8.38893,3.02002 3.02002,0.33556 9.61931,1.45408 11.5208,-0.44741 1.90149,-1.90149 1.01562,-1.06931 1.34224,-3.35557" style="fill:none;stroke:#000000;stroke-width:1.79999995;stroke-linecap:round;stroke-miterlimit:4;stroke-opacity:1;stroke-dasharray:none;display:inline" />
	<!-- 
	Generated using the Perl SVG Module V2.50
	by Ronan Oger
	Info: http://www.roitsystems.com/
 -->
</svg>