<?xml version="1.0" encoding="UTF-8" standalone="yes"?>
<!DOCTYPE svg PUBLIC "-//W3C//DTD SVG 1.0//EN" "http://www.w3.org/TR/2001/REC-SVG-20010904/DTD/svg10.dtd">
<svg height="285" style="background-color:white" width="285" xmlns="http://www.w3.org/2000/svg" xmlns:svg="http://www.w3.org/2000/svg" xmlns:xlink="http://www.w3.org/1999/xlink">
	<path d="m 176.45339,213.73846 c 5.77369,5.06186 14.07831,13.36648 15.18559,13.92012 1.10728,0.55364 2.68912,0.31637 7.19734,5.53641 4.50822,5.22005 8.85826,11.3892 11.07282,14.86923 2.21457,3.48003 5.85278,10.12372 6.96007,13.05011 M 106.34429,139.26082 c 6.85037,10.06218 10.31779,19.12223 11.88373,21.91854 4.26065,7.60827 12.35385,20.74278 15.9949,24.38383 5.37939,5.37939 12.97488,12.75117 16.44231,14.98822 3.46742,2.23705 16.29717,9.39065 17.48354,10.41884 1.18638,1.02819 9.4119,14.1574 11.62647,17.8747 2.21456,3.71731 6.5646,12.2592 8.54189,16.45106 1.97729,4.19186 5.77369,12.10102 8.93736,19.93109 M 85.75708,90.640137 c -5.558885,2.756645 -8.131491,4.210726 -9.47372,8.349266 -1.34223,4.138537 -2.125197,10.066717 2.460753,16.330457 4.58595,6.26373 9.954867,17.67268 14.205259,20.02158 4.250393,2.34891 8.269368,4.60687 12.191908,4.13854 3.69193,-0.44079 4.46532,-2.37363 5.75601,-4.37461 M 88.640647,82.441622 c -2.072787,4.862019 -2.905337,6.094809 -3.063521,10.523939 -0.158183,4.42913 1.793769,6.584086 3.506908,8.907549 m 5.35039,-20.14535 c 2.610987,1.984082 6.280836,4.790321 9.973366,6.386963 m 17.81047,1.131338 c 5.08347,-1.82421 13.66113,-5.138761 16.35025,-9.251525 M 58.211428,68.763527 c -1.265466,2.689115 -1.265466,3.321848 -1.265466,4.745497 M 77.235939,55.448499 C 65.487856,55.001586 51.093183,52.787021 46.822236,53.261571 42.551288,53.73612 40.811273,54.21067 37.173059,53.419754 33.534844,52.628838 24.5184,52.312471 23.411118,52.945204 c -1.107283,0.632733 -5.37823,2.847298 -4.270947,8.700078 1.107282,5.852779 6.169146,12.496475 11.547375,14.078307 5.37823,1.581832 17.716522,3.005481 20.56382,3.321848 2.847298,0.316366 7.909161,-1.423649 8.700078,-0.9491 0.790916,0.47455 4.90368,4.112764 13.920124,3.954581 9.016444,-0.158183 14.552857,0.47455 16.925605,0.47455 2.372748,0 6.327329,-0.790916 8.541894,-7.118245 m 58.369613,11.705558 c -1.42365,8.067345 -0.9491,14.552859 -0.63273,17.716519 m 42.07673,-29.105711 c -6.32732,6.169146 -10.12372,8.541894 -12.1801,9.649177 -2.05639,1.107283 -9.96555,6.960062 -11.54738,8.383711 -1.58183,1.423649 -6.96006,5.694596 -9.01644,7.750983 -2.05639,2.05638 -2.8473,2.21456 -6.01097,5.37822 m -37.91656,31.34227 c -0.82801,-0.9574 -1.34504,-2.21539 -1.12134,-4.56429 M 93.173077,108.94427 c 4.250392,4.13854 8.836343,9.61931 10.625983,10.51413 1.78964,0.89482 4.02669,0.78297 5.14521,0 1.11852,-0.78297 3.69113,-3.91484 5.70447,-6.71115 m -5.59262,-20.133435 c 4.2504,1.901491 8.05338,3.355573 9.1719,5.480769 1.11853,2.125196 0.33556,4.026686 0,6.599296 m 9.73116,-0.78297 c -3.91483,5.14521 -5.14521,6.93485 -6.59929,9.1719 -1.45408,2.23705 -2.68446,5.36892 -2.46075,9.1719 M 192.1373,95.916087 c -7.57693,7.124573 -15.7193,14.022973 -18.77268,15.153853 -3.05339,1.13089 -6.33296,2.37486 -11.42194,-0.11309 -5.08898,-2.48794 -12.66591,-5.99369 -16.96327,-8.93399 -4.29736,-2.940296 -15.26694,-9.499427 -18.09415,-11.082665 -2.82721,-1.583239 -11.30885,-3.618831 -17.75489,-3.279566 -6.44604,0.339266 -11.082671,1.696327 -12.213556,2.374858 -1.130885,0.678531 -6.335888,6.330489 -7.576927,10.404143 -0.662838,2.17573 -0.02327,5.13522 0.597907,6.9011 0.79162,2.25041 1.27437,5.8486 6.639755,13.00247 4.318171,5.75758 7.094511,12.59795 12.744911,14.21235 3.19884,0.91396 6.42494,3.26549 9.47833,3.49167 3.05338,0.22618 5.02066,-0.54889 11.11242,3.38129 7.01149,4.52354 9.52487,8.09151 10.09031,9.67475 0.56544,1.58324 2.48795,14.58841 5.8806,22.95696 m 0.90471,-109.921991 c 1.01779,-1.243973 1.9225,-2.035593 2.26177,-2.827212 m -39.01552,-4.523538 c 1.13088,-1.017797 1.9225,-1.922504 2.60103,-3.053389 m 161.68612,174.3734 c -7.05733,-6.79778 -10.67402,-14.30318 -13.87622,-19.64019 -1.39091,-2.31818 -6.88504,-11.20791 -8.95218,-14.51902 -2.08092,-3.33319 -9.11191,-16.19039 -11.85699,-18.151 -3.18357,-2.2738 -10.67918,-17.71134 -13.24094,-23.68879 -2.56177,-5.97745 -5.97745,-17.29191 -6.08419,-25.5109 -0.10674,-8.21899 -1.0674,-28.499626 -1.49436,-33.729894 -0.42696,-5.230269 -0.21348,-23.162617 -4.69657,-30.954649 -4.48309,-7.792033 -6.83137,-13.449262 -12.16838,-15.157104 -5.33701,-1.707843 -11.63468,-3.095465 -14.94362,-2.561764 -3.30895,0.533701 -5.44375,1.174142 -8.96618,0.32022 -3.52242,-0.853921 -12.27512,-1.387622 -17.82561,-1.387622 -5.55049,0 -12.57083,-0.945447 -17.8256,-1.494362 -7.15277,-0.747182 -35.27386,-5.845316 -38.85343,-6.511151 C 101.01067,34.651163 87.953899,32.23928 82.830371,30.424697 77.706843,28.610114 75.57204,26.15509 73.010276,26.15509 c -3.353383,0 -7.685293,2.988725 -7.792033,9.820096 -0.10674,6.831371 3.902589,13.559435 8.872131,17.392299 5.44874,4.202455 16.917474,8.508933 20.588156,8.759042 4.606508,0.313873 11.74142,1.067402 14.40992,2.881985 2.66851,1.814583 12.70208,4.005339 20.60086,5.657229 6.26684,1.310598 9.17965,3.949386 15.37058,5.870709 6.19093,1.921323 12.91556,4.056126 17.61213,4.056126 4.69657,0 10.03357,-0.960661 17.39865,-5.230268" style="fill:none;stroke:#000000;stroke-width:1.79999995;stroke-linecap:round;stroke-miterlimit:4;stroke-opacity:1;stroke-dasharray:none;display:inline" />
	<!-- 
	Generated using the Perl SVG Module V2.50
	by Ronan Oger
	Info: http://www.roitsystems.com/
 -->
</svg>