<?xml version="1.0" encoding="UTF-8" standalone="yes"?>
<!DOCTYPE svg PUBLIC "-//W3C//DTD SVG 1.0//EN" "http://www.w3.org/TR/2001/REC-SVG-20010904/DTD/svg10.dtd">
<svg height="285" style="background-color:white" width="285" xmlns="http://www.w3.org/2000/svg" xmlns:svg="http://www.w3.org/2000/svg" xmlns:xlink="http://www.w3.org/1999/xlink">
	<path d="m 88.810832,129.52512 c -1.414737,1.0833 -2.58657,2.66993 -3.355573,4.13854 -0.682769,0.29711 -1.235677,0.39943 -1.230377,-0.33556 -0.09838,-2.46388 -0.158945,-5.04122 0,-8.27708 0.397284,-1.61162 0.570288,-3.35081 1.087652,-4.02251 m 42.720886,0.85977 c -1.97218,1.73814 -3.40175,6.0973 -1.96138,9.75308 m 3.94281,-14.91937 c -3.82168,7.17372 -7.84903,5.70784 -10.86202,5.12563 m -6.92183,-6.10367 c 2.66422,1.33966 5.62329,2.85649 7.5137,7.35552 2.56955,2.01139 5.42126,6.8567 0.41095,13.82994 m -1.60455,-33.00126 c 0.28756,2.98468 3.88522,7.57677 7.91639,10.23396 3.74492,3.48745 6.35336,3.56543 9.08206,4.00421 m 6.89445,-8.90789 -3.55913,4.90368 c -2.69051,3.70692 -6.10009,6.39867 -7.5137,9.88646 -1.97124,4.86362 -4.16868,8.65037 -5.21661,14.91653 m -23.9997,-41.464396 c -2.10571,1.614759 -7.822285,4.245246 -8.758078,4.844276 0,0 -1.335358,0.72357 -2.834174,5.85365 -0.623873,2.13536 0.337171,6.66538 0.337171,6.66538 m 111.574751,97.05534 c -3.07111,-1.64134 -7.39266,-3.86172 -11.78465,-4.19186 m -51.80501,-75.37431 c 0,0 -6.79616,5.45856 -10.21309,6.59737 -1.04414,0.0265 -3.0558,-0.0358 -4.03347,0.1017 -3.03704,-1.06916 -7.81333,-3.97369 -10.74639,-6.06633 -3.6095,-2.57526 -6.93282,-4.48996 -10.12372,-5.6946 -2.06157,-7.09412 -7.323022,-11.9918 -13.121261,-12.45014 -3.311935,-0.26181 -5.660684,3.06617 -7.284378,5.96463 -1.490133,2.66004 -1.530803,14.43245 -1.423649,18.19107 -0.56396,4.31788 -1.423649,7.75098 -1.423649,7.75098 -1.93141,6.13448 15.481904,22.04575 17.241972,21.98747 1.220619,1.42365 3.299775,2.84729 6.010965,4.27094 6.16996,3.26885 11.44515,7.28337 16.13469,10.59828 1.46521,1.95651 4.92764,3.86515 6.96006,4.58731 3.50577,2.80537 4.8807,5.64052 10.63783,8.22554 l 14.67149,7.27642 c 4.31844,2.20662 17.40015,2.53093 26.10023,3.7964 2.8744,0.74996 8.87782,4.93159 10.91464,8.22553 l 3.48003,5.06186 4.58732,8.06734 c 2.18448,2.78696 4.35035,5.60185 6.32732,8.70008 1.9289,3.02289 3.20514,5.35426 4.7455,8.06735 1.2466,2.19568 2.32527,4.48703 3.63822,6.64369 1.61979,2.66068 3.64211,5.06526 5.22004,7.75098 1.80282,3.0685 3.10245,6.2393 5.22005,9.33281 M 88.640271,88.598524 c -0.07334,1.008888 0.09557,1.775518 0.654161,2.152472 4.443778,1.539336 7.926278,4.052213 11.669288,6.105039 5.3751,2.947932 10.86737,5.451215 16.96188,7.024165 0.74415,0.1464 2.33782,0.0183 4.03367,-1.18637 M 31.253092,48.124188 29.081633,49.438775 c -1.938901,2.442433 -3.013575,6.12531 -2.677482,9.462094 0.242997,2.41251 1.7617,5.591541 3.460449,6.756509 1.838714,2.892223 3.717373,5.225217 5.704474,6.040032 4.009468,5.007538 11.185231,5.583592 16.777865,7.38226 9.888504,2.62654 19.634297,6.375212 28.96978,9.954867 1.865203,0.668459 3.951125,0.748334 6.263736,0.223705 1.841921,-0.935818 2.24006,-1.960793 2.908164,-3.243721 M 152.1649,70.338107 c -0.51072,-2.078344 -2.75045,-3.518869 -5.63821,-5.016286 -7.32842,-3.276839 -18.65816,-6.545814 -27.85126,-10.178572 L 104.80573,49.66248 C 100.87293,48.10839 96.876573,45.414672 93.508634,43.846154 86.684162,38.087411 69.311243,36.240168 64.427002,35.121664 55.628058,33.443686 46.301051,29.551231 39.036499,28.746075 l -11.5208,-4.921507 c -12.356911,-3.450508 -9.968632,8.055426 -9.060047,10.737834 2.426161,4.522421 5.121389,7.875035 7.270408,8.500785 2.921357,5.532196 11.647387,7.445474 17.471081,9.993761 M 270.01877,217.29758 c -1.22814,-2.714 -2.63039,-5.31192 -4.7455,-7.43461 -2.05585,-4.27204 -4.67822,-6.73007 -6.32733,-10.4401 l -3.16366,-3.95458 -3.32185,-6.16914 c -1.59638,-4.73492 -2.88892,-8.69106 -9.96554,-13.76194 -3.39246,-2.13878 -8.55233,-5.0457 -10.17739,-6.41633 -0.65548,-1.52344 -1.71967,-3.2884 -3.35557,-5.03336 0,0 -2.38397,-2.26377 -3.35557,-3.57928 -1.0715,-1.45077 -1.69161,-3.19211 -2.68446,-4.6978 -1.26022,-1.91117 -4.13854,-5.48077 -4.13854,-5.48077 l -5.81633,-7.38226 c -1.63176,-2.19513 -3.31658,-3.96575 -4.80965,-7.27041 -1.36261,-1.68789 -3.06107,-2.92799 -4.02669,-5.14521 -0.87425,-2.25119 -1.7433,-4.51538 -2.90816,-6.04003 -1.71504,-2.46079 -4.01466,-6.22585 -5.25706,-7.32633 -1.73554,-1.53728 -2.98517,-2.97825 -4.2504,-4.53003 -1.71507,-2.68446 -3.7142,-6.81415 -5.14521,-8.05338 l -2.57261,-2.3489 c 0,0 -3.32226,-6.325274 -5.14521,-9.395601 -1.51537,-2.552282 -4.80965,-7.494113 -4.80965,-7.494113 -2.70197,-7.428759 -7.01405,-12.548904 -11.18525,-13.645996 -13.32104,-1.677787 -27.82315,-3.513757 -37.6615,-5.349726 -6.11077,-1.881615 -14.7254,-1.682793 -21.39658,-2.032535 C 96.78964,63.568398 89.780221,61.556637 82.770801,60.176609 74.262817,57.609914 65.344836,57.467575 56.709184,55.702512 53.23185,54.991771 47.799072,53.955122 43.197141,53.056948" style="fill:none;stroke:#000000;stroke-width:1.79999995;stroke-linecap:round;stroke-miterlimit:4;stroke-opacity:1;stroke-dasharray:none;display:inline" />
	<!-- 
	Generated using the Perl SVG Module V2.50
	by Ronan Oger
	Info: http://www.roitsystems.com/
 -->
</svg>