<?xml version="1.0" encoding="UTF-8" standalone="yes"?>
<!DOCTYPE svg PUBLIC "-//W3C//DTD SVG 1.0//EN" "http://www.w3.org/TR/2001/REC-SVG-20010904/DTD/svg10.dtd">
<svg height="285" style="background-color:white" width="285" xmlns="http://www.w3.org/2000/svg" xmlns:svg="http://www.w3.org/2000/svg" xmlns:xlink="http://www.w3.org/1999/xlink">
	<path d="m 68.210331,43.42857 c -0.150606,1.355451 -0.602423,3.012113 -1.355451,3.765141 M 127.74883,66.6779 c 0.85196,1.703909 1.06494,3.833795 1.06494,3.833795 M 98.888882,58.158358 c -1.17144,1.703909 -1.49092,3.620805 -1.38442,5.431208 0.10649,1.810403 0.31947,4.046783 0.31947,4.046783 m 45.899038,-8.20006 c -10.64942,3.620806 -13.63127,4.898737 -20.02092,5.111726 -6.38966,0.212989 -9.27036,-0.638966 -14.59507,-3.620806 -5.32471,-2.98184 -6.69405,-4.201492 -6.82515,-5.93255 m 58.48023,1.45979 c -7.56109,6.176669 -18.68875,9.130771 -20.07318,4.019044 m 14.32249,1.518659 c -5.53771,0 -16.82609,4.898737 -18.31702,7.241611 -1.49092,2.342874 -6.81563,3.833794 -9.15851,5.324715 -2.34287,1.49092 -7.19834,5.612137 -8.39141,7.598311 M 264.98895,213.64001 c -6.46513,-8.73253 -10.9379,-15.12219 -13.49376,-18.31701 -2.55586,-3.19484 -10.43644,-16.18714 -14.05725,-18.53002 -3.6208,-2.34287 -11.28839,-16.61311 -12.14034,-18.74298 -0.85196,-2.12989 -4.68575,-8.94553 -5.75069,-14.9092 -1.06495,-5.96369 -4.25977,-31.09633 -7.66759,-38.76393 -3.40782,-7.667577 -3.40782,-40.893798 -7.4546,-50.052307 -4.04678,-9.158508 -4.25978,-13.844256 -6.17667,-16.40012 -1.91689,-2.555862 -8.94553,-8.732531 -12.35334,-9.797473 -3.40781,-1.064944 -14.90919,0.638965 -17.67805,0.638965 -2.76885,0 -14.69621,-1.064942 -17.67805,-0.851954 -2.98184,0.212989 -16.61311,0.425977 -20.65989,-0.212988 -4.04679,-0.638967 -14.27024,-3.407818 -17.03909,-3.407818 -2.76885,0 -5.5377,1.277931 -6.60264,1.064943 -1.06495,-0.212989 -3.8338,-1.064943 -7.667588,-1.277931 -3.833799,-0.212989 -23.002767,2.768851 -24.706675,2.768851 -1.703909,0 -15.122189,0 -19.168972,0 -3.620806,0 -8.519543,1.703908 -10.43644,1.277932 -1.916896,-0.425977 -21.724834,-0.212989 -21.724834,-0.212989 -3.004388,2.768851 -3.131333,5.537703 -2.768851,8.306555 2.304074,7.446244 5.58748,9.606044 9.913772,12.498673 0,0 5.421405,-0.571314 6.273359,-0.358325 0.851954,0.212988 12.140349,2.342873 14.270235,2.342873 2.129885,0 15.761154,2.342875 17.678051,2.768852 1.916896,0.425977 9.584485,4.259772 18.317016,4.259772 8.732533,0 14.696207,-1.064943 16.826087,-3.407818 2.12989,-2.342873 1.70391,-6.389657 1.70391,-6.389657 m -64.247171,9.801201 c 2.409691,0.677726 9.03634,3.539233 10.241186,4.593473 1.204844,1.054239 2.751565,2.878074 2.334387,5.798318 -0.379526,2.656684 -3.765141,5.572409 -4.668776,7.756191 -0.903634,2.183783 -1.465892,3.677231 -1.465892,3.677231 M 25.89014,60.145798 c 1.204846,-1.280149 3.539233,-2.6356 4.216958,-2.786205 M 135.68166,83.188464 c -3.76514,0.602423 -6.32543,2.259085 -11.74724,0.451818 -5.4218,-1.807269 -11.59664,-3.16272 -14.30754,-5.271199 -2.71089,-2.10848 -9.939968,-6.325438 -11.596628,-8.132706 C 96.373592,68.42911 85.078165,59.693981 82.066052,58.489135 79.053938,57.284291 67.306697,54.121572 64.595795,53.519149 61.884893,52.916726 43.812214,50.205824 38.39041,49.603402 32.968607,49.000979 25.89014,48.097345 24.534689,49.000979 c -1.355451,0.903634 -6.476043,4.216958 -6.777255,9.337551 -0.301211,5.120592 1.05424,7.9821 4.51817,9.939973 3.463931,1.957874 8.377268,4.287435 15.512383,7.229072 6.8012,2.803972 10.391791,4.668776 10.391791,4.668776 3.063667,3.445394 7.539413,5.008016 11.747241,6.92786 0,0 4.216959,1.957874 7.078466,3.614536 2.861508,1.656663 8.132706,5.572406 11.144819,8.885736 3.012114,3.313317 8.885734,8.735117 10.09058,11.446027 1.204845,2.7109 7.078468,11.74724 8.584518,15.06056 1.50606,3.31332 4.969988,9.78937 6.626648,12.34967 1.65667,2.56029 4.36757,7.07846 6.92786,10.693 2.5603,3.61454 7.07847,9.93997 9.48816,11.74724 2.4097,1.80727 12.19906,9.33755 15.36177,10.84361 3.16273,1.50605 10.99422,5.2712 13.1027,7.37968 2.10848,2.10848 5.57241,6.32544 8.58452,9.93997 3.01211,3.61454 7.22907,10.24118 9.18695,13.85572 1.95787,3.61454 4.51817,7.8315 6.62665,10.39179 2.10847,2.5603 7.37968,10.84361 10.693,14.45814 3.31333,3.61454 6.62665,9.03635 9.78937,13.25331 3.16271,4.21696 9.18694,9.93997 11.14482,13.10269 1.95787,3.16272 5.72301,10.09057 6.62665,12.04845" style="fill:none;stroke:#000000;stroke-width:1.79999995;stroke-linecap:round;stroke-miterlimit:4;stroke-opacity:1;stroke-dasharray:none;display:inline" />
	<!-- 
	Generated using the Perl SVG Module V2.50
	by Ronan Oger
	Info: http://www.roitsystems.com/
 -->
</svg>