<?xml version="1.0" encoding="UTF-8" standalone="yes"?>
<!DOCTYPE svg PUBLIC "-//W3C//DTD SVG 1.0//EN" "http://www.w3.org/TR/2001/REC-SVG-20010904/DTD/svg10.dtd">
<svg height="285" style="background-color:white" width="285" xmlns="http://www.w3.org/2000/svg" xmlns:svg="http://www.w3.org/2000/svg" xmlns:xlink="http://www.w3.org/1999/xlink">
	<path d="m 273.81517,257.95067 c -4.42913,-3.95458 -7.11825,-7.75098 -8.06735,-9.33281 -0.9491,-1.58183 -3.63821,-6.80188 -5.22004,-9.80736 -1.58184,-3.00548 -5.22005,-9.01645 -6.6437,-12.97103 -1.42365,-3.95458 -3.16366,-8.70007 -5.22005,-11.70556 -2.05638,-3.00548 -3.63821,-4.74549 -5.69459,-6.80188 -2.05638,-2.05638 -7.27643,-6.01096 -9.96554,-8.54189 -2.68912,-2.53093 -10.28191,-10.44009 -13.12921,-15.66014 -2.8473,-5.22005 -4.90368,-13.92012 -6.01097,-20.722 -1.10728,-6.80188 -7.59279,-46.1895 -9.33281,-50.61863 -1.74001,-4.42914 -2.84729,-10.59828 -3.63821,-15.343778 -0.79092,-4.745497 -2.68911,-19.140171 -3.7964,-23.727484 -1.10728,-4.587314 -1.58183,-9.174628 -5.22004,-12.180109 -3.63822,-3.005481 -6.01097,-4.587314 -9.33281,-5.37823 -3.32185,-0.790916 -9.96555,0.158184 -12.65466,0.158184 -2.68912,0 -12.17784,0.605646 -16.92447,1.963746 M 98.094584,83.106358 c 6.263736,4.13854 7.906506,4.898627 9.954866,7.270408 2.1252,2.460754 4.49786,5.520163 4.49786,5.520163 M 95.792759,62.549816 c -6.893785,-0.271801 -7.684701,-0.429985 -8.791983,0.519115 -1.107283,0.949099 -5.220047,6.485512 -5.536413,8.383711 -0.316367,1.898199 -0.632733,5.536413 0,7.750978 0.632732,2.214565 2.372748,9.490994 2.689114,11.547376 0.316367,2.056382 1.740016,11.231004 1.898199,14.078304 0.158183,2.8473 1.265466,7.11825 2.372749,9.80736 1.107282,2.68912 0.77335,4.64528 2.205782,6.59359 M 135.30154,83.650777 c -2.19714,3.024424 -4.06022,5.400334 -6.33568,5.943022 -2.49917,2.332327 -5.03336,3.355573 -5.03336,3.355573 m 14.0934,-12.527473 c -4.02668,4.697803 -7.38226,7.941523 -9.50745,9.1719 -2.1252,1.230377 -7.04671,4.697802 -8.38894,6.599293 m -8.1097,-21.396789 c -1.44973,3.062759 -1.0622,9.093022 -0.83849,12.448595 0.2237,3.355573 1.78964,10.737833 1.78964,10.737833 0.59459,2.237049 0.86507,4.261199 1.02199,5.603429 m 0.8795,-1.01748 c -1.21242,1.21243 -1.53496,2.41776 -3.19193,2.41776 -2.9813,1.09926 -5.45538,5.96137 -6.53923,7.3134 -5.486986,2.8336 -7.825277,5.55534 -11.968213,8.38894 -2.878348,0.4948 -5.418352,1.29588 -9.242761,2.90241 m 9.359937,-68.448219 c 1.461501,5.948669 2.726967,8.400509 5.416081,11.959632 2.689116,3.559123 6.722786,7.276428 7.592796,7.592795 0.87001,0.316366 1.8982,1.028191 2.8473,1.028191 0.9491,0 2.68911,-0.395458 3.7173,-1.740016 1.02819,-1.344557 2.05639,-2.847298 2.61003,-3.321847 M 95.54267,44.561493 c -2.689115,5.85278 -1.581832,11.389192 -3.005481,12.654658 -1.42365,1.265466 -8.067345,3.005481 -10.914643,3.480031 -5.694596,0.9491 -11.030657,-0.171166 -11.030657,-0.171166 m -5.046363,-9.408454 c 2.404827,3.131868 4.884747,7.494386 5.033359,9.060047 0.185041,1.949453 -1.565934,2.796311 -1.565934,2.796311 -1.793629,4.722477 -3.328856,7.426159 -11.408948,9.731162 -3.914137,3.260345 -6.021681,4.703113 -10.879542,3.458154 m 128.548299,3.924106 c -1.78964,-3.914836 -5.47231,-7.605345 -7.60596,-8.836342 -2.33687,-1.348246 -6.94584,-6.426022 -9.50746,-9.1719 -2.58971,-2.77598 -7.82966,-6.823003 -9.84301,-9.171899 -1.19189,-1.390533 -5.99688,-5.761044 -9.87228,-9.698818 -2.67097,-2.713953 -5.17162,-5.110499 -6.01077,-6.29608 -2.08607,-2.947284 -11.34097,-14.273236 -11.85636,-13.75785 -0.62162,-1.08124 -1.95902,-2.16248 -3.46742,-3.24372 0,0 -2.46076,-2.348901 -4.58595,-3.467426 -2.1252,-1.118524 -8.38893,-1.565934 -10.73784,-0.782967 -2.348897,0.782967 -13.53414,3.914836 -16.777861,5.03336 -3.24372,1.118524 -8.948194,2.013344 -14.205259,4.362245 -5.257064,2.348901 -8.165227,3.355573 -8.165227,3.355573 -6.614855,1.635217 -8.569117,8.289533 -11.520801,13.869702 0,0 -3.579278,2.79631 -5.368917,5.145211 -1.789639,2.348902 -3.467425,5.03336 -3.467425,5.03336 0,0 -4.250393,5.033359 -5.816327,7.158556 -1.565934,2.125196 -3.76054,6.089951 -3.76054,6.089951 M 173.25942,89.929356 c -2.01334,1.454082 -4.66906,2.176538 -7.49411,2.237048 -1.58147,0.03387 -3.57928,10e-7 -4.69781,-0.559261 m 37.02316,35.680927 c -3.24372,-6.48744 -3.13634,-10.32067 -4.4741,-12.97488 -1.15897,-2.29948 -2.74641,-4.22172 -4.02669,-6.71115 -2.01334,-3.91483 -4.9215,-7.941522 -6.04003,-9.954866 -1.11852,-2.013344 -1.34222,-3.914835 -2.46075,-6.822998 M 25.309317,73.113566 c 1.97729,0 2.847298,2.847298 3.717305,4.033672 0.870008,1.186374 2.832007,3.885111 4.191856,8.304619 0.949099,3.084573 1.186374,4.745497 0.632733,5.694597 -0.553641,0.949099 -3.163665,2.610023 -5.220047,2.926389 -2.056382,0.316367 -3.290988,-0.07935 -4.769612,0.948969 m 6.825994,23.332158 c 0,0 -0.01545,-1.10176 0.9491,-1.74002 1.411642,-0.93409 2.814574,-1.78871 4.112763,-2.7682 0.582091,-0.43919 2.372749,-0.87001 2.689115,-0.87001 m 16.414834,-12.45796 c 0.961006,-1.863934 -0.286608,-11.595145 -1.387895,-13.384735 -0.894819,-1.454081 -5.257064,-7.941522 -5.257064,-7.941522 -0.991835,-3.157902 -2.95295,-5.258739 -6.487441,-6.711146 0,0 -6.377741,-8.295893 -13.981555,-7.382261 -3.323662,0.399353 -6.711146,0.782967 -8.724489,5.033359 -2.013344,4.250393 -2.348901,7.158556 -2.348901,7.158556 0.330327,3.232969 5.32248,11.559203 7.158555,15.994898 0.274919,6.054671 -1.073819,14.112211 -1.049337,16.320901 0.02911,2.62623 0.63022,5.88873 1.504324,8.16721 0.862994,2.24952 2.796311,5.24949 4.130963,7.50169 1.212322,2.04578 8.875219,8.56996 8.875219,8.56996 l 8.647725,9.05346 c 1.199739,2.46874 2.720855,4.68467 4.73569,6.64855 0,0.0876 3.432338,7.38412 6.116797,11.73973 2.83887,4.60614 9.766249,12.53225 12.227002,14.7693 2.460754,2.23705 9.843015,10.51413 13.086735,11.63265 3.243721,1.11853 4.697802,1.56594 7.717818,3.57928 3.020016,2.01334 11.185246,6.26374 14.988226,8.72449 3.80298,2.46075 12.30377,7.0467 15.77119,9.1719 3.46743,2.1252 10.29043,5.59262 12.75118,8.16523 2.46075,2.5726 7.5633,8.72449 9.9122,12.30377 2.3489,3.57927 3.603,5.42772 6.22585,8.62499 2.5588,3.11919 5.78503,6.02767 5.78503,6.02767 2.03221,3.59711 3.84355,7.1786 6.83436,9.68471 2.06057,6.7279 5.07451,8.41416 9.83165,9.77762 l 4.56321,7.66 M 97.870879,127.17622 c -3.020015,0.78296 -5.145212,1.67778 -7.38226,0.2237 -2.237049,-1.45408 -4.13854,-1.34223 -5.928179,-3.13187 -1.789639,-1.78964 -4.379986,-5.69219 -5.704475,-7.60596 -0.969539,-1.40091 -4.546002,-4.46346 -7.717817,-5.03336 -1.430413,-2.35585 -4.697803,-6.5993 -10.290424,-8.38893 -5.592622,-1.78964 -6.151884,-2.90817 -6.151884,-2.90817 l -1.301344,-1.402391 c 1.381078,-0.02597 1.534252,-1.391477 1.751318,-2.687279" style="fill:none;stroke:#000000;stroke-width:1.79999995;stroke-linecap:round;stroke-miterlimit:4;stroke-opacity:1;stroke-dasharray:none;display:inline" />
	<!-- 
	Generated using the Perl SVG Module V2.50
	by Ronan Oger
	Info: http://www.roitsystems.com/
 -->
</svg>