<?xml version="1.0" encoding="UTF-8" standalone="yes"?>
<!DOCTYPE svg PUBLIC "-//W3C//DTD SVG 1.0//EN" "http://www.w3.org/TR/2001/REC-SVG-20010904/DTD/svg10.dtd">
<svg height="285" style="background-color:white" width="285" xmlns="http://www.w3.org/2000/svg" xmlns:svg="http://www.w3.org/2000/svg" xmlns:xlink="http://www.w3.org/1999/xlink">
	<path d="m 88.475275,93.732339 c 1.118524,-1.677786 3.69113,-2.908163 4.474097,-3.802983 0.782967,-0.894819 4.474098,-4.362244 5.03336,-5.928179 M 83.66562,67.11146 c 2.460754,3.802983 4.697803,7.046703 5.704475,7.82967 1.006671,0.782967 4.362244,2.572606 5.257064,2.684459 0.894819,0.111852 3.267362,-1.130628 3.267362,-1.130628 M 98.326229,70.067 c -0.902759,2.637082 -0.45535,7.334884 -0.119792,8.453408 0.335557,1.118525 2.572603,5.257065 4.138543,6.263736 1.56593,1.006672 2.71954,3.91713 6.00164,4.922655 M 69.720443,70.926665 c 0.485771,7.209983 3.333069,15.277328 4.123985,17.966443 0.790916,2.689115 1.581832,4.745497 2.689115,6.485512 1.107282,1.740016 4.146848,9.2829 8.163478,9.78241 M 112.12477,88.260375 c -4.7455,1.423649 -10.12373,4.745497 -12.02193,6.643695 -1.898195,1.898199 -7.118241,2.689115 -10.914639,6.48551 -3.796397,3.7964 -5.37823,4.11277 -8.700077,6.6437 -3.321848,2.53093 -2.659654,3.87881 -9.080806,4.15397 M 68.438443,60.279672 c 2.875053,1.564104 4.298702,1.247737 7.146,0.615004 2.847299,-0.632733 5.980504,-2.692357 9.475765,-3.323469 m 1.280695,-15.658518 c -2.053031,3.792865 -1.740016,7.592795 -1.581833,10.440093 0.158183,2.847298 1e-6,7.118245 1.581833,8.858261 1.581832,1.740015 7.750978,10.123726 12.971025,8.700077 M 262.87338,213.85787 c -3.16366,-1.8982 -14.55285,-10.28191 -16.45105,-11.07283 -1.8982,-0.79092 -11.54738,-9.49099 -13.28739,-10.59828 -1.74002,-1.10728 -12.81284,-12.18011 -14.23649,-15.02741 -1.42365,-2.8473 -5.6946,-9.01644 -8.22553,-12.33829 -2.53093,-3.32185 -12.65466,-13.44557 -15.02741,-15.50196 -2.37274,-2.05638 -7.11824,-7.59279 -9.96554,-9.64917 -2.8473,-2.05638 -3.7964,-11.23101 -4.7455,-17.40016 -0.9491,-6.16914 -0.79091,-8.06734 -3.16366,-19.29836 -2.37275,-11.231004 -4.91836,-33.850637 -7.36286,-36.065486 m -0.38812,28.314513 c 0.15818,-5.37823 0.15818,-15.818323 0.31637,-23.252935 0.15818,-7.434611 0.15818,-11.705559 -1.10729,-14.552857 -1.26546,-2.847298 -5.22004,-9.33281 -9.64917,-11.072826 -4.42913,-1.740015 -22.6202,-2.372748 -24.83477,-2.372748 -2.21456,0 -10.895,1.434732 -10.895,1.434732 m 56.90356,120.361507 c -5.25706,3.46743 -4.36224,4.13854 -10.84968,5.81633 -6.48744,1.67778 -9.50746,4.02668 -20.91641,3.91483 M 74.160794,140.46084 c -2.214565,2.92639 -3.163665,3.87549 -4.350039,5.14095 -1.186374,1.26547 -1.423648,2.68912 -1.50274,3.24277 M 27.79533,99.101256 c -0.838893,0.615188 -1.677787,1.062594 -2.292975,1.286304 -0.615188,0.2237 -2.348901,0.39148 -2.740385,0.33556 m 9.060048,-20.189368 c -1.174451,1.230377 -2.013344,1.677786 -2.96409,2.013344 -0.950746,0.335557 -2.51668,1.342229 -2.908163,1.62186 M 29.41719,65.713304 c 1.398156,0.44741 2.51668,1.957418 2.908164,2.796311 0.391483,0.838894 1.845565,6.431515 1.733712,7.158556 m 11.871006,-3.168422 c -0.865924,-6.745336 -12.122409,-11.996418 -15.36746,-11.9037 -4.005164,0.114437 -7.029522,3.633528 -7.396716,6.038135 -0.238275,1.560369 1.346525,22.048107 0.90572,25.133741 -0.22643,1.58501 -2.96954,7.183854 -3.271447,8.316005 -0.301907,1.13215 -0.804294,7.9946 1.14216,10.36915 0.728804,0.8891 6.054076,7.12788 6.808843,8.18455 0.754766,1.05668 4.842889,7.52291 5.97504,8.88149 1.13215,1.35858 8.139102,10.21412 8.893869,11.19531 0.754767,0.9812 6.641949,7.09481 7.7741,8.60435 1.13215,1.50953 4.453125,6.03813 6.340042,7.39671 1.886918,1.35858 5.660753,3.47193 7.32124,4.15122 1.660487,0.67929 13.434852,4.83051 15.095339,5.43432 1.660488,0.60382 26.794228,11.17056 28.228288,11.77437 1.43405,0.60381 9.28363,5.13241 11.09507,6.34004 1.81144,1.20763 6.60362,4.91718 8.18863,6.87958 1.58502,1.96239 7.13314,6.93266 9.32197,9.27244 2.18882,2.33977 10.41578,10.0384 11.92531,11.39698 1.50954,1.35858 9.40605,9.18384 10.68693,10.67821 1.28088,1.49436 8.64596,9.60661 9.92684,12.16838 1.28088,2.56176 4.37634,8.59585 6.08419,10.19695 1.70784,1.60111 4.2696,5.06689 5.65723,7.62865 1.38762,2.56177 3.41568,6.61789 4.8033,8.7527 M 50.508549,97.144267 c 3.095465,-0.640441 5.016788,-3.732099 5.016788,-5.230268 0,-4.24671 -2.60927,-6.92141 -3.656826,-7.784918 m 42.403508,23.048769 c -5.337009,3.52242 -9.179655,5.87071 -12.702081,6.51115 -3.522425,0.64044 -6.084189,1.0674 -8.432473,-0.42696 -2.348284,-1.49437 -5.016788,-2.88199 -5.870709,-4.80331 -0.853922,-1.92133 -5.016788,-10.140321 -12.4886,-10.567282 M 147.32188,63.200893 c -2.6685,-2.988724 -6.40441,-4.910047 -8.53921,-6.084189 -2.1348,-1.174142 -6.19092,-3.629171 -8.64595,-6.40441 -1.39134,-1.572818 -4.76744,-3.975817 -7.55043,-6.365552 -2.12761,-1.826965 -3.90856,-3.867948 -4.19099,-4.201725 -1.17414,-1.387627 -2.24155,-2.881985 -3.94939,-4.589827 -1.70784,-1.707843 -5.65723,-4.589828 -7.36507,-6.08419 -1.70784,-1.494362 -5.55049,-4.056126 -7.898774,-5.443749 -2.348283,-1.387622 -5.763969,-2.988724 -8.218993,-2.988724 -2.455024,0 -8.859434,4.056126 -10.033576,4.589827 -1.174141,0.533701 -5.657229,2.028063 -8.218993,4.269607 -2.561764,2.241543 -6.084189,4.589827 -8.752693,6.084189 -2.668505,1.494363 -5.87071,3.415686 -7.471812,4.696568 -1.601103,1.280882 -5.657229,5.016788 -6.617891,7.044851 -0.960661,2.028063 -2.988724,11.954899 -3.629165,15.904285 -0.640442,3.949386 -0.770026,13.906099 1.707843,16.544726 1.659016,1.76665 4.392591,5.244923 7.258331,5.550489 5.025335,0.535838 8.337938,-6.294619 8.325733,-6.29767 0,0 6.72463,-6.430549 6.72463,-10.994238 0,-3.737429 0.320221,-6.404409 -2.455023,-8.752693 -2.775245,-2.348284 -6.511151,-6.08419 -6.511151,-6.08419 m 99.695314,43.549989 c 0.21348,-2.561764 -0.10674,-3.735906 -0.64044,-6.938111 -0.5337,-3.202205 -2.45502,-14.943623 -3.7359,-16.971687 -1.28088,-2.028063 -3.30895,-4.910047 -3.94939,-5.230268" style="fill:none;stroke:#000000;stroke-width:1.79999995;stroke-linecap:round;stroke-miterlimit:4;stroke-opacity:1;stroke-dasharray:none;display:inline" />
	<!-- 
	Generated using the Perl SVG Module V2.50
	by Ronan Oger
	Info: http://www.roitsystems.com/
 -->
</svg>